<svg width="242" height="273" viewBox="0 0 242 273" fill="none" xmlns="http://www.w3.org/2000/svg">
<rect width="238" height="270" transform="translate(0.531738)" fill="#D59FFF"/>
<path d="M33.979 37L32.789 41.312L31.515 37H29.807L28.533 41.298L27.343 37H25.425L27.651 44H29.373L30.661 39.758L31.949 44H33.671L35.897 37H33.979ZM37.9664 36.16C38.5824 36.16 39.0864 35.656 39.0864 35.054C39.0864 34.452 38.5824 33.934 37.9664 33.934C37.3644 33.934 36.8604 34.452 36.8604 35.054C36.8604 35.656 37.3644 36.16 37.9664 36.16ZM37.0704 44H38.8764V37H37.0704V44ZM40.7294 44H42.5354V33.78H40.7294V44ZM44.3884 44H46.1944V33.78H44.3884V44ZM55.7514 38.736V37H54.1694V35.04L52.3634 35.586V37H51.1454V38.736H52.3634V41.648C52.3634 43.538 53.2174 44.28 55.7514 44V42.362C54.7154 42.418 54.1694 42.404 54.1694 41.648V38.736H55.7514ZM61.1167 36.804C60.1787 36.804 59.4507 37.154 59.0307 37.784V34.2H57.2247V44H59.0307V40.22C59.0307 39.002 59.6887 38.484 60.5707 38.484C61.3827 38.484 61.9567 38.974 61.9567 39.926V44H63.7627V39.702C63.7627 37.84 62.6007 36.804 61.1167 36.804ZM67.0308 41.242H72.3088C72.3508 41.004 72.3788 40.766 72.3788 40.5C72.3788 38.442 70.9088 36.804 68.8368 36.804C66.6388 36.804 65.1408 38.414 65.1408 40.5C65.1408 42.586 66.6248 44.196 68.9768 44.196C70.3208 44.196 71.3708 43.65 72.0288 42.698L70.5728 41.858C70.2648 42.264 69.7048 42.558 69.0048 42.558C68.0528 42.558 67.2828 42.166 67.0308 41.242ZM67.0028 39.842C67.2128 38.946 67.8708 38.428 68.8368 38.428C69.5928 38.428 70.3488 38.834 70.5728 39.842H67.0028ZM75.6456 38.204V37H73.8396V44H75.6456V40.654C75.6456 39.184 76.8356 38.764 77.7736 38.876V36.86C76.8916 36.86 76.0096 37.252 75.6456 38.204ZM80.296 41.242H85.574C85.616 41.004 85.644 40.766 85.644 40.5C85.644 38.442 84.174 36.804 82.102 36.804C79.904 36.804 78.406 38.414 78.406 40.5C78.406 42.586 79.89 44.196 82.242 44.196C83.586 44.196 84.636 43.65 85.294 42.698L83.838 41.858C83.53 42.264 82.97 42.558 82.27 42.558C81.318 42.558 80.548 42.166 80.296 41.242ZM80.268 39.842C80.478 38.946 81.136 38.428 82.102 38.428C82.858 38.428 83.614 38.834 83.838 39.842H80.268ZM94.8788 36.804C93.8568 36.804 93.1148 37.182 92.6108 37.826V34.2H90.8048V44H92.6108V43.174C93.1148 43.818 93.8568 44.196 94.8788 44.196C96.7548 44.196 98.2948 42.586 98.2948 40.5C98.2948 38.414 96.7548 36.804 94.8788 36.804ZM94.5428 42.474C93.4368 42.474 92.6108 41.676 92.6108 40.5C92.6108 39.324 93.4368 38.526 94.5428 38.526C95.6628 38.526 96.4888 39.324 96.4888 40.5C96.4888 41.676 95.6628 42.474 94.5428 42.474ZM101.294 41.242H106.572C106.614 41.004 106.642 40.766 106.642 40.5C106.642 38.442 105.172 36.804 103.1 36.804C100.902 36.804 99.4045 38.414 99.4045 40.5C99.4045 42.586 100.888 44.196 103.24 44.196C104.584 44.196 105.634 43.65 106.292 42.698L104.836 41.858C104.528 42.264 103.968 42.558 103.268 42.558C102.316 42.558 101.546 42.166 101.294 41.242ZM101.266 39.842C101.476 38.946 102.134 38.428 103.1 38.428C103.856 38.428 104.612 38.834 104.836 39.842H101.266ZM117.123 37V37.826C116.619 37.196 115.863 36.804 114.841 36.804C112.979 36.804 111.439 38.414 111.439 40.5C111.439 42.586 112.979 44.196 114.841 44.196C115.863 44.196 116.619 43.804 117.123 43.174V44H118.929V37H117.123ZM115.177 42.474C114.071 42.474 113.245 41.676 113.245 40.5C113.245 39.324 114.071 38.526 115.177 38.526C116.297 38.526 117.123 39.324 117.123 40.5C117.123 41.676 116.297 42.474 115.177 42.474ZM128.541 36.804C127.519 36.804 126.777 37.182 126.273 37.826V37H124.467V46.8H126.273V43.174C126.777 43.818 127.519 44.196 128.541 44.196C130.417 44.196 131.957 42.586 131.957 40.5C131.957 38.414 130.417 36.804 128.541 36.804ZM128.205 42.474C127.099 42.474 126.273 41.676 126.273 40.5C126.273 39.324 127.099 38.526 128.205 38.526C129.325 38.526 130.151 39.324 130.151 40.5C130.151 41.676 129.325 42.474 128.205 42.474ZM134.957 41.242H140.235C140.277 41.004 140.305 40.766 140.305 40.5C140.305 38.442 138.835 36.804 136.763 36.804C134.565 36.804 133.067 38.414 133.067 40.5C133.067 42.586 134.551 44.196 136.903 44.196C138.247 44.196 139.297 43.65 139.955 42.698L138.499 41.858C138.191 42.264 137.631 42.558 136.931 42.558C135.979 42.558 135.209 42.166 134.957 41.242ZM134.929 39.842C135.139 38.946 135.797 38.428 136.763 38.428C137.519 38.428 138.275 38.834 138.499 39.842H134.929ZM145.657 36.804C144.719 36.804 143.991 37.154 143.571 37.784V37H141.765V44H143.571V40.22C143.571 39.002 144.229 38.484 145.111 38.484C145.923 38.484 146.497 38.974 146.497 39.926V44H148.303V39.702C148.303 37.84 147.141 36.804 145.657 36.804ZM155.365 37V37.826C154.861 37.196 154.105 36.804 153.083 36.804C151.221 36.804 149.681 38.414 149.681 40.5C149.681 42.586 151.221 44.196 153.083 44.196C154.105 44.196 154.861 43.804 155.365 43.174V44H157.171V37H155.365ZM153.419 42.474C152.313 42.474 151.487 41.676 151.487 40.5C151.487 39.324 152.313 38.526 153.419 38.526C154.539 38.526 155.365 39.324 155.365 40.5C155.365 41.676 154.539 42.474 153.419 42.474ZM159.009 44H160.815V33.78H159.009V44ZM166.672 38.736V37H165.09V35.04L163.284 35.586V37H162.066V38.736H163.284V41.648C163.284 43.538 164.138 44.28 166.672 44V42.362C165.636 42.418 165.09 42.404 165.09 41.648V38.736H166.672ZM172.86 37L171.306 41.704L169.486 37H167.512L170.382 43.776C170.046 44.714 169.542 45.134 168.548 45.12V46.8C170.326 46.898 171.516 46.016 172.244 44L174.792 37H172.86ZM180.447 36.16C181.063 36.16 181.567 35.656 181.567 35.054C181.567 34.452 181.063 33.934 180.447 33.934C179.845 33.934 179.341 34.452 179.341 35.054C179.341 35.656 179.845 36.16 180.447 36.16ZM179.551 44H181.357V37H179.551V44ZM187.102 36.804C186.164 36.804 185.436 37.154 185.016 37.784V37H183.21V44H185.016V40.22C185.016 39.002 185.674 38.484 186.556 38.484C187.368 38.484 187.942 38.974 187.942 39.926V44H189.748V39.702C189.748 37.84 188.586 36.804 187.102 36.804ZM199.194 38.736V37H197.612V35.04L195.806 35.586V37H194.588V38.736H195.806V41.648C195.806 43.538 196.66 44.28 199.194 44V42.362C198.158 42.418 197.612 42.404 197.612 41.648V38.736H199.194ZM204.56 36.804C203.622 36.804 202.894 37.154 202.474 37.784V34.2H200.668V44H202.474V40.22C202.474 39.002 203.132 38.484 204.014 38.484C204.826 38.484 205.4 38.974 205.4 39.926V44H207.206V39.702C207.206 37.84 206.044 36.804 204.56 36.804ZM210.474 41.242H215.752C215.794 41.004 215.822 40.766 215.822 40.5C215.822 38.442 214.352 36.804 212.28 36.804C210.082 36.804 208.584 38.414 208.584 40.5C208.584 42.586 210.068 44.196 212.42 44.196C213.764 44.196 214.814 43.65 215.472 42.698L214.016 41.858C213.708 42.264 213.148 42.558 212.448 42.558C211.496 42.558 210.726 42.166 210.474 41.242ZM210.446 39.842C210.656 38.946 211.314 38.428 212.28 38.428C213.036 38.428 213.792 38.834 214.016 39.842H210.446ZM28.113 60.152V57.954H31.823V56.134H28.113V54.048H32.173V52.2H26.181V62H32.243V60.152H28.113ZM37.6128 54.804C36.6748 54.804 35.9468 55.154 35.5268 55.784V55H33.7208V62H35.5268V58.22C35.5268 57.002 36.1848 56.484 37.0668 56.484C37.8788 56.484 38.4528 56.974 38.4528 57.926V62H40.2588V57.702C40.2588 55.84 39.0968 54.804 37.6128 54.804ZM47.3629 55V55.868C46.8729 55.21 46.1169 54.804 45.1229 54.804C43.1349 54.804 41.6369 56.428 41.6369 58.388C41.6369 60.362 43.1349 61.972 45.1229 61.972C46.1169 61.972 46.8729 61.566 47.3629 60.908V61.664C47.3629 62.77 46.6629 63.386 45.5289 63.386C44.4509 63.386 43.9889 62.952 43.6949 62.406L42.1549 63.288C42.7709 64.422 43.9749 64.996 45.4729 64.996C47.3209 64.996 49.1269 63.96 49.1269 61.664V55H47.3629ZM45.4029 60.306C44.2689 60.306 43.4429 59.508 43.4429 58.388C43.4429 57.282 44.2689 56.484 45.4029 56.484C46.5369 56.484 47.3629 57.282 47.3629 58.388C47.3629 59.508 46.5369 60.306 45.4029 60.306ZM50.9646 62H52.7706V51.78H50.9646V62ZM59.9436 55V55.826C59.4396 55.196 58.6836 54.804 57.6616 54.804C55.7996 54.804 54.2596 56.414 54.2596 58.5C54.2596 60.586 55.7996 62.196 57.6616 62.196C58.6836 62.196 59.4396 61.804 59.9436 61.174V62H61.7496V55H59.9436ZM57.9976 60.474C56.8916 60.474 56.0656 59.676 56.0656 58.5C56.0656 57.324 56.8916 56.526 57.9976 56.526C59.1176 56.526 59.9436 57.324 59.9436 58.5C59.9436 59.676 59.1176 60.474 57.9976 60.474ZM67.4792 54.804C66.5412 54.804 65.8132 55.154 65.3932 55.784V55H63.5872V62H65.3932V58.22C65.3932 57.002 66.0512 56.484 66.9332 56.484C67.7452 56.484 68.3192 56.974 68.3192 57.926V62H70.1252V57.702C70.1252 55.84 68.9632 54.804 67.4792 54.804ZM77.1733 52.2V55.826C76.6693 55.182 75.9273 54.804 74.9053 54.804C73.0293 54.804 71.4893 56.414 71.4893 58.5C71.4893 60.586 73.0293 62.196 74.9053 62.196C75.9273 62.196 76.6693 61.818 77.1733 61.174V62H78.9793V52.2H77.1733ZM75.2413 60.474C74.1213 60.474 73.2953 59.676 73.2953 58.5C73.2953 57.324 74.1213 56.526 75.2413 56.526C76.3473 56.526 77.1733 57.324 77.1733 58.5C77.1733 59.676 76.3473 60.474 75.2413 60.474ZM89.137 55L87.429 59.9L85.735 55H83.747L86.407 62H88.465L91.125 55H89.137ZM93.4243 56.988C93.4243 56.61 93.7883 56.414 94.2363 56.414C94.7543 56.414 95.1463 56.68 95.3563 57.128L96.8963 56.288C96.3503 55.322 95.3703 54.804 94.2363 54.804C92.7943 54.804 91.5763 55.602 91.5763 57.03C91.5763 59.494 95.1883 58.934 95.1883 59.956C95.1883 60.362 94.7963 60.558 94.2223 60.558C93.5223 60.558 93.0463 60.222 92.8503 59.648L91.2823 60.53C91.7863 61.608 92.8223 62.196 94.2223 62.196C95.7203 62.196 97.0363 61.468 97.0363 59.956C97.0363 57.38 93.4243 58.024 93.4243 56.988ZM102.25 52.2V62H104.182V52.2H102.25ZM110.116 56.736V55H108.534V53.04L106.728 53.586V55H105.51V56.736H106.728V59.648C106.728 61.538 107.582 62.28 110.116 62V60.362C109.08 60.418 108.534 60.404 108.534 59.648V56.736H110.116ZM116.691 55V55.826C116.187 55.196 115.431 54.804 114.409 54.804C112.547 54.804 111.007 56.414 111.007 58.5C111.007 60.586 112.547 62.196 114.409 62.196C115.431 62.196 116.187 61.804 116.691 61.174V62H118.497V55H116.691ZM114.745 60.474C113.639 60.474 112.813 59.676 112.813 58.5C112.813 57.324 113.639 56.526 114.745 56.526C115.865 56.526 116.691 57.324 116.691 58.5C116.691 59.676 115.865 60.474 114.745 60.474ZM120.334 62H122.14V51.78H120.334V62ZM128.557 55L127.003 59.704L125.183 55H123.209L126.079 61.776C125.743 62.714 125.239 63.134 124.245 63.12V64.8C126.023 64.898 127.213 64.016 127.941 62L130.489 55H128.557ZM142.991 54.804C142.039 54.804 141.339 55.182 140.905 55.812C140.513 55.168 139.869 54.804 139.001 54.804C138.105 54.804 137.447 55.154 137.055 55.742V55H135.249V62H137.055V58.066C137.055 57.016 137.601 56.484 138.371 56.484C139.127 56.484 139.547 56.988 139.547 57.814V62H141.353V58.066C141.353 57.016 141.857 56.484 142.655 56.484C143.411 56.484 143.831 56.988 143.831 57.814V62H145.637V57.688C145.637 55.938 144.587 54.804 142.991 54.804ZM152.691 55V55.826C152.187 55.196 151.431 54.804 150.409 54.804C148.547 54.804 147.007 56.414 147.007 58.5C147.007 60.586 148.547 62.196 150.409 62.196C151.431 62.196 152.187 61.804 152.691 61.174V62H154.497V55H152.691ZM150.745 60.474C149.639 60.474 148.813 59.676 148.813 58.5C148.813 57.324 149.639 56.526 150.745 56.526C151.865 56.526 152.691 57.324 152.691 58.5C152.691 59.676 151.865 60.474 150.745 60.474ZM160.338 56.736V55H158.756V53.04L156.95 53.586V55H155.732V56.736H156.95V59.648C156.95 61.538 157.804 62.28 160.338 62V60.362C159.302 60.418 158.756 60.404 158.756 59.648V56.736H160.338ZM164.925 62.196C166.297 62.196 167.487 61.468 168.089 60.376L166.521 59.48C166.241 60.054 165.639 60.404 164.911 60.404C163.833 60.404 163.035 59.606 163.035 58.5C163.035 57.38 163.833 56.582 164.911 56.582C165.625 56.582 166.227 56.946 166.507 57.52L168.061 56.61C167.487 55.532 166.297 54.804 164.925 54.804C162.797 54.804 161.229 56.414 161.229 58.5C161.229 60.586 162.797 62.196 164.925 62.196ZM173.136 54.804C172.198 54.804 171.47 55.154 171.05 55.784V52.2H169.244V62H171.05V58.22C171.05 57.002 171.708 56.484 172.59 56.484C173.402 56.484 173.976 56.974 173.976 57.926V62H175.782V57.702C175.782 55.84 174.62 54.804 173.136 54.804ZM178.758 58.71H180.69C180.69 57.478 183.042 56.862 183.042 54.762C183.042 52.956 181.488 52.004 179.906 52.004C178.422 52.004 177.092 52.76 176.518 54.174L178.17 55.126C178.464 54.37 179.01 53.88 179.836 53.88C180.648 53.88 181.11 54.258 181.11 54.902C181.11 56.288 178.758 56.862 178.758 58.71ZM179.724 62.182C180.382 62.182 180.914 61.65 180.914 60.992C180.914 60.334 180.382 59.802 179.724 59.802C179.066 59.802 178.534 60.334 178.534 60.992C178.534 61.65 179.066 62.182 179.724 62.182Z" fill="#121212"/>
<rect x="19.5317" y="82.5" width="204" height="32" fill="#FFCB45"/>
<mask id="path-3-inside-1_288_3063" fill="white">
<path fill-rule="evenodd" clip-rule="evenodd" d="M39.7485 92.1152H34.7485L39.0523 98.4999L34.7489 104.884H39.7489L44.0498 98.5036H44.0548L44.0523 98.4999L44.0552 98.4956H44.0494L39.7485 92.1152Z"/>
</mask>
<path fill-rule="evenodd" clip-rule="evenodd" d="M39.7485 92.1152H34.7485L39.0523 98.4999L34.7489 104.884H39.7489L44.0498 98.5036H44.0548L44.0523 98.4999L44.0552 98.4956H44.0494L39.7485 92.1152Z" fill="white"/>
<path d="M34.7485 92.1152V91.7152H33.9965L34.4169 92.3388L34.7485 92.1152ZM39.7485 92.1152L40.0802 91.8917L39.9613 91.7152H39.7485V92.1152ZM39.0523 98.4999L39.384 98.7235L39.5347 98.4999L39.384 98.2763L39.0523 98.4999ZM34.7489 104.884L34.4173 104.66L33.9969 105.284H34.7489V104.884ZM39.7489 104.884V105.284H39.9617L40.0806 105.108L39.7489 104.884ZM44.0498 98.5036V98.1036H43.837L43.7181 98.28L44.0498 98.5036ZM44.0548 98.5036V98.9036H44.8067L44.3865 98.28L44.0548 98.5036ZM44.0523 98.4999L43.7206 98.2763L43.5699 98.4999L43.7206 98.7235L44.0523 98.4999ZM44.0552 98.4956L44.3869 98.7192L44.8071 98.0956H44.0552V98.4956ZM44.0494 98.4956L43.7177 98.7192L43.8366 98.8956H44.0494V98.4956ZM34.7485 92.5152H39.7485V91.7152H34.7485V92.5152ZM39.384 98.2763L35.0802 91.8917L34.4169 92.3388L38.7206 98.7235L39.384 98.2763ZM38.7206 98.2763L34.4173 104.66L35.0806 105.108L39.384 98.7235L38.7206 98.2763ZM34.7489 105.284H39.7489V104.484H34.7489V105.284ZM40.0806 105.108L44.3815 98.7272L43.7181 98.28L39.4173 104.66L40.0806 105.108ZM44.0548 98.1036H44.0498V98.9036H44.0548V98.1036ZM43.7206 98.7235L43.7231 98.7272L44.3865 98.28L44.384 98.2763L43.7206 98.7235ZM44.384 98.7235L44.3869 98.7192L43.7235 98.272L43.7206 98.2763L44.384 98.7235ZM44.0552 98.0956H44.0494V98.8956H44.0552V98.0956ZM39.4169 92.3388L43.7177 98.7192L44.3811 98.272L40.0802 91.8917L39.4169 92.3388Z" fill="#0D0D0D" mask="url(#path-3-inside-1_288_3063)"/>
<mask id="path-5-inside-2_288_3063" fill="white">
<path fill-rule="evenodd" clip-rule="evenodd" d="M32.0317 92.1152H27.0317L31.3355 98.4999L27.0321 104.884H32.0321L36.333 98.5036H36.338L36.3355 98.4999L36.3384 98.4956H36.3326L32.0317 92.1152Z"/>
</mask>
<path fill-rule="evenodd" clip-rule="evenodd" d="M32.0317 92.1152H27.0317L31.3355 98.4999L27.0321 104.884H32.0321L36.333 98.5036H36.338L36.3355 98.4999L36.3384 98.4956H36.3326L32.0317 92.1152Z" fill="white"/>
<path d="M27.0317 92.1152V91.7152H26.2797L26.7001 92.3388L27.0317 92.1152ZM32.0317 92.1152L32.3634 91.8917L32.2445 91.7152H32.0317V92.1152ZM31.3355 98.4999L31.6672 98.7235L31.8179 98.4999L31.6672 98.2763L31.3355 98.4999ZM27.0321 104.884L26.7005 104.66L26.2801 105.284H27.0321V104.884ZM32.0321 104.884V105.284H32.2449L32.3638 105.108L32.0321 104.884ZM36.333 98.5036V98.1036H36.1202L36.0013 98.28L36.333 98.5036ZM36.338 98.5036V98.9036H37.0899L36.6697 98.28L36.338 98.5036ZM36.3355 98.4999L36.0038 98.2763L35.8531 98.4999L36.0038 98.7235L36.3355 98.4999ZM36.3384 98.4956L36.6701 98.7192L37.0903 98.0956H36.3384V98.4956ZM36.3326 98.4956L36.0009 98.7192L36.1198 98.8956H36.3326V98.4956ZM27.0317 92.5152H32.0317V91.7152H27.0317V92.5152ZM31.6672 98.2763L27.3634 91.8917L26.7001 92.3388L31.0038 98.7235L31.6672 98.2763ZM31.0038 98.2763L26.7005 104.66L27.3638 105.108L31.6672 98.7235L31.0038 98.2763ZM27.0321 105.284H32.0321V104.484H27.0321V105.284ZM32.3638 105.108L36.6647 98.7272L36.0013 98.28L31.7005 104.66L32.3638 105.108ZM36.338 98.1036H36.333V98.9036H36.338V98.1036ZM36.0038 98.7235L36.0063 98.7272L36.6697 98.28L36.6672 98.2763L36.0038 98.7235ZM36.6672 98.7235L36.6701 98.7192L36.0067 98.272L36.0038 98.2763L36.6672 98.7235ZM36.3384 98.0956H36.3326V98.8956H36.3384V98.0956ZM31.7001 92.3388L36.0009 98.7192L36.6643 98.272L32.3634 91.8917L31.7001 92.3388Z" fill="#0D0D0D" mask="url(#path-5-inside-2_288_3063)"/>
<path d="M117.097 96.5L115.513 100.812L113.643 96.5H112.62L115.018 101.978L114.919 102.187C114.633 102.913 114.171 103.364 113.434 103.309V104.2C114.556 104.277 115.414 103.573 115.876 102.341L118.12 96.5H117.097ZM119.575 99.69H124.184C124.206 99.547 124.217 99.404 124.217 99.261C124.217 97.721 123.139 96.357 121.478 96.357C119.762 96.357 118.596 97.622 118.596 99.25C118.596 100.9 119.773 102.143 121.544 102.143C122.644 102.143 123.48 101.648 123.964 100.9L123.15 100.438C122.875 100.889 122.325 101.241 121.566 101.241C120.543 101.241 119.762 100.68 119.575 99.69ZM121.478 97.259C122.303 97.259 123.084 97.765 123.249 98.854H119.575C119.729 97.897 120.444 97.259 121.478 97.259ZM126.127 97.985C126.127 97.49 126.611 97.248 127.106 97.248C127.59 97.248 128.074 97.457 128.283 97.952L129.086 97.501C128.734 96.786 128.008 96.357 127.106 96.357C125.995 96.357 125.159 97.028 125.159 97.996C125.159 99.987 128.239 99.316 128.239 100.493C128.239 101.032 127.733 101.241 127.15 101.241C126.468 101.241 125.962 100.911 125.786 100.383L124.961 100.856C125.28 101.615 126.05 102.143 127.15 102.143C128.327 102.143 129.207 101.516 129.207 100.493C129.207 98.469 126.127 99.162 126.127 97.985Z" fill="#121212"/>
<mask id="path-8-inside-3_288_3063" fill="white">
<path fill-rule="evenodd" clip-rule="evenodd" d="M203.315 92.1152H208.315L204.011 98.4999L208.315 104.884H203.315L199.014 98.5036H199.009L199.011 98.4999L199.008 98.4956H199.014L203.315 92.1152Z"/>
</mask>
<path fill-rule="evenodd" clip-rule="evenodd" d="M203.315 92.1152H208.315L204.011 98.4999L208.315 104.884H203.315L199.014 98.5036H199.009L199.011 98.4999L199.008 98.4956H199.014L203.315 92.1152Z" fill="white"/>
<path d="M208.315 92.1152V91.7152H209.067L208.647 92.3388L208.315 92.1152ZM203.315 92.1152L202.983 91.8917L203.102 91.7152H203.315V92.1152ZM204.011 98.4999L203.68 98.7235L203.529 98.4999L203.68 98.2763L204.011 98.4999ZM208.315 104.884L208.646 104.66L209.067 105.284H208.315V104.884ZM203.315 104.884V105.284H203.102L202.983 105.108L203.315 104.884ZM199.014 98.5036V98.1036H199.226L199.345 98.28L199.014 98.5036ZM199.009 98.5036V98.9036H198.257L198.677 98.28L199.009 98.5036ZM199.011 98.4999L199.343 98.2763L199.494 98.4999L199.343 98.7235L199.011 98.4999ZM199.008 98.4956L198.677 98.7192L198.256 98.0956H199.008V98.4956ZM199.014 98.4956L199.346 98.7192L199.227 98.8956H199.014V98.4956ZM208.315 92.5152H203.315V91.7152H208.315V92.5152ZM203.68 98.2763L207.983 91.8917L208.647 92.3388L204.343 98.7235L203.68 98.2763ZM204.343 98.2763L208.646 104.66L207.983 105.108L203.68 98.7235L204.343 98.2763ZM208.315 105.284H203.315V104.484H208.315V105.284ZM202.983 105.108L198.682 98.7272L199.345 98.28L203.646 104.66L202.983 105.108ZM199.009 98.1036H199.014V98.9036H199.009V98.1036ZM199.343 98.7235L199.34 98.7272L198.677 98.28L198.68 98.2763L199.343 98.7235ZM198.68 98.7235L198.677 98.7192L199.34 98.272L199.343 98.2763L198.68 98.7235ZM199.008 98.0956H199.014V98.8956H199.008V98.0956ZM203.647 92.3388L199.346 98.7192L198.682 98.272L202.983 91.8917L203.647 92.3388Z" fill="#0D0D0D" mask="url(#path-8-inside-3_288_3063)"/>
<mask id="path-10-inside-4_288_3063" fill="white">
<path fill-rule="evenodd" clip-rule="evenodd" d="M211.032 92.1152H216.032L211.728 98.4999L216.031 104.884H211.031L206.73 98.5036H206.726L206.728 98.4999L206.725 98.4956H206.731L211.032 92.1152Z"/>
</mask>
<path fill-rule="evenodd" clip-rule="evenodd" d="M211.032 92.1152H216.032L211.728 98.4999L216.031 104.884H211.031L206.73 98.5036H206.726L206.728 98.4999L206.725 98.4956H206.731L211.032 92.1152Z" fill="white"/>
<path d="M216.032 92.1152V91.7152H216.784L216.363 92.3388L216.032 92.1152ZM211.032 92.1152L210.7 91.8917L210.819 91.7152H211.032V92.1152ZM211.728 98.4999L211.396 98.7235L211.246 98.4999L211.396 98.2763L211.728 98.4999ZM216.031 104.884L216.363 104.66L216.783 105.284H216.031V104.884ZM211.031 104.884V105.284H210.819L210.7 105.108L211.031 104.884ZM206.73 98.5036V98.1036H206.943L207.062 98.28L206.73 98.5036ZM206.726 98.5036V98.9036H205.974L206.394 98.28L206.726 98.5036ZM206.728 98.4999L207.06 98.2763L207.21 98.4999L207.06 98.7235L206.728 98.4999ZM206.725 98.4956L206.393 98.7192L205.973 98.0956H206.725V98.4956ZM206.731 98.4956L207.063 98.7192L206.944 98.8956H206.731V98.4956ZM216.032 92.5152H211.032V91.7152H216.032V92.5152ZM211.396 98.2763L215.7 91.8917L216.363 92.3388L212.06 98.7235L211.396 98.2763ZM212.06 98.2763L216.363 104.66L215.7 105.108L211.396 98.7235L212.06 98.2763ZM216.031 105.284H211.031V104.484H216.031V105.284ZM210.7 105.108L206.399 98.7272L207.062 98.28L211.363 104.66L210.7 105.108ZM206.726 98.1036H206.73V98.9036H206.726V98.1036ZM207.06 98.7235L207.057 98.7272L206.394 98.28L206.396 98.2763L207.06 98.7235ZM206.396 98.7235L206.393 98.7192L207.057 98.272L207.06 98.2763L206.396 98.7235ZM206.725 98.0956H206.731V98.8956H206.725V98.0956ZM211.363 92.3388L207.063 98.7192L206.399 98.272L210.7 91.8917L211.363 92.3388Z" fill="#0D0D0D" mask="url(#path-10-inside-4_288_3063)"/>
<rect x="19.5317" y="82.5" width="204" height="32" stroke="#0D0D0D"/>
<rect x="19.5317" y="123.5" width="204" height="32" fill="#FFCB45"/>
<g opacity="0.2">
<mask id="path-13-inside-5_288_3063" fill="white">
<path fill-rule="evenodd" clip-rule="evenodd" d="M39.7485 133.115H34.7485L39.0523 139.5L34.7489 145.884H39.7489L44.0498 139.504H44.0548L44.0523 139.5L44.0552 139.496H44.0494L39.7485 133.115Z"/>
</mask>
<path fill-rule="evenodd" clip-rule="evenodd" d="M39.7485 133.115H34.7485L39.0523 139.5L34.7489 145.884H39.7489L44.0498 139.504H44.0548L44.0523 139.5L44.0552 139.496H44.0494L39.7485 133.115Z" fill="white"/>
<path d="M34.7485 133.115V132.715H33.9965L34.4169 133.339L34.7485 133.115ZM39.7485 133.115L40.0802 132.892L39.9613 132.715H39.7485V133.115ZM39.0523 139.5L39.384 139.723L39.5347 139.5L39.384 139.276L39.0523 139.5ZM34.7489 145.884L34.4173 145.66L33.9969 146.284H34.7489V145.884ZM39.7489 145.884V146.284H39.9617L40.0806 146.108L39.7489 145.884ZM44.0498 139.504V139.104H43.837L43.7181 139.28L44.0498 139.504ZM44.0548 139.504V139.904H44.8067L44.3865 139.28L44.0548 139.504ZM44.0523 139.5L43.7206 139.276L43.5699 139.5L43.7206 139.723L44.0523 139.5ZM44.0552 139.496L44.3869 139.719L44.8071 139.096H44.0552V139.496ZM44.0494 139.496L43.7177 139.719L43.8366 139.896H44.0494V139.496ZM34.7485 133.515H39.7485V132.715H34.7485V133.515ZM39.384 139.276L35.0802 132.892L34.4169 133.339L38.7206 139.723L39.384 139.276ZM38.7206 139.276L34.4173 145.66L35.0806 146.108L39.384 139.723L38.7206 139.276ZM34.7489 146.284H39.7489V145.484H34.7489V146.284ZM40.0806 146.108L44.3815 139.727L43.7181 139.28L39.4173 145.66L40.0806 146.108ZM44.0548 139.104H44.0498V139.904H44.0548V139.104ZM43.7206 139.723L43.7231 139.727L44.3865 139.28L44.384 139.276L43.7206 139.723ZM44.384 139.723L44.3869 139.719L43.7235 139.272L43.7206 139.276L44.384 139.723ZM44.0552 139.096H44.0494V139.896H44.0552V139.096ZM39.4169 133.339L43.7177 139.719L44.3811 139.272L40.0802 132.892L39.4169 133.339Z" fill="#0D0D0D" mask="url(#path-13-inside-5_288_3063)"/>
<mask id="path-15-inside-6_288_3063" fill="white">
<path fill-rule="evenodd" clip-rule="evenodd" d="M32.0317 133.115H27.0317L31.3355 139.5L27.0321 145.884H32.0321L36.333 139.504H36.338L36.3355 139.5L36.3384 139.496H36.3326L32.0317 133.115Z"/>
</mask>
<path fill-rule="evenodd" clip-rule="evenodd" d="M32.0317 133.115H27.0317L31.3355 139.5L27.0321 145.884H32.0321L36.333 139.504H36.338L36.3355 139.5L36.3384 139.496H36.3326L32.0317 133.115Z" fill="white"/>
<path d="M27.0317 133.115V132.715H26.2797L26.7001 133.339L27.0317 133.115ZM32.0317 133.115L32.3634 132.892L32.2445 132.715H32.0317V133.115ZM31.3355 139.5L31.6672 139.723L31.8179 139.5L31.6672 139.276L31.3355 139.5ZM27.0321 145.884L26.7005 145.66L26.2801 146.284H27.0321V145.884ZM32.0321 145.884V146.284H32.2449L32.3638 146.108L32.0321 145.884ZM36.333 139.504V139.104H36.1202L36.0013 139.28L36.333 139.504ZM36.338 139.504V139.904H37.0899L36.6697 139.28L36.338 139.504ZM36.3355 139.5L36.0038 139.276L35.8531 139.5L36.0038 139.723L36.3355 139.5ZM36.3384 139.496L36.6701 139.719L37.0903 139.096H36.3384V139.496ZM36.3326 139.496L36.0009 139.719L36.1198 139.896H36.3326V139.496ZM27.0317 133.515H32.0317V132.715H27.0317V133.515ZM31.6672 139.276L27.3634 132.892L26.7001 133.339L31.0038 139.723L31.6672 139.276ZM31.0038 139.276L26.7005 145.66L27.3638 146.108L31.6672 139.723L31.0038 139.276ZM27.0321 146.284H32.0321V145.484H27.0321V146.284ZM32.3638 146.108L36.6647 139.727L36.0013 139.28L31.7005 145.66L32.3638 146.108ZM36.338 139.104H36.333V139.904H36.338V139.104ZM36.0038 139.723L36.0063 139.727L36.6697 139.28L36.6672 139.276L36.0038 139.723ZM36.6672 139.723L36.6701 139.719L36.0067 139.272L36.0038 139.276L36.6672 139.723ZM36.3384 139.096H36.3326V139.896H36.3384V139.096ZM31.7001 133.339L36.0009 139.719L36.6643 139.272L32.3634 132.892L31.7001 133.339Z" fill="#0D0D0D" mask="url(#path-15-inside-6_288_3063)"/>
</g>
<path d="M117.997 137.357C117.227 137.357 116.622 137.643 116.215 138.292V137.5H115.258V143H116.215V140.085C116.215 138.787 116.93 138.27 117.81 138.27C118.657 138.27 119.174 138.776 119.174 139.678V143H120.131V139.623C120.131 138.215 119.284 137.357 117.997 137.357ZM124.252 143.143C125.858 143.143 127.156 141.878 127.156 140.25C127.156 138.622 125.858 137.357 124.252 137.357C122.646 137.357 121.359 138.622 121.359 140.25C121.359 141.878 122.646 143.143 124.252 143.143ZM124.252 142.208C123.163 142.208 122.316 141.361 122.316 140.25C122.316 139.139 123.163 138.292 124.252 138.292C125.352 138.292 126.199 139.139 126.199 140.25C126.199 141.361 125.352 142.208 124.252 142.208Z" fill="#121212"/>
<g opacity="0.2">
<mask id="path-18-inside-7_288_3063" fill="white">
<path fill-rule="evenodd" clip-rule="evenodd" d="M203.315 133.115H208.315L204.011 139.5L208.315 145.884H203.315L199.014 139.504H199.009L199.011 139.5L199.008 139.496H199.014L203.315 133.115Z"/>
</mask>
<path fill-rule="evenodd" clip-rule="evenodd" d="M203.315 133.115H208.315L204.011 139.5L208.315 145.884H203.315L199.014 139.504H199.009L199.011 139.5L199.008 139.496H199.014L203.315 133.115Z" fill="white"/>
<path d="M208.315 133.115V132.715H209.067L208.647 133.339L208.315 133.115ZM203.315 133.115L202.983 132.892L203.102 132.715H203.315V133.115ZM204.011 139.5L203.68 139.723L203.529 139.5L203.68 139.276L204.011 139.5ZM208.315 145.884L208.646 145.66L209.067 146.284H208.315V145.884ZM203.315 145.884V146.284H203.102L202.983 146.108L203.315 145.884ZM199.014 139.504V139.104H199.226L199.345 139.28L199.014 139.504ZM199.009 139.504V139.904H198.257L198.677 139.28L199.009 139.504ZM199.011 139.5L199.343 139.276L199.494 139.5L199.343 139.723L199.011 139.5ZM199.008 139.496L198.677 139.719L198.256 139.096H199.008V139.496ZM199.014 139.496L199.346 139.719L199.227 139.896H199.014V139.496ZM208.315 133.515H203.315V132.715H208.315V133.515ZM203.68 139.276L207.983 132.892L208.647 133.339L204.343 139.723L203.68 139.276ZM204.343 139.276L208.646 145.66L207.983 146.108L203.68 139.723L204.343 139.276ZM208.315 146.284H203.315V145.484H208.315V146.284ZM202.983 146.108L198.682 139.727L199.345 139.28L203.646 145.66L202.983 146.108ZM199.009 139.104H199.014V139.904H199.009V139.104ZM199.343 139.723L199.34 139.727L198.677 139.28L198.68 139.276L199.343 139.723ZM198.68 139.723L198.677 139.719L199.34 139.272L199.343 139.276L198.68 139.723ZM199.008 139.096H199.014V139.896H199.008V139.096ZM203.647 133.339L199.346 139.719L198.682 139.272L202.983 132.892L203.647 133.339Z" fill="#0D0D0D" mask="url(#path-18-inside-7_288_3063)"/>
<mask id="path-20-inside-8_288_3063" fill="white">
<path fill-rule="evenodd" clip-rule="evenodd" d="M211.032 133.115H216.032L211.728 139.5L216.031 145.884H211.031L206.73 139.504H206.726L206.728 139.5L206.725 139.496H206.731L211.032 133.115Z"/>
</mask>
<path fill-rule="evenodd" clip-rule="evenodd" d="M211.032 133.115H216.032L211.728 139.5L216.031 145.884H211.031L206.73 139.504H206.726L206.728 139.5L206.725 139.496H206.731L211.032 133.115Z" fill="white"/>
<path d="M216.032 133.115V132.715H216.784L216.363 133.339L216.032 133.115ZM211.032 133.115L210.7 132.892L210.819 132.715H211.032V133.115ZM211.728 139.5L211.396 139.723L211.246 139.5L211.396 139.276L211.728 139.5ZM216.031 145.884L216.363 145.66L216.783 146.284H216.031V145.884ZM211.031 145.884V146.284H210.819L210.7 146.108L211.031 145.884ZM206.73 139.504V139.104H206.943L207.062 139.28L206.73 139.504ZM206.726 139.504V139.904H205.974L206.394 139.28L206.726 139.504ZM206.728 139.5L207.06 139.276L207.21 139.5L207.06 139.723L206.728 139.5ZM206.725 139.496L206.393 139.719L205.973 139.096H206.725V139.496ZM206.731 139.496L207.063 139.719L206.944 139.896H206.731V139.496ZM216.032 133.515H211.032V132.715H216.032V133.515ZM211.396 139.276L215.7 132.892L216.363 133.339L212.06 139.723L211.396 139.276ZM212.06 139.276L216.363 145.66L215.7 146.108L211.396 139.723L212.06 139.276ZM216.031 146.284H211.031V145.484H216.031V146.284ZM210.7 146.108L206.399 139.727L207.062 139.28L211.363 145.66L210.7 146.108ZM206.726 139.104H206.73V139.904H206.726V139.104ZM207.06 139.723L207.057 139.727L206.394 139.28L206.396 139.276L207.06 139.723ZM206.396 139.723L206.393 139.719L207.057 139.272L207.06 139.276L206.396 139.723ZM206.725 139.096H206.731V139.896H206.725V139.096ZM211.363 133.339L207.063 139.719L206.399 139.272L210.7 132.892L211.363 133.339Z" fill="#0D0D0D" mask="url(#path-20-inside-8_288_3063)"/>
</g>
<rect x="19.5317" y="123.5" width="204" height="32" stroke="#0D0D0D"/>
<rect x="19.5317" y="164.5" width="204" height="32" fill="#FFCB45"/>
<g opacity="0.2">
<mask id="path-23-inside-9_288_3063" fill="white">
<path fill-rule="evenodd" clip-rule="evenodd" d="M39.7485 174.115H34.7485L39.0523 180.5L34.7489 186.884H39.7489L44.0498 180.504H44.0548L44.0523 180.5L44.0552 180.496H44.0494L39.7485 174.115Z"/>
</mask>
<path fill-rule="evenodd" clip-rule="evenodd" d="M39.7485 174.115H34.7485L39.0523 180.5L34.7489 186.884H39.7489L44.0498 180.504H44.0548L44.0523 180.5L44.0552 180.496H44.0494L39.7485 174.115Z" fill="white"/>
<path d="M34.7485 174.115V173.715H33.9965L34.4169 174.339L34.7485 174.115ZM39.7485 174.115L40.0802 173.892L39.9613 173.715H39.7485V174.115ZM39.0523 180.5L39.384 180.723L39.5347 180.5L39.384 180.276L39.0523 180.5ZM34.7489 186.884L34.4173 186.66L33.9969 187.284H34.7489V186.884ZM39.7489 186.884V187.284H39.9617L40.0806 187.108L39.7489 186.884ZM44.0498 180.504V180.104H43.837L43.7181 180.28L44.0498 180.504ZM44.0548 180.504V180.904H44.8067L44.3865 180.28L44.0548 180.504ZM44.0523 180.5L43.7206 180.276L43.5699 180.5L43.7206 180.723L44.0523 180.5ZM44.0552 180.496L44.3869 180.719L44.8071 180.096H44.0552V180.496ZM44.0494 180.496L43.7177 180.719L43.8366 180.896H44.0494V180.496ZM34.7485 174.515H39.7485V173.715H34.7485V174.515ZM39.384 180.276L35.0802 173.892L34.4169 174.339L38.7206 180.723L39.384 180.276ZM38.7206 180.276L34.4173 186.66L35.0806 187.108L39.384 180.723L38.7206 180.276ZM34.7489 187.284H39.7489V186.484H34.7489V187.284ZM40.0806 187.108L44.3815 180.727L43.7181 180.28L39.4173 186.66L40.0806 187.108ZM44.0548 180.104H44.0498V180.904H44.0548V180.104ZM43.7206 180.723L43.7231 180.727L44.3865 180.28L44.384 180.276L43.7206 180.723ZM44.384 180.723L44.3869 180.719L43.7235 180.272L43.7206 180.276L44.384 180.723ZM44.0552 180.096H44.0494V180.896H44.0552V180.096ZM39.4169 174.339L43.7177 180.719L44.3811 180.272L40.0802 173.892L39.4169 174.339Z" fill="#0D0D0D" mask="url(#path-23-inside-9_288_3063)"/>
<mask id="path-25-inside-10_288_3063" fill="white">
<path fill-rule="evenodd" clip-rule="evenodd" d="M32.0317 174.115H27.0317L31.3355 180.5L27.0321 186.884H32.0321L36.333 180.504H36.338L36.3355 180.5L36.3384 180.496H36.3326L32.0317 174.115Z"/>
</mask>
<path fill-rule="evenodd" clip-rule="evenodd" d="M32.0317 174.115H27.0317L31.3355 180.5L27.0321 186.884H32.0321L36.333 180.504H36.338L36.3355 180.5L36.3384 180.496H36.3326L32.0317 174.115Z" fill="white"/>
<path d="M27.0317 174.115V173.715H26.2797L26.7001 174.339L27.0317 174.115ZM32.0317 174.115L32.3634 173.892L32.2445 173.715H32.0317V174.115ZM31.3355 180.5L31.6672 180.723L31.8179 180.5L31.6672 180.276L31.3355 180.5ZM27.0321 186.884L26.7005 186.66L26.2801 187.284H27.0321V186.884ZM32.0321 186.884V187.284H32.2449L32.3638 187.108L32.0321 186.884ZM36.333 180.504V180.104H36.1202L36.0013 180.28L36.333 180.504ZM36.338 180.504V180.904H37.0899L36.6697 180.28L36.338 180.504ZM36.3355 180.5L36.0038 180.276L35.8531 180.5L36.0038 180.723L36.3355 180.5ZM36.3384 180.496L36.6701 180.719L37.0903 180.096H36.3384V180.496ZM36.3326 180.496L36.0009 180.719L36.1198 180.896H36.3326V180.496ZM27.0317 174.515H32.0317V173.715H27.0317V174.515ZM31.6672 180.276L27.3634 173.892L26.7001 174.339L31.0038 180.723L31.6672 180.276ZM31.0038 180.276L26.7005 186.66L27.3638 187.108L31.6672 180.723L31.0038 180.276ZM27.0321 187.284H32.0321V186.484H27.0321V187.284ZM32.3638 187.108L36.6647 180.727L36.0013 180.28L31.7005 186.66L32.3638 187.108ZM36.338 180.104H36.333V180.904H36.338V180.104ZM36.0038 180.723L36.0063 180.727L36.6697 180.28L36.6672 180.276L36.0038 180.723ZM36.6672 180.723L36.6701 180.719L36.0067 180.272L36.0038 180.276L36.6672 180.723ZM36.3384 180.096H36.3326V180.896H36.3384V180.096ZM31.7001 174.339L36.0009 180.719L36.6643 180.272L32.3634 173.892L31.7001 174.339Z" fill="#0D0D0D" mask="url(#path-25-inside-10_288_3063)"/>
</g>
<path d="M110.312 178.5V179.446C109.872 178.775 109.168 178.357 108.233 178.357C106.704 178.357 105.45 179.622 105.45 181.25C105.45 182.878 106.704 184.143 108.233 184.143C109.168 184.143 109.872 183.725 110.312 183.054V184H111.269V178.5H110.312ZM108.354 183.219C107.254 183.219 106.407 182.372 106.407 181.25C106.407 180.128 107.254 179.281 108.354 179.281C109.465 179.281 110.312 180.128 110.312 181.25C110.312 182.372 109.465 183.219 108.354 183.219ZM115.504 184.143C116.582 184.143 117.517 183.571 117.979 182.713L117.165 182.24C116.857 182.812 116.252 183.197 115.504 183.197C114.404 183.197 113.568 182.35 113.568 181.25C113.568 180.139 114.404 179.292 115.504 179.292C116.241 179.292 116.857 179.677 117.132 180.26L117.935 179.798C117.517 178.929 116.593 178.357 115.504 178.357C113.843 178.357 112.611 179.622 112.611 181.25C112.611 182.878 113.843 184.143 115.504 184.143ZM122.116 179.424V178.5H120.653V176.96L119.696 177.246V178.5H118.607V179.424H119.696V182.405C119.696 183.78 120.466 184.22 122.116 184V183.142C121.137 183.186 120.653 183.241 120.653 182.405V179.424H122.116ZM123.933 177.499C124.285 177.499 124.571 177.213 124.571 176.861C124.571 176.509 124.285 176.212 123.933 176.212C123.57 176.212 123.284 176.509 123.284 176.861C123.284 177.213 123.57 177.499 123.933 177.499ZM123.449 184H124.406V178.5H123.449V184ZM129.916 178.5L128.189 182.977L126.462 178.5H125.428L127.628 184H128.75L130.95 178.5H129.916ZM132.415 181.69H137.024C137.046 181.547 137.057 181.404 137.057 181.261C137.057 179.721 135.979 178.357 134.318 178.357C132.602 178.357 131.436 179.622 131.436 181.25C131.436 182.9 132.613 184.143 134.384 184.143C135.484 184.143 136.32 183.648 136.804 182.9L135.99 182.438C135.715 182.889 135.165 183.241 134.406 183.241C133.383 183.241 132.602 182.68 132.415 181.69ZM134.318 179.259C135.143 179.259 135.924 179.765 136.089 180.854H132.415C132.569 179.897 133.284 179.259 134.318 179.259Z" fill="#121212"/>
<g opacity="0.2">
<mask id="path-28-inside-11_288_3063" fill="white">
<path fill-rule="evenodd" clip-rule="evenodd" d="M203.315 174.115H208.315L204.011 180.5L208.315 186.884H203.315L199.014 180.504H199.009L199.011 180.5L199.008 180.496H199.014L203.315 174.115Z"/>
</mask>
<path fill-rule="evenodd" clip-rule="evenodd" d="M203.315 174.115H208.315L204.011 180.5L208.315 186.884H203.315L199.014 180.504H199.009L199.011 180.5L199.008 180.496H199.014L203.315 174.115Z" fill="white"/>
<path d="M208.315 174.115V173.715H209.067L208.647 174.339L208.315 174.115ZM203.315 174.115L202.983 173.892L203.102 173.715H203.315V174.115ZM204.011 180.5L203.68 180.723L203.529 180.5L203.68 180.276L204.011 180.5ZM208.315 186.884L208.646 186.66L209.067 187.284H208.315V186.884ZM203.315 186.884V187.284H203.102L202.983 187.108L203.315 186.884ZM199.014 180.504V180.104H199.226L199.345 180.28L199.014 180.504ZM199.009 180.504V180.904H198.257L198.677 180.28L199.009 180.504ZM199.011 180.5L199.343 180.276L199.494 180.5L199.343 180.723L199.011 180.5ZM199.008 180.496L198.677 180.719L198.256 180.096H199.008V180.496ZM199.014 180.496L199.346 180.719L199.227 180.896H199.014V180.496ZM208.315 174.515H203.315V173.715H208.315V174.515ZM203.68 180.276L207.983 173.892L208.647 174.339L204.343 180.723L203.68 180.276ZM204.343 180.276L208.646 186.66L207.983 187.108L203.68 180.723L204.343 180.276ZM208.315 187.284H203.315V186.484H208.315V187.284ZM202.983 187.108L198.682 180.727L199.345 180.28L203.646 186.66L202.983 187.108ZM199.009 180.104H199.014V180.904H199.009V180.104ZM199.343 180.723L199.34 180.727L198.677 180.28L198.68 180.276L199.343 180.723ZM198.68 180.723L198.677 180.719L199.34 180.272L199.343 180.276L198.68 180.723ZM199.008 180.096H199.014V180.896H199.008V180.096ZM203.647 174.339L199.346 180.719L198.682 180.272L202.983 173.892L203.647 174.339Z" fill="#0D0D0D" mask="url(#path-28-inside-11_288_3063)"/>
<mask id="path-30-inside-12_288_3063" fill="white">
<path fill-rule="evenodd" clip-rule="evenodd" d="M211.032 174.115H216.032L211.728 180.5L216.031 186.884H211.031L206.73 180.504H206.726L206.728 180.5L206.725 180.496H206.731L211.032 174.115Z"/>
</mask>
<path fill-rule="evenodd" clip-rule="evenodd" d="M211.032 174.115H216.032L211.728 180.5L216.031 186.884H211.031L206.73 180.504H206.726L206.728 180.5L206.725 180.496H206.731L211.032 174.115Z" fill="white"/>
<path d="M216.032 174.115V173.715H216.784L216.363 174.339L216.032 174.115ZM211.032 174.115L210.7 173.892L210.819 173.715H211.032V174.115ZM211.728 180.5L211.396 180.723L211.246 180.5L211.396 180.276L211.728 180.5ZM216.031 186.884L216.363 186.66L216.783 187.284H216.031V186.884ZM211.031 186.884V187.284H210.819L210.7 187.108L211.031 186.884ZM206.73 180.504V180.104H206.943L207.062 180.28L206.73 180.504ZM206.726 180.504V180.904H205.974L206.394 180.28L206.726 180.504ZM206.728 180.5L207.06 180.276L207.21 180.5L207.06 180.723L206.728 180.5ZM206.725 180.496L206.393 180.719L205.973 180.096H206.725V180.496ZM206.731 180.496L207.063 180.719L206.944 180.896H206.731V180.496ZM216.032 174.515H211.032V173.715H216.032V174.515ZM211.396 180.276L215.7 173.892L216.363 174.339L212.06 180.723L211.396 180.276ZM212.06 180.276L216.363 186.66L215.7 187.108L211.396 180.723L212.06 180.276ZM216.031 187.284H211.031V186.484H216.031V187.284ZM210.7 187.108L206.399 180.727L207.062 180.28L211.363 186.66L210.7 187.108ZM206.726 180.104H206.73V180.904H206.726V180.104ZM207.06 180.723L207.057 180.727L206.394 180.28L206.396 180.276L207.06 180.723ZM206.396 180.723L206.393 180.719L207.057 180.272L207.06 180.276L206.396 180.723ZM206.725 180.096H206.731V180.896H206.725V180.096ZM211.363 174.339L207.063 180.719L206.399 180.272L210.7 173.892L211.363 174.339Z" fill="#0D0D0D" mask="url(#path-30-inside-12_288_3063)"/>
</g>
<rect x="19.5317" y="164.5" width="204" height="32" stroke="#0D0D0D"/>
<rect x="19.5317" y="205.5" width="204" height="32" fill="#FFCB45"/>
<g opacity="0.2">
<mask id="path-33-inside-13_288_3063" fill="white">
<path fill-rule="evenodd" clip-rule="evenodd" d="M39.7485 215.115H34.7485L39.0523 221.5L34.7489 227.884H39.7489L44.0498 221.504H44.0548L44.0523 221.5L44.0552 221.496H44.0494L39.7485 215.115Z"/>
</mask>
<path fill-rule="evenodd" clip-rule="evenodd" d="M39.7485 215.115H34.7485L39.0523 221.5L34.7489 227.884H39.7489L44.0498 221.504H44.0548L44.0523 221.5L44.0552 221.496H44.0494L39.7485 215.115Z" fill="white"/>
<path d="M34.7485 215.115V214.715H33.9965L34.4169 215.339L34.7485 215.115ZM39.7485 215.115L40.0802 214.892L39.9613 214.715H39.7485V215.115ZM39.0523 221.5L39.384 221.723L39.5347 221.5L39.384 221.276L39.0523 221.5ZM34.7489 227.884L34.4173 227.66L33.9969 228.284H34.7489V227.884ZM39.7489 227.884V228.284H39.9617L40.0806 228.108L39.7489 227.884ZM44.0498 221.504V221.104H43.837L43.7181 221.28L44.0498 221.504ZM44.0548 221.504V221.904H44.8067L44.3865 221.28L44.0548 221.504ZM44.0523 221.5L43.7206 221.276L43.5699 221.5L43.7206 221.723L44.0523 221.5ZM44.0552 221.496L44.3869 221.719L44.8071 221.096H44.0552V221.496ZM44.0494 221.496L43.7177 221.719L43.8366 221.896H44.0494V221.496ZM34.7485 215.515H39.7485V214.715H34.7485V215.515ZM39.384 221.276L35.0802 214.892L34.4169 215.339L38.7206 221.723L39.384 221.276ZM38.7206 221.276L34.4173 227.66L35.0806 228.108L39.384 221.723L38.7206 221.276ZM34.7489 228.284H39.7489V227.484H34.7489V228.284ZM40.0806 228.108L44.3815 221.727L43.7181 221.28L39.4173 227.66L40.0806 228.108ZM44.0548 221.104H44.0498V221.904H44.0548V221.104ZM43.7206 221.723L43.7231 221.727L44.3865 221.28L44.384 221.276L43.7206 221.723ZM44.384 221.723L44.3869 221.719L43.7235 221.272L43.7206 221.276L44.384 221.723ZM44.0552 221.096H44.0494V221.896H44.0552V221.096ZM39.4169 215.339L43.7177 221.719L44.3811 221.272L40.0802 214.892L39.4169 215.339Z" fill="#0D0D0D" mask="url(#path-33-inside-13_288_3063)"/>
<mask id="path-35-inside-14_288_3063" fill="white">
<path fill-rule="evenodd" clip-rule="evenodd" d="M32.0317 215.115H27.0317L31.3355 221.5L27.0321 227.884H32.0321L36.333 221.504H36.338L36.3355 221.5L36.3384 221.496H36.3326L32.0317 215.115Z"/>
</mask>
<path fill-rule="evenodd" clip-rule="evenodd" d="M32.0317 215.115H27.0317L31.3355 221.5L27.0321 227.884H32.0321L36.333 221.504H36.338L36.3355 221.5L36.3384 221.496H36.3326L32.0317 215.115Z" fill="white"/>
<path d="M27.0317 215.115V214.715H26.2797L26.7001 215.339L27.0317 215.115ZM32.0317 215.115L32.3634 214.892L32.2445 214.715H32.0317V215.115ZM31.3355 221.5L31.6672 221.723L31.8179 221.5L31.6672 221.276L31.3355 221.5ZM27.0321 227.884L26.7005 227.66L26.2801 228.284H27.0321V227.884ZM32.0321 227.884V228.284H32.2449L32.3638 228.108L32.0321 227.884ZM36.333 221.504V221.104H36.1202L36.0013 221.28L36.333 221.504ZM36.338 221.504V221.904H37.0899L36.6697 221.28L36.338 221.504ZM36.3355 221.5L36.0038 221.276L35.8531 221.5L36.0038 221.723L36.3355 221.5ZM36.3384 221.496L36.6701 221.719L37.0903 221.096H36.3384V221.496ZM36.3326 221.496L36.0009 221.719L36.1198 221.896H36.3326V221.496ZM27.0317 215.515H32.0317V214.715H27.0317V215.515ZM31.6672 221.276L27.3634 214.892L26.7001 215.339L31.0038 221.723L31.6672 221.276ZM31.0038 221.276L26.7005 227.66L27.3638 228.108L31.6672 221.723L31.0038 221.276ZM27.0321 228.284H32.0321V227.484H27.0321V228.284ZM32.3638 228.108L36.6647 221.727L36.0013 221.28L31.7005 227.66L32.3638 228.108ZM36.338 221.104H36.333V221.904H36.338V221.104ZM36.0038 221.723L36.0063 221.727L36.6697 221.28L36.6672 221.276L36.0038 221.723ZM36.6672 221.723L36.6701 221.719L36.0067 221.272L36.0038 221.276L36.6672 221.723ZM36.3384 221.096H36.3326V221.896H36.3384V221.096ZM31.7001 215.339L36.0009 221.719L36.6643 221.272L32.3634 214.892L31.7001 215.339Z" fill="#0D0D0D" mask="url(#path-35-inside-14_288_3063)"/>
</g>
<path d="M110.312 219.5V220.446C109.872 219.775 109.168 219.357 108.233 219.357C106.704 219.357 105.45 220.622 105.45 222.25C105.45 223.878 106.704 225.143 108.233 225.143C109.168 225.143 109.872 224.725 110.312 224.054V225H111.269V219.5H110.312ZM108.354 224.219C107.254 224.219 106.407 223.372 106.407 222.25C106.407 221.128 107.254 220.281 108.354 220.281C109.465 220.281 110.312 221.128 110.312 222.25C110.312 223.372 109.465 224.219 108.354 224.219ZM115.504 225.143C116.582 225.143 117.517 224.571 117.979 223.713L117.165 223.24C116.857 223.812 116.252 224.197 115.504 224.197C114.404 224.197 113.568 223.35 113.568 222.25C113.568 221.139 114.404 220.292 115.504 220.292C116.241 220.292 116.857 220.677 117.132 221.26L117.935 220.798C117.517 219.929 116.593 219.357 115.504 219.357C113.843 219.357 112.611 220.622 112.611 222.25C112.611 223.878 113.843 225.143 115.504 225.143ZM122.116 220.424V219.5H120.653V217.96L119.696 218.246V219.5H118.607V220.424H119.696V223.405C119.696 224.78 120.466 225.22 122.116 225V224.142C121.137 224.186 120.653 224.241 120.653 223.405V220.424H122.116ZM123.933 218.499C124.285 218.499 124.571 218.213 124.571 217.861C124.571 217.509 124.285 217.212 123.933 217.212C123.57 217.212 123.284 217.509 123.284 217.861C123.284 218.213 123.57 218.499 123.933 218.499ZM123.449 225H124.406V219.5H123.449V225ZM129.916 219.5L128.189 223.977L126.462 219.5H125.428L127.628 225H128.75L130.95 219.5H129.916ZM132.415 222.69H137.024C137.046 222.547 137.057 222.404 137.057 222.261C137.057 220.721 135.979 219.357 134.318 219.357C132.602 219.357 131.436 220.622 131.436 222.25C131.436 223.9 132.613 225.143 134.384 225.143C135.484 225.143 136.32 224.648 136.804 223.9L135.99 223.438C135.715 223.889 135.165 224.241 134.406 224.241C133.383 224.241 132.602 223.68 132.415 222.69ZM134.318 220.259C135.143 220.259 135.924 220.765 136.089 221.854H132.415C132.569 220.897 133.284 220.259 134.318 220.259Z" fill="#121212"/>
<g opacity="0.2">
<mask id="path-38-inside-15_288_3063" fill="white">
<path fill-rule="evenodd" clip-rule="evenodd" d="M203.315 215.115H208.315L204.011 221.5L208.315 227.884H203.315L199.014 221.504H199.009L199.011 221.5L199.008 221.496H199.014L203.315 215.115Z"/>
</mask>
<path fill-rule="evenodd" clip-rule="evenodd" d="M203.315 215.115H208.315L204.011 221.5L208.315 227.884H203.315L199.014 221.504H199.009L199.011 221.5L199.008 221.496H199.014L203.315 215.115Z" fill="white"/>
<path d="M208.315 215.115V214.715H209.067L208.647 215.339L208.315 215.115ZM203.315 215.115L202.983 214.892L203.102 214.715H203.315V215.115ZM204.011 221.5L203.68 221.723L203.529 221.5L203.68 221.276L204.011 221.5ZM208.315 227.884L208.646 227.66L209.067 228.284H208.315V227.884ZM203.315 227.884V228.284H203.102L202.983 228.108L203.315 227.884ZM199.014 221.504V221.104H199.226L199.345 221.28L199.014 221.504ZM199.009 221.504V221.904H198.257L198.677 221.28L199.009 221.504ZM199.011 221.5L199.343 221.276L199.494 221.5L199.343 221.723L199.011 221.5ZM199.008 221.496L198.677 221.719L198.256 221.096H199.008V221.496ZM199.014 221.496L199.346 221.719L199.227 221.896H199.014V221.496ZM208.315 215.515H203.315V214.715H208.315V215.515ZM203.68 221.276L207.983 214.892L208.647 215.339L204.343 221.723L203.68 221.276ZM204.343 221.276L208.646 227.66L207.983 228.108L203.68 221.723L204.343 221.276ZM208.315 228.284H203.315V227.484H208.315V228.284ZM202.983 228.108L198.682 221.727L199.345 221.28L203.646 227.66L202.983 228.108ZM199.009 221.104H199.014V221.904H199.009V221.104ZM199.343 221.723L199.34 221.727L198.677 221.28L198.68 221.276L199.343 221.723ZM198.68 221.723L198.677 221.719L199.34 221.272L199.343 221.276L198.68 221.723ZM199.008 221.096H199.014V221.896H199.008V221.096ZM203.647 215.339L199.346 221.719L198.682 221.272L202.983 214.892L203.647 215.339Z" fill="#0D0D0D" mask="url(#path-38-inside-15_288_3063)"/>
<mask id="path-40-inside-16_288_3063" fill="white">
<path fill-rule="evenodd" clip-rule="evenodd" d="M211.032 215.115H216.032L211.728 221.5L216.031 227.884H211.031L206.73 221.504H206.726L206.728 221.5L206.725 221.496H206.731L211.032 215.115Z"/>
</mask>
<path fill-rule="evenodd" clip-rule="evenodd" d="M211.032 215.115H216.032L211.728 221.5L216.031 227.884H211.031L206.73 221.504H206.726L206.728 221.5L206.725 221.496H206.731L211.032 215.115Z" fill="white"/>
<path d="M216.032 215.115V214.715H216.784L216.363 215.339L216.032 215.115ZM211.032 215.115L210.7 214.892L210.819 214.715H211.032V215.115ZM211.728 221.5L211.396 221.723L211.246 221.5L211.396 221.276L211.728 221.5ZM216.031 227.884L216.363 227.66L216.783 228.284H216.031V227.884ZM211.031 227.884V228.284H210.819L210.7 228.108L211.031 227.884ZM206.73 221.504V221.104H206.943L207.062 221.28L206.73 221.504ZM206.726 221.504V221.904H205.974L206.394 221.28L206.726 221.504ZM206.728 221.5L207.06 221.276L207.21 221.5L207.06 221.723L206.728 221.5ZM206.725 221.496L206.393 221.719L205.973 221.096H206.725V221.496ZM206.731 221.496L207.063 221.719L206.944 221.896H206.731V221.496ZM216.032 215.515H211.032V214.715H216.032V215.515ZM211.396 221.276L215.7 214.892L216.363 215.339L212.06 221.723L211.396 221.276ZM212.06 221.276L216.363 227.66L215.7 228.108L211.396 221.723L212.06 221.276ZM216.031 228.284H211.031V227.484H216.031V228.284ZM210.7 228.108L206.399 221.727L207.062 221.28L211.363 227.66L210.7 228.108ZM206.726 221.104H206.73V221.904H206.726V221.104ZM207.06 221.723L207.057 221.727L206.394 221.28L206.396 221.276L207.06 221.723ZM206.396 221.723L206.393 221.719L207.057 221.272L207.06 221.276L206.396 221.723ZM206.725 221.096H206.731V221.896H206.725V221.096ZM211.363 215.339L207.063 221.719L206.399 221.272L210.7 214.892L211.363 215.339Z" fill="#0D0D0D" mask="url(#path-40-inside-16_288_3063)"/>
</g>
<rect x="19.5317" y="205.5" width="204" height="32" stroke="#0D0D0D"/>
<path d="M80.5877 244.008V243H78.9917V241.32L77.9477 241.632V243H76.7597V244.008H77.9477V247.26C77.9477 248.76 78.7877 249.24 80.5877 249V248.064C79.5197 248.112 78.9917 248.172 78.9917 247.26V244.008H80.5877ZM86.6871 243V244.032C86.2071 243.3 85.4391 242.844 84.4191 242.844C82.7511 242.844 81.3831 244.224 81.3831 246C81.3831 247.776 82.7511 249.156 84.4191 249.156C85.4391 249.156 86.2071 248.7 86.6871 247.968V249H87.7311V243H86.6871ZM84.5511 248.148C83.3511 248.148 82.4271 247.224 82.4271 246C82.4271 244.776 83.3511 243.852 84.5511 243.852C85.7631 243.852 86.6871 244.776 86.6871 246C86.6871 247.224 85.7631 248.148 84.5511 248.148ZM92.8248 242.844C91.8048 242.844 91.0368 243.3 90.5568 244.032V243H89.5128V251.4H90.5568V247.968C91.0368 248.7 91.8048 249.156 92.8248 249.156C94.4928 249.156 95.8608 247.776 95.8608 246C95.8608 244.224 94.4928 242.844 92.8248 242.844ZM92.6928 248.148C91.4808 248.148 90.5568 247.224 90.5568 246C90.5568 244.776 91.4808 243.852 92.6928 243.852C93.8928 243.852 94.8168 244.776 94.8168 246C94.8168 247.224 93.8928 248.148 92.6928 248.148ZM105.475 243V244.032C104.995 243.3 104.227 242.844 103.207 242.844C101.539 242.844 100.171 244.224 100.171 246C100.171 247.776 101.539 249.156 103.207 249.156C104.227 249.156 104.995 248.7 105.475 247.968V249H106.519V243H105.475ZM103.339 248.148C102.139 248.148 101.215 247.224 101.215 246C101.215 244.776 102.139 243.852 103.339 243.852C104.551 243.852 105.475 244.776 105.475 246C105.475 247.224 104.551 248.148 103.339 248.148ZM111.288 242.844C110.448 242.844 109.788 243.156 109.344 243.864V243H108.3V249H109.344V245.82C109.344 244.404 110.124 243.84 111.084 243.84C112.008 243.84 112.572 244.392 112.572 245.376V249H113.616V245.316C113.616 243.78 112.692 242.844 111.288 242.844ZM120.242 240.6V244.032C119.762 243.3 118.994 242.844 117.974 242.844C116.306 242.844 114.938 244.224 114.938 246C114.938 247.776 116.306 249.156 117.974 249.156C118.994 249.156 119.762 248.7 120.242 247.968V249H121.286V240.6H120.242ZM118.106 248.148C116.906 248.148 115.982 247.224 115.982 246C115.982 244.776 116.906 243.852 118.106 243.852C119.318 243.852 120.242 244.776 120.242 246C120.242 247.224 119.318 248.148 118.106 248.148ZM131.235 243V244.032C130.755 243.3 129.987 242.844 128.967 242.844C127.299 242.844 125.931 244.224 125.931 246C125.931 247.776 127.299 249.156 128.967 249.156C129.987 249.156 130.755 248.7 131.235 247.968V249H132.279V243H131.235ZM129.099 248.148C127.899 248.148 126.975 247.224 126.975 246C126.975 244.776 127.899 243.852 129.099 243.852C130.311 243.852 131.235 244.776 131.235 246C131.235 247.224 130.311 248.148 129.099 248.148ZM137.049 242.844C136.209 242.844 135.549 243.156 135.105 243.864V243H134.061V249H135.105V245.82C135.105 244.404 135.885 243.84 136.845 243.84C137.769 243.84 138.333 244.392 138.333 245.376V249H139.377V245.316C139.377 243.78 138.453 242.844 137.049 242.844ZM141.935 244.62C141.935 244.08 142.463 243.816 143.003 243.816C143.531 243.816 144.059 244.044 144.287 244.584L145.163 244.092C144.779 243.312 143.987 242.844 143.003 242.844C141.791 242.844 140.879 243.576 140.879 244.632C140.879 246.804 144.239 246.072 144.239 247.356C144.239 247.944 143.687 248.172 143.051 248.172C142.307 248.172 141.755 247.812 141.563 247.236L140.663 247.752C141.011 248.58 141.851 249.156 143.051 249.156C144.335 249.156 145.295 248.472 145.295 247.356C145.295 245.148 141.935 245.904 141.935 244.62ZM153.564 243L152.244 247.572L150.828 243H149.82L148.404 247.56L147.084 243H145.992L147.852 249H148.92L150.324 244.56L151.728 249H152.796L154.656 243H153.564ZM156.428 246.48H161.456C161.48 246.324 161.492 246.168 161.492 246.012C161.492 244.332 160.316 242.844 158.504 242.844C156.632 242.844 155.36 244.224 155.36 246C155.36 247.8 156.644 249.156 158.576 249.156C159.776 249.156 160.688 248.616 161.216 247.8L160.328 247.296C160.028 247.788 159.428 248.172 158.6 248.172C157.484 248.172 156.632 247.56 156.428 246.48ZM158.504 243.828C159.404 243.828 160.256 244.38 160.436 245.568H156.428C156.596 244.524 157.376 243.828 158.504 243.828ZM163.936 244.008V243H162.892V249H163.936V245.82C163.936 244.404 164.908 243.948 165.808 243.984V242.892C165.052 242.892 164.32 243.168 163.936 244.008Z" fill="#0D0D0D" fill-opacity="0.5"/>
<path d="M241.532 3L238.532 8.95262e-06L238.532 3L241.532 3Z" fill="#BF6CFF"/>
<rect x="241.532" y="3" width="267" height="3.00015" transform="rotate(90 241.532 3)" fill="#BF6CFF"/>
<path d="M241.532 270V273L238.532 270L241.532 270Z" fill="#BF6CFF"/>
<path d="M0.531738 270L3.53174 273L3.53173 270L0.531738 270Z" fill="#A839FF"/>
<rect x="3.53174" y="270" width="235" height="3" fill="#A839FF"/>
<path d="M238.532 273V270L241.532 273L238.532 273Z" fill="#A839FF"/>
</svg>
