<svg width="86" height="85" viewBox="0 0 86 85" fill="none" xmlns="http://www.w3.org/2000/svg">
<g clip-path="url(#clip0_161_2386)">
<mask id="mask0_161_2386" style="mask-type:alpha" maskUnits="userSpaceOnUse" x="0" y="0" width="86" height="85">
<path d="M43.0312 85C66.5033 85 85.5312 65.9721 85.5312 42.5C85.5312 19.0279 66.5033 0 43.0312 0C19.5591 0 0.53125 19.0279 0.53125 42.5C0.53125 65.9721 19.5591 85 43.0312 85Z" fill="white"/>
</mask>
<g mask="url(#mask0_161_2386)">
<path opacity="0.7" d="M43.0316 91.2976C69.9811 91.2976 91.8279 69.4508 91.8279 42.5013C91.8279 15.5519 69.9811 -6.29492 43.0316 -6.29492C16.0822 -6.29492 -5.76465 15.5519 -5.76465 42.5013C-5.76465 69.4508 16.0822 91.2976 43.0316 91.2976Z" fill="white" fill-opacity="0.1"/>
<path d="M41.9579 22.502L14.6982 32.9782L37.53 70.8338L64.8302 60.4595L41.9579 22.502Z" fill="#9724D6" stroke="#0D0D0D" stroke-width="0.15" stroke-linecap="round" stroke-linejoin="round"/>
<path d="M44.5761 20.3418L16.8926 29.3846L37.6316 68.5311L65.3556 59.6039L44.5761 20.3418Z" fill="#9724D6" stroke="#0D0D0D" stroke-width="0.15" stroke-linecap="round" stroke-linejoin="round"/>
<path d="M47.2872 18.3262L19.2539 25.8809L37.8128 66.2234L65.8862 58.7974L47.2872 18.3262Z" fill="#9724D6" stroke="#0D0D0D" stroke-width="0.15" stroke-linecap="round" stroke-linejoin="round"/>
<path d="M50.2887 16.4824L21.9795 22.4611L38.1965 63.9377L66.5462 58.0951L50.2887 16.4824Z" fill="#FF8EFF" stroke="#0D0D0D" stroke-width="0.15" stroke-linecap="round" stroke-linejoin="round"/>
<path d="M49.7039 21.2725L46.7095 19.5605L28.0228 23.4807H27.9757L26.0107 26.2321L38.971 59.0943L42.6853 60.6502H42.7124L61.0692 56.8795L62.3814 54.2503L49.7039 21.2725Z" fill="#FF8EFF" stroke="#0D0D0D" stroke-width="0.15" stroke-linecap="round" stroke-linejoin="round"/>
<g style="mix-blend-mode:color-dodge">
<g style="mix-blend-mode:color-dodge">
<g style="mix-blend-mode:color-dodge">
<path d="M52.9797 29.798L42.7113 60.656H42.6841L38.9632 59.0934L33.6875 45.6958L41.9643 20.5652L46.7083 19.5664L49.7027 21.2717L52.9797 29.798Z" fill="white"/>
</g>
</g>
</g>
<path d="M49.7039 21.2725L46.7095 19.5605L28.0228 23.4807H27.9757L26.0107 26.2321L38.971 59.0943L42.6853 60.6502H42.7124L61.0692 56.8795L62.3814 54.2503L49.7039 21.2725Z" stroke="#0D0D0D" stroke-width="0.2" stroke-linecap="round" stroke-linejoin="round"/>
<path d="M42.1167 43.2262C44.4014 42.6927 47.4258 40.8417 47.2034 37.6601L49.1671 37.2345L50.0576 34.6339L46.7844 35.3092C46.6535 34.8019 46.4171 34.3297 46.0915 33.9262C45.7659 33.5224 45.3589 33.1968 44.8991 32.9719L47.9364 32.3506L48.8334 29.6484L36.0941 32.3506L35.2627 35.0053L38.9942 34.2216C42.346 33.5056 43.701 35.1405 43.9236 35.8834L37.2857 37.329L36.4608 39.8824L44.2772 38.2478C44.6437 40.5175 41.9204 41.0376 39.8845 41.5915L38.0384 42.0712L38.7716 43.9286L48.1394 50.7851L51.4125 50.0555C48.2442 47.6846 45.2917 45.6175 42.1167 43.2262Z" fill="#CC36CC" stroke="#0D0D0D" stroke-width="0.15" stroke-linecap="round" stroke-linejoin="round"/>
<path d="M67.6315 56.2957C64.1091 55.1259 64.0504 53.7449 64.6409 49.398L65.6551 42.5L63.8097 49.2243C62.6649 53.7524 61.5125 54.59 58.3181 54.3862L54.3652 53.9637L58.1212 55.0958C61.3957 56.1372 61.9064 57.6013 61.2425 62.0917L60.0977 68.9445L61.8699 62.152C63.1534 57.3372 64.1524 56.7863 67.4854 57.0955L71.3652 57.4806L67.6315 56.2957Z" fill="white" stroke="#020203" stroke-width="0.2" stroke-linecap="round" stroke-linejoin="round"/>
<path d="M30.8604 25.7069C27.9048 24.7284 27.8554 23.5734 28.3513 19.9375L29.2021 14.168L27.6537 19.7923C26.693 23.5797 25.726 24.2803 23.0454 24.1099L19.7285 23.7564L22.8803 24.7033C25.628 25.5744 26.0565 26.799 25.4995 30.5548L24.5386 36.2866L26.0257 30.6053C27.103 26.578 27.9412 26.1171 30.7379 26.376L33.9936 26.698L30.8604 25.7069Z" fill="white" stroke="#020203" stroke-width="0.2" stroke-linecap="round" stroke-linejoin="round"/>
</g>
</g>
<defs>
<clipPath id="clip0_161_2386">
<rect width="85" height="85" fill="white" transform="translate(0.53125)"/>
</clipPath>
</defs>
</svg>
