<svg width="74" height="125" viewBox="0 0 74 125" fill="none" xmlns="http://www.w3.org/2000/svg">
<g clip-path="url(#clip0_124_217)">
<path d="M39.3371 35.9902H38.1338V40.4447H39.3371V35.9902Z" fill="#E0E0E0" stroke="#3D3D3D" stroke-width="0.4" stroke-linecap="round" stroke-linejoin="round"/>
<path d="M37.543 18.3594V35.9907C37.543 36.1913 38.0809 36.3497 38.7347 36.3497C39.3886 36.3497 39.9265 36.1913 39.9265 35.9907V18.3594H37.543Z" fill="#06C270" stroke="#3D3D3D" stroke-width="0.4" stroke-linecap="round" stroke-linejoin="round"/>
<path d="M39.9265 18.3589C39.9265 18.5489 39.3992 18.7178 38.7347 18.7178C38.0703 18.7178 37.543 18.5489 37.543 18.3589C37.543 18.1689 38.0809 18 38.7347 18C39.3886 18 39.9265 18.1689 39.9265 18.3589Z" fill="#06C270" stroke="#3D3D3D" stroke-width="0.4" stroke-linecap="round" stroke-linejoin="round"/>
<path d="M26.4699 37.3105H25.2666V41.765H26.4699V37.3105Z" fill="#E0E0E0" stroke="#3D3D3D" stroke-width="0.4" stroke-linecap="round" stroke-linejoin="round"/>
<path d="M24.6758 19.668V37.3099C24.6758 37.5104 25.2137 37.6688 25.8676 37.6688C26.5215 37.6688 27.0593 37.5104 27.0593 37.3099V19.668H24.6758Z" fill="#06C270" stroke="#3D3D3D" stroke-width="0.4" stroke-linecap="round" stroke-linejoin="round"/>
<path d="M27.0593 19.6686C27.0593 19.8692 26.532 20.0275 25.8676 20.0275C25.2031 20.0275 24.6758 19.8692 24.6758 19.6686C24.6758 19.4681 25.2137 19.3203 25.8676 19.3203C26.5215 19.3203 27.0593 19.4786 27.0593 19.6686Z" fill="#06C270" stroke="#3D3D3D" stroke-width="0.4" stroke-linecap="round" stroke-linejoin="round"/>
<path d="M53.0158 40.1074H51.8125V44.5619H53.0158V40.1074Z" fill="#E0E0E0" stroke="#3D3D3D" stroke-width="0.4" stroke-linecap="round" stroke-linejoin="round"/>
<path d="M51.2217 22.4648V40.1067C51.2217 40.3073 51.749 40.4657 52.4135 40.4657C53.0779 40.4657 53.6052 40.3073 53.6052 40.1067V22.4648H51.2217Z" fill="#06C270" stroke="#3D3D3D" stroke-width="0.4" stroke-linecap="round" stroke-linejoin="round"/>
<path d="M53.6052 22.4655C53.6052 22.6661 53.0674 22.8244 52.4135 22.8244C51.7596 22.8244 51.2217 22.6661 51.2217 22.4655C51.2217 22.265 51.749 22.1172 52.4135 22.1172C53.0779 22.1172 53.6052 22.2755 53.6052 22.4655Z" fill="#06C270" stroke="#3D3D3D" stroke-width="0.4" stroke-linecap="round" stroke-linejoin="round"/>
<path d="M55.4831 44.3629L36.7627 38.7145C35.3888 38.2879 33.918 38.2879 32.5441 38.7145L18.517 43.001C18.3836 43.0311 18.2631 43.1023 18.1723 43.2046C18.0815 43.3068 18.025 43.435 18.0107 43.5711V43.8033C18.0293 43.9378 18.0874 44.0638 18.1775 44.1653C18.2676 44.2668 18.3857 44.3392 18.517 44.3735L37.2478 49.8423C38.5804 50.2327 39.9968 50.2327 41.3294 49.8423L55.4514 45.7354C55.6026 45.6932 55.7355 45.6018 55.8291 45.4757C55.9227 45.3495 55.9716 45.1957 55.9682 45.0386C55.9724 44.8883 55.9272 44.7408 55.8395 44.6187C55.7519 44.4967 55.6267 44.4068 55.4831 44.3629Z" fill="#E0E0E0" stroke="#3D3D3D" stroke-width="0.4" stroke-linecap="round" stroke-linejoin="round"/>
<path d="M56.0001 45.0488C56.0035 45.2059 55.9545 45.3597 55.8609 45.4859C55.7673 45.6121 55.6345 45.7035 55.4833 45.7456L41.3613 49.842V55.7121L55.4833 51.5946C55.6354 51.5504 55.7685 51.457 55.862 51.329C55.9554 51.201 56.0041 51.0457 56.0001 50.8872V45.0488Z" fill="#06C270" stroke="#3D3D3D" stroke-width="0.4" stroke-linecap="round" stroke-linejoin="round"/>
<path d="M37.2477 49.8425L18.5062 44.3631C18.375 44.3289 18.2568 44.2564 18.1667 44.1549C18.0766 44.0534 18.0186 43.9275 18 43.793V49.6419C18.0186 49.7788 18.0763 49.9073 18.1661 50.0122C18.2559 50.1171 18.374 50.1938 18.5062 50.2332L37.2477 55.7126C38.5811 56.0966 39.9957 56.0966 41.3292 55.7126V49.8425C39.9966 50.2329 38.5802 50.2329 37.2477 49.8425Z" fill="#E0E0E0" stroke="#3D3D3D" stroke-width="0.4" stroke-linecap="round" stroke-linejoin="round"/>
<path d="M31.1416 49.3878L24.9929 47.5934C24.795 47.5361 24.5866 47.5256 24.384 47.5629C24.1813 47.6001 23.99 47.6839 23.8253 47.8078C23.6607 47.9317 23.5271 48.0922 23.435 48.2766C23.3429 48.4611 23.295 48.6644 23.2949 48.8706C23.2944 49.2894 23.4298 49.6971 23.6809 50.0322C23.932 50.3673 24.2851 50.6116 24.687 50.7284L30.8253 52.5228C31.0232 52.5801 31.2316 52.5905 31.4342 52.5533C31.6368 52.5161 31.828 52.4322 31.9927 52.3084C32.1574 52.1845 32.2911 52.024 32.3832 51.8395C32.4752 51.6551 32.5232 51.4518 32.5233 51.2456C32.5245 50.8281 32.3905 50.4214 32.1414 50.0865C31.8923 49.7516 31.5415 49.5064 31.1416 49.3878Z" fill="#06C270" stroke="#3D3D3D" stroke-width="0.4" stroke-linecap="round" stroke-linejoin="round"/>
</g>
<rect x="0.25" y="0.25" width="73.5" height="73.5" stroke="#161616" stroke-width="0.5"/>
<path d="M11.0118 90.357C10.0768 90.357 9.37281 90.775 8.93281 91.446V88.3H7.97581V96H8.93281V95.054C9.37281 95.725 10.0768 96.143 11.0118 96.143C12.5408 96.143 13.7948 94.878 13.7948 93.25C13.7948 91.622 12.5408 90.357 11.0118 90.357ZM10.8908 95.219C9.77981 95.219 8.93281 94.372 8.93281 93.25C8.93281 92.128 9.77981 91.281 10.8908 91.281C11.9908 91.281 12.8378 92.128 12.8378 93.25C12.8378 94.372 11.9908 95.219 10.8908 95.219ZM16.0937 91.424V90.5H15.1367V96H16.0937V93.085C16.0937 91.787 16.9847 91.369 17.8097 91.402V90.401C17.1167 90.401 16.4457 90.654 16.0937 91.424ZM21.2303 96.143C22.8363 96.143 24.1343 94.878 24.1343 93.25C24.1343 91.622 22.8363 90.357 21.2303 90.357C19.6243 90.357 18.3373 91.622 18.3373 93.25C18.3373 94.878 19.6243 96.143 21.2303 96.143ZM21.2303 95.208C20.1413 95.208 19.2943 94.361 19.2943 93.25C19.2943 92.139 20.1413 91.292 21.2303 91.292C22.3303 91.292 23.1773 92.139 23.1773 93.25C23.1773 94.361 22.3303 95.208 21.2303 95.208ZM30.0165 90.5V91.446C29.5765 90.775 28.8725 90.357 27.9375 90.357C26.4085 90.357 25.1545 91.622 25.1545 93.25C25.1545 94.878 26.4085 96.143 27.9375 96.143C28.8725 96.143 29.5765 95.725 30.0165 95.054V96H30.9735V90.5H30.0165ZM28.0585 95.219C26.9585 95.219 26.1115 94.372 26.1115 93.25C26.1115 92.128 26.9585 91.281 28.0585 91.281C29.1695 91.281 30.0165 92.128 30.0165 93.25C30.0165 94.372 29.1695 95.219 28.0585 95.219ZM37.1775 88.3V91.446C36.7375 90.775 36.0335 90.357 35.0985 90.357C33.5695 90.357 32.3155 91.622 32.3155 93.25C32.3155 94.878 33.5695 96.143 35.0985 96.143C36.0335 96.143 36.7375 95.725 37.1775 95.054V96H38.1345V88.3H37.1775ZM35.2195 95.219C34.1195 95.219 33.2725 94.372 33.2725 93.25C33.2725 92.128 34.1195 91.281 35.2195 91.281C36.3305 91.281 37.1775 92.128 37.1775 93.25C37.1775 94.372 36.3305 95.219 35.2195 95.219ZM42.8204 90.357C41.8854 90.357 41.1814 90.775 40.7414 91.446V88.3H39.7844V96H40.7414V95.054C41.1814 95.725 41.8854 96.143 42.8204 96.143C44.3494 96.143 45.6034 94.878 45.6034 93.25C45.6034 91.622 44.3494 90.357 42.8204 90.357ZM42.6994 95.219C41.5884 95.219 40.7414 94.372 40.7414 93.25C40.7414 92.128 41.5884 91.281 42.6994 91.281C43.7994 91.281 44.6464 92.128 44.6464 93.25C44.6464 94.372 43.7994 95.219 42.6994 95.219ZM51.4993 90.5V91.446C51.0593 90.775 50.3553 90.357 49.4203 90.357C47.8913 90.357 46.6373 91.622 46.6373 93.25C46.6373 94.878 47.8913 96.143 49.4203 96.143C50.3553 96.143 51.0593 95.725 51.4993 95.054V96H52.4563V90.5H51.4993ZM49.5413 95.219C48.4413 95.219 47.5943 94.372 47.5943 93.25C47.5943 92.128 48.4413 91.281 49.5413 91.281C50.6523 91.281 51.4993 92.128 51.4993 93.25C51.4993 94.372 50.6523 95.219 49.5413 95.219ZM56.8453 90.357C56.0753 90.357 55.4703 90.643 55.0633 91.292V90.5H54.1063V96H55.0633V93.085C55.0633 91.787 55.7783 91.27 56.6583 91.27C57.5053 91.27 58.0223 91.776 58.0223 92.678V96H58.9793V92.623C58.9793 91.215 58.1323 90.357 56.8453 90.357ZM65.0693 88.3V91.446C64.6293 90.775 63.9253 90.357 62.9903 90.357C61.4613 90.357 60.2073 91.622 60.2073 93.25C60.2073 94.878 61.4613 96.143 62.9903 96.143C63.9253 96.143 64.6293 95.725 65.0693 95.054V96H66.0263V88.3H65.0693ZM63.1113 95.219C62.0113 95.219 61.1643 94.372 61.1643 93.25C61.1643 92.128 62.0113 91.281 63.1113 91.281C64.2223 91.281 65.0693 92.128 65.0693 93.25C65.0693 94.372 64.2223 95.219 63.1113 95.219Z" fill="#D2D2D2"/>
<path d="M9.42609 121H10.7561L12.2461 115.89L13.7261 121H15.0561L17.0361 114H15.8261L14.3561 119.47L12.7761 114H11.7161L10.1261 119.47L8.65609 114H7.44609L9.42609 121ZM19.9363 114V121H21.0863V114H19.9363ZM28.6852 114V118.75L25.3852 114H24.4852V121H25.6352V116.25L28.9352 121H29.8352V114H28.6852ZM39.4832 121L37.6832 117.86V117.12H38.2832C38.5232 117.12 38.7332 117.087 38.9132 117.02C39.0999 116.947 39.2532 116.843 39.3732 116.71C39.4999 116.577 39.5865 116.417 39.6332 116.23H37.6832V115.49H39.6232C39.5832 115.317 39.5132 115.163 39.4132 115.03C39.3199 114.897 39.1932 114.793 39.0332 114.72C38.8799 114.64 38.6932 114.6 38.4732 114.6H37.6832V113.86H42.1932V114.6H40.6232C40.7365 114.727 40.8299 114.863 40.9032 115.01C40.9832 115.157 41.0365 115.317 41.0632 115.49H42.1932V116.23H41.0832C41.0165 116.723 40.8265 117.11 40.5132 117.39C40.1999 117.663 39.7965 117.85 39.3032 117.95L41.2632 121H39.4832ZM48.0959 116.86L49.5159 114.98V114H45.2159V115.08H48.1459L46.6359 117.07L47.0959 117.76H47.3559C48.1459 117.76 48.6559 118.18 48.6559 118.88C48.6559 119.58 48.1459 120.01 47.3559 120.01C46.6559 120.01 46.1859 119.7 45.9859 119.11L45.0059 119.68C45.3959 120.66 46.3259 121.13 47.3559 121.13C48.6459 121.13 49.8059 120.35 49.8059 118.88C49.8059 117.79 49.0559 117.09 48.0959 116.86ZM55.3063 121.13C57.0663 121.13 58.0563 119.66 58.0563 117.5C58.0563 115.34 57.0663 113.87 55.3063 113.87C53.5463 113.87 52.5563 115.34 52.5563 117.5C52.5563 119.66 53.5463 121.13 55.3063 121.13ZM55.3063 120.01C54.2763 120.01 53.7063 119.11 53.7063 117.5C53.7063 115.89 54.2763 114.99 55.3063 114.99C56.3463 114.99 56.9063 115.89 56.9063 117.5C56.9063 119.11 56.3463 120.01 55.3063 120.01ZM63.6051 121.13C65.3651 121.13 66.3551 119.66 66.3551 117.5C66.3551 115.34 65.3651 113.87 63.6051 113.87C61.8451 113.87 60.8551 115.34 60.8551 117.5C60.8551 119.66 61.8451 121.13 63.6051 121.13ZM63.6051 120.01C62.5751 120.01 62.0051 119.11 62.0051 117.5C62.0051 115.89 62.5751 114.99 63.6051 114.99C64.6451 114.99 65.2051 115.89 65.2051 117.5C65.2051 119.11 64.6451 120.01 63.6051 120.01Z" fill="#3BFFAD"/>
<defs>
<clipPath id="clip0_124_217">
<rect width="40" height="40" fill="white" transform="translate(17 17)"/>
</clipPath>
</defs>
</svg>
