<svg width="129" height="38" viewBox="0 0 129 38" fill="none" xmlns="http://www.w3.org/2000/svg">
<rect width="129" height="38" rx="19" fill="black"/>
<path d="M29.656 23.182C28.172 23.182 26.9447 22.692 25.974 21.712C25.0127 20.732 24.532 19.528 24.532 18.1C24.532 16.672 25.0127 15.468 25.974 14.488C26.9447 13.508 28.172 13.018 29.656 13.018C30.552 13.018 31.3733 13.2327 32.12 13.662C32.876 14.0913 33.464 14.67 33.884 15.398L32.75 16.056C32.47 15.5147 32.05 15.0853 31.49 14.768C30.9393 14.4413 30.328 14.278 29.656 14.278C28.5267 14.278 27.6027 14.642 26.884 15.37C26.1747 16.098 25.82 17.008 25.82 18.1C25.82 19.1827 26.1747 20.088 26.884 20.816C27.6027 21.544 28.5267 21.908 29.656 21.908C30.328 21.908 30.9393 21.7493 31.49 21.432C32.05 21.1053 32.47 20.676 32.75 20.144L33.884 20.788C33.4733 21.516 32.89 22.0993 32.134 22.538C31.378 22.9673 30.552 23.182 29.656 23.182ZM35.3436 23V12.78H36.5616V23H35.3436ZM44.2858 16H45.5038V23H44.2858V21.796C43.6791 22.72 42.7971 23.182 41.6398 23.182C40.6598 23.182 39.8244 22.8273 39.1338 22.118C38.4431 21.3993 38.0978 20.5267 38.0978 19.5C38.0978 18.4733 38.4431 17.6053 39.1338 16.896C39.8244 16.1773 40.6598 15.818 41.6398 15.818C42.7971 15.818 43.6791 16.28 44.2858 17.204V16ZM41.7938 22.006C42.5031 22.006 43.0958 21.768 43.5718 21.292C44.0478 20.8067 44.2858 20.2093 44.2858 19.5C44.2858 18.7907 44.0478 18.198 43.5718 17.722C43.0958 17.2367 42.5031 16.994 41.7938 16.994C41.0938 16.994 40.5058 17.2367 40.0298 17.722C39.5538 18.198 39.3158 18.7907 39.3158 19.5C39.3158 20.2093 39.5538 20.8067 40.0298 21.292C40.5058 21.768 41.0938 22.006 41.7938 22.006ZM48.0352 14.726C47.8018 14.726 47.6058 14.6467 47.4472 14.488C47.2885 14.3293 47.2092 14.138 47.2092 13.914C47.2092 13.69 47.2885 13.4987 47.4472 13.34C47.6058 13.172 47.8018 13.088 48.0352 13.088C48.2592 13.088 48.4505 13.172 48.6092 13.34C48.7678 13.4987 48.8472 13.69 48.8472 13.914C48.8472 14.138 48.7678 14.3293 48.6092 14.488C48.4505 14.6467 48.2592 14.726 48.0352 14.726ZM47.4192 23V16H48.6372V23H47.4192ZM58.1253 15.818C58.9093 15.818 59.544 16.0747 60.0293 16.588C60.5147 17.092 60.7573 17.778 60.7573 18.646V23H59.5393V18.688C59.5393 18.1467 59.3993 17.7267 59.1193 17.428C58.8393 17.1293 58.466 16.98 57.9993 16.98C57.4767 16.98 57.0567 17.1573 56.7393 17.512C56.4313 17.8573 56.2773 18.3893 56.2773 19.108V23H55.0593V18.688C55.0593 18.1467 54.924 17.7267 54.6533 17.428C54.392 17.1293 54.0327 16.98 53.5753 16.98C53.062 16.98 52.6327 17.1573 52.2873 17.512C51.9513 17.8667 51.7833 18.3987 51.7833 19.108V23H50.5653V16H51.7833V16.938C52.2593 16.1913 52.9547 15.818 53.8693 15.818C54.812 15.818 55.498 16.2147 55.9273 17.008C56.4127 16.2147 57.1453 15.818 58.1253 15.818ZM67.3042 17.176C67.7055 16.308 68.4335 15.874 69.4882 15.874V17.148C68.8909 17.12 68.3775 17.2787 67.9482 17.624C67.5189 17.9693 67.3042 18.5247 67.3042 19.29V23H66.0862V16H67.3042V17.176ZM71.2211 20.06C71.3425 20.6853 71.6271 21.1707 72.0751 21.516C72.5325 21.8613 73.0925 22.034 73.7551 22.034C74.6791 22.034 75.3511 21.6933 75.7711 21.012L76.8071 21.6C76.1258 22.6547 75.0991 23.182 73.7271 23.182C72.6165 23.182 71.7111 22.8367 71.0111 22.146C70.3205 21.446 69.9751 20.564 69.9751 19.5C69.9751 18.4453 70.3158 17.568 70.9971 16.868C71.6785 16.168 72.5605 15.818 73.6431 15.818C74.6698 15.818 75.5051 16.182 76.1491 16.91C76.8025 17.6287 77.1291 18.4967 77.1291 19.514C77.1291 19.6913 77.1151 19.8733 77.0871 20.06H71.2211ZM73.6431 16.966C72.9898 16.966 72.4485 17.1527 72.0191 17.526C71.5898 17.89 71.3238 18.38 71.2211 18.996H75.8971C75.7945 18.3333 75.5331 17.8293 75.1131 17.484C74.6931 17.1387 74.2031 16.966 73.6431 16.966ZM86.5718 16H87.8458L85.6758 23H84.4298L82.7918 17.82L81.1538 23H79.9078L77.7378 16H79.0118L80.5518 21.32L82.2038 16H83.3798L85.0318 21.334L86.5718 16ZM94.6918 16H95.9098V23H94.6918V21.796C94.0851 22.72 93.2031 23.182 92.0458 23.182C91.0658 23.182 90.2305 22.8273 89.5398 22.118C88.8491 21.3993 88.5038 20.5267 88.5038 19.5C88.5038 18.4733 88.8491 17.6053 89.5398 16.896C90.2305 16.1773 91.0658 15.818 92.0458 15.818C93.2031 15.818 94.0851 16.28 94.6918 17.204V16ZM92.1998 22.006C92.9091 22.006 93.5018 21.768 93.9778 21.292C94.4538 20.8067 94.6918 20.2093 94.6918 19.5C94.6918 18.7907 94.4538 18.198 93.9778 17.722C93.5018 17.2367 92.9091 16.994 92.1998 16.994C91.4998 16.994 90.9118 17.2367 90.4358 17.722C89.9598 18.198 89.7218 18.7907 89.7218 19.5C89.7218 20.2093 89.9598 20.8067 90.4358 21.292C90.9118 21.768 91.4998 22.006 92.1998 22.006ZM99.0432 17.176C99.4445 16.308 100.173 15.874 101.227 15.874V17.148C100.63 17.12 100.117 17.2787 99.6872 17.624C99.2578 17.9693 99.0432 18.5247 99.0432 19.29V23H97.8252V16H99.0432V17.176ZM107.902 13.2H109.12V23H107.902V21.796C107.295 22.72 106.413 23.182 105.256 23.182C104.276 23.182 103.441 22.8273 102.75 22.118C102.059 21.3993 101.714 20.5267 101.714 19.5C101.714 18.4733 102.059 17.6053 102.75 16.896C103.441 16.1773 104.276 15.818 105.256 15.818C106.413 15.818 107.295 16.28 107.902 17.204V13.2ZM105.41 22.006C106.119 22.006 106.712 21.768 107.188 21.292C107.664 20.8067 107.902 20.2093 107.902 19.5C107.902 18.7907 107.664 18.198 107.188 17.722C106.712 17.2367 106.119 16.994 105.41 16.994C104.71 16.994 104.122 17.2367 103.646 17.722C103.17 18.198 102.932 18.7907 102.932 19.5C102.932 20.2093 103.17 20.8067 103.646 21.292C104.122 21.768 104.71 22.006 105.41 22.006Z" fill="white"/>
</svg>
