<svg width="60" height="77" viewBox="0 0 60 77" fill="none" xmlns="http://www.w3.org/2000/svg">
<rect width="60" height="77" fill="#0D0D0D"/>
<path fill-rule="evenodd" clip-rule="evenodd" d="M38.4 28.6H21.6V32H38.4V28.6ZM21 32V32.5V40.4V41H21.6H38.4H39V40.4V32.5V32V28.6V28H38.4H21.6H21V28.6V32ZM38.4 40.4V32.5H21.6V40.4H38.4ZM37 38H33V38.5H37V38Z" fill="#8A8A8A"/>
<path d="M21.286 54.713L21.8143 54.9975L22.0897 54.486L21.5875 54.1942L21.286 54.713ZM20.472 54.24L20.7735 53.7212L20.2376 53.4098L19.9437 53.9555L20.472 54.24ZM20.439 52.26L19.8963 52.516L20.174 53.1047L20.7382 52.7801L20.439 52.26ZM21.242 51.798L21.5412 52.3181L22.0243 52.0401L21.7827 51.5379L21.242 51.798ZM18.811 56.743C20.1027 56.743 21.2443 56.056 21.8143 54.9975L20.7577 54.4285C20.4037 55.086 19.6754 55.543 18.811 55.543V56.743ZM21.5875 54.1942L20.7735 53.7212L20.1705 54.7588L20.9845 55.2318L21.5875 54.1942ZM19.9437 53.9555C19.742 54.3301 19.3418 54.597 18.811 54.597V55.797C19.7762 55.797 20.586 55.2939 21.0003 54.5245L19.9437 53.9555ZM18.811 54.597C18.0468 54.597 17.475 54.0231 17.475 53.25H16.275C16.275 54.6769 17.3752 55.797 18.811 55.797V54.597ZM17.475 53.25C17.475 52.4637 18.049 51.892 18.811 51.892V50.692C17.373 50.692 16.275 51.8143 16.275 53.25H17.475ZM18.811 51.892C19.3374 51.892 19.7293 52.1619 19.8963 52.516L20.9817 52.004C20.5987 51.1921 19.7586 50.692 18.811 50.692V51.892ZM20.7382 52.7801L21.5412 52.3181L20.9428 51.2779L20.1398 51.7399L20.7382 52.7801ZM21.7827 51.5379C21.2564 50.4437 20.1106 49.757 18.811 49.757V50.957C19.6894 50.957 20.3916 51.4143 20.7013 52.0581L21.7827 51.5379ZM18.811 49.757C16.8141 49.757 15.318 51.2951 15.318 53.25H16.518C16.518 51.9489 17.4859 50.957 18.811 50.957V49.757ZM15.318 53.25C15.318 55.2049 16.8141 56.743 18.811 56.743V55.543C17.4859 55.543 16.518 54.5511 16.518 53.25H15.318ZM26.9097 50.5V49.9H26.3097V50.5H26.9097ZM26.9097 51.446L26.4079 51.775L27.5097 53.4552V51.446H26.9097ZM26.9097 55.054H27.5097V53.0448L26.4079 54.725L26.9097 55.054ZM26.9097 56H26.3097V56.6H26.9097V56ZM27.8667 56V56.6H28.4667V56H27.8667ZM27.8667 50.5H28.4667V49.9H27.8667V50.5ZM26.3097 50.5V51.446H27.5097V50.5H26.3097ZM27.4114 51.117C26.8611 50.2777 25.9689 49.757 24.8307 49.757V50.957C25.5625 50.957 26.0783 51.2723 26.4079 51.775L27.4114 51.117ZM24.8307 49.757C22.9537 49.757 21.4477 51.3075 21.4477 53.25H22.6477C22.6477 51.9365 23.6496 50.957 24.8307 50.957V49.757ZM21.4477 53.25C21.4477 55.1925 22.9537 56.743 24.8307 56.743V55.543C23.6496 55.543 22.6477 54.5635 22.6477 53.25H21.4477ZM24.8307 56.743C25.9689 56.743 26.8611 56.2223 27.4114 55.383L26.4079 54.725C26.0783 55.2277 25.5625 55.543 24.8307 55.543V56.743ZM26.3097 55.054V56H27.5097V55.054H26.3097ZM26.9097 56.6H27.8667V55.4H26.9097V56.6ZM28.4667 56V50.5H27.2667V56H28.4667ZM27.8667 49.9H26.9097V51.1H27.8667V49.9ZM24.9517 54.619C24.1875 54.619 23.6047 54.0451 23.6047 53.25H22.4047C22.4047 54.6989 23.5159 55.819 24.9517 55.819V54.619ZM23.6047 53.25C23.6047 52.4549 24.1875 51.881 24.9517 51.881V50.681C23.5159 50.681 22.4047 51.8011 22.4047 53.25H23.6047ZM24.9517 51.881C25.7291 51.881 26.3097 52.4572 26.3097 53.25H27.5097C27.5097 51.7988 26.3963 50.681 24.9517 50.681V51.881ZM26.3097 53.25C26.3097 54.0428 25.7291 54.619 24.9517 54.619V55.819C26.3963 55.819 27.5097 54.7012 27.5097 53.25H26.3097ZM30.4736 51.424H29.8736L31.0193 51.6735L30.4736 51.424ZM30.4736 50.5H31.0736V49.9H30.4736V50.5ZM29.5166 50.5V49.9H28.9166V50.5H29.5166ZM29.5166 56H28.9166V56.6H29.5166V56ZM30.4736 56V56.6H31.0736V56H30.4736ZM32.1896 51.402L32.1656 52.0015L32.7896 52.0265V51.402H32.1896ZM32.1896 50.401H32.7896V49.801H32.1896V50.401ZM31.0736 51.424V50.5H29.8736V51.424H31.0736ZM30.4736 49.9H29.5166V51.1H30.4736V49.9ZM28.9166 50.5V56H30.1166V50.5H28.9166ZM29.5166 56.6H30.4736V55.4H29.5166V56.6ZM31.0736 56V53.085H29.8736V56H31.0736ZM31.0736 53.085C31.0736 52.5852 31.2376 52.3414 31.3987 52.2115C31.5799 52.0655 31.8517 51.989 32.1656 52.0015L32.2136 50.8025C31.7025 50.782 31.1163 50.898 30.6458 51.2772C30.1552 51.6726 29.8736 52.2868 29.8736 53.085H31.0736ZM32.7896 51.402V50.401H31.5896V51.402H32.7896ZM32.1896 49.801C31.3426 49.801 30.4072 50.1261 29.9279 51.1745L31.0193 51.6735C31.244 51.1819 31.6506 51.001 32.1896 51.001V49.801ZM37.5792 48.3V47.7H36.9792V48.3H37.5792ZM37.5792 51.446L37.0775 51.775L38.1792 53.4552V51.446H37.5792ZM37.5792 55.054H38.1792V53.0448L37.0775 54.725L37.5792 55.054ZM37.5792 56H36.9792V56.6H37.5792V56ZM38.5362 56V56.6H39.1362V56H38.5362ZM38.5362 48.3H39.1362V47.7H38.5362V48.3ZM36.9792 48.3V51.446H38.1792V48.3H36.9792ZM38.081 51.117C37.5306 50.2777 36.6384 49.757 35.5002 49.757V50.957C36.232 50.957 36.7478 51.2723 37.0775 51.775L38.081 51.117ZM35.5002 49.757C33.6233 49.757 32.1172 51.3075 32.1172 53.25H33.3172C33.3172 51.9365 34.3192 50.957 35.5002 50.957V49.757ZM32.1172 53.25C32.1172 55.1925 33.6233 56.743 35.5002 56.743V55.543C34.3192 55.543 33.3172 54.5635 33.3172 53.25H32.1172ZM35.5002 56.743C36.6384 56.743 37.5306 56.2223 38.081 55.383L37.0775 54.725C36.7478 55.2277 36.232 55.543 35.5002 55.543V56.743ZM36.9792 55.054V56H38.1792V55.054H36.9792ZM37.5792 56.6H38.5362V55.4H37.5792V56.6ZM39.1362 56V48.3H37.9362V56H39.1362ZM38.5362 47.7H37.5792V48.9H38.5362V47.7ZM35.6212 54.619C34.857 54.619 34.2742 54.0451 34.2742 53.25H33.0742C33.0742 54.6989 34.1854 55.819 35.6212 55.819V54.619ZM34.2742 53.25C34.2742 52.4549 34.857 51.881 35.6212 51.881V50.681C34.1854 50.681 33.0742 51.8011 33.0742 53.25H34.2742ZM35.6212 51.881C36.3986 51.881 36.9792 52.4572 36.9792 53.25H38.1792C38.1792 51.7988 37.0658 50.681 35.6212 50.681V51.881ZM36.9792 53.25C36.9792 54.0428 36.3986 54.619 35.6212 54.619V55.819C37.0658 55.819 38.1792 54.7012 38.1792 53.25H36.9792ZM43.1564 51.952L42.6037 52.1854L42.8648 52.8039L43.4502 52.4751L43.1564 51.952ZM43.9594 51.501L44.2532 52.0241L44.7487 51.7458L44.4977 51.236L43.9594 51.501ZM40.6594 54.383L41.2286 54.1933L40.9968 53.4979L40.361 53.8625L40.6594 54.383ZM39.8344 54.856L39.536 54.3355L39.0757 54.5994L39.2813 55.0885L39.8344 54.856ZM41.6004 51.985C41.6004 51.9724 41.6019 51.9659 41.6024 51.9638C41.603 51.9618 41.6034 51.961 41.6038 51.9603C41.6044 51.9593 41.6113 51.9473 41.638 51.9295C41.6984 51.8891 41.8186 51.848 41.9794 51.848V50.648C41.6452 50.648 41.2759 50.7279 40.9706 50.9322C40.6458 51.1495 40.4004 51.5094 40.4004 51.985H41.6004ZM41.9794 51.848C42.3068 51.848 42.5175 51.9813 42.6037 52.1854L43.7092 51.7186C43.3773 50.9327 42.62 50.648 41.9794 50.648V51.848ZM43.4502 52.4751L44.2532 52.0241L43.6656 50.9779L42.8626 51.4289L43.4502 52.4751ZM44.4977 51.236C44.0325 50.2911 43.081 49.757 41.9794 49.757V50.957C42.6819 50.957 43.1823 51.2809 43.4211 51.766L44.4977 51.236ZM41.9794 49.757C40.6465 49.757 39.4324 50.5969 39.4324 51.996H40.6324C40.6324 51.4591 41.0903 50.957 41.9794 50.957V49.757ZM39.4324 51.996C39.4324 52.6796 39.7104 53.1797 40.1345 53.5256C40.5235 53.8428 41.0108 54.0091 41.4019 54.125C41.8455 54.2565 42.1432 54.3215 42.379 54.4307C42.4844 54.4795 42.5189 54.5134 42.5247 54.5201C42.5252 54.5207 42.5202 54.5147 42.5159 54.5033C42.5116 54.4918 42.5124 54.4864 42.5124 54.493H43.7124C43.7124 54.1993 43.6108 53.9432 43.4355 53.7388C43.2728 53.5492 43.0667 53.4267 42.8833 53.3418C42.5417 53.1836 42.0693 53.0712 41.7429 52.9745C41.3641 52.8622 41.0813 52.7493 40.8929 52.5956C40.7395 52.4705 40.6324 52.3079 40.6324 51.996H39.4324ZM42.5124 54.493C42.5124 54.5302 42.5048 54.5369 42.5081 54.5313C42.5103 54.5277 42.5066 54.5374 42.4778 54.5546C42.4081 54.5965 42.2584 54.641 42.0234 54.641V55.841C42.3715 55.841 42.7662 55.781 43.0952 55.5836C43.4594 55.3651 43.7124 54.9912 43.7124 54.493H42.5124ZM42.0234 54.641C41.5396 54.641 41.3054 54.4237 41.2286 54.1933L40.0902 54.5727C40.3654 55.3983 41.1432 55.841 42.0234 55.841V54.641ZM40.361 53.8625L39.536 54.3355L40.1328 55.3765L40.9578 54.9035L40.361 53.8625ZM39.2813 55.0885C39.707 56.1014 40.7176 56.743 42.0234 56.743V55.543C41.1292 55.543 40.5998 55.1286 40.3875 54.6235L39.2813 55.0885ZM42.0234 56.743C42.7121 56.743 43.3652 56.5601 43.8609 56.1758C44.3702 55.781 44.6804 55.1956 44.6804 54.493H43.4804C43.4804 54.8134 43.3507 55.053 43.1257 55.2274C42.8871 55.4124 42.5117 55.543 42.0234 55.543V56.743ZM44.6804 54.493C44.6804 53.8049 44.4056 53.3 43.9808 52.9498C43.5908 52.6283 43.1022 52.4614 42.71 52.3458C42.2643 52.2145 41.9682 52.1516 41.7314 52.0432C41.626 51.995 41.5922 51.9617 41.5871 51.9558C41.5869 51.9556 41.5922 51.9621 41.5967 51.974C41.6012 51.986 41.6004 51.9917 41.6004 51.985H40.4004C40.4004 52.2789 40.5021 52.5352 40.6784 52.7396C40.8418 52.9289 41.0486 53.0504 41.2319 53.1344C41.5726 53.2903 42.0465 53.4013 42.3708 53.4969C42.7486 53.6082 43.03 53.7211 43.2175 53.8757C43.3703 54.0017 43.4804 54.1691 43.4804 54.493H44.6804Z" fill="#8A8A8A"/>
</svg>
