<svg width="507" height="273" viewBox="0 0 507 273" fill="none" xmlns="http://www.w3.org/2000/svg">
<rect x="0.635986" y="2.31018" width="504.562" height="270" rx="22.1178" transform="rotate(-0.225754 0.635986 2.31018)" fill="#F8C5C4"/>
<path d="M415.651 79.4701C415.633 74.8894 419.332 71.1614 423.913 71.1433L477.824 70.9309L478.162 156.637L415.956 156.882L415.651 79.4701Z" fill="#725375"/>
<rect x="396.56" y="145.899" width="24.8832" height="9.67679" transform="rotate(-0.225754 396.56 145.899)" fill="#A38199"/>
<rect x="389.703" y="159.75" width="37.3237" height="9.67652" transform="rotate(-0.225754 389.703 159.75)" fill="#A38199"/>
<rect x="389.757" y="173.573" width="42.8532" height="9.67652" transform="rotate(-0.225754 389.757 173.573)" fill="#A38199"/>
<line x1="453.277" y1="156.043" x2="490.601" y2="155.896" stroke="#725375" stroke-width="1.38236"/>
<path d="M469.53 70.9635L486.119 70.8981L486.151 79.1925L469.563 79.2578L469.53 70.9635Z" fill="#725375"/>
<path d="M477.851 77.8425C477.836 74.0253 480.919 70.9186 484.736 70.9036V70.9036C488.553 70.8885 491.66 73.9708 491.675 77.7881L491.768 101.289L477.944 101.343L477.851 77.8425Z" fill="#2D172C"/>
<rect x="428.873" y="102.227" width="37.3237" height="4.14708" rx="2.07354" transform="rotate(-0.225754 428.873 102.227)" stroke="#D9ABAE" stroke-width="1.38236"/>
<rect x="428.234" y="115.362" width="38.7061" height="4.14708" rx="2.07354" transform="rotate(-0.225754 428.234 115.362)" fill="#D9ABAE"/>
<rect x="428.283" y="127.803" width="38.7061" height="4.14708" rx="2.07354" transform="rotate(-0.225754 428.283 127.803)" fill="#D9ABAE"/>
<rect x="406.155" y="125.126" width="58.0591" height="58.0591" rx="29.0296" transform="rotate(-0.225754 406.155 125.126)" fill="white"/>
<path d="M442.749 147.692L442.013 150.254L426.98 150.313L427.715 147.751L442.749 147.692ZM436.08 165.538L427.471 155.56L427.447 153.552L431.399 153.536C432.544 153.531 433.488 153.339 434.232 152.958C434.986 152.566 435.551 152.04 435.927 151.38C436.302 150.719 436.488 149.979 436.485 149.158C436.481 148.24 436.3 147.436 435.941 146.747C435.582 146.046 435.018 145.503 434.25 145.117C433.492 144.72 432.498 144.525 431.267 144.529L426.99 144.546L427.741 141.984L431.257 141.97C433.136 141.963 434.687 142.243 435.909 142.81C437.143 143.367 438.064 144.184 438.673 145.262C439.282 146.339 439.589 147.645 439.595 149.178C439.601 150.496 439.352 151.679 438.848 152.729C438.355 153.768 437.532 154.586 436.379 155.185C435.237 155.783 433.694 156.086 431.75 156.094L439.756 165.329L439.757 165.523L436.08 165.538ZM442.726 141.925L441.991 144.487L429.874 144.535L430.609 141.973L442.726 141.925Z" fill="#FEB197"/>
<rect x="413.788" y="132.699" width="42.8532" height="42.8532" rx="21.4266" transform="rotate(-0.225754 413.788 132.699)" stroke="#FEB197" stroke-width="1.38236"/>
<circle cx="483.545" cy="119.292" r="1.38272" transform="rotate(-0.225754 483.545 119.292)" fill="#E6B5B8"/>
<circle cx="486.386" cy="138.634" r="2.76544" transform="rotate(-0.225754 486.386 138.634)" fill="#E6B5B8"/>
</svg>
