<svg width="74" height="125" viewBox="0 0 74 125" fill="none" xmlns="http://www.w3.org/2000/svg">
<path d="M37.5 42.1191L55 47.3018L37.5 52.4527L20 47.3018L37.5 42.1191Z" fill="#E0E0E0" stroke="#3D3D3D" stroke-width="0.4" stroke-linecap="round" stroke-linejoin="round"/>
<path d="M55 47.3027V50.9232L37.5 56.0002V52.4537L55 47.3027Z" fill="#06C270" stroke="#3D3D3D" stroke-width="0.4" stroke-linecap="round" stroke-linejoin="round"/>
<path d="M37.5 52.4537V56.0002L20 50.8387V47.3027L37.5 52.4537Z" fill="#E0E0E0" stroke="#3D3D3D" stroke-width="0.4" stroke-linecap="round" stroke-linejoin="round"/>
<path d="M49.7079 47.2921L44.0124 37.9824H41.5305L35.8457 47.2921C35.8457 47.4188 36.1745 47.5138 36.567 47.5138C36.9594 47.5138 37.214 47.4294 37.267 47.3238L42.7821 38.5735L48.2972 47.3238C48.2972 47.4294 48.6366 47.5138 48.9972 47.5138C49.3579 47.5138 49.7185 47.4188 49.7185 47.2921H49.7079Z" fill="#E0E0E0" stroke="#3D3D3D" stroke-width="0.4" stroke-linecap="round" stroke-linejoin="round"/>
<path d="M49.3362 20.8405C46.515 16.7029 38.6135 17.1356 31.6877 21.8116C24.762 26.4876 21.4529 33.644 24.2635 37.7922C27.0741 41.9404 34.9968 41.4971 41.912 36.8211C48.8271 32.1452 52.1681 24.9887 49.3362 20.8405Z" fill="#E0E0E0" stroke="#3D3D3D" stroke-width="0.4" stroke-linecap="round" stroke-linejoin="round"/>
<path d="M42.5829 33.6527L38.75 36.2461L40.3183 38.5418L44.1512 35.9485L42.5829 33.6527Z" fill="#8A8A8A" stroke="#3D3D3D" stroke-width="0.4" stroke-linecap="round" stroke-linejoin="round"/>
<path d="M41.5857 36.3082C42.6467 35.5906 43.1545 34.4929 42.7199 33.8565C42.2853 33.22 41.0728 33.2859 40.0119 34.0035C38.9509 34.721 38.4431 35.8187 38.8777 36.4551C39.3123 37.0915 40.5247 37.0258 41.5857 36.3082Z" fill="#06C270" stroke="#3D3D3D" stroke-width="0.4" stroke-linecap="round" stroke-linejoin="round"/>
<path d="M49.3364 20.8398C52.1682 24.988 48.8591 32.1339 41.9122 36.8205C34.9652 41.507 27.0637 41.9292 24.2637 37.7915C27.0955 41.9292 36.1424 43.3436 43.0682 38.6571C49.994 33.9706 52.1682 24.988 49.3364 20.8398Z" fill="#06C270" stroke="#3D3D3D" stroke-width="0.4" stroke-linecap="round" stroke-linejoin="round"/>
<path d="M41.4452 34.4458L34.2754 23.9961L32.9072 24.9144L40.0769 35.3746C40.2254 35.6068 40.6603 35.5752 41.0421 35.3746C41.4239 35.1741 41.5936 34.678 41.4452 34.4458Z" fill="#06C270" stroke="#3D3D3D" stroke-width="0.4" stroke-linecap="round" stroke-linejoin="round"/>
<path d="M34.2757 23.9964C34.1166 23.7642 33.6923 23.7853 33.3105 23.9964C32.9287 24.2075 32.7484 24.6403 32.9075 24.8619C33.0665 25.0836 33.4908 25.0625 33.8726 24.8619C34.2545 24.6614 34.4242 24.2181 34.2757 23.9964Z" fill="#E0E0E0" stroke="#3D3D3D" stroke-width="0.4" stroke-linecap="round" stroke-linejoin="round"/>
<path d="M32.908 24.9258L27.1064 40.1464" stroke="#3D3D3D" stroke-width="0.4" stroke-linecap="round" stroke-linejoin="round"/>
<path d="M34.2754 23.9961L50.439 24.3347" stroke="#3D3D3D" stroke-width="0.4" stroke-linecap="round" stroke-linejoin="round"/>
<rect x="0.25" y="0.25" width="73.5" height="73.5" stroke="#161616" stroke-width="0.5"/>
<path d="M30.2188 88.3H27.2158V96H30.2188C32.3418 96 33.8708 94.284 33.8708 92.15C33.8708 90.016 32.3418 88.3 30.2188 88.3ZM30.2188 95.032H28.2388V89.268H30.2188C31.8028 89.268 32.8918 90.522 32.8918 92.15C32.8918 93.778 31.8028 95.032 30.2188 95.032ZM39.7989 88.3H34.2439V89.268H36.5099V96H37.5219V89.268H39.7989V88.3ZM45.7743 88.3V91.567H42.0343V88.3H41.0113V96H42.0343V92.535H45.7743V96H46.7863V88.3H45.7743Z" fill="#D2D2D2"/>
<path d="M9.42609 121H10.7561L12.2461 115.89L13.7261 121H15.0561L17.0361 114H15.8261L14.3561 119.47L12.7761 114H11.7161L10.1261 119.47L8.65609 114H7.44609L9.42609 121ZM19.9363 114V121H21.0863V114H19.9363ZM28.6852 114V118.75L25.3852 114H24.4852V121H25.6352V116.25L28.9352 121H29.8352V114H28.6852ZM39.4832 121L37.6832 117.86V117.12H38.2832C38.5232 117.12 38.7332 117.087 38.9132 117.02C39.0999 116.947 39.2532 116.843 39.3732 116.71C39.4999 116.577 39.5865 116.417 39.6332 116.23H37.6832V115.49H39.6232C39.5832 115.317 39.5132 115.163 39.4132 115.03C39.3199 114.897 39.1932 114.793 39.0332 114.72C38.8799 114.64 38.6932 114.6 38.4732 114.6H37.6832V113.86H42.1932V114.6H40.6232C40.7365 114.727 40.8299 114.863 40.9032 115.01C40.9832 115.157 41.0365 115.317 41.0632 115.49H42.1932V116.23H41.0832C41.0165 116.723 40.8265 117.11 40.5132 117.39C40.1999 117.663 39.7965 117.85 39.3032 117.95L41.2632 121H39.4832ZM48.0959 116.86L49.5159 114.98V114H45.2159V115.08H48.1459L46.6359 117.07L47.0959 117.76H47.3559C48.1459 117.76 48.6559 118.18 48.6559 118.88C48.6559 119.58 48.1459 120.01 47.3559 120.01C46.6559 120.01 46.1859 119.7 45.9859 119.11L45.0059 119.68C45.3959 120.66 46.3259 121.13 47.3559 121.13C48.6459 121.13 49.8059 120.35 49.8059 118.88C49.8059 117.79 49.0559 117.09 48.0959 116.86ZM55.3063 121.13C57.0663 121.13 58.0563 119.66 58.0563 117.5C58.0563 115.34 57.0663 113.87 55.3063 113.87C53.5463 113.87 52.5563 115.34 52.5563 117.5C52.5563 119.66 53.5463 121.13 55.3063 121.13ZM55.3063 120.01C54.2763 120.01 53.7063 119.11 53.7063 117.5C53.7063 115.89 54.2763 114.99 55.3063 114.99C56.3463 114.99 56.9063 115.89 56.9063 117.5C56.9063 119.11 56.3463 120.01 55.3063 120.01ZM63.6051 121.13C65.3651 121.13 66.3551 119.66 66.3551 117.5C66.3551 115.34 65.3651 113.87 63.6051 113.87C61.8451 113.87 60.8551 115.34 60.8551 117.5C60.8551 119.66 61.8451 121.13 63.6051 121.13ZM63.6051 120.01C62.5751 120.01 62.0051 119.11 62.0051 117.5C62.0051 115.89 62.5751 114.99 63.6051 114.99C64.6451 114.99 65.2051 115.89 65.2051 117.5C65.2051 119.11 64.6451 120.01 63.6051 120.01Z" fill="#3BFFAD"/>
</svg>
