<svg width="74" height="125" viewBox="0 0 74 125" fill="none" xmlns="http://www.w3.org/2000/svg">
<path d="M37 28.4336L53 33.3465L37 38.2171L21 33.3465L37 28.4336Z" fill="#E0E0E0" stroke="#3D3D3D" stroke-width="0.4" stroke-linecap="round" stroke-linejoin="round"/>
<path d="M53 33.3477V50.1829L37 55.0006V38.2182L53 33.3477Z" fill="#06C270" stroke="#3D3D3D" stroke-width="0.4" stroke-linecap="round" stroke-linejoin="round"/>
<path d="M30 23V33.3659C30 33.6835 30.8427 33.9376 31.8773 33.9376C32.912 33.9376 33.744 33.6835 33.744 33.3659V23H30Z" fill="#E0E0E0" stroke="#3D3D3D" stroke-width="0.4" stroke-linecap="round" stroke-linejoin="round"/>
<path d="M33.4803 23.1929C33.4803 23.5105 32.6483 23.7646 31.6137 23.7646C30.579 23.7646 29.7363 23.5105 29.7363 23.1929C29.7363 22.8752 30.579 22.6211 31.6137 22.6211C32.6483 22.6211 33.4803 22.8752 33.4803 23.1929Z" fill="#E0E0E0" stroke="#3D3D3D" stroke-width="0.4" stroke-linecap="round" stroke-linejoin="round"/>
<path d="M40.5312 23.1934V33.5592C40.5312 33.8769 41.3633 34.131 42.3979 34.131C43.4326 34.131 44.2753 33.8769 44.2753 33.5592V23.1934H40.5312Z" fill="#E0E0E0" stroke="#3D3D3D" stroke-width="0.4" stroke-linecap="round" stroke-linejoin="round"/>
<path d="M44.2753 23.1929C44.2753 23.5105 43.4326 23.7646 42.3979 23.7646C41.3633 23.7646 40.5312 23.5105 40.5312 23.1929C40.5312 22.8752 41.3633 22.6211 42.3979 22.6211C43.4326 22.6211 44.2753 22.8752 44.2753 23.1929Z" fill="#E0E0E0" stroke="#3D3D3D" stroke-width="0.4" stroke-linecap="round" stroke-linejoin="round"/>
<path d="M29.7363 19.5723V24.7711C29.7363 25.0887 30.579 25.3534 31.6137 25.3534C32.6483 25.3534 33.4803 25.0887 33.4803 24.7711V19.5723H29.7363Z" fill="#06C270" stroke="#3D3D3D" stroke-width="0.4" stroke-linecap="round" stroke-linejoin="round"/>
<path d="M33.4803 19.5718C33.4803 19.8894 32.6483 20.1435 31.6137 20.1435C30.579 20.1435 29.7363 19.8894 29.7363 19.5718C29.7363 19.2541 30.579 19 31.6137 19C32.6483 19 33.4803 19.2541 33.4803 19.5718Z" fill="#8A8A8A" stroke="#3D3D3D" stroke-width="0.4" stroke-linecap="round" stroke-linejoin="round"/>
<path d="M40.5312 19.5723V24.7711C40.5312 25.0887 41.3633 25.3534 42.3979 25.3534C43.4326 25.3534 44.2753 25.0887 44.2753 24.7711V19.5723H40.5312Z" fill="#06C270" stroke="#3D3D3D" stroke-width="0.4" stroke-linecap="round" stroke-linejoin="round"/>
<path d="M44.2753 19.5718C44.2753 19.8894 43.4326 20.1435 42.3979 20.1435C41.3633 20.1435 40.5312 19.8894 40.5312 19.5718C40.5312 19.2541 41.3633 19 42.3979 19C43.4326 19 44.2753 19.2541 44.2753 19.5718Z" fill="#8A8A8A" stroke="#3D3D3D" stroke-width="0.4" stroke-linecap="round" stroke-linejoin="round"/>
<path d="M37 38.2182V55.0006L21 50.1088V33.3477L37 38.2182Z" fill="#E0E0E0" stroke="#3D3D3D" stroke-width="0.4" stroke-linecap="round" stroke-linejoin="round"/>
<path d="M31.9872 44.1581L29.2672 43.3322L30.3445 39.584L26.0352 44.1369L28.7338 44.9628L27.6565 48.764L31.9872 44.1581Z" fill="#06C270" stroke="#3D3D3D" stroke-width="0.4" stroke-linecap="round" stroke-linejoin="round"/>
<rect x="0.25" y="0.25" width="73.5" height="73.5" stroke="#161616" stroke-width="0.5"/>
<path d="M12.5235 93.69H17.1325C17.1545 93.547 17.1655 93.404 17.1655 93.261C17.1655 91.721 16.0875 90.357 14.4265 90.357C12.7105 90.357 11.5445 91.622 11.5445 93.25C11.5445 94.9 12.7215 96.143 14.4925 96.143C15.5925 96.143 16.4285 95.648 16.9125 94.9L16.0985 94.438C15.8235 94.889 15.2735 95.241 14.5145 95.241C13.4915 95.241 12.7105 94.68 12.5235 93.69ZM14.4265 91.259C15.2515 91.259 16.0325 91.765 16.1975 92.854H12.5235C12.6775 91.897 13.3925 91.259 14.4265 91.259ZM18.4656 96H19.4226V87.97H18.4656V96ZM21.7535 93.69H26.3625C26.3845 93.547 26.3955 93.404 26.3955 93.261C26.3955 91.721 25.3175 90.357 23.6565 90.357C21.9405 90.357 20.7745 91.622 20.7745 93.25C20.7745 94.9 21.9515 96.143 23.7225 96.143C24.8225 96.143 25.6585 95.648 26.1425 94.9L25.3285 94.438C25.0535 94.889 24.5035 95.241 23.7445 95.241C22.7215 95.241 21.9405 94.68 21.7535 93.69ZM23.6565 91.259C24.4815 91.259 25.2625 91.765 25.4275 92.854H21.7535C21.9075 91.897 22.6225 91.259 23.6565 91.259ZM30.2699 96.143C31.3479 96.143 32.2829 95.571 32.7449 94.713L31.9309 94.24C31.6229 94.812 31.0179 95.197 30.2699 95.197C29.1699 95.197 28.3339 94.35 28.3339 93.25C28.3339 92.139 29.1699 91.292 30.2699 91.292C31.0069 91.292 31.6229 91.677 31.8979 92.26L32.7009 91.798C32.2829 90.929 31.3589 90.357 30.2699 90.357C28.6089 90.357 27.3769 91.622 27.3769 93.25C27.3769 94.878 28.6089 96.143 30.2699 96.143ZM36.8818 91.424V90.5H35.4188V88.96L34.4618 89.246V90.5H33.3728V91.424H34.4618V94.405C34.4618 95.78 35.2318 96.22 36.8818 96V95.142C35.9028 95.186 35.4188 95.241 35.4188 94.405V91.424H36.8818ZM39.204 91.424V90.5H38.247V96H39.204V93.085C39.204 91.787 40.095 91.369 40.92 91.402V90.401C40.227 90.401 39.556 90.654 39.204 91.424ZM42.5404 89.499C42.8924 89.499 43.1784 89.213 43.1784 88.861C43.1784 88.509 42.8924 88.212 42.5404 88.212C42.1774 88.212 41.8914 88.509 41.8914 88.861C41.8914 89.213 42.1774 89.499 42.5404 89.499ZM42.0564 96H43.0134V90.5H42.0564V96ZM47.2584 96.143C48.3364 96.143 49.2714 95.571 49.7334 94.713L48.9194 94.24C48.6114 94.812 48.0064 95.197 47.2584 95.197C46.1584 95.197 45.3224 94.35 45.3224 93.25C45.3224 92.139 46.1584 91.292 47.2584 91.292C47.9954 91.292 48.6114 91.677 48.8864 92.26L49.6894 91.798C49.2714 90.929 48.3474 90.357 47.2584 90.357C45.5974 90.357 44.3654 91.622 44.3654 93.25C44.3654 94.878 45.5974 96.143 47.2584 96.143ZM51.3622 89.499C51.7142 89.499 52.0002 89.213 52.0002 88.861C52.0002 88.509 51.7142 88.212 51.3622 88.212C50.9992 88.212 50.7132 88.509 50.7132 88.861C50.7132 89.213 50.9992 89.499 51.3622 89.499ZM50.8782 96H51.8352V90.5H50.8782V96ZM56.4872 91.424V90.5H55.0242V88.96L54.0672 89.246V90.5H52.9782V91.424H54.0672V94.405C54.0672 95.78 54.8372 96.22 56.4872 96V95.142C55.5082 95.186 55.0242 95.241 55.0242 94.405V91.424H56.4872ZM61.7774 90.5L60.1934 94.812L58.3234 90.5H57.3004L59.6984 95.978L59.5994 96.187C59.3134 96.913 58.8514 97.364 58.1144 97.309V98.2C59.2364 98.277 60.0944 97.573 60.5564 96.341L62.8004 90.5H61.7774Z" fill="#D2D2D2"/>
<path d="M9.42609 121H10.7561L12.2461 115.89L13.7261 121H15.0561L17.0361 114H15.8261L14.3561 119.47L12.7761 114H11.7161L10.1261 119.47L8.65609 114H7.44609L9.42609 121ZM19.9363 114V121H21.0863V114H19.9363ZM28.6852 114V118.75L25.3852 114H24.4852V121H25.6352V116.25L28.9352 121H29.8352V114H28.6852ZM39.4832 121L37.6832 117.86V117.12H38.2832C38.5232 117.12 38.7332 117.087 38.9132 117.02C39.0999 116.947 39.2532 116.843 39.3732 116.71C39.4999 116.577 39.5865 116.417 39.6332 116.23H37.6832V115.49H39.6232C39.5832 115.317 39.5132 115.163 39.4132 115.03C39.3199 114.897 39.1932 114.793 39.0332 114.72C38.8799 114.64 38.6932 114.6 38.4732 114.6H37.6832V113.86H42.1932V114.6H40.6232C40.7365 114.727 40.8299 114.863 40.9032 115.01C40.9832 115.157 41.0365 115.317 41.0632 115.49H42.1932V116.23H41.0832C41.0165 116.723 40.8265 117.11 40.5132 117.39C40.1999 117.663 39.7965 117.85 39.3032 117.95L41.2632 121H39.4832ZM48.0959 116.86L49.5159 114.98V114H45.2159V115.08H48.1459L46.6359 117.07L47.0959 117.76H47.3559C48.1459 117.76 48.6559 118.18 48.6559 118.88C48.6559 119.58 48.1459 120.01 47.3559 120.01C46.6559 120.01 46.1859 119.7 45.9859 119.11L45.0059 119.68C45.3959 120.66 46.3259 121.13 47.3559 121.13C48.6459 121.13 49.8059 120.35 49.8059 118.88C49.8059 117.79 49.0559 117.09 48.0959 116.86ZM55.3063 121.13C57.0663 121.13 58.0563 119.66 58.0563 117.5C58.0563 115.34 57.0663 113.87 55.3063 113.87C53.5463 113.87 52.5563 115.34 52.5563 117.5C52.5563 119.66 53.5463 121.13 55.3063 121.13ZM55.3063 120.01C54.2763 120.01 53.7063 119.11 53.7063 117.5C53.7063 115.89 54.2763 114.99 55.3063 114.99C56.3463 114.99 56.9063 115.89 56.9063 117.5C56.9063 119.11 56.3463 120.01 55.3063 120.01ZM63.6051 121.13C65.3651 121.13 66.3551 119.66 66.3551 117.5C66.3551 115.34 65.3651 113.87 63.6051 113.87C61.8451 113.87 60.8551 115.34 60.8551 117.5C60.8551 119.66 61.8451 121.13 63.6051 121.13ZM63.6051 120.01C62.5751 120.01 62.0051 119.11 62.0051 117.5C62.0051 115.89 62.5751 114.99 63.6051 114.99C64.6451 114.99 65.2051 115.89 65.2051 117.5C65.2051 119.11 64.6451 120.01 63.6051 120.01Z" fill="#3BFFAD"/>
</svg>
