<svg width="60" height="77" viewBox="0 0 60 77" fill="none" xmlns="http://www.w3.org/2000/svg">
<rect width="60" height="77" fill="#0D0D0D"/>
<path fill-rule="evenodd" clip-rule="evenodd" d="M30 22.7383L37.9 28.3148V40.4039H33.5V30.6039V30.0039H32.9H27.1H26.5V30.6039V40.4039H22.1V28.3148L30 22.7383ZM27.1 40.4039H32.9V30.6039H27.1V40.4039ZM26.5 41.0039H22.1H21.5V40.4039V28.0039L30 22.0039L38.5 28.0039V40.4039V41.0039H37.9H33.5H32.9H27.1H26.5Z" fill="#8A8A8A"/>
<path d="M16.683 51.292H16.083V53.3781L17.1913 51.6108L16.683 51.292ZM16.683 48.3H17.283V47.7H16.683V48.3ZM15.726 48.3V47.7H15.126V48.3H15.726ZM15.726 56H15.126V56.6H15.726V56ZM16.683 56V56.6H17.283V56H16.683ZM19.642 56H19.042V56.6H19.642V56ZM20.599 56V56.6H21.199V56H20.599ZM18.465 49.757C17.519 49.757 16.7068 50.1248 16.1747 50.9732L17.1913 51.6108C17.4732 51.1612 17.871 50.957 18.465 50.957V49.757ZM17.283 51.292V48.3H16.083V51.292H17.283ZM16.683 47.7H15.726V48.9H16.683V47.7ZM15.126 48.3V56H16.326V48.3H15.126ZM15.726 56.6H16.683V55.4H15.726V56.6ZM17.283 56V53.085H16.083V56H17.283ZM17.283 53.085C17.283 52.5445 17.43 52.2612 17.5768 52.113C17.7246 51.9637 17.953 51.87 18.278 51.87V50.67C17.723 50.67 17.1539 50.8348 16.7242 51.2685C16.2935 51.7033 16.083 52.3275 16.083 53.085H17.283ZM18.278 51.87C18.5818 51.87 18.7533 51.9583 18.8497 52.0563C18.9471 52.1555 19.042 52.3403 19.042 52.678H20.242C20.242 52.1137 20.0784 51.5945 19.7056 51.2152C19.3317 50.8347 18.8212 50.67 18.278 50.67V51.87ZM19.042 52.678V56H20.242V52.678H19.042ZM19.642 56.6H20.599V55.4H19.642V56.6ZM21.199 56V52.623H19.999V56H21.199ZM21.199 52.623C21.199 51.7988 20.9492 51.0723 20.4487 50.5478C19.9457 50.0206 19.2459 49.757 18.465 49.757V50.957C18.9711 50.957 19.3383 51.1224 19.5805 51.3762C19.8253 51.6327 19.999 52.0392 19.999 52.623H21.199ZM24.72 56.743C26.6514 56.743 28.224 55.2153 28.224 53.25H27.024C27.024 54.5407 26.0006 55.543 24.72 55.543V56.743ZM28.224 53.25C28.224 51.2847 26.6514 49.757 24.72 49.757V50.957C26.0006 50.957 27.024 51.9593 27.024 53.25H28.224ZM24.72 49.757C22.7856 49.757 21.227 51.2876 21.227 53.25H22.427C22.427 51.9564 23.4424 50.957 24.72 50.957V49.757ZM21.227 53.25C21.227 55.2124 22.7856 56.743 24.72 56.743V55.543C23.4424 55.543 22.427 54.5436 22.427 53.25H21.227ZM24.72 54.608C23.9668 54.608 23.384 54.0341 23.384 53.25H22.184C22.184 54.6879 23.2952 55.808 24.72 55.808V54.608ZM23.384 53.25C23.384 52.4659 23.9668 51.892 24.72 51.892V50.692C23.2952 50.692 22.184 51.8121 22.184 53.25H23.384ZM24.72 51.892C25.4864 51.892 26.067 52.4681 26.067 53.25H27.267C27.267 51.8099 26.1536 50.692 24.72 50.692V51.892ZM26.067 53.25C26.067 54.0319 25.4864 54.608 24.72 54.608V55.808C26.1536 55.808 27.267 54.6901 27.267 53.25H26.067ZM33.1652 51.292L32.6366 51.5759L33.1304 52.4953L33.6765 51.606L33.1652 51.292ZM29.9092 51.237H29.3092V53.2799L30.4139 51.5615L29.9092 51.237ZM29.9092 50.5H30.5092V49.9H29.9092V50.5ZM28.9522 50.5V49.9H28.3522V50.5H28.9522ZM28.9522 56H28.3522V56.6H28.9522V56ZM29.9092 56V56.6H30.5092V56H29.9092ZM32.4832 56H31.8832V56.6H32.4832V56ZM33.4402 56V56.6H34.0402V56H33.4402ZM36.0032 56H35.4032V56.6H36.0032V56ZM36.9602 56V56.6H37.5602V56H36.9602ZM34.8922 49.757C33.9913 49.757 33.1594 50.1548 32.6539 50.978L33.6765 51.606C33.941 51.1752 34.363 50.957 34.8922 50.957V49.757ZM33.6938 51.0081C33.2672 50.2139 32.5108 49.757 31.5482 49.757V50.957C32.0816 50.957 32.4251 51.1821 32.6366 51.5759L33.6938 51.0081ZM31.5482 49.757C30.6937 49.757 29.9216 50.1081 29.4045 50.9125L30.4139 51.5615C30.6887 51.1339 31.0606 50.957 31.5482 50.957V49.757ZM30.5092 51.237V50.5H29.3092V51.237H30.5092ZM29.9092 49.9H28.9522V51.1H29.9092V49.9ZM28.3522 50.5V56H29.5522V50.5H28.3522ZM28.9522 56.6H29.9092V55.4H28.9522V56.6ZM30.5092 56V52.942H29.3092V56H30.5092ZM30.5092 52.942C30.5092 52.4608 30.643 52.2074 30.7687 52.077C30.8951 51.9459 31.0797 51.87 31.3172 51.87V50.67C30.8177 50.67 30.2982 50.8361 29.9049 51.244C29.5109 51.6526 29.3092 52.2352 29.3092 52.942H30.5092ZM31.3172 51.87C31.5366 51.87 31.6523 51.9379 31.7203 52.0142C31.7963 52.0995 31.8832 52.2759 31.8832 52.612H33.0832C33.0832 52.0791 32.9445 51.5845 32.6163 51.216C32.28 50.8386 31.8128 50.67 31.3172 50.67V51.87ZM31.8832 52.612V56H33.0832V52.612H31.8832ZM32.4832 56.6H33.4402V55.4H32.4832V56.6ZM34.0402 56V52.942H32.8402V56H34.0402ZM34.0402 52.942C34.0402 52.4389 34.1637 52.1846 34.2744 52.0614C34.3772 51.9468 34.5365 51.87 34.7932 51.87V50.67C34.2798 50.67 33.7626 50.8352 33.3815 51.2596C33.0082 51.6754 32.8402 52.2571 32.8402 52.942H34.0402ZM34.7932 51.87C35.0222 51.87 35.1539 51.941 35.2318 52.0245C35.3138 52.1124 35.4032 52.2864 35.4032 52.612H36.6032C36.6032 52.0686 36.4505 51.5716 36.1091 51.2057C35.7635 50.8355 35.2901 50.67 34.7932 50.67V51.87ZM35.4032 52.612V56H36.6032V52.612H35.4032ZM36.0032 56.6H36.9602V55.4H36.0032V56.6ZM37.5602 56V52.579H36.3602V56H37.5602ZM37.5602 52.579C37.5602 51.7676 37.3083 51.0542 36.8191 50.5392C36.3277 50.0218 35.6461 49.757 34.8922 49.757V50.957C35.3592 50.957 35.7116 51.1157 35.949 51.3656C36.1885 51.6178 36.3602 52.0154 36.3602 52.579H37.5602ZM39.1581 53.69V53.09H38.4342L38.5686 53.8014L39.1581 53.69ZM43.7671 53.69V54.29H44.2819L44.3602 53.7812L43.7671 53.69ZM43.5471 54.9L44.0509 55.226L44.3963 54.6921L43.8433 54.3782L43.5471 54.9ZM42.7331 54.438L43.0293 53.9162L42.5236 53.6292L42.2209 54.1256L42.7331 54.438ZM42.8321 52.854V53.454H43.5299L43.4254 52.7641L42.8321 52.854ZM39.1581 52.854L38.5658 52.7587L38.4539 53.454H39.1581V52.854ZM39.1581 54.29H43.7671V53.09H39.1581V54.29ZM44.3602 53.7812C44.3867 53.6084 44.4001 53.4349 44.4001 53.261H43.2001C43.2001 53.3731 43.1915 53.4856 43.1741 53.5988L44.3602 53.7812ZM44.4001 53.261C44.4001 51.4544 43.1148 49.757 41.0611 49.757V50.957C42.3295 50.957 43.2001 51.9876 43.2001 53.261H44.4001ZM41.0611 49.757C38.9987 49.757 37.5791 51.3059 37.5791 53.25H38.7791C38.7791 51.9381 39.6916 50.957 41.0611 50.957V49.757ZM37.5791 53.25C37.5791 54.2206 37.9274 55.1004 38.5642 55.7389C39.2022 56.3786 40.0966 56.743 41.1271 56.743V55.543C40.3866 55.543 39.8071 55.2859 39.4138 54.8916C39.0194 54.4961 38.7791 53.9294 38.7791 53.25H37.5791ZM41.1271 56.743C42.4234 56.743 43.4524 56.1509 44.0509 55.226L43.0434 54.574C42.6739 55.1451 42.0309 55.543 41.1271 55.543V56.743ZM43.8433 54.3782L43.0293 53.9162L42.437 54.9598L43.251 55.4218L43.8433 54.3782ZM42.2209 54.1256C42.0621 54.386 41.7133 54.641 41.1491 54.641V55.841C42.1029 55.841 42.8542 55.392 43.2454 54.7504L42.2209 54.1256ZM41.1491 54.641C40.7467 54.641 40.4293 54.5313 40.2038 54.3595C39.9827 54.1911 39.8155 53.9375 39.7477 53.5786L38.5686 53.8014C38.6878 54.4325 39.0045 54.9544 39.4765 55.314C39.944 55.6702 40.5286 55.841 41.1491 55.841V54.641ZM41.0611 51.859C41.3522 51.859 41.6141 51.9478 41.8128 52.1113C42.0064 52.2707 42.1763 52.5308 42.2389 52.9439L43.4254 52.7641C43.323 52.0882 43.0199 51.5508 42.5755 51.1849C42.1362 50.8232 41.5951 50.659 41.0611 50.659V51.859ZM42.8321 52.254H39.1581V53.454H42.8321V52.254ZM39.7505 52.9493C39.8073 52.5965 39.9612 52.3314 40.169 52.1541C40.3761 51.9774 40.671 51.859 41.0611 51.859V50.659C40.4173 50.659 39.8376 50.8596 39.3903 51.2411C38.9436 51.6221 38.663 52.1545 38.5658 52.7587L39.7505 52.9493Z" fill="#8A8A8A"/>
</svg>
