<svg width="74" height="125" viewBox="0 0 74 125" fill="none" xmlns="http://www.w3.org/2000/svg">
<path d="M22.2568 48.4604L30.6899 20.8984L53.2149 27.1803L44.6689 55.2518L22.2568 48.4604Z" fill="#06C270" stroke="#3D3D3D" stroke-width="0.4" stroke-linejoin="round"/>
<path d="M20.7852 46.3101L29.2183 18.748L51.7432 25.0299L43.1973 53.1014L20.7852 46.3101Z" fill="#E0E0E0" stroke="#3D3D3D" stroke-width="0.4" stroke-linejoin="round"/>
<path d="M27.1783 36.1573C27.0721 36.127 26.9614 36.1886 26.9312 36.2948C26.9009 36.4011 26.9625 36.5117 27.0688 36.542L27.1783 36.1573ZM43.7646 41.2959C43.8708 41.3261 43.9814 41.2645 44.0117 41.1583C44.0419 41.0521 43.9803 40.9414 43.8741 40.9112L43.7646 41.2959ZM27.0688 36.542L43.7646 41.2959L43.8741 40.9112L27.1783 36.1573L27.0688 36.542Z" fill="#3D3D3D"/>
<path d="M26.4991 38.5342C26.3929 38.504 26.2822 38.5656 26.252 38.6718C26.2217 38.778 26.2833 38.8887 26.3896 38.9189L26.4991 38.5342ZM43.0854 43.6728C43.1916 43.7031 43.3022 43.6415 43.3325 43.5352C43.3627 43.429 43.3011 43.3184 43.1949 43.2881L43.0854 43.6728ZM26.3896 38.9189L43.0854 43.6728L43.1949 43.2881L26.4991 38.5342L26.3896 38.9189Z" fill="#3D3D3D"/>
<path d="M25.5933 40.9112C25.4871 40.8809 25.3765 40.9425 25.3462 41.0487C25.316 41.155 25.3776 41.2656 25.4838 41.2959L25.5933 40.9112ZM42.1796 46.0498C42.2858 46.08 42.3965 46.0184 42.4267 45.9122C42.457 45.806 42.3954 45.6953 42.2891 45.6651L42.1796 46.0498ZM25.4838 41.2959L42.1796 46.0498L42.2891 45.6651L25.5933 40.9112L25.4838 41.2959Z" fill="#3D3D3D"/>
<path d="M28.2632 30.7041L31.8286 19.498L38.7335 21.436L35.2245 32.7414L32.5645 28.7231L28.2632 30.7041Z" fill="#06C270" stroke="#3D3D3D" stroke-width="0.4" stroke-linejoin="round"/>
<rect x="0.25" y="0.25" width="73.5" height="73.5" stroke="#161616" stroke-width="0.5"/>
<path d="M9.35276 91.985C9.35276 91.49 9.83676 91.248 10.3318 91.248C10.8158 91.248 11.2998 91.457 11.5088 91.952L12.3118 91.501C11.9598 90.786 11.2338 90.357 10.3318 90.357C9.22076 90.357 8.38476 91.028 8.38476 91.996C8.38476 93.987 11.4648 93.316 11.4648 94.493C11.4648 95.032 10.9588 95.241 10.3758 95.241C9.69376 95.241 9.18776 94.911 9.01176 94.383L8.18676 94.856C8.50576 95.615 9.27576 96.143 10.3758 96.143C11.5528 96.143 12.4328 95.516 12.4328 94.493C12.4328 92.469 9.35276 93.162 9.35276 91.985ZM16.2005 96.143C17.2785 96.143 18.2135 95.571 18.6755 94.713L17.8615 94.24C17.5535 94.812 16.9485 95.197 16.2005 95.197C15.1005 95.197 14.2645 94.35 14.2645 93.25C14.2645 92.139 15.1005 91.292 16.2005 91.292C16.9375 91.292 17.5535 91.677 17.8285 92.26L18.6315 91.798C18.2135 90.929 17.2895 90.357 16.2005 90.357C14.5395 90.357 13.3075 91.622 13.3075 93.25C13.3075 94.878 14.5395 96.143 16.2005 96.143ZM22.5593 90.357C21.7893 90.357 21.1843 90.643 20.7773 91.292V88.3H19.8203V96H20.7773V93.085C20.7773 91.787 21.4923 91.27 22.3723 91.27C23.2193 91.27 23.7363 91.776 23.7363 92.678V96H24.6933V92.623C24.6933 91.215 23.8463 90.357 22.5593 90.357ZM28.8143 96.143C30.4203 96.143 31.7183 94.878 31.7183 93.25C31.7183 91.622 30.4203 90.357 28.8143 90.357C27.2083 90.357 25.9213 91.622 25.9213 93.25C25.9213 94.878 27.2083 96.143 28.8143 96.143ZM28.8143 95.208C27.7253 95.208 26.8783 94.361 26.8783 93.25C26.8783 92.139 27.7253 91.292 28.8143 91.292C29.9143 91.292 30.7613 92.139 30.7613 93.25C30.7613 94.361 29.9143 95.208 28.8143 95.208ZM35.6315 96.143C37.2375 96.143 38.5355 94.878 38.5355 93.25C38.5355 91.622 37.2375 90.357 35.6315 90.357C34.0255 90.357 32.7385 91.622 32.7385 93.25C32.7385 94.878 34.0255 96.143 35.6315 96.143ZM35.6315 95.208C34.5425 95.208 33.6955 94.361 33.6955 93.25C33.6955 92.139 34.5425 91.292 35.6315 91.292C36.7315 91.292 37.5785 92.139 37.5785 93.25C37.5785 94.361 36.7315 95.208 35.6315 95.208ZM39.8637 96H40.8207V87.97H39.8637V96ZM48.2577 89.081V88.157C46.6847 88.047 45.8487 88.872 45.8487 90.335V90.5H44.9687V91.424H45.8487V96H46.8057V91.424H48.2577V90.5H46.8057V90.335C46.8057 89.378 47.3007 89.004 48.2577 89.081ZM49.5566 93.69H54.1656C54.1876 93.547 54.1986 93.404 54.1986 93.261C54.1986 91.721 53.1206 90.357 51.4596 90.357C49.7436 90.357 48.5776 91.622 48.5776 93.25C48.5776 94.9 49.7546 96.143 51.5256 96.143C52.6256 96.143 53.4616 95.648 53.9456 94.9L53.1316 94.438C52.8566 94.889 52.3066 95.241 51.5476 95.241C50.5246 95.241 49.7436 94.68 49.5566 93.69ZM51.4596 91.259C52.2846 91.259 53.0656 91.765 53.2306 92.854H49.5566C49.7106 91.897 50.4256 91.259 51.4596 91.259ZM56.1589 93.69H60.7679C60.7899 93.547 60.8009 93.404 60.8009 93.261C60.8009 91.721 59.7229 90.357 58.0619 90.357C56.3459 90.357 55.1799 91.622 55.1799 93.25C55.1799 94.9 56.3569 96.143 58.1279 96.143C59.2279 96.143 60.0639 95.648 60.5479 94.9L59.7339 94.438C59.4589 94.889 58.9089 95.241 58.1499 95.241C57.1269 95.241 56.3459 94.68 56.1589 93.69ZM58.0619 91.259C58.8869 91.259 59.6679 91.765 59.8329 92.854H56.1589C56.3129 91.897 57.0279 91.259 58.0619 91.259ZM62.7112 91.985C62.7112 91.49 63.1952 91.248 63.6902 91.248C64.1742 91.248 64.6582 91.457 64.8672 91.952L65.6702 91.501C65.3182 90.786 64.5922 90.357 63.6902 90.357C62.5792 90.357 61.7432 91.028 61.7432 91.996C61.7432 93.987 64.8232 93.316 64.8232 94.493C64.8232 95.032 64.3172 95.241 63.7342 95.241C63.0522 95.241 62.5462 94.911 62.3702 94.383L61.5452 94.856C61.8642 95.615 62.6342 96.143 63.7342 96.143C64.9112 96.143 65.7912 95.516 65.7912 94.493C65.7912 92.469 62.7112 93.162 62.7112 91.985Z" fill="#D2D2D2"/>
<path d="M9.42609 121H10.7561L12.2461 115.89L13.7261 121H15.0561L17.0361 114H15.8261L14.3561 119.47L12.7761 114H11.7161L10.1261 119.47L8.65609 114H7.44609L9.42609 121ZM19.9363 114V121H21.0863V114H19.9363ZM28.6852 114V118.75L25.3852 114H24.4852V121H25.6352V116.25L28.9352 121H29.8352V114H28.6852ZM39.4832 121L37.6832 117.86V117.12H38.2832C38.5232 117.12 38.7332 117.087 38.9132 117.02C39.0999 116.947 39.2532 116.843 39.3732 116.71C39.4999 116.577 39.5865 116.417 39.6332 116.23H37.6832V115.49H39.6232C39.5832 115.317 39.5132 115.163 39.4132 115.03C39.3199 114.897 39.1932 114.793 39.0332 114.72C38.8799 114.64 38.6932 114.6 38.4732 114.6H37.6832V113.86H42.1932V114.6H40.6232C40.7365 114.727 40.8299 114.863 40.9032 115.01C40.9832 115.157 41.0365 115.317 41.0632 115.49H42.1932V116.23H41.0832C41.0165 116.723 40.8265 117.11 40.5132 117.39C40.1999 117.663 39.7965 117.85 39.3032 117.95L41.2632 121H39.4832ZM48.0959 116.86L49.5159 114.98V114H45.2159V115.08H48.1459L46.6359 117.07L47.0959 117.76H47.3559C48.1459 117.76 48.6559 118.18 48.6559 118.88C48.6559 119.58 48.1459 120.01 47.3559 120.01C46.6559 120.01 46.1859 119.7 45.9859 119.11L45.0059 119.68C45.3959 120.66 46.3259 121.13 47.3559 121.13C48.6459 121.13 49.8059 120.35 49.8059 118.88C49.8059 117.79 49.0559 117.09 48.0959 116.86ZM55.3063 121.13C57.0663 121.13 58.0563 119.66 58.0563 117.5C58.0563 115.34 57.0663 113.87 55.3063 113.87C53.5463 113.87 52.5563 115.34 52.5563 117.5C52.5563 119.66 53.5463 121.13 55.3063 121.13ZM55.3063 120.01C54.2763 120.01 53.7063 119.11 53.7063 117.5C53.7063 115.89 54.2763 114.99 55.3063 114.99C56.3463 114.99 56.9063 115.89 56.9063 117.5C56.9063 119.11 56.3463 120.01 55.3063 120.01ZM63.6051 121.13C65.3651 121.13 66.3551 119.66 66.3551 117.5C66.3551 115.34 65.3651 113.87 63.6051 113.87C61.8451 113.87 60.8551 115.34 60.8551 117.5C60.8551 119.66 61.8451 121.13 63.6051 121.13ZM63.6051 120.01C62.5751 120.01 62.0051 119.11 62.0051 117.5C62.0051 115.89 62.5751 114.99 63.6051 114.99C64.6451 114.99 65.2051 115.89 65.2051 117.5C65.2051 119.11 64.6451 120.01 63.6051 120.01Z" fill="#3BFFAD"/>
</svg>
