<svg width="74" height="142" viewBox="0 0 74 142" fill="none" xmlns="http://www.w3.org/2000/svg">
<path d="M53.7066 24.9464L52.5973 22.9854C52.3124 22.5459 51.8875 22.2217 51.3955 22.0682L48.0984 21.0666L41.8225 19.1478L38.5252 18.0935C38.2535 18.0096 37.9682 17.9817 37.6859 18.0117C37.4036 18.0416 37.1299 18.1287 36.8806 18.2679C36.6313 18.4071 36.4113 18.5957 36.2335 18.8228C36.0556 19.0498 35.9233 19.3108 35.8444 19.5906L27.7813 47.371C27.6317 47.8878 27.6719 48.4429 27.8942 48.9314L28.9831 50.8712C29.1203 51.126 29.3052 51.3503 29.5274 51.5313C29.7495 51.7123 30.0044 51.8462 30.2773 51.9255L43.1885 55.9107C43.7361 56.0749 44.3246 56.0109 44.8264 55.7326C45.3283 55.4544 45.703 54.9842 45.8694 54.4242L53.8915 26.707C53.9869 26.4174 54.0197 26.1098 53.9878 25.8058C53.9559 25.5018 53.8599 25.2085 53.7066 24.9464Z" fill="#06C270" stroke="#3D3D3D" stroke-width="0.42" stroke-linecap="round" stroke-linejoin="round"/>
<path d="M52.5977 22.9854C52.3194 22.5462 51.8965 22.2244 51.4062 22.0787L48.0988 21.0244L41.8229 19.0951L38.5256 18.0935C38.2539 18.0096 37.9686 17.9817 37.6863 18.0117C37.404 18.0416 37.1303 18.1287 36.881 18.2679C36.6317 18.4071 36.4117 18.5957 36.2339 18.8228C36.056 19.0498 35.9237 19.3108 35.8448 19.5906L34.7458 23.365L28.4494 45.0938L27.8022 47.3183C27.7174 47.5965 27.6877 47.8894 27.7149 48.1795C27.742 48.4697 27.8256 48.7514 27.9606 49.0079C28.0956 49.2644 28.2792 49.4905 28.5008 49.6729C28.7223 49.8554 28.9773 49.9904 29.2506 50.07L42.1207 54.013C42.6696 54.1804 43.2607 54.118 43.765 53.8395C44.2692 53.5609 44.6455 53.0889 44.8118 52.5265L52.8442 24.7777C52.9304 24.4782 52.9531 24.1633 52.9105 23.8541C52.868 23.5449 52.7613 23.2487 52.5977 22.9854Z" fill="#E0E0E0" stroke="#3D3D3D" stroke-width="0.42" stroke-linecap="round" stroke-linejoin="round"/>
<path d="M52.5979 25.6632L35.6191 20.4551" stroke="#3D3D3D" stroke-width="0.42" stroke-linecap="round" stroke-linejoin="round"/>
<path d="M45.5003 21.9002L43.3125 21.2246" stroke="#3D3D3D" stroke-width="0.42" stroke-linecap="round" stroke-linejoin="round"/>
<path d="M45.4696 50.3336L28.46 45.1465" stroke="#3D3D3D" stroke-width="0.42" stroke-linecap="round" stroke-linejoin="round"/>
<path d="M41.2783 37.2498C40.554 40.0178 38.813 42.39 36.4208 43.8683C34.0286 45.3466 31.1714 45.8161 28.4492 45.178L34.7457 23.4492C37.3623 24.4355 39.5046 26.4242 40.7227 28.9976C41.9409 31.571 42.1401 34.5289 41.2783 37.2498Z" fill="#3D3D3D" stroke="#3D3D3D" stroke-width="0.42" stroke-linecap="round" stroke-linejoin="round"/>
<path d="M33.5234 22.2786C31.4736 21.5302 29.2523 21.4298 27.1463 21.9905C25.0404 22.5512 23.1466 23.7472 21.7098 25.424C20.2729 27.1008 19.359 29.1813 19.086 31.3967C18.813 33.6122 19.1936 35.8608 20.1785 37.8519C21.1633 39.8431 22.7073 41.4854 24.6109 42.5666C26.5145 43.6478 28.6903 44.1183 30.8571 43.9172C33.0239 43.7161 35.0822 42.8527 36.766 41.4386C38.4498 40.0245 39.6816 38.1245 40.3026 35.9843C41.1741 33.2441 40.9496 30.2608 39.6783 27.6905C38.407 25.1203 36.193 23.1736 33.5234 22.2786Z" fill="#E0E0E0" stroke="#3D3D3D" stroke-width="0.41" stroke-linecap="round" stroke-linejoin="round"/>
<path d="M34.2122 32.9174L31.0587 31.9475L33.7807 27.3613L26.6523 33.0334L29.8159 34.0033L27.0939 38.5895L34.2122 32.9174Z" fill="#06C270" stroke="#3D3D3D" stroke-width="0.41" stroke-linecap="round" stroke-linejoin="round"/>
<rect x="0.25" y="0.25" width="73.5" height="73.5" stroke="#161616" stroke-width="0.5"/>
<path d="M25.9859 90.357C25.2709 90.357 24.6439 90.665 24.2589 91.292C23.9399 90.698 23.3899 90.357 22.6419 90.357C21.9709 90.357 21.3989 90.621 21.0029 91.237V90.5H20.0459V96H21.0029V92.942C21.0029 91.754 21.6739 91.27 22.4109 91.27C23.1259 91.27 23.5769 91.743 23.5769 92.612V96H24.5339V92.942C24.5339 91.754 25.1169 91.27 25.8869 91.27C26.6129 91.27 27.0969 91.743 27.0969 92.612V96H28.0539V92.579C28.0539 91.204 27.2069 90.357 25.9859 90.357ZM32.1659 96.143C33.7719 96.143 35.0699 94.878 35.0699 93.25C35.0699 91.622 33.7719 90.357 32.1659 90.357C30.5599 90.357 29.2729 91.622 29.2729 93.25C29.2729 94.878 30.5599 96.143 32.1659 96.143ZM32.1659 95.208C31.0769 95.208 30.2299 94.361 30.2299 93.25C30.2299 92.139 31.0769 91.292 32.1659 91.292C33.2659 91.292 34.1129 92.139 34.1129 93.25C34.1129 94.361 33.2659 95.208 32.1659 95.208ZM39.4341 90.357C38.4991 90.357 37.7951 90.775 37.3551 91.446V88.3H36.3981V96H37.3551V95.054C37.7951 95.725 38.4991 96.143 39.4341 96.143C40.9631 96.143 42.2171 94.878 42.2171 93.25C42.2171 91.622 40.9631 90.357 39.4341 90.357ZM39.3131 95.219C38.2021 95.219 37.3551 94.372 37.3551 93.25C37.3551 92.128 38.2021 91.281 39.3131 91.281C40.4131 91.281 41.2601 92.128 41.2601 93.25C41.2601 94.372 40.4131 95.219 39.3131 95.219ZM44.043 89.499C44.395 89.499 44.681 89.213 44.681 88.861C44.681 88.509 44.395 88.212 44.043 88.212C43.68 88.212 43.394 88.509 43.394 88.861C43.394 89.213 43.68 89.499 44.043 89.499ZM43.559 96H44.516V90.5H43.559V96ZM46.176 96H47.133V87.97H46.176V96ZM49.464 93.69H54.073C54.095 93.547 54.106 93.404 54.106 93.261C54.106 91.721 53.028 90.357 51.367 90.357C49.651 90.357 48.485 91.622 48.485 93.25C48.485 94.9 49.662 96.143 51.433 96.143C52.533 96.143 53.369 95.648 53.853 94.9L53.039 94.438C52.764 94.889 52.214 95.241 51.455 95.241C50.432 95.241 49.651 94.68 49.464 93.69ZM51.367 91.259C52.192 91.259 52.973 91.765 53.138 92.854H49.464C49.618 91.897 50.333 91.259 51.367 91.259ZM20.1708 107.357C19.2358 107.357 18.5318 107.775 18.0918 108.446V107.5H17.1348V115.2H18.0918V112.054C18.5318 112.725 19.2358 113.143 20.1708 113.143C21.6998 113.143 22.9538 111.878 22.9538 110.25C22.9538 108.622 21.6998 107.357 20.1708 107.357ZM20.0498 112.219C18.9388 112.219 18.0918 111.372 18.0918 110.25C18.0918 109.128 18.9388 108.281 20.0498 108.281C21.1498 108.281 21.9968 109.128 21.9968 110.25C21.9968 111.372 21.1498 112.219 20.0498 112.219ZM25.2527 108.424V107.5H24.2957V113H25.2527V110.085C25.2527 108.787 26.1437 108.369 26.9687 108.402V107.401C26.2757 107.401 25.6047 107.654 25.2527 108.424ZM28.4753 110.69H33.0843C33.1063 110.547 33.1173 110.404 33.1173 110.261C33.1173 108.721 32.0393 107.357 30.3783 107.357C28.6623 107.357 27.4963 108.622 27.4963 110.25C27.4963 111.9 28.6733 113.143 30.4443 113.143C31.5443 113.143 32.3803 112.648 32.8643 111.9L32.0503 111.438C31.7753 111.889 31.2253 112.241 30.4663 112.241C29.4433 112.241 28.6623 111.68 28.4753 110.69ZM30.3783 108.259C31.2033 108.259 31.9843 108.765 32.1493 109.854H28.4753C28.6293 108.897 29.3443 108.259 30.3783 108.259ZM37.4534 107.357C36.5184 107.357 35.8144 107.775 35.3744 108.446V107.5H34.4174V115.2H35.3744V112.054C35.8144 112.725 36.5184 113.143 37.4534 113.143C38.9824 113.143 40.2364 111.878 40.2364 110.25C40.2364 108.622 38.9824 107.357 37.4534 107.357ZM37.3324 112.219C36.2214 112.219 35.3744 111.372 35.3744 110.25C35.3744 109.128 36.2214 108.281 37.3324 108.281C38.4324 108.281 39.2794 109.128 39.2794 110.25C39.2794 111.372 38.4324 112.219 37.3324 112.219ZM46.1323 107.5V108.446C45.6923 107.775 44.9883 107.357 44.0533 107.357C42.5243 107.357 41.2703 108.622 41.2703 110.25C41.2703 111.878 42.5243 113.143 44.0533 113.143C44.9883 113.143 45.6923 112.725 46.1323 112.054V113H47.0893V107.5H46.1323ZM44.1743 112.219C43.0743 112.219 42.2273 111.372 42.2273 110.25C42.2273 109.128 43.0743 108.281 44.1743 108.281C45.2853 108.281 46.1323 109.128 46.1323 110.25C46.1323 111.372 45.2853 112.219 44.1743 112.219ZM49.2233 106.499C49.5753 106.499 49.8613 106.213 49.8613 105.861C49.8613 105.509 49.5753 105.212 49.2233 105.212C48.8603 105.212 48.5743 105.509 48.5743 105.861C48.5743 106.213 48.8603 106.499 49.2233 106.499ZM48.7393 113H49.6963V107.5H48.7393V113ZM55.9103 105.3V108.446C55.4703 107.775 54.7663 107.357 53.8313 107.357C52.3023 107.357 51.0483 108.622 51.0483 110.25C51.0483 111.878 52.3023 113.143 53.8313 113.143C54.7663 113.143 55.4703 112.725 55.9103 112.054V113H56.8673V105.3H55.9103ZM53.9523 112.219C52.8523 112.219 52.0053 111.372 52.0053 110.25C52.0053 109.128 52.8523 108.281 53.9523 108.281C55.0633 108.281 55.9103 109.128 55.9103 110.25C55.9103 111.372 55.0633 112.219 53.9523 112.219Z" fill="#D2D2D2"/>
<path d="M9.42609 138H10.7561L12.2461 132.89L13.7261 138H15.0561L17.0361 131H15.8261L14.3561 136.47L12.7761 131H11.7161L10.1261 136.47L8.65609 131H7.44609L9.42609 138ZM19.9363 131V138H21.0863V131H19.9363ZM28.6852 131V135.75L25.3852 131H24.4852V138H25.6352V133.25L28.9352 138H29.8352V131H28.6852ZM39.4832 138L37.6832 134.86V134.12H38.2832C38.5232 134.12 38.7332 134.087 38.9132 134.02C39.0999 133.947 39.2532 133.843 39.3732 133.71C39.4999 133.577 39.5865 133.417 39.6332 133.23H37.6832V132.49H39.6232C39.5832 132.317 39.5132 132.163 39.4132 132.03C39.3199 131.897 39.1932 131.793 39.0332 131.72C38.8799 131.64 38.6932 131.6 38.4732 131.6H37.6832V130.86H42.1932V131.6H40.6232C40.7365 131.727 40.8299 131.863 40.9032 132.01C40.9832 132.157 41.0365 132.317 41.0632 132.49H42.1932V133.23H41.0832C41.0165 133.723 40.8265 134.11 40.5132 134.39C40.1999 134.663 39.7965 134.85 39.3032 134.95L41.2632 138H39.4832ZM48.0959 133.86L49.5159 131.98V131H45.2159V132.08H48.1459L46.6359 134.07L47.0959 134.76H47.3559C48.1459 134.76 48.6559 135.18 48.6559 135.88C48.6559 136.58 48.1459 137.01 47.3559 137.01C46.6559 137.01 46.1859 136.7 45.9859 136.11L45.0059 136.68C45.3959 137.66 46.3259 138.13 47.3559 138.13C48.6459 138.13 49.8059 137.35 49.8059 135.88C49.8059 134.79 49.0559 134.09 48.0959 133.86ZM55.3063 138.13C57.0663 138.13 58.0563 136.66 58.0563 134.5C58.0563 132.34 57.0663 130.87 55.3063 130.87C53.5463 130.87 52.5563 132.34 52.5563 134.5C52.5563 136.66 53.5463 138.13 55.3063 138.13ZM55.3063 137.01C54.2763 137.01 53.7063 136.11 53.7063 134.5C53.7063 132.89 54.2763 131.99 55.3063 131.99C56.3463 131.99 56.9063 132.89 56.9063 134.5C56.9063 136.11 56.3463 137.01 55.3063 137.01ZM63.6051 138.13C65.3651 138.13 66.3551 136.66 66.3551 134.5C66.3551 132.34 65.3651 130.87 63.6051 130.87C61.8451 130.87 60.8551 132.34 60.8551 134.5C60.8551 136.66 61.8451 138.13 63.6051 138.13ZM63.6051 137.01C62.5751 137.01 62.0051 136.11 62.0051 134.5C62.0051 132.89 62.5751 131.99 63.6051 131.99C64.6451 131.99 65.2051 132.89 65.2051 134.5C65.2051 136.11 64.6451 137.01 63.6051 137.01Z" fill="#3BFFAD"/>
</svg>
