<svg width="74" height="142" viewBox="0 0 74 142" fill="none" xmlns="http://www.w3.org/2000/svg">
<path d="M53.7256 24.9745L52.569 23.0088C52.282 22.5659 51.8456 22.2398 51.3383 22.0894L47.9217 21.0326L41.4495 19.0986L38.0331 18.0946C37.753 18.0102 37.459 17.9819 37.1679 18.0112C36.8768 18.0405 36.5944 18.1269 36.337 18.2654C36.0796 18.404 35.8522 18.5918 35.6681 18.8183C35.4839 19.0447 35.3465 19.3052 35.2638 19.5847L26.9666 47.3897C26.8081 47.9099 26.8459 48.4699 27.0728 48.9643L28.1974 50.8983C28.3398 51.1551 28.5325 51.3809 28.7639 51.5625C28.9954 51.7439 29.2609 51.8775 29.5449 51.9551L42.8395 55.9077C43.4065 56.0754 44.0172 56.0129 44.538 55.7337C45.0589 55.4545 45.4476 54.9813 45.6194 54.4175L53.9165 26.602C53.995 26.3317 54.0186 26.0486 53.9858 25.7691C53.953 25.4896 53.8646 25.2195 53.7256 24.9745Z" fill="#06C270" stroke="#3D3D3D" stroke-width="0.42" stroke-linecap="round" stroke-linejoin="round"/>
<path d="M52.5693 22.9979C52.2784 22.5608 51.843 22.2392 51.3386 22.089L38.0334 18.147C37.754 18.0628 37.4608 18.0346 37.1704 18.064C36.88 18.0935 36.5984 18.18 36.3419 18.3186C36.0853 18.4572 35.8588 18.6451 35.6756 18.8714C35.4925 19.0977 35.3563 19.358 35.2748 19.6372L26.9564 47.4421C26.807 47.9642 26.8483 48.5222 27.0731 49.0168C27.2109 49.2973 27.4055 49.5464 27.6447 49.7483C27.8839 49.9501 28.1625 50.1005 28.463 50.1899L41.7469 54.1529C42.3153 54.3174 42.9259 54.2521 43.4462 53.9712C43.9666 53.6903 44.3549 53.2164 44.5268 52.6522L52.8345 24.8367C52.9339 24.5303 52.9616 24.2054 52.9156 23.8867C52.8696 23.568 52.7512 23.264 52.5693 22.9979Z" fill="#E0E0E0" stroke="#3D3D3D" stroke-width="0.42" stroke-linecap="round" stroke-linejoin="round"/>
<path d="M52.5795 25.6828L35.0303 20.4727" stroke="#3D3D3D" stroke-width="0.42" stroke-linecap="round" stroke-linejoin="round"/>
<path d="M45.2368 21.9091L42.9883 21.2441" stroke="#3D3D3D" stroke-width="0.42" stroke-linecap="round" stroke-linejoin="round"/>
<path d="M45.2052 50.4124L27.6348 45.2129" stroke="#3D3D3D" stroke-width="0.42" stroke-linecap="round" stroke-linejoin="round"/>
<path d="M43.1896 28.5252L42.4257 31.1038L38.2664 45.0116C38.1657 45.346 37.9362 45.6271 37.628 45.7934C37.3199 45.9598 36.9582 45.9979 36.6219 45.8993L28.1338 43.3841L33.8102 24.3613L42.2984 26.8554C42.4682 26.9049 42.6263 26.9877 42.7635 27.0989C42.9007 27.2102 43.0142 27.3477 43.0972 27.5032C43.1803 27.6588 43.2312 27.8294 43.2471 28.0049C43.2629 28.1804 43.2434 28.3573 43.1896 28.5252Z" fill="#3D3D3D" stroke="#3D3D3D" stroke-width="0.42" stroke-linecap="round" stroke-linejoin="round"/>
<path d="M42.5633 27.4697L41.81 29.9955L23.1572 24.4683L23.9211 21.9425C23.9686 21.7791 24.0482 21.6266 24.1552 21.4939C24.2621 21.3613 24.3943 21.251 24.5442 21.1694C24.6942 21.0879 24.8588 21.0367 25.0286 21.0188C25.1985 21.001 25.3702 21.0168 25.5339 21.0653L41.6827 25.8527C41.848 25.9 42.0021 25.9795 42.1361 26.0867C42.2702 26.194 42.3815 26.3267 42.4634 26.4772C42.5454 26.6278 42.5964 26.793 42.6135 26.9634C42.6307 27.1338 42.6137 27.3059 42.5633 27.4697Z" fill="#06C270" stroke="#3D3D3D" stroke-width="0.41" stroke-linecap="round" stroke-linejoin="round"/>
<path d="M41.8102 29.9412L37.7252 43.6059C37.6765 43.7684 37.5963 43.9197 37.4889 44.0512C37.3815 44.1828 37.2491 44.2919 37.0993 44.3724C36.9495 44.4529 36.7852 44.5032 36.6158 44.5203C36.4465 44.5375 36.2755 44.5213 36.1125 44.4725L19.932 39.6746C19.6022 39.5765 19.3246 39.3528 19.1597 39.0519C18.9947 38.7511 18.9558 38.3975 19.0513 38.0682L23.1574 24.4141L41.8102 29.9412Z" fill="#E0E0E0" stroke="#3D3D3D" stroke-width="0.41" stroke-linecap="round" stroke-linejoin="round"/>
<path d="M39.6878 23.3477L39.1787 25.0491" stroke="#3D3D3D" stroke-width="0.41" stroke-linecap="round" stroke-linejoin="round"/>
<path d="M28.5158 20.0508L27.9961 21.7523" stroke="#3D3D3D" stroke-width="0.41" stroke-linecap="round" stroke-linejoin="round"/>
<path d="M27.5713 29.9416L24.0381 28.8848" stroke="#3D3D3D" stroke-width="0.41" stroke-linecap="round" stroke-linejoin="round"/>
<path d="M33.0674 31.5803L29.5342 30.5234" stroke="#3D3D3D" stroke-width="0.41" stroke-linecap="round" stroke-linejoin="round"/>
<path d="M38.5635 33.2064L35.0303 32.1602" stroke="#3D3D3D" stroke-width="0.41" stroke-linecap="round" stroke-linejoin="round"/>
<path d="M26.5421 33.3763L23.0195 32.3301" stroke="#3D3D3D" stroke-width="0.41" stroke-linecap="round" stroke-linejoin="round"/>
<path d="M32.0382 35.0139L28.5156 33.957" stroke="#3D3D3D" stroke-width="0.41" stroke-linecap="round" stroke-linejoin="round"/>
<path d="M37.5342 36.6525L34.001 35.5957" stroke="#3D3D3D" stroke-width="0.41" stroke-linecap="round" stroke-linejoin="round"/>
<path d="M25.5127 36.8322L21.9795 35.7754" stroke="#3D3D3D" stroke-width="0.41" stroke-linecap="round" stroke-linejoin="round"/>
<path d="M30.9982 38.4603L27.4756 37.4141" stroke="#3D3D3D" stroke-width="0.41" stroke-linecap="round" stroke-linejoin="round"/>
<path d="M36.4943 40.097L32.9717 39.0508" stroke="#3D3D3D" stroke-width="0.41" stroke-linecap="round" stroke-linejoin="round"/>
<rect x="0.25" y="0.25" width="73.5" height="73.5" stroke="#161616" stroke-width="0.5"/>
<path d="M25.9859 90.357C25.2709 90.357 24.6439 90.665 24.2589 91.292C23.9399 90.698 23.3899 90.357 22.6419 90.357C21.9709 90.357 21.3989 90.621 21.0029 91.237V90.5H20.0459V96H21.0029V92.942C21.0029 91.754 21.6739 91.27 22.4109 91.27C23.1259 91.27 23.5769 91.743 23.5769 92.612V96H24.5339V92.942C24.5339 91.754 25.1169 91.27 25.8869 91.27C26.6129 91.27 27.0969 91.743 27.0969 92.612V96H28.0539V92.579C28.0539 91.204 27.2069 90.357 25.9859 90.357ZM32.1659 96.143C33.7719 96.143 35.0699 94.878 35.0699 93.25C35.0699 91.622 33.7719 90.357 32.1659 90.357C30.5599 90.357 29.2729 91.622 29.2729 93.25C29.2729 94.878 30.5599 96.143 32.1659 96.143ZM32.1659 95.208C31.0769 95.208 30.2299 94.361 30.2299 93.25C30.2299 92.139 31.0769 91.292 32.1659 91.292C33.2659 91.292 34.1129 92.139 34.1129 93.25C34.1129 94.361 33.2659 95.208 32.1659 95.208ZM39.4341 90.357C38.4991 90.357 37.7951 90.775 37.3551 91.446V88.3H36.3981V96H37.3551V95.054C37.7951 95.725 38.4991 96.143 39.4341 96.143C40.9631 96.143 42.2171 94.878 42.2171 93.25C42.2171 91.622 40.9631 90.357 39.4341 90.357ZM39.3131 95.219C38.2021 95.219 37.3551 94.372 37.3551 93.25C37.3551 92.128 38.2021 91.281 39.3131 91.281C40.4131 91.281 41.2601 92.128 41.2601 93.25C41.2601 94.372 40.4131 95.219 39.3131 95.219ZM44.043 89.499C44.395 89.499 44.681 89.213 44.681 88.861C44.681 88.509 44.395 88.212 44.043 88.212C43.68 88.212 43.394 88.509 43.394 88.861C43.394 89.213 43.68 89.499 44.043 89.499ZM43.559 96H44.516V90.5H43.559V96ZM46.176 96H47.133V87.97H46.176V96ZM49.464 93.69H54.073C54.095 93.547 54.106 93.404 54.106 93.261C54.106 91.721 53.028 90.357 51.367 90.357C49.651 90.357 48.485 91.622 48.485 93.25C48.485 94.9 49.662 96.143 51.433 96.143C52.533 96.143 53.369 95.648 53.853 94.9L53.039 94.438C52.764 94.889 52.214 95.241 51.455 95.241C50.432 95.241 49.651 94.68 49.464 93.69ZM51.367 91.259C52.192 91.259 52.973 91.765 53.138 92.854H49.464C49.618 91.897 50.333 91.259 51.367 91.259ZM17.1919 107.357C16.2569 107.357 15.5529 107.775 15.1129 108.446V107.5H14.1559V115.2H15.1129V112.054C15.5529 112.725 16.2569 113.143 17.1919 113.143C18.7209 113.143 19.9749 111.878 19.9749 110.25C19.9749 108.622 18.7209 107.357 17.1919 107.357ZM17.0709 112.219C15.9599 112.219 15.1129 111.372 15.1129 110.25C15.1129 109.128 15.9599 108.281 17.0709 108.281C18.1709 108.281 19.0179 109.128 19.0179 110.25C19.0179 111.372 18.1709 112.219 17.0709 112.219ZM23.9018 113.143C25.5078 113.143 26.8058 111.878 26.8058 110.25C26.8058 108.622 25.5078 107.357 23.9018 107.357C22.2958 107.357 21.0088 108.622 21.0088 110.25C21.0088 111.878 22.2958 113.143 23.9018 113.143ZM23.9018 112.208C22.8128 112.208 21.9658 111.361 21.9658 110.25C21.9658 109.139 22.8128 108.292 23.9018 108.292C25.0018 108.292 25.8488 109.139 25.8488 110.25C25.8488 111.361 25.0018 112.208 23.9018 112.208ZM28.8408 108.985C28.8408 108.49 29.3248 108.248 29.8198 108.248C30.3038 108.248 30.7878 108.457 30.9968 108.952L31.7998 108.501C31.4478 107.786 30.7218 107.357 29.8198 107.357C28.7088 107.357 27.8728 108.028 27.8728 108.996C27.8728 110.987 30.9528 110.316 30.9528 111.493C30.9528 112.032 30.4468 112.241 29.8638 112.241C29.1818 112.241 28.6758 111.911 28.4998 111.383L27.6748 111.856C27.9938 112.615 28.7638 113.143 29.8638 113.143C31.0408 113.143 31.9208 112.516 31.9208 111.493C31.9208 109.469 28.8408 110.162 28.8408 108.985ZM36.0311 108.424V107.5H34.5681V105.96L33.6111 106.246V107.5H32.5221V108.424H33.6111V111.405C33.6111 112.78 34.3811 113.22 36.0311 113V112.142C35.0521 112.186 34.5681 112.241 34.5681 111.405V108.424H36.0311ZM40.4323 107.357C39.4973 107.357 38.7933 107.775 38.3533 108.446V107.5H37.3963V115.2H38.3533V112.054C38.7933 112.725 39.4973 113.143 40.4323 113.143C41.9613 113.143 43.2153 111.878 43.2153 110.25C43.2153 108.622 41.9613 107.357 40.4323 107.357ZM40.3113 112.219C39.2003 112.219 38.3533 111.372 38.3533 110.25C38.3533 109.128 39.2003 108.281 40.3113 108.281C41.4113 108.281 42.2583 109.128 42.2583 110.25C42.2583 111.372 41.4113 112.219 40.3113 112.219ZM49.1112 107.5V108.446C48.6712 107.775 47.9672 107.357 47.0322 107.357C45.5032 107.357 44.2492 108.622 44.2492 110.25C44.2492 111.878 45.5032 113.143 47.0322 113.143C47.9672 113.143 48.6712 112.725 49.1112 112.054V113H50.0682V107.5H49.1112ZM47.1532 112.219C46.0532 112.219 45.2062 111.372 45.2062 110.25C45.2062 109.128 46.0532 108.281 47.1532 108.281C48.2642 108.281 49.1112 109.128 49.1112 110.25C49.1112 111.372 48.2642 112.219 47.1532 112.219ZM52.2022 106.499C52.5542 106.499 52.8402 106.213 52.8402 105.861C52.8402 105.509 52.5542 105.212 52.2022 105.212C51.8392 105.212 51.5532 105.509 51.5532 105.861C51.5532 106.213 51.8392 106.499 52.2022 106.499ZM51.7182 113H52.6752V107.5H51.7182V113ZM58.8892 105.3V108.446C58.4492 107.775 57.7452 107.357 56.8102 107.357C55.2812 107.357 54.0272 108.622 54.0272 110.25C54.0272 111.878 55.2812 113.143 56.8102 113.143C57.7452 113.143 58.4492 112.725 58.8892 112.054V113H59.8462V105.3H58.8892ZM56.9312 112.219C55.8312 112.219 54.9842 111.372 54.9842 110.25C54.9842 109.128 55.8312 108.281 56.9312 108.281C58.0422 108.281 58.8892 109.128 58.8892 110.25C58.8892 111.372 58.0422 112.219 56.9312 112.219Z" fill="#D2D2D2"/>
<path d="M9.42609 138H10.7561L12.2461 132.89L13.7261 138H15.0561L17.0361 131H15.8261L14.3561 136.47L12.7761 131H11.7161L10.1261 136.47L8.65609 131H7.44609L9.42609 138ZM19.9363 131V138H21.0863V131H19.9363ZM28.6852 131V135.75L25.3852 131H24.4852V138H25.6352V133.25L28.9352 138H29.8352V131H28.6852ZM39.4832 138L37.6832 134.86V134.12H38.2832C38.5232 134.12 38.7332 134.087 38.9132 134.02C39.0999 133.947 39.2532 133.843 39.3732 133.71C39.4999 133.577 39.5865 133.417 39.6332 133.23H37.6832V132.49H39.6232C39.5832 132.317 39.5132 132.163 39.4132 132.03C39.3199 131.897 39.1932 131.793 39.0332 131.72C38.8799 131.64 38.6932 131.6 38.4732 131.6H37.6832V130.86H42.1932V131.6H40.6232C40.7365 131.727 40.8299 131.863 40.9032 132.01C40.9832 132.157 41.0365 132.317 41.0632 132.49H42.1932V133.23H41.0832C41.0165 133.723 40.8265 134.11 40.5132 134.39C40.1999 134.663 39.7965 134.85 39.3032 134.95L41.2632 138H39.4832ZM48.0959 133.86L49.5159 131.98V131H45.2159V132.08H48.1459L46.6359 134.07L47.0959 134.76H47.3559C48.1459 134.76 48.6559 135.18 48.6559 135.88C48.6559 136.58 48.1459 137.01 47.3559 137.01C46.6559 137.01 46.1859 136.7 45.9859 136.11L45.0059 136.68C45.3959 137.66 46.3259 138.13 47.3559 138.13C48.6459 138.13 49.8059 137.35 49.8059 135.88C49.8059 134.79 49.0559 134.09 48.0959 133.86ZM55.3063 138.13C57.0663 138.13 58.0563 136.66 58.0563 134.5C58.0563 132.34 57.0663 130.87 55.3063 130.87C53.5463 130.87 52.5563 132.34 52.5563 134.5C52.5563 136.66 53.5463 138.13 55.3063 138.13ZM55.3063 137.01C54.2763 137.01 53.7063 136.11 53.7063 134.5C53.7063 132.89 54.2763 131.99 55.3063 131.99C56.3463 131.99 56.9063 132.89 56.9063 134.5C56.9063 136.11 56.3463 137.01 55.3063 137.01ZM63.6051 138.13C65.3651 138.13 66.3551 136.66 66.3551 134.5C66.3551 132.34 65.3651 130.87 63.6051 130.87C61.8451 130.87 60.8551 132.34 60.8551 134.5C60.8551 136.66 61.8451 138.13 63.6051 138.13ZM63.6051 137.01C62.5751 137.01 62.0051 136.11 62.0051 134.5C62.0051 132.89 62.5751 131.99 63.6051 131.99C64.6451 131.99 65.2051 132.89 65.2051 134.5C65.2051 136.11 64.6451 137.01 63.6051 137.01Z" fill="#3BFFAD"/>
</svg>
