<svg width="60" height="77" viewBox="0 0 60 77" fill="none" xmlns="http://www.w3.org/2000/svg">
<rect width="60" height="77" fill="#0D0D0D"/>
<path fill-rule="evenodd" clip-rule="evenodd" d="M21.6 23.6H38.4V40.4H21.6V23.6ZM21 23H21.6H38.4H39V23.6V40.4V41H38.4H21.6H21V40.4V23.6V23ZM25.9695 34.759L30 30.7285L34.0305 34.759L34.4547 34.3347L30.2121 30.0921L30 29.88L29.7878 30.0921L25.5452 34.3347L25.9695 34.759Z" fill="#8A8A8A"/>
<path d="M21.439 51.292L20.9104 51.5759L21.4042 52.4953L21.9503 51.606L21.439 51.292ZM18.183 51.237H17.583V53.2799L18.6877 51.5615L18.183 51.237ZM18.183 50.5H18.783V49.9H18.183V50.5ZM17.226 50.5V49.9H16.626V50.5H17.226ZM17.226 56H16.626V56.6H17.226V56ZM18.183 56V56.6H18.783V56H18.183ZM20.757 56H20.157V56.6H20.757V56ZM21.714 56V56.6H22.314V56H21.714ZM24.277 56H23.677V56.6H24.277V56ZM25.234 56V56.6H25.834V56H25.234ZM23.166 49.757C22.2651 49.757 21.4332 50.1548 20.9277 50.978L21.9503 51.606C22.2148 51.1752 22.6369 50.957 23.166 50.957V49.757ZM21.9676 51.0081C21.5411 50.2139 20.7846 49.757 19.822 49.757V50.957C20.3554 50.957 20.6989 51.1821 20.9104 51.5759L21.9676 51.0081ZM19.822 49.757C18.9675 49.757 18.1954 50.1081 17.6783 50.9125L18.6877 51.5615C18.9626 51.1339 19.3345 50.957 19.822 50.957V49.757ZM18.783 51.237V50.5H17.583V51.237H18.783ZM18.183 49.9H17.226V51.1H18.183V49.9ZM16.626 50.5V56H17.826V50.5H16.626ZM17.226 56.6H18.183V55.4H17.226V56.6ZM18.783 56V52.942H17.583V56H18.783ZM18.783 52.942C18.783 52.4608 18.9168 52.2074 19.0425 52.077C19.1689 51.9459 19.3535 51.87 19.591 51.87V50.67C19.0915 50.67 18.5721 50.8361 18.1787 51.244C17.7847 51.6526 17.583 52.2352 17.583 52.942H18.783ZM19.591 51.87C19.8104 51.87 19.9261 51.9379 19.9941 52.0142C20.0701 52.0995 20.157 52.2759 20.157 52.612H21.357C21.357 52.0791 21.2184 51.5845 20.8901 51.216C20.5539 50.8386 20.0866 50.67 19.591 50.67V51.87ZM20.157 52.612V56H21.357V52.612H20.157ZM20.757 56.6H21.714V55.4H20.757V56.6ZM22.314 56V52.942H21.114V56H22.314ZM22.314 52.942C22.314 52.4389 22.4375 52.1846 22.5482 52.0614C22.6511 51.9468 22.8103 51.87 23.067 51.87V50.67C22.5537 50.67 22.0364 50.8352 21.6553 51.2596C21.282 51.6754 21.114 52.2571 21.114 52.942H22.314ZM23.067 51.87C23.2961 51.87 23.4277 51.941 23.5056 52.0245C23.5876 52.1124 23.677 52.2864 23.677 52.612H24.877C24.877 52.0686 24.7244 51.5716 24.3829 51.2057C24.0373 50.8355 23.5639 50.67 23.067 50.67V51.87ZM23.677 52.612V56H24.877V52.612H23.677ZM24.277 56.6H25.234V55.4H24.277V56.6ZM25.834 56V52.579H24.634V56H25.834ZM25.834 52.579C25.834 51.7676 25.5821 51.0542 25.0929 50.5392C24.6015 50.0218 23.9199 49.757 23.166 49.757V50.957C23.6331 50.957 23.9855 51.1157 24.2228 51.3656C24.4624 51.6178 24.634 52.0154 24.634 52.579H25.834ZM29.346 56.743C31.2774 56.743 32.85 55.2153 32.85 53.25H31.65C31.65 54.5407 30.6266 55.543 29.346 55.543V56.743ZM32.85 53.25C32.85 51.2847 31.2774 49.757 29.346 49.757V50.957C30.6266 50.957 31.65 51.9593 31.65 53.25H32.85ZM29.346 49.757C27.4116 49.757 25.853 51.2876 25.853 53.25H27.053C27.053 51.9564 28.0683 50.957 29.346 50.957V49.757ZM25.853 53.25C25.853 55.2124 27.4116 56.743 29.346 56.743V55.543C28.0683 55.543 27.053 54.5436 27.053 53.25H25.853ZM29.346 54.608C28.5928 54.608 28.01 54.0341 28.01 53.25H26.81C26.81 54.6879 27.9211 55.808 29.346 55.808V54.608ZM28.01 53.25C28.01 52.4659 28.5928 51.892 29.346 51.892V50.692C27.9211 50.692 26.81 51.8121 26.81 53.25H28.01ZM29.346 51.892C30.1124 51.892 30.693 52.4681 30.693 53.25H31.893C31.893 51.8099 30.7796 50.692 29.346 50.692V51.892ZM30.693 53.25C30.693 54.0319 30.1124 54.608 29.346 54.608V55.808C30.7796 55.808 31.893 54.6901 31.893 53.25H30.693ZM34.5351 51.424H33.9351L35.0808 51.6735L34.5351 51.424ZM34.5351 50.5H35.1351V49.9H34.5351V50.5ZM33.5781 50.5V49.9H32.9781V50.5H33.5781ZM33.5781 56H32.9781V56.6H33.5781V56ZM34.5351 56V56.6H35.1351V56H34.5351ZM36.2511 51.402L36.2272 52.0015L36.8511 52.0265V51.402H36.2511ZM36.2511 50.401H36.8511V49.801H36.2511V50.401ZM35.1351 51.424V50.5H33.9351V51.424H35.1351ZM34.5351 49.9H33.5781V51.1H34.5351V49.9ZM32.9781 50.5V56H34.1781V50.5H32.9781ZM33.5781 56.6H34.5351V55.4H33.5781V56.6ZM35.1351 56V53.085H33.9351V56H35.1351ZM35.1351 53.085C35.1351 52.5852 35.2991 52.3414 35.4603 52.2115C35.6414 52.0655 35.9133 51.989 36.2272 52.0015L36.2751 50.8025C35.764 50.782 35.1779 50.898 34.7073 51.2772C34.2167 51.6726 33.9351 52.2868 33.9351 53.085H35.1351ZM36.8511 51.402V50.401H35.6511V51.402H36.8511ZM36.2511 49.801C35.4042 49.801 34.4687 50.1261 33.9895 51.1745L35.0808 51.6735C35.3055 51.1819 35.7121 51.001 36.2511 51.001V49.801ZM37.7577 53.69V53.09H37.0338L37.1682 53.8014L37.7577 53.69ZM42.3667 53.69V54.29H42.8815L42.9598 53.7812L42.3667 53.69ZM42.1467 54.9L42.6505 55.226L42.9959 54.6921L42.4429 54.3782L42.1467 54.9ZM41.3327 54.438L41.6289 53.9162L41.1232 53.6292L40.8205 54.1256L41.3327 54.438ZM41.4317 52.854V53.454H42.1295L42.025 52.7641L41.4317 52.854ZM37.7577 52.854L37.1654 52.7587L37.0535 53.454H37.7577V52.854ZM37.7577 54.29H42.3667V53.09H37.7577V54.29ZM42.9598 53.7812C42.9864 53.6084 42.9997 53.4349 42.9997 53.261H41.7997C41.7997 53.3731 41.7911 53.4856 41.7737 53.5988L42.9598 53.7812ZM42.9997 53.261C42.9997 51.4544 41.7144 49.757 39.6607 49.757V50.957C40.9291 50.957 41.7997 51.9876 41.7997 53.261H42.9997ZM39.6607 49.757C37.5983 49.757 36.1787 51.3059 36.1787 53.25H37.3787C37.3787 51.9381 38.2912 50.957 39.6607 50.957V49.757ZM36.1787 53.25C36.1787 54.2206 36.527 55.1004 37.1638 55.7389C37.8018 56.3786 38.6963 56.743 39.7267 56.743V55.543C38.9862 55.543 38.4067 55.2859 38.0134 54.8916C37.619 54.4961 37.3787 53.9294 37.3787 53.25H36.1787ZM39.7267 56.743C41.023 56.743 42.052 56.1509 42.6505 55.226L41.643 54.574C41.2735 55.1451 40.6305 55.543 39.7267 55.543V56.743ZM42.4429 54.3782L41.6289 53.9162L41.0366 54.9598L41.8506 55.4218L42.4429 54.3782ZM40.8205 54.1256C40.6617 54.386 40.313 54.641 39.7487 54.641V55.841C40.7025 55.841 41.4538 55.392 41.845 54.7504L40.8205 54.1256ZM39.7487 54.641C39.3463 54.641 39.0289 54.5313 38.8034 54.3595C38.5823 54.1911 38.4151 53.9375 38.3473 53.5786L37.1682 53.8014C37.2874 54.4325 37.6042 54.9544 38.0761 55.314C38.5436 55.6702 39.1282 55.841 39.7487 55.841V54.641ZM39.6607 51.859C39.9518 51.859 40.2137 51.9478 40.4124 52.1113C40.606 52.2707 40.7759 52.5308 40.8385 52.9439L42.025 52.7641C41.9226 52.0882 41.6195 51.5508 41.1751 51.1849C40.7358 50.8232 40.1947 50.659 39.6607 50.659V51.859ZM41.4317 52.254H37.7577V53.454H41.4317V52.254ZM38.3501 52.9493C38.4069 52.5965 38.5608 52.3314 38.7686 52.1541C38.9758 51.9774 39.2706 51.859 39.6607 51.859V50.659C39.0169 50.659 38.4372 50.8596 37.9899 51.2411C37.5432 51.6221 37.2626 52.1545 37.1654 52.7587L38.3501 52.9493Z" fill="#8A8A8A"/>
</svg>
