<svg width="361" height="79" viewBox="0 0 361 79" fill="none" xmlns="http://www.w3.org/2000/svg">
<mask id="path-1-outside-1_188_2972" maskUnits="userSpaceOnUse" x="0.765869" y="0.480469" width="360" height="78" fill="black">
<rect fill="white" x="0.765869" y="0.480469" width="360" height="78"/>
<path d="M0.765869 1.48047H360.766V78.4805H0.765869V1.48047Z"/>
</mask>
<path d="M0.765869 1.48047H360.766V78.4805H0.765869V1.48047Z" fill="#0D0D0D"/>
<g clip-path="url(#clip0_188_2972)">
<rect width="60" height="77" transform="translate(0.765869 1.48047)" fill="#0D0D0D"/>
<path d="M26.3908 28.1416L32.5354 34.2464L40.8873 28.6191L34.9217 22.8125L26.3908 28.1416Z" fill="white" stroke="white" stroke-width="0.5" stroke-linejoin="round"/>
<path d="M20.6442 41.9011V31.9392L26.391 28.1406L32.5356 34.2455L40.8875 28.6181V39.0183L32.4362 44.1485L20.6442 41.9011Z" fill="#0D0D0D"/>
<path d="M32.4362 44.1485L20.6442 41.9011V31.9392L26.391 28.1406L32.5356 34.2455M32.4362 44.1485L32.5356 34.2455M32.4362 44.1485L40.8875 39.0183V28.6181L32.5356 34.2455" stroke="white" stroke-width="0.5" stroke-linejoin="round"/>
<path d="M24.0871 42.4841V35.2422L28.6941 36.0645V43.4674" stroke="white" stroke-width="0.5" stroke-linejoin="round"/>
<path d="M17.4489 52.7725H16.8489V54.8586L17.9572 53.0912L17.4489 52.7725ZM17.4489 49.7805H18.0489V49.1805H17.4489V49.7805ZM16.4919 49.7805V49.1805H15.8919V49.7805H16.4919ZM16.4919 57.4805H15.8919V58.0805H16.4919V57.4805ZM17.4489 57.4805V58.0805H18.0489V57.4805H17.4489ZM20.4079 57.4805H19.8079V58.0805H20.4079V57.4805ZM21.3649 57.4805V58.0805H21.9649V57.4805H21.3649ZM19.2309 51.2375C18.2849 51.2375 17.4726 51.6053 16.9406 52.4537L17.9572 53.0912C18.2391 52.6417 18.6368 52.4375 19.2309 52.4375V51.2375ZM18.0489 52.7725V49.7805H16.8489V52.7725H18.0489ZM17.4489 49.1805H16.4919V50.3805H17.4489V49.1805ZM15.8919 49.7805V57.4805H17.0919V49.7805H15.8919ZM16.4919 58.0805H17.4489V56.8805H16.4919V58.0805ZM18.0489 57.4805V54.5655H16.8489V57.4805H18.0489ZM18.0489 54.5655C18.0489 54.0249 18.1958 53.7417 18.3426 53.5935C18.4905 53.4442 18.7188 53.3505 19.0439 53.3505V52.1505C18.4889 52.1505 17.9198 52.3152 17.4901 52.749C17.0594 53.1838 16.8489 53.808 16.8489 54.5655H18.0489ZM19.0439 53.3505C19.3477 53.3505 19.5192 53.4387 19.6156 53.5368C19.713 53.6359 19.8079 53.8208 19.8079 54.1585H21.0079C21.0079 53.5941 20.8442 53.075 20.4714 52.6957C20.0975 52.3152 19.587 52.1505 19.0439 52.1505V53.3505ZM19.8079 54.1585V57.4805H21.0079V54.1585H19.8079ZM20.4079 58.0805H21.3649V56.8805H20.4079V58.0805ZM21.9649 57.4805V54.1035H20.7649V57.4805H21.9649ZM21.9649 54.1035C21.9649 53.2792 21.7151 52.5528 21.2146 52.0283C20.7116 51.5011 20.0117 51.2375 19.2309 51.2375V52.4375C19.737 52.4375 20.1042 52.6028 20.3464 52.8567C20.5912 53.1132 20.7649 53.5197 20.7649 54.1035H21.9649ZM25.4859 58.2235C27.4173 58.2235 28.9899 56.6958 28.9899 54.7305H27.7899C27.7899 56.0212 26.7665 57.0235 25.4859 57.0235V58.2235ZM28.9899 54.7305C28.9899 52.7652 27.4173 51.2375 25.4859 51.2375V52.4375C26.7665 52.4375 27.7899 53.4398 27.7899 54.7305H28.9899ZM25.4859 51.2375C23.5515 51.2375 21.9929 52.7681 21.9929 54.7305H23.1929C23.1929 53.4368 24.2082 52.4375 25.4859 52.4375V51.2375ZM21.9929 54.7305C21.9929 56.6928 23.5515 58.2235 25.4859 58.2235V57.0235C24.2082 57.0235 23.1929 56.0241 23.1929 54.7305H21.9929ZM25.4859 56.0885C24.7327 56.0885 24.1499 55.5146 24.1499 54.7305H22.9499C22.9499 56.1684 24.061 57.2885 25.4859 57.2885V56.0885ZM24.1499 54.7305C24.1499 53.9464 24.7327 53.3725 25.4859 53.3725V52.1725C24.061 52.1725 22.9499 53.2926 22.9499 54.7305H24.1499ZM25.4859 53.3725C26.2523 53.3725 26.8329 53.9486 26.8329 54.7305H28.0329C28.0329 53.2903 26.9194 52.1725 25.4859 52.1725V53.3725ZM26.8329 54.7305C26.8329 55.5123 26.2523 56.0885 25.4859 56.0885V57.2885C26.9194 57.2885 28.0329 56.1706 28.0329 54.7305H26.8329ZM33.931 52.7725L33.4024 53.0563L33.8962 53.9758L34.4423 53.0864L33.931 52.7725ZM30.675 52.7175H30.075V54.7604L31.1797 53.0419L30.675 52.7175ZM30.675 51.9805H31.275V51.3805H30.675V51.9805ZM29.718 51.9805V51.3805H29.118V51.9805H29.718ZM29.718 57.4805H29.118V58.0805H29.718V57.4805ZM30.675 57.4805V58.0805H31.275V57.4805H30.675ZM33.249 57.4805H32.649V58.0805H33.249V57.4805ZM34.206 57.4805V58.0805H34.806V57.4805H34.206ZM36.769 57.4805H36.169V58.0805H36.769V57.4805ZM37.726 57.4805V58.0805H38.326V57.4805H37.726ZM35.658 51.2375C34.7572 51.2375 33.9252 51.6353 33.4197 52.4585L34.4423 53.0864C34.7068 52.6557 35.1289 52.4375 35.658 52.4375V51.2375ZM34.4596 52.4886C34.0331 51.6944 33.2766 51.2375 32.314 51.2375V52.4375C32.8475 52.4375 33.191 52.6626 33.4024 53.0563L34.4596 52.4886ZM32.314 51.2375C31.4596 51.2375 30.6875 51.5886 30.1703 52.393L31.1797 53.0419C31.4546 52.6144 31.8265 52.4375 32.314 52.4375V51.2375ZM31.275 52.7175V51.9805H30.075V52.7175H31.275ZM30.675 51.3805H29.718V52.5805H30.675V51.3805ZM29.118 51.9805V57.4805H30.318V51.9805H29.118ZM29.718 58.0805H30.675V56.8805H29.718V58.0805ZM31.275 57.4805V54.4225H30.075V57.4805H31.275ZM31.275 54.4225C31.275 53.9413 31.4088 53.6878 31.5346 53.5575C31.661 53.4264 31.8456 53.3505 32.083 53.3505V52.1505C31.5835 52.1505 31.0641 52.3166 30.6708 52.7245C30.2767 53.1331 30.075 53.7157 30.075 54.4225H31.275ZM32.083 53.3505C32.3024 53.3505 32.4182 53.4184 32.4862 53.4947C32.5622 53.58 32.649 53.7563 32.649 54.0925H33.849C33.849 53.5596 33.7104 53.0649 33.3822 52.6965C33.0459 52.319 32.5786 52.1505 32.083 52.1505V53.3505ZM32.649 54.0925V57.4805H33.849V54.0925H32.649ZM33.249 58.0805H34.206V56.8805H33.249V58.0805ZM34.806 57.4805V54.4225H33.606V57.4805H34.806ZM34.806 54.4225C34.806 53.9194 34.9295 53.6651 35.0402 53.5418C35.1431 53.4273 35.3024 53.3505 35.559 53.3505V52.1505C35.0457 52.1505 34.5285 52.3157 34.1474 52.7401C33.774 53.1558 33.606 53.7375 33.606 54.4225H34.806ZM35.559 53.3505C35.7881 53.3505 35.9197 53.4215 35.9977 53.505C36.0797 53.5929 36.169 53.7669 36.169 54.0925H37.369C37.369 53.549 37.2164 53.0521 36.8749 52.6862C36.5293 52.3159 36.056 52.1505 35.559 52.1505V53.3505ZM36.169 54.0925V57.4805H37.369V54.0925H36.169ZM36.769 58.0805H37.726V56.8805H36.769V58.0805ZM38.326 57.4805V54.0595H37.126V57.4805H38.326ZM38.326 54.0595C38.326 53.2481 38.0742 52.5347 37.585 52.0196C37.0936 51.5023 36.412 51.2375 35.658 51.2375V52.4375C36.1251 52.4375 36.4775 52.5961 36.7149 52.8461C36.9544 53.0982 37.126 53.4958 37.126 54.0595H38.326ZM39.924 55.1705V54.5705H39.2001L39.3344 55.2818L39.924 55.1705ZM44.533 55.1705V55.7705H45.0478L45.126 55.2617L44.533 55.1705ZM44.313 56.3805L44.8167 56.7064L45.1622 56.1725L44.6092 55.8587L44.313 56.3805ZM43.499 55.9185L43.7952 55.3967L43.2895 55.1096L42.9867 55.6061L43.499 55.9185ZM43.598 54.3345V54.9345H44.2958L44.1912 54.2446L43.598 54.3345ZM39.924 54.3345L39.3316 54.2391L39.2197 54.9345H39.924V54.3345ZM39.924 55.7705H44.533V54.5705H39.924V55.7705ZM45.126 55.2617C45.1526 55.0889 45.166 54.9154 45.166 54.7415H43.966C43.966 54.8536 43.9574 54.9661 43.94 55.0792L45.126 55.2617ZM45.166 54.7415C45.166 52.9349 43.8806 51.2375 41.827 51.2375V52.4375C43.0954 52.4375 43.966 53.4681 43.966 54.7415H45.166ZM41.827 51.2375C39.7646 51.2375 38.345 52.7864 38.345 54.7305H39.545C39.545 53.4186 40.4574 52.4375 41.827 52.4375V51.2375ZM38.345 54.7305C38.345 55.7011 38.6932 56.5809 39.33 57.2194C39.968 57.8591 40.8625 58.2235 41.893 58.2235V57.0235C41.1525 57.0235 40.573 56.7663 40.1797 56.372C39.7853 55.9765 39.545 55.4099 39.545 54.7305H38.345ZM41.893 58.2235C43.1892 58.2235 44.2183 57.6313 44.8167 56.7064L43.8093 56.0545C43.4397 56.6256 42.7968 57.0235 41.893 57.0235V58.2235ZM44.6092 55.8587L43.7952 55.3967L43.2028 56.4403L44.0168 56.9023L44.6092 55.8587ZM42.9867 55.6061C42.828 55.8665 42.4792 56.1215 41.915 56.1215V57.3215C42.8688 57.3215 43.62 56.8725 44.0113 56.2308L42.9867 55.6061ZM41.915 56.1215C41.5125 56.1215 41.1951 56.0118 40.9696 55.84C40.7486 55.6716 40.5814 55.418 40.5136 55.0591L39.3344 55.2818C39.4536 55.913 39.7704 56.4349 40.2424 56.7945C40.7099 57.1507 41.2945 57.3215 41.915 57.3215V56.1215ZM41.827 53.3395C42.118 53.3395 42.38 53.4282 42.5786 53.5918C42.7723 53.7512 42.9422 54.0113 43.0048 54.4244L44.1912 54.2446C44.0888 53.5687 43.7857 53.0312 43.3414 52.6654C42.9021 52.3037 42.361 52.1395 41.827 52.1395V53.3395ZM43.598 53.7345H39.924V54.9345H43.598V53.7345ZM40.5164 54.4298C40.5732 54.0769 40.7271 53.8118 40.9349 53.6346C41.142 53.4579 41.4368 53.3395 41.827 53.3395V52.1395C41.1832 52.1395 40.6035 52.34 40.1561 52.7216C39.7094 53.1026 39.4288 53.635 39.3316 54.2391L40.5164 54.4298Z" fill="white"/>
<g opacity="0.14" filter="url(#filter0_f_188_2972)">
<path d="M7.85083 1.48047H53.6821L45.7981 78.48H16.7981L7.85083 1.48047Z" fill="url(#paint0_linear_188_2972)"/>
</g>
</g>
<rect width="60" height="77" transform="translate(60.7659 1.48047)" fill="#0D0D0D"/>
<path fill-rule="evenodd" clip-rule="evenodd" d="M99.1659 30.0805H82.3659V33.4805H99.1659V30.0805ZM81.7659 33.4805V33.9805V41.8805V42.4805H82.3659H99.1659H99.7659V41.8805V33.9805V33.4805V30.0805V29.4805H99.1659H82.3659H81.7659V30.0805V33.4805ZM99.1659 41.8805V33.9805H82.3659V41.8805H99.1659ZM97.7659 39.4805H93.7659V39.9805H97.7659V39.4805Z" fill="#8A8A8A"/>
<path d="M82.0519 56.1935L82.5802 56.4779L82.8555 55.9665L82.3533 55.6747L82.0519 56.1935ZM81.2379 55.7205L81.5393 55.2017L81.0034 54.8903L80.7096 55.436L81.2379 55.7205ZM81.2049 53.7405L80.6622 53.9964L80.9399 54.5851L81.5041 54.2605L81.2049 53.7405ZM82.0079 53.2785L82.3071 53.7985L82.7901 53.5206L82.5486 53.0184L82.0079 53.2785ZM79.5769 58.2235C80.8685 58.2235 82.0102 57.5364 82.5802 56.4779L81.5236 55.909C81.1695 56.5665 80.4412 57.0235 79.5769 57.0235V58.2235ZM82.3533 55.6747L81.5393 55.2017L80.9364 56.2392L81.7504 56.7122L82.3533 55.6747ZM80.7096 55.436C80.5079 55.8106 80.1076 56.0775 79.5769 56.0775V57.2775C80.5421 57.2775 81.3519 56.7743 81.7662 56.0049L80.7096 55.436ZM79.5769 56.0775C78.8127 56.0775 78.2409 55.5036 78.2409 54.7305H77.0409C77.0409 56.1574 78.141 57.2775 79.5769 57.2775V56.0775ZM78.2409 54.7305C78.2409 53.9441 78.8149 53.3725 79.5769 53.3725V52.1725C78.1388 52.1725 77.0409 53.2948 77.0409 54.7305H78.2409ZM79.5769 53.3725C80.1033 53.3725 80.4952 53.6424 80.6622 53.9964L81.7475 53.4845C81.3646 52.6726 80.5245 52.1725 79.5769 52.1725V53.3725ZM81.5041 54.2605L82.3071 53.7985L81.7087 52.7584L80.9057 53.2204L81.5041 54.2605ZM82.5486 53.0184C82.0222 51.9242 80.8765 51.2375 79.5769 51.2375V52.4375C80.4553 52.4375 81.1575 52.8948 81.4672 53.5386L82.5486 53.0184ZM79.5769 51.2375C77.58 51.2375 76.0839 52.7756 76.0839 54.7305H77.2839C77.2839 53.4293 78.2517 52.4375 79.5769 52.4375V51.2375ZM76.0839 54.7305C76.0839 56.6853 77.58 58.2235 79.5769 58.2235V57.0235C78.2517 57.0235 77.2839 56.0316 77.2839 54.7305H76.0839ZM87.6756 51.9805V51.3805H87.0756V51.9805H87.6756ZM87.6756 52.9265L87.1738 53.2555L88.2756 54.9356V52.9265H87.6756ZM87.6756 56.5345H88.2756V54.5253L87.1738 56.2055L87.6756 56.5345ZM87.6756 57.4805H87.0756V58.0805H87.6756V57.4805ZM88.6326 57.4805V58.0805H89.2326V57.4805H88.6326ZM88.6326 51.9805H89.2326V51.3805H88.6326V51.9805ZM87.0756 51.9805V52.9265H88.2756V51.9805H87.0756ZM88.1773 52.5975C87.627 51.7582 86.7348 51.2375 85.5966 51.2375V52.4375C86.3283 52.4375 86.8442 52.7528 87.1738 53.2555L88.1773 52.5975ZM85.5966 51.2375C83.7196 51.2375 82.2136 52.7879 82.2136 54.7305H83.4136C83.4136 53.417 84.4155 52.4375 85.5966 52.4375V51.2375ZM82.2136 54.7305C82.2136 56.673 83.7196 58.2235 85.5966 58.2235V57.0235C84.4155 57.0235 83.4136 56.0439 83.4136 54.7305H82.2136ZM85.5966 58.2235C86.7348 58.2235 87.627 57.7028 88.1773 56.8635L87.1738 56.2055C86.8442 56.7082 86.3283 57.0235 85.5966 57.0235V58.2235ZM87.0756 56.5345V57.4805H88.2756V56.5345H87.0756ZM87.6756 58.0805H88.6326V56.8805H87.6756V58.0805ZM89.2326 57.4805V51.9805H88.0326V57.4805H89.2326ZM88.6326 51.3805H87.6756V52.5805H88.6326V51.3805ZM85.7176 56.0995C84.9534 56.0995 84.3706 55.5255 84.3706 54.7305H83.1706C83.1706 56.1794 84.2818 57.2995 85.7176 57.2995V56.0995ZM84.3706 54.7305C84.3706 53.9354 84.9534 53.3615 85.7176 53.3615V52.1615C84.2818 52.1615 83.1706 53.2815 83.1706 54.7305H84.3706ZM85.7176 53.3615C86.495 53.3615 87.0756 53.9376 87.0756 54.7305H88.2756C88.2756 53.2793 87.1621 52.1615 85.7176 52.1615V53.3615ZM87.0756 54.7305C87.0756 55.5233 86.495 56.0995 85.7176 56.0995V57.2995C87.1621 57.2995 88.2756 56.1816 88.2756 54.7305H87.0756ZM91.2395 52.9045H90.6395L91.7852 53.1539L91.2395 52.9045ZM91.2395 51.9805H91.8395V51.3805H91.2395V51.9805ZM90.2825 51.9805V51.3805H89.6825V51.9805H90.2825ZM90.2825 57.4805H89.6825V58.0805H90.2825V57.4805ZM91.2395 57.4805V58.0805H91.8395V57.4805H91.2395ZM92.9555 52.8825L92.9315 53.482L93.5555 53.5069V52.8825H92.9555ZM92.9555 51.8815H93.5555V51.2815H92.9555V51.8815ZM91.8395 52.9045V51.9805H90.6395V52.9045H91.8395ZM91.2395 51.3805H90.2825V52.5805H91.2395V51.3805ZM89.6825 51.9805V57.4805H90.8825V51.9805H89.6825ZM90.2825 58.0805H91.2395V56.8805H90.2825V58.0805ZM91.8395 57.4805V54.5655H90.6395V57.4805H91.8395ZM91.8395 54.5655C91.8395 54.0657 92.0035 53.8219 92.1646 53.692C92.3458 53.546 92.6176 53.4694 92.9315 53.482L92.9795 52.2829C92.4684 52.2625 91.8822 52.3784 91.4116 52.7577C90.921 53.153 90.6395 53.7673 90.6395 54.5655H91.8395ZM93.5555 52.8825V51.8815H92.3555V52.8825H93.5555ZM92.9555 51.2815C92.1085 51.2815 91.1731 51.6066 90.6938 52.655L91.7852 53.1539C92.0099 52.6624 92.4165 52.4815 92.9555 52.4815V51.2815ZM98.3451 49.7805V49.1805H97.7451V49.7805H98.3451ZM98.3451 52.9265L97.8433 53.2555L98.9451 54.9356V52.9265H98.3451ZM98.3451 56.5345H98.9451V54.5253L97.8433 56.2055L98.3451 56.5345ZM98.3451 57.4805H97.7451V58.0805H98.3451V57.4805ZM99.3021 57.4805V58.0805H99.9021V57.4805H99.3021ZM99.3021 49.7805H99.9021V49.1805H99.3021V49.7805ZM97.7451 49.7805V52.9265H98.9451V49.7805H97.7451ZM98.8468 52.5975C98.2965 51.7582 97.4043 51.2375 96.2661 51.2375V52.4375C96.9979 52.4375 97.5137 52.7528 97.8433 53.2555L98.8468 52.5975ZM96.2661 51.2375C94.3891 51.2375 92.8831 52.7879 92.8831 54.7305H94.0831C94.0831 53.417 95.085 52.4375 96.2661 52.4375V51.2375ZM92.8831 54.7305C92.8831 56.673 94.3891 58.2235 96.2661 58.2235V57.0235C95.085 57.0235 94.0831 56.0439 94.0831 54.7305H92.8831ZM96.2661 58.2235C97.4043 58.2235 98.2965 57.7028 98.8468 56.8635L97.8433 56.2055C97.5137 56.7082 96.9979 57.0235 96.2661 57.0235V58.2235ZM97.7451 56.5345V57.4805H98.9451V56.5345H97.7451ZM98.3451 58.0805H99.3021V56.8805H98.3451V58.0805ZM99.9021 57.4805V49.7805H98.7021V57.4805H99.9021ZM99.3021 49.1805H98.3451V50.3805H99.3021V49.1805ZM96.3871 56.0995C95.6229 56.0995 95.0401 55.5255 95.0401 54.7305H93.8401C93.8401 56.1794 94.9513 57.2995 96.3871 57.2995V56.0995ZM95.0401 54.7305C95.0401 53.9354 95.6229 53.3615 96.3871 53.3615V52.1615C94.9513 52.1615 93.8401 53.2815 93.8401 54.7305H95.0401ZM96.3871 53.3615C97.1645 53.3615 97.7451 53.9376 97.7451 54.7305H98.9451C98.9451 53.2793 97.8317 52.1615 96.3871 52.1615V53.3615ZM97.7451 54.7305C97.7451 55.5233 97.1645 56.0995 96.3871 56.0995V57.2995C97.8317 57.2995 98.9451 56.1816 98.9451 54.7305H97.7451ZM103.922 53.4325L103.37 53.6659L103.631 54.2844L104.216 53.9556L103.922 53.4325ZM104.725 52.9815L105.019 53.5046L105.515 53.2263L105.264 52.7165L104.725 52.9815ZM101.425 55.8635L101.994 55.6737L101.763 54.9784L101.127 55.343L101.425 55.8635ZM100.6 56.3365L100.302 55.816L99.8416 56.0798L100.047 56.5689L100.6 56.3365ZM102.366 53.4655C102.366 53.4529 102.368 53.4464 102.368 53.4443C102.369 53.4423 102.369 53.4415 102.37 53.4407C102.37 53.4398 102.377 53.4278 102.404 53.41C102.464 53.3695 102.585 53.3285 102.745 53.3285V52.1285C102.411 52.1285 102.042 52.2084 101.736 52.4127C101.412 52.63 101.166 52.9899 101.166 53.4655H102.366ZM102.745 53.3285C103.073 53.3285 103.283 53.4618 103.37 53.6659L104.475 53.1991C104.143 52.4131 103.386 52.1285 102.745 52.1285V53.3285ZM104.216 53.9556L105.019 53.5046L104.431 52.4583L103.628 52.9093L104.216 53.9556ZM105.264 52.7165C104.798 51.7715 103.847 51.2375 102.745 51.2375V52.4375C103.448 52.4375 103.948 52.7614 104.187 53.2465L105.264 52.7165ZM102.745 51.2375C101.412 51.2375 100.198 52.0773 100.198 53.4765H101.398C101.398 52.9396 101.856 52.4375 102.745 52.4375V51.2375ZM100.198 53.4765C100.198 54.1601 100.476 54.6602 100.9 55.0061C101.289 55.3233 101.777 55.4895 102.168 55.6055C102.611 55.737 102.909 55.802 103.145 55.9112C103.25 55.96 103.285 55.9938 103.291 56.0005C103.291 56.0012 103.286 55.9952 103.282 55.9838C103.277 55.9722 103.278 55.9668 103.278 55.9735H104.478C104.478 55.6797 104.377 55.4237 104.201 55.2193C104.039 55.0296 103.833 54.9072 103.649 54.8223C103.308 54.6641 102.835 54.5517 102.509 54.455C102.13 54.3427 101.847 54.2298 101.659 54.0761C101.505 53.951 101.398 53.7884 101.398 53.4765H100.198ZM103.278 55.9735C103.278 56.0107 103.271 56.0173 103.274 56.0118C103.276 56.0081 103.272 56.0179 103.244 56.0351C103.174 56.0769 103.024 56.1215 102.789 56.1215V57.3215C103.137 57.3215 103.532 57.2615 103.861 57.0641C104.225 56.8456 104.478 56.4717 104.478 55.9735H103.278ZM102.789 56.1215C102.305 56.1215 102.071 55.9042 101.994 55.6737L100.856 56.0532C101.131 56.8787 101.909 57.3215 102.789 57.3215V56.1215ZM101.127 55.343L100.302 55.816L100.899 56.857L101.724 56.384L101.127 55.343ZM100.047 56.5689C100.473 57.5818 101.484 58.2235 102.789 58.2235V57.0235C101.895 57.0235 101.366 56.6091 101.153 56.104L100.047 56.5689ZM102.789 58.2235C103.478 58.2235 104.131 58.0406 104.627 57.6563C105.136 57.2615 105.446 56.676 105.446 55.9735H104.246C104.246 56.2939 104.117 56.5335 103.892 56.7079C103.653 56.8929 103.278 57.0235 102.789 57.0235V58.2235ZM105.446 55.9735C105.446 55.2854 105.171 54.7804 104.747 54.4303C104.357 54.1088 103.868 53.9419 103.476 53.8263C103.03 53.695 102.734 53.6321 102.497 53.5237C102.392 53.4755 102.358 53.4422 102.353 53.4363C102.353 53.4361 102.358 53.4425 102.363 53.4544C102.367 53.4664 102.366 53.4721 102.366 53.4655H101.166C101.166 53.7593 101.268 54.0156 101.444 54.22C101.608 54.4094 101.814 54.5309 101.998 54.6148C102.338 54.7708 102.812 54.8818 103.137 54.9774C103.514 55.0887 103.796 55.2016 103.983 55.3562C104.136 55.4821 104.246 55.6496 104.246 55.9735H105.446Z" fill="#8A8A8A"/>
<rect width="60" height="77" transform="translate(120.766 1.48047)" fill="#0D0D0D"/>
<path fill-rule="evenodd" clip-rule="evenodd" d="M158.166 27.0805H143.366V41.8805H158.166V27.0805ZM143.366 26.4805H142.766V27.0805V41.8805V42.4805H143.366H158.166H158.766V41.8805V27.0805V26.4805H158.166H143.366ZM155.466 29.7805H145.766V29.1805H155.766H156.066V29.4805V39.4805H155.466V29.7805ZM145.766 33.7805H151.466V39.4805H152.066V33.4805V33.1805H151.766H145.766V33.7805Z" fill="#8A8A8A"/>
<path d="M142.449 52.9265H141.849V54.9356L142.951 53.2555L142.449 52.9265ZM142.449 51.9805H143.049V51.3805H142.449V51.9805ZM141.492 51.9805V51.3805H140.892V51.9805H141.492ZM141.492 59.6805H140.892V60.2805H141.492V59.6805ZM142.449 59.6805V60.2805H143.049V59.6805H142.449ZM142.449 56.5345L142.951 56.2055L141.849 54.5253V56.5345H142.449ZM144.528 51.2375C143.39 51.2375 142.497 51.7582 141.947 52.5975L142.951 53.2555C143.28 52.7528 143.796 52.4375 144.528 52.4375V51.2375ZM143.049 52.9265V51.9805H141.849V52.9265H143.049ZM142.449 51.3805H141.492V52.5805H142.449V51.3805ZM140.892 51.9805V59.6805H142.092V51.9805H140.892ZM141.492 60.2805H142.449V59.0805H141.492V60.2805ZM143.049 59.6805V56.5345H141.849V59.6805H143.049ZM141.947 56.8635C142.497 57.7028 143.39 58.2235 144.528 58.2235V57.0235C143.796 57.0235 143.28 56.7082 142.951 56.2055L141.947 56.8635ZM144.528 58.2235C146.405 58.2235 147.911 56.673 147.911 54.7305H146.711C146.711 56.0439 145.709 57.0235 144.528 57.0235V58.2235ZM147.911 54.7305C147.911 52.7879 146.405 51.2375 144.528 51.2375V52.4375C145.709 52.4375 146.711 53.417 146.711 54.7305H147.911ZM144.407 56.0995C143.629 56.0995 143.049 55.5233 143.049 54.7305H141.849C141.849 56.1816 142.962 57.2995 144.407 57.2995V56.0995ZM143.049 54.7305C143.049 53.9376 143.629 53.3615 144.407 53.3615V52.1615C142.962 52.1615 141.849 53.2793 141.849 54.7305H143.049ZM144.407 53.3615C145.171 53.3615 145.754 53.9354 145.754 54.7305H146.954C146.954 53.2815 145.843 52.1615 144.407 52.1615V53.3615ZM145.754 54.7305C145.754 55.5255 145.171 56.0995 144.407 56.0995V57.2995C145.843 57.2995 146.954 56.1794 146.954 54.7305H145.754ZM153.207 51.9805V51.3805H152.607V51.9805H153.207ZM153.207 52.9265L152.705 53.2555L153.807 54.9356V52.9265H153.207ZM153.207 56.5345H153.807V54.5253L152.705 56.2055L153.207 56.5345ZM153.207 57.4805H152.607V58.0805H153.207V57.4805ZM154.164 57.4805V58.0805H154.764V57.4805H154.164ZM154.164 51.9805H154.764V51.3805H154.164V51.9805ZM152.607 51.9805V52.9265H153.807V51.9805H152.607ZM153.709 52.5975C153.158 51.7582 152.266 51.2375 151.128 51.2375V52.4375C151.86 52.4375 152.375 52.7528 152.705 53.2555L153.709 52.5975ZM151.128 51.2375C149.251 51.2375 147.745 52.7879 147.745 54.7305H148.945C148.945 53.417 149.947 52.4375 151.128 52.4375V51.2375ZM147.745 54.7305C147.745 56.673 149.251 58.2235 151.128 58.2235V57.0235C149.947 57.0235 148.945 56.0439 148.945 54.7305H147.745ZM151.128 58.2235C152.266 58.2235 153.158 57.7028 153.709 56.8635L152.705 56.2055C152.375 56.7082 151.86 57.0235 151.128 57.0235V58.2235ZM152.607 56.5345V57.4805H153.807V56.5345H152.607ZM153.207 58.0805H154.164V56.8805H153.207V58.0805ZM154.764 57.4805V51.9805H153.564V57.4805H154.764ZM154.164 51.3805H153.207V52.5805H154.164V51.3805ZM151.249 56.0995C150.485 56.0995 149.902 55.5255 149.902 54.7305H148.702C148.702 56.1794 149.813 57.2995 151.249 57.2995V56.0995ZM149.902 54.7305C149.902 53.9354 150.485 53.3615 151.249 53.3615V52.1615C149.813 52.1615 148.702 53.2815 148.702 54.7305H149.902ZM151.249 53.3615C152.026 53.3615 152.607 53.9376 152.607 54.7305H153.807C153.807 53.2793 152.693 52.1615 151.249 52.1615V53.3615ZM152.607 54.7305C152.607 55.5233 152.026 56.0995 151.249 56.0995V57.2995C152.693 57.2995 153.807 56.1816 153.807 54.7305H152.607ZM159.653 51.9805V51.3805H159.234L159.09 51.7736L159.653 51.9805ZM158.069 56.2925L157.518 56.5312L158.115 57.9069L158.632 56.4994L158.069 56.2925ZM156.199 51.9805L156.749 51.7417L156.593 51.3805H156.199V51.9805ZM155.176 51.9805V51.3805H154.258L154.626 52.2211L155.176 51.9805ZM157.574 57.4585L158.116 57.7153L158.233 57.4683L158.123 57.2179L157.574 57.4585ZM157.475 57.6675L156.933 57.4106L156.924 57.4288L156.916 57.4476L157.475 57.6675ZM155.99 58.7895L156.034 58.1911L155.39 58.143V58.7895H155.99ZM155.99 59.6805H155.39V60.2407L155.949 60.2791L155.99 59.6805ZM158.432 57.8215L157.872 57.6063L157.87 57.6108L158.432 57.8215ZM160.676 51.9805L161.236 52.1956L161.549 51.3805H160.676V51.9805ZM159.09 51.7736L157.506 56.0856L158.632 56.4994L160.216 52.1874L159.09 51.7736ZM158.619 56.0537L156.749 51.7417L155.648 52.2192L157.518 56.5312L158.619 56.0537ZM156.199 51.3805H155.176V52.5805H156.199V51.3805ZM154.626 52.2211L157.024 57.6991L158.123 57.2179L155.725 51.7399L154.626 52.2211ZM157.032 57.2016L156.933 57.4106L158.017 57.9243L158.116 57.7153L157.032 57.2016ZM156.916 57.4476C156.796 57.7546 156.659 57.946 156.524 58.0546C156.405 58.1509 156.258 58.2078 156.034 58.1911L155.945 59.3878C156.459 59.4261 156.911 59.285 157.278 58.9881C157.631 58.7034 157.868 58.3064 158.033 57.8874L156.916 57.4476ZM155.39 58.7895V59.6805H156.59V58.7895H155.39ZM155.949 60.2791C157.418 60.3799 158.471 59.4249 158.994 58.0321L157.87 57.6108C157.468 58.682 156.805 59.135 156.031 59.0819L155.949 60.2791ZM158.992 58.0366L161.236 52.1956L160.116 51.7653L157.872 57.6063L158.992 58.0366ZM160.676 51.3805H159.653V52.5805H160.676V51.3805Z" fill="#8A8A8A"/>
<rect width="60" height="77" transform="translate(180.766 1.48047)" fill="#0D0D0D"/>
<path fill-rule="evenodd" clip-rule="evenodd" d="M201.866 28.9857L206.016 32.4805L210.766 28.4805L215.516 32.4805L219.666 28.9857L220.266 28.4805V29.2649V37.1805V37.7805V41.8805V42.4805H219.666H201.866H201.266V41.8805V37.7805V37.1805V29.2649V28.4805L201.866 28.9857ZM201.866 37.7805V41.8805H219.666V37.7805H201.866ZM219.666 37.1805H201.866V29.7701L205.629 32.9394L206.016 33.2649L206.402 32.9394L210.766 29.2649L215.129 32.9394L215.516 33.2649L215.902 32.9394L219.666 29.7701V37.1805Z" fill="#8A8A8A"/>
<path d="M191.449 52.9045H190.849L191.995 53.1539L191.449 52.9045ZM191.449 51.9805H192.049V51.3805H191.449V51.9805ZM190.492 51.9805V51.3805H189.892V51.9805H190.492ZM190.492 57.4805H189.892V58.0805H190.492V57.4805ZM191.449 57.4805V58.0805H192.049V57.4805H191.449ZM193.165 52.8825L193.141 53.482L193.765 53.5069V52.8825H193.165ZM193.165 51.8815H193.765V51.2815H193.165V51.8815ZM192.049 52.9045V51.9805H190.849V52.9045H192.049ZM191.449 51.3805H190.492V52.5805H191.449V51.3805ZM189.892 51.9805V57.4805H191.092V51.9805H189.892ZM190.492 58.0805H191.449V56.8805H190.492V58.0805ZM192.049 57.4805V54.5655H190.849V57.4805H192.049ZM192.049 54.5655C192.049 54.0657 192.213 53.8219 192.374 53.692C192.555 53.546 192.827 53.4694 193.141 53.482L193.189 52.2829C192.678 52.2625 192.092 52.3784 191.621 52.7577C191.13 53.153 190.849 53.7673 190.849 54.5655H192.049ZM193.765 52.8825V51.8815H192.565V52.8825H193.765ZM193.165 51.2815C192.318 51.2815 191.382 51.6066 190.903 52.655L191.995 53.1539C192.219 52.6624 192.626 52.4815 193.165 52.4815V51.2815ZM194.671 55.1705V54.5705H193.948L194.082 55.2818L194.671 55.1705ZM199.28 55.1705V55.7705H199.795L199.873 55.2617L199.28 55.1705ZM199.06 56.3805L199.564 56.7064L199.91 56.1725L199.357 55.8587L199.06 56.3805ZM198.246 55.9185L198.543 55.3967L198.037 55.1096L197.734 55.6061L198.246 55.9185ZM198.345 54.3345V54.9345H199.043L198.939 54.2446L198.345 54.3345ZM194.671 54.3345L194.079 54.2391L193.967 54.9345H194.671V54.3345ZM194.671 55.7705H199.28V54.5705H194.671V55.7705ZM199.873 55.2617C199.9 55.0889 199.913 54.9154 199.913 54.7415H198.713C198.713 54.8536 198.705 54.9661 198.687 55.0792L199.873 55.2617ZM199.913 54.7415C199.913 52.9349 198.628 51.2375 196.574 51.2375V52.4375C197.843 52.4375 198.713 53.4681 198.713 54.7415H199.913ZM196.574 51.2375C194.512 51.2375 193.092 52.7864 193.092 54.7305H194.292C194.292 53.4186 195.205 52.4375 196.574 52.4375V51.2375ZM193.092 54.7305C193.092 55.7011 193.441 56.5809 194.078 57.2194C194.715 57.8591 195.61 58.2235 196.64 58.2235V57.0235C195.9 57.0235 195.32 56.7663 194.927 56.372C194.533 55.9765 194.292 55.4099 194.292 54.7305H193.092ZM196.64 58.2235C197.937 58.2235 198.966 57.6313 199.564 56.7064L198.557 56.0545C198.187 56.6256 197.544 57.0235 196.64 57.0235V58.2235ZM199.357 55.8587L198.543 55.3967L197.95 56.4403L198.764 56.9023L199.357 55.8587ZM197.734 55.6061C197.575 55.8665 197.227 56.1215 196.662 56.1215V57.3215C197.616 57.3215 198.368 56.8725 198.759 56.2308L197.734 55.6061ZM196.662 56.1215C196.26 56.1215 195.943 56.0118 195.717 55.84C195.496 55.6716 195.329 55.418 195.261 55.0591L194.082 55.2818C194.201 55.913 194.518 56.4349 194.99 56.7945C195.457 57.1507 196.042 57.3215 196.662 57.3215V56.1215ZM196.574 53.3395C196.865 53.3395 197.127 53.4282 197.326 53.5918C197.52 53.7512 197.69 54.0113 197.752 54.4244L198.939 54.2446C198.836 53.5687 198.533 53.0312 198.089 52.6654C197.65 52.3037 197.108 52.1395 196.574 52.1395V53.3395ZM198.345 53.7345H194.671V54.9345H198.345V53.7345ZM195.264 54.4298C195.321 54.0769 195.475 53.8118 195.682 53.6346C195.889 53.4579 196.184 53.3395 196.574 53.3395V52.1395C195.931 52.1395 195.351 52.34 194.904 52.7216C194.457 53.1026 194.176 53.635 194.079 54.2391L195.264 54.4298ZM206.878 51.9805V51.3805H206.426L206.301 51.814L206.878 51.9805ZM205.668 56.1715L205.095 56.349L205.688 58.2647L206.244 56.3379L205.668 56.1715ZM204.37 51.9805L204.943 51.803L204.812 51.3805H204.37V51.9805ZM203.446 51.9805V51.3805H203.004L202.873 51.8025L203.446 51.9805ZM202.148 56.1605L201.571 56.3273L202.128 58.2486L202.721 56.3384L202.148 56.1605ZM200.938 51.9805L201.514 51.8136L201.389 51.3805H200.938V51.9805ZM199.937 51.9805V51.3805H199.123L199.364 52.1581L199.937 51.9805ZM201.642 57.4805L201.069 57.6581L201.2 58.0805H201.642V57.4805ZM202.621 57.4805V58.0805H203.06L203.193 57.6614L202.621 57.4805ZM203.908 53.4105L204.48 53.2296L203.908 51.4204L203.336 53.2296L203.908 53.4105ZM205.195 57.4805L204.623 57.6614L204.755 58.0805H205.195V57.4805ZM206.174 57.4805V58.0805H206.616L206.747 57.6581L206.174 57.4805ZM207.879 51.9805L208.452 52.1581L208.693 51.3805H207.879V51.9805ZM206.301 51.814L205.091 56.005L206.244 56.3379L207.454 52.1469L206.301 51.814ZM206.241 55.994L204.943 51.803L203.797 52.158L205.095 56.349L206.241 55.994ZM204.37 51.3805H203.446V52.5805H204.37V51.3805ZM202.873 51.8025L201.575 55.9825L202.721 56.3384L204.019 52.1584L202.873 51.8025ZM202.724 55.9936L201.514 51.8136L200.361 52.1473L201.571 56.3273L202.724 55.9936ZM200.938 51.3805H199.937V52.5805H200.938V51.3805ZM199.364 52.1581L201.069 57.6581L202.215 57.3028L200.51 51.8028L199.364 52.1581ZM201.642 58.0805H202.621V56.8805H201.642V58.0805ZM203.193 57.6614L204.48 53.5914L203.336 53.2296L202.049 57.2996L203.193 57.6614ZM203.336 53.5914L204.623 57.6614L205.767 57.2996L204.48 53.2296L203.336 53.5914ZM205.195 58.0805H206.174V56.8805H205.195V58.0805ZM206.747 57.6581L208.452 52.1581L207.306 51.8028L205.601 57.3028L206.747 57.6581ZM207.879 51.3805H206.878V52.5805H207.879V51.3805ZM213.403 51.9805V51.3805H212.803V51.9805H213.403ZM213.403 52.9265L212.901 53.2555L214.003 54.9356V52.9265H213.403ZM213.403 56.5345H214.003V54.5253L212.901 56.2055L213.403 56.5345ZM213.403 57.4805H212.803V58.0805H213.403V57.4805ZM214.36 57.4805V58.0805H214.96V57.4805H214.36ZM214.36 51.9805H214.96V51.3805H214.36V51.9805ZM212.803 51.9805V52.9265H214.003V51.9805H212.803ZM213.904 52.5975C213.354 51.7582 212.462 51.2375 211.324 51.2375V52.4375C212.055 52.4375 212.571 52.7528 212.901 53.2555L213.904 52.5975ZM211.324 51.2375C209.447 51.2375 207.941 52.7879 207.941 54.7305H209.141C209.141 53.417 210.143 52.4375 211.324 52.4375V51.2375ZM207.941 54.7305C207.941 56.673 209.447 58.2235 211.324 58.2235V57.0235C210.143 57.0235 209.141 56.0439 209.141 54.7305H207.941ZM211.324 58.2235C212.462 58.2235 213.354 57.7028 213.904 56.8635L212.901 56.2055C212.571 56.7082 212.055 57.0235 211.324 57.0235V58.2235ZM212.803 56.5345V57.4805H214.003V56.5345H212.803ZM213.403 58.0805H214.36V56.8805H213.403V58.0805ZM214.96 57.4805V51.9805H213.76V57.4805H214.96ZM214.36 51.3805H213.403V52.5805H214.36V51.3805ZM211.445 56.0995C210.681 56.0995 210.098 55.5255 210.098 54.7305H208.898C208.898 56.1794 210.009 57.2995 211.445 57.2995V56.0995ZM210.098 54.7305C210.098 53.9354 210.681 53.3615 211.445 53.3615V52.1615C210.009 52.1615 208.898 53.2815 208.898 54.7305H210.098ZM211.445 53.3615C212.222 53.3615 212.803 53.9376 212.803 54.7305H214.003C214.003 53.2793 212.889 52.1615 211.445 52.1615V53.3615ZM212.803 54.7305C212.803 55.5233 212.222 56.0995 211.445 56.0995V57.2995C212.889 57.2995 214.003 56.1816 214.003 54.7305H212.803ZM216.967 52.9045H216.367L217.512 53.1539L216.967 52.9045ZM216.967 51.9805H217.567V51.3805H216.967V51.9805ZM216.01 51.9805V51.3805H215.41V51.9805H216.01ZM216.01 57.4805H215.41V58.0805H216.01V57.4805ZM216.967 57.4805V58.0805H217.567V57.4805H216.967ZM218.683 52.8825L218.659 53.482L219.283 53.5069V52.8825H218.683ZM218.683 51.8815H219.283V51.2815H218.683V51.8815ZM217.567 52.9045V51.9805H216.367V52.9045H217.567ZM216.967 51.3805H216.01V52.5805H216.967V51.3805ZM215.41 51.9805V57.4805H216.61V51.9805H215.41ZM216.01 58.0805H216.967V56.8805H216.01V58.0805ZM217.567 57.4805V54.5655H216.367V57.4805H217.567ZM217.567 54.5655C217.567 54.0657 217.731 53.8219 217.892 53.692C218.073 53.546 218.345 53.4694 218.659 53.482L218.707 52.2829C218.196 52.2625 217.609 52.3784 217.139 52.7577C216.648 53.153 216.367 53.7673 216.367 54.5655H217.567ZM219.283 52.8825V51.8815H218.083V52.8825H219.283ZM218.683 51.2815C217.836 51.2815 216.9 51.6066 216.421 52.655L217.512 53.1539C217.737 52.6624 218.144 52.4815 218.683 52.4815V51.2815ZM224.072 49.7805V49.1805H223.472V49.7805H224.072ZM224.072 52.9265L223.57 53.2555L224.672 54.9356V52.9265H224.072ZM224.072 56.5345H224.672V54.5253L223.57 56.2055L224.072 56.5345ZM224.072 57.4805H223.472V58.0805H224.072V57.4805ZM225.029 57.4805V58.0805H225.629V57.4805H225.029ZM225.029 49.7805H225.629V49.1805H225.029V49.7805ZM223.472 49.7805V52.9265H224.672V49.7805H223.472ZM224.574 52.5975C224.024 51.7582 223.131 51.2375 221.993 51.2375V52.4375C222.725 52.4375 223.241 52.7528 223.57 53.2555L224.574 52.5975ZM221.993 51.2375C220.116 51.2375 218.61 52.7879 218.61 54.7305H219.81C219.81 53.417 220.812 52.4375 221.993 52.4375V51.2375ZM218.61 54.7305C218.61 56.673 220.116 58.2235 221.993 58.2235V57.0235C220.812 57.0235 219.81 56.0439 219.81 54.7305H218.61ZM221.993 58.2235C223.131 58.2235 224.024 57.7028 224.574 56.8635L223.57 56.2055C223.241 56.7082 222.725 57.0235 221.993 57.0235V58.2235ZM223.472 56.5345V57.4805H224.672V56.5345H223.472ZM224.072 58.0805H225.029V56.8805H224.072V58.0805ZM225.629 57.4805V49.7805H224.429V57.4805H225.629ZM225.029 49.1805H224.072V50.3805H225.029V49.1805ZM222.114 56.0995C221.35 56.0995 220.767 55.5255 220.767 54.7305H219.567C219.567 56.1794 220.678 57.2995 222.114 57.2995V56.0995ZM220.767 54.7305C220.767 53.9354 221.35 53.3615 222.114 53.3615V52.1615C220.678 52.1615 219.567 53.2815 219.567 54.7305H220.767ZM222.114 53.3615C222.892 53.3615 223.472 53.9376 223.472 54.7305H224.672C224.672 53.2793 223.559 52.1615 222.114 52.1615V53.3615ZM223.472 54.7305C223.472 55.5233 222.892 56.0995 222.114 56.0995V57.2995C223.559 57.2995 224.672 56.1816 224.672 54.7305H223.472ZM229.649 53.4325L229.097 53.6659L229.358 54.2844L229.943 53.9556L229.649 53.4325ZM230.452 52.9815L230.746 53.5046L231.242 53.2263L230.991 52.7165L230.452 52.9815ZM227.152 55.8635L227.722 55.6737L227.49 54.9784L226.854 55.343L227.152 55.8635ZM226.327 56.3365L226.029 55.816L225.569 56.0798L225.774 56.5689L226.327 56.3365ZM228.093 53.4655C228.093 53.4529 228.095 53.4464 228.095 53.4443C228.096 53.4423 228.096 53.4415 228.097 53.4407C228.097 53.4398 228.104 53.4278 228.131 53.41C228.191 53.3695 228.312 53.3285 228.472 53.3285V52.1285C228.138 52.1285 227.769 52.2084 227.464 52.4127C227.139 52.63 226.893 52.9899 226.893 53.4655H228.093ZM228.472 53.3285C228.8 53.3285 229.011 53.4618 229.097 53.6659L230.202 53.1991C229.87 52.4131 229.113 52.1285 228.472 52.1285V53.3285ZM229.943 53.9556L230.746 53.5046L230.159 52.4583L229.356 52.9093L229.943 53.9556ZM230.991 52.7165C230.526 51.7715 229.574 51.2375 228.472 51.2375V52.4375C229.175 52.4375 229.675 52.7614 229.914 53.2465L230.991 52.7165ZM228.472 51.2375C227.14 51.2375 225.925 52.0773 225.925 53.4765H227.125C227.125 52.9396 227.583 52.4375 228.472 52.4375V51.2375ZM225.925 53.4765C225.925 54.1601 226.203 54.6602 226.627 55.0061C227.017 55.3233 227.504 55.4895 227.895 55.6055C228.339 55.737 228.636 55.802 228.872 55.9112C228.977 55.96 229.012 55.9938 229.018 56.0005C229.018 56.0012 229.013 55.9952 229.009 55.9838C229.005 55.9722 229.005 55.9668 229.005 55.9735H230.205C230.205 55.6797 230.104 55.4237 229.929 55.2193C229.766 55.0296 229.56 54.9072 229.376 54.8223C229.035 54.6641 228.562 54.5517 228.236 54.455C227.857 54.3427 227.574 54.2298 227.386 54.0761C227.232 53.951 227.125 53.7884 227.125 53.4765H225.925ZM229.005 55.9735C229.005 56.0107 228.998 56.0173 229.001 56.0118C229.003 56.0081 229 56.0179 228.971 56.0351C228.901 56.0769 228.751 56.1215 228.516 56.1215V57.3215C228.864 57.3215 229.259 57.2615 229.588 57.0641C229.952 56.8456 230.205 56.4717 230.205 55.9735H229.005ZM228.516 56.1215C228.033 56.1215 227.798 55.9042 227.722 55.6737L226.583 56.0532C226.858 56.8787 227.636 57.3215 228.516 57.3215V56.1215ZM226.854 55.343L226.029 55.816L226.626 56.857L227.451 56.384L226.854 55.343ZM225.774 56.5689C226.2 57.5818 227.211 58.2235 228.516 58.2235V57.0235C227.622 57.0235 227.093 56.6091 226.881 56.104L225.774 56.5689ZM228.516 58.2235C229.205 58.2235 229.858 58.0406 230.354 57.6563C230.863 57.2615 231.173 56.676 231.173 55.9735H229.973C229.973 56.2939 229.844 56.5335 229.619 56.7079C229.38 56.8929 229.005 57.0235 228.516 57.0235V58.2235ZM231.173 55.9735C231.173 55.2854 230.899 54.7804 230.474 54.4303C230.084 54.1088 229.595 53.9419 229.203 53.8263C228.757 53.695 228.461 53.6321 228.224 53.5237C228.119 53.4755 228.085 53.4422 228.08 53.4363C228.08 53.4361 228.085 53.4425 228.09 53.4544C228.094 53.4664 228.093 53.4721 228.093 53.4655H226.893C226.893 53.7593 226.995 54.0156 227.171 54.22C227.335 54.4094 227.542 54.5309 227.725 54.6148C228.066 54.7708 228.54 54.8818 228.864 54.9774C229.242 55.0887 229.523 55.2016 229.711 55.3562C229.863 55.4821 229.973 55.6496 229.973 55.9735H231.173Z" fill="#8A8A8A"/>
<rect width="60" height="77" transform="translate(240.766 1.48047)" fill="#0D0D0D"/>
<path fill-rule="evenodd" clip-rule="evenodd" d="M270.766 23.7328C273.491 23.7328 275.727 25.8298 275.947 28.4982H265.584C265.805 25.8298 268.04 23.7328 270.766 23.7328ZM279.161 28.4982H276.549C276.327 25.4981 273.822 23.1328 270.766 23.1328C267.709 23.1328 265.204 25.4981 264.982 28.4982H262.37H261.77V29.0982V32.3985V32.9985H262.37H262.766V33.0982V41.8805V42.4805H263.366H278.166H278.766V41.8805V33.0982V32.9985H279.161H279.761V32.3985V29.0982V28.4982H279.161ZM262.37 29.0982H279.161V32.3985H262.37V29.0982ZM263.366 33.0982H278.166V41.8805H263.366V33.0982ZM275.766 38.4982H271.766V38.9982H275.766V38.4982Z" fill="#8A8A8A"/>
<path d="M261.473 53.4325L260.92 53.6659L261.181 54.2844L261.767 53.9556L261.473 53.4325ZM262.276 52.9815L262.57 53.5046L263.065 53.2263L262.814 52.7165L262.276 52.9815ZM258.976 55.8635L259.545 55.6737L259.313 54.9784L258.677 55.343L258.976 55.8635ZM258.151 56.3365L257.852 55.816L257.392 56.0798L257.598 56.5689L258.151 56.3365ZM259.917 53.4655C259.917 53.4529 259.918 53.4464 259.919 53.4443C259.919 53.4423 259.92 53.4415 259.92 53.4407C259.921 53.4398 259.928 53.4278 259.954 53.41C260.015 53.3695 260.135 53.3285 260.296 53.3285V52.1285C259.962 52.1285 259.592 52.2084 259.287 52.4127C258.962 52.63 258.717 52.9899 258.717 53.4655H259.917ZM260.296 53.3285C260.623 53.3285 260.834 53.4618 260.92 53.6659L262.026 53.1991C261.694 52.4131 260.936 52.1285 260.296 52.1285V53.3285ZM261.767 53.9556L262.57 53.5046L261.982 52.4583L261.179 52.9093L261.767 53.9556ZM262.814 52.7165C262.349 51.7715 261.397 51.2375 260.296 51.2375V52.4375C260.998 52.4375 261.499 52.7614 261.738 53.2465L262.814 52.7165ZM260.296 51.2375C258.963 51.2375 257.749 52.0773 257.749 53.4765H258.949C258.949 52.9396 259.407 52.4375 260.296 52.4375V51.2375ZM257.749 53.4765C257.749 54.1601 258.027 54.6602 258.451 55.0061C258.84 55.3233 259.327 55.4895 259.718 55.6055C260.162 55.737 260.46 55.802 260.695 55.9112C260.801 55.96 260.835 55.9938 260.841 56.0005C260.842 56.0012 260.837 55.9952 260.832 55.9838C260.828 55.9722 260.829 55.9668 260.829 55.9735H262.029C262.029 55.6797 261.927 55.4237 261.752 55.2193C261.589 55.0296 261.383 54.9072 261.2 54.8223C260.858 54.6641 260.386 54.5517 260.059 54.455C259.681 54.3427 259.398 54.2298 259.209 54.0761C259.056 53.951 258.949 53.7884 258.949 53.4765H257.749ZM260.829 55.9735C260.829 56.0107 260.821 56.0173 260.825 56.0118C260.827 56.0081 260.823 56.0179 260.794 56.0351C260.725 56.0769 260.575 56.1215 260.34 56.1215V57.3215C260.688 57.3215 261.083 57.2615 261.412 57.0641C261.776 56.8456 262.029 56.4717 262.029 55.9735H260.829ZM260.34 56.1215C259.856 56.1215 259.622 55.9042 259.545 55.6737L258.407 56.0532C258.682 56.8787 259.46 57.3215 260.34 57.3215V56.1215ZM258.677 55.343L257.852 55.816L258.449 56.857L259.274 56.384L258.677 55.343ZM257.598 56.5689C258.023 57.5818 259.034 58.2235 260.34 58.2235V57.0235C259.446 57.0235 258.916 56.6091 258.704 56.104L257.598 56.5689ZM260.34 58.2235C261.029 58.2235 261.682 58.0406 262.177 57.6563C262.687 57.2615 262.997 56.676 262.997 55.9735H261.797C261.797 56.2939 261.667 56.5335 261.442 56.7079C261.204 56.8929 260.828 57.0235 260.34 57.0235V58.2235ZM262.997 55.9735C262.997 55.2854 262.722 54.7804 262.297 54.4303C261.907 54.1088 261.419 53.9419 261.026 53.8263C260.581 53.695 260.285 53.6321 260.048 53.5237C259.942 53.4755 259.909 53.4422 259.904 53.4363C259.903 53.4361 259.909 53.4425 259.913 53.4544C259.918 53.4664 259.917 53.4721 259.917 53.4655H258.717C258.717 53.7593 258.819 54.0156 258.995 54.22C259.158 54.4094 259.365 54.5309 259.548 54.6148C259.889 54.7708 260.363 54.8818 260.687 54.9774C261.065 55.0887 261.346 55.2016 261.534 55.3562C261.687 55.4821 261.797 55.6496 261.797 55.9735H262.997ZM264.633 52.7725H264.033V54.8586L265.142 53.0912L264.633 52.7725ZM264.633 49.7805H265.233V49.1805H264.633V49.7805ZM263.676 49.7805V49.1805H263.076V49.7805H263.676ZM263.676 57.4805H263.076V58.0805H263.676V57.4805ZM264.633 57.4805V58.0805H265.233V57.4805H264.633ZM267.592 57.4805H266.992V58.0805H267.592V57.4805ZM268.549 57.4805V58.0805H269.149V57.4805H268.549ZM266.415 51.2375C265.469 51.2375 264.657 51.6053 264.125 52.4537L265.142 53.0912C265.423 52.6417 265.821 52.4375 266.415 52.4375V51.2375ZM265.233 52.7725V49.7805H264.033V52.7725H265.233ZM264.633 49.1805H263.676V50.3805H264.633V49.1805ZM263.076 49.7805V57.4805H264.276V49.7805H263.076ZM263.676 58.0805H264.633V56.8805H263.676V58.0805ZM265.233 57.4805V54.5655H264.033V57.4805H265.233ZM265.233 54.5655C265.233 54.0249 265.38 53.7417 265.527 53.5935C265.675 53.4442 265.903 53.3505 266.228 53.3505V52.1505C265.673 52.1505 265.104 52.3152 264.674 52.749C264.244 53.1838 264.033 53.808 264.033 54.5655H265.233ZM266.228 53.3505C266.532 53.3505 266.704 53.4387 266.8 53.5368C266.897 53.6359 266.992 53.8208 266.992 54.1585H268.192C268.192 53.5941 268.029 53.075 267.656 52.6957C267.282 52.3152 266.771 52.1505 266.228 52.1505V53.3505ZM266.992 54.1585V57.4805H268.192V54.1585H266.992ZM267.592 58.0805H268.549V56.8805H267.592V58.0805ZM269.149 57.4805V54.1035H267.949V57.4805H269.149ZM269.149 54.1035C269.149 53.2792 268.899 52.5528 268.399 52.0283C267.896 51.5011 267.196 51.2375 266.415 51.2375V52.4375C266.921 52.4375 267.289 52.6028 267.531 52.8567C267.776 53.1132 267.949 53.5197 267.949 54.1035H269.149ZM272.67 58.2235C274.602 58.2235 276.174 56.6958 276.174 54.7305H274.974C274.974 56.0212 273.951 57.0235 272.67 57.0235V58.2235ZM276.174 54.7305C276.174 52.7652 274.602 51.2375 272.67 51.2375V52.4375C273.951 52.4375 274.974 53.4398 274.974 54.7305H276.174ZM272.67 51.2375C270.736 51.2375 269.177 52.7681 269.177 54.7305H270.377C270.377 53.4368 271.393 52.4375 272.67 52.4375V51.2375ZM269.177 54.7305C269.177 56.6928 270.736 58.2235 272.67 58.2235V57.0235C271.393 57.0235 270.377 56.0241 270.377 54.7305H269.177ZM272.67 56.0885C271.917 56.0885 271.334 55.5146 271.334 54.7305H270.134C270.134 56.1684 271.245 57.2885 272.67 57.2885V56.0885ZM271.334 54.7305C271.334 53.9464 271.917 53.3725 272.67 53.3725V52.1725C271.245 52.1725 270.134 53.2926 270.134 54.7305H271.334ZM272.67 53.3725C273.437 53.3725 274.017 53.9486 274.017 54.7305H275.217C275.217 53.2903 274.104 52.1725 272.67 52.1725V53.3725ZM274.017 54.7305C274.017 55.5123 273.437 56.0885 272.67 56.0885V57.2885C274.104 57.2885 275.217 56.1706 275.217 54.7305H274.017ZM277.859 52.9265H277.259V54.9356L278.361 53.2555L277.859 52.9265ZM277.859 51.9805H278.459V51.3805H277.859V51.9805ZM276.902 51.9805V51.3805H276.302V51.9805H276.902ZM276.902 59.6805H276.302V60.2805H276.902V59.6805ZM277.859 59.6805V60.2805H278.459V59.6805H277.859ZM277.859 56.5345L278.361 56.2055L277.259 54.5253V56.5345H277.859ZM279.938 51.2375C278.8 51.2375 277.908 51.7582 277.358 52.5975L278.361 53.2555C278.691 52.7528 279.207 52.4375 279.938 52.4375V51.2375ZM278.459 52.9265V51.9805H277.259V52.9265H278.459ZM277.859 51.3805H276.902V52.5805H277.859V51.3805ZM276.302 51.9805V59.6805H277.502V51.9805H276.302ZM276.902 60.2805H277.859V59.0805H276.902V60.2805ZM278.459 59.6805V56.5345H277.259V59.6805H278.459ZM277.358 56.8635C277.908 57.7028 278.8 58.2235 279.938 58.2235V57.0235C279.207 57.0235 278.691 56.7082 278.361 56.2055L277.358 56.8635ZM279.938 58.2235C281.815 58.2235 283.321 56.673 283.321 54.7305H282.121C282.121 56.0439 281.119 57.0235 279.938 57.0235V58.2235ZM283.321 54.7305C283.321 52.7879 281.815 51.2375 279.938 51.2375V52.4375C281.119 52.4375 282.121 53.417 282.121 54.7305H283.321ZM279.817 56.0995C279.04 56.0995 278.459 55.5233 278.459 54.7305H277.259C277.259 56.1816 278.373 57.2995 279.817 57.2995V56.0995ZM278.459 54.7305C278.459 53.9376 279.04 53.3615 279.817 53.3615V52.1615C278.373 52.1615 277.259 53.2793 277.259 54.7305H278.459ZM279.817 53.3615C280.582 53.3615 281.164 53.9354 281.164 54.7305H282.364C282.364 53.2815 281.253 52.1615 279.817 52.1615V53.3615ZM281.164 54.7305C281.164 55.5255 280.582 56.0995 279.817 56.0995V57.2995C281.253 57.2995 282.364 56.1794 282.364 54.7305H281.164Z" fill="#8A8A8A"/>
<rect width="60" height="77" transform="translate(300.766 1.48047)" fill="#0D0D0D"/>
<path fill-rule="evenodd" clip-rule="evenodd" d="M322.366 25.0805H339.166V41.8805H322.366V25.0805ZM321.766 24.4805H322.366H339.166H339.766V25.0805V41.8805V42.4805H339.166H322.366H321.766V41.8805V25.0805V24.4805ZM326.735 36.2395L330.766 32.209L334.796 36.2395L335.221 35.8152L330.978 31.5726L330.766 31.3604L330.554 31.5726L326.311 35.8152L326.735 36.2395Z" fill="#8A8A8A"/>
<path d="M322.205 52.7725L321.676 53.0563L322.17 53.9758L322.716 53.0864L322.205 52.7725ZM318.949 52.7175H318.349V54.7604L319.454 53.0419L318.949 52.7175ZM318.949 51.9805H319.549V51.3805H318.949V51.9805ZM317.992 51.9805V51.3805H317.392V51.9805H317.992ZM317.992 57.4805H317.392V58.0805H317.992V57.4805ZM318.949 57.4805V58.0805H319.549V57.4805H318.949ZM321.523 57.4805H320.923V58.0805H321.523V57.4805ZM322.48 57.4805V58.0805H323.08V57.4805H322.48ZM325.043 57.4805H324.443V58.0805H325.043V57.4805ZM326 57.4805V58.0805H326.6V57.4805H326ZM323.932 51.2375C323.031 51.2375 322.199 51.6353 321.694 52.4585L322.716 53.0864C322.981 52.6557 323.403 52.4375 323.932 52.4375V51.2375ZM322.733 52.4886C322.307 51.6944 321.55 51.2375 320.588 51.2375V52.4375C321.121 52.4375 321.465 52.6626 321.676 53.0563L322.733 52.4886ZM320.588 51.2375C319.733 51.2375 318.961 51.5886 318.444 52.393L319.454 53.0419C319.728 52.6144 320.1 52.4375 320.588 52.4375V51.2375ZM319.549 52.7175V51.9805H318.349V52.7175H319.549ZM318.949 51.3805H317.992V52.5805H318.949V51.3805ZM317.392 51.9805V57.4805H318.592V51.9805H317.392ZM317.992 58.0805H318.949V56.8805H317.992V58.0805ZM319.549 57.4805V54.4225H318.349V57.4805H319.549ZM319.549 54.4225C319.549 53.9413 319.683 53.6878 319.808 53.5575C319.935 53.4264 320.119 53.3505 320.357 53.3505V52.1505C319.857 52.1505 319.338 52.3166 318.945 52.7245C318.551 53.1331 318.349 53.7157 318.349 54.4225H319.549ZM320.357 53.3505C320.576 53.3505 320.692 53.4184 320.76 53.4947C320.836 53.58 320.923 53.7563 320.923 54.0925H322.123C322.123 53.5596 321.984 53.0649 321.656 52.6965C321.32 52.319 320.852 52.1505 320.357 52.1505V53.3505ZM320.923 54.0925V57.4805H322.123V54.0925H320.923ZM321.523 58.0805H322.48V56.8805H321.523V58.0805ZM323.08 57.4805V54.4225H321.88V57.4805H323.08ZM323.08 54.4225C323.08 53.9194 323.203 53.6651 323.314 53.5418C323.417 53.4273 323.576 53.3505 323.833 53.3505V52.1505C323.32 52.1505 322.802 52.3157 322.421 52.7401C322.048 53.1558 321.88 53.7375 321.88 54.4225H323.08ZM323.833 53.3505C324.062 53.3505 324.194 53.4215 324.271 53.505C324.354 53.5929 324.443 53.7669 324.443 54.0925H325.643C325.643 53.549 325.49 53.0521 325.149 52.6862C324.803 52.3159 324.33 52.1505 323.833 52.1505V53.3505ZM324.443 54.0925V57.4805H325.643V54.0925H324.443ZM325.043 58.0805H326V56.8805H325.043V58.0805ZM326.6 57.4805V54.0595H325.4V57.4805H326.6ZM326.6 54.0595C326.6 53.2481 326.348 52.5347 325.859 52.0196C325.367 51.5023 324.686 51.2375 323.932 51.2375V52.4375C324.399 52.4375 324.751 52.5961 324.989 52.8461C325.228 53.0982 325.4 53.4958 325.4 54.0595H326.6ZM330.112 58.2235C332.043 58.2235 333.616 56.6958 333.616 54.7305H332.416C332.416 56.0212 331.392 57.0235 330.112 57.0235V58.2235ZM333.616 54.7305C333.616 52.7652 332.043 51.2375 330.112 51.2375V52.4375C331.392 52.4375 332.416 53.4398 332.416 54.7305H333.616ZM330.112 51.2375C328.177 51.2375 326.619 52.7681 326.619 54.7305H327.819C327.819 53.4368 328.834 52.4375 330.112 52.4375V51.2375ZM326.619 54.7305C326.619 56.6928 328.177 58.2235 330.112 58.2235V57.0235C328.834 57.0235 327.819 56.0241 327.819 54.7305H326.619ZM330.112 56.0885C329.359 56.0885 328.776 55.5146 328.776 54.7305H327.576C327.576 56.1684 328.687 57.2885 330.112 57.2885V56.0885ZM328.776 54.7305C328.776 53.9464 329.359 53.3725 330.112 53.3725V52.1725C328.687 52.1725 327.576 53.2926 327.576 54.7305H328.776ZM330.112 53.3725C330.878 53.3725 331.459 53.9486 331.459 54.7305H332.659C332.659 53.2903 331.545 52.1725 330.112 52.1725V53.3725ZM331.459 54.7305C331.459 55.5123 330.878 56.0885 330.112 56.0885V57.2885C331.545 57.2885 332.659 56.1706 332.659 54.7305H331.459ZM335.301 52.9045H334.701L335.847 53.1539L335.301 52.9045ZM335.301 51.9805H335.901V51.3805H335.301V51.9805ZM334.344 51.9805V51.3805H333.744V51.9805H334.344ZM334.344 57.4805H333.744V58.0805H334.344V57.4805ZM335.301 57.4805V58.0805H335.901V57.4805H335.301ZM337.017 52.8825L336.993 53.482L337.617 53.5069V52.8825H337.017ZM337.017 51.8815H337.617V51.2815H337.017V51.8815ZM335.901 52.9045V51.9805H334.701V52.9045H335.901ZM335.301 51.3805H334.344V52.5805H335.301V51.3805ZM333.744 51.9805V57.4805H334.944V51.9805H333.744ZM334.344 58.0805H335.301V56.8805H334.344V58.0805ZM335.901 57.4805V54.5655H334.701V57.4805H335.901ZM335.901 54.5655C335.901 54.0657 336.065 53.8219 336.226 53.692C336.407 53.546 336.679 53.4694 336.993 53.482L337.041 52.2829C336.53 52.2625 335.944 52.3784 335.473 52.7577C334.983 53.153 334.701 53.7673 334.701 54.5655H335.901ZM337.617 52.8825V51.8815H336.417V52.8825H337.617ZM337.017 51.2815C336.17 51.2815 335.235 51.6066 334.755 52.655L335.847 53.1539C336.071 52.6624 336.478 52.4815 337.017 52.4815V51.2815ZM338.524 55.1705V54.5705H337.8L337.934 55.2818L338.524 55.1705ZM343.133 55.1705V55.7705H343.647L343.726 55.2617L343.133 55.1705ZM342.913 56.3805L343.416 56.7064L343.762 56.1725L343.209 55.8587L342.913 56.3805ZM342.099 55.9185L342.395 55.3967L341.889 55.1096L341.586 55.6061L342.099 55.9185ZM342.198 54.3345V54.9345H342.895L342.791 54.2446L342.198 54.3345ZM338.524 54.3345L337.931 54.2391L337.819 54.9345H338.524V54.3345ZM338.524 55.7705H343.133V54.5705H338.524V55.7705ZM343.726 55.2617C343.752 55.0889 343.766 54.9154 343.766 54.7415H342.566C342.566 54.8536 342.557 54.9661 342.54 55.0792L343.726 55.2617ZM343.766 54.7415C343.766 52.9349 342.48 51.2375 340.427 51.2375V52.4375C341.695 52.4375 342.566 53.4681 342.566 54.7415H343.766ZM340.427 51.2375C338.364 51.2375 336.945 52.7864 336.945 54.7305H338.145C338.145 53.4186 339.057 52.4375 340.427 52.4375V51.2375ZM336.945 54.7305C336.945 55.7011 337.293 56.5809 337.93 57.2194C338.568 57.8591 339.462 58.2235 340.493 58.2235V57.0235C339.752 57.0235 339.173 56.7663 338.779 56.372C338.385 55.9765 338.145 55.4099 338.145 54.7305H336.945ZM340.493 58.2235C341.789 58.2235 342.818 57.6313 343.416 56.7064L342.409 56.0545C342.039 56.6256 341.396 57.0235 340.493 57.0235V58.2235ZM343.209 55.8587L342.395 55.3967L341.802 56.4403L342.616 56.9023L343.209 55.8587ZM341.586 55.6061C341.428 55.8665 341.079 56.1215 340.515 56.1215V57.3215C341.468 57.3215 342.22 56.8725 342.611 56.2308L341.586 55.6061ZM340.515 56.1215C340.112 56.1215 339.795 56.0118 339.569 55.84C339.348 55.6716 339.181 55.418 339.113 55.0591L337.934 55.2818C338.053 55.913 338.37 56.4349 338.842 56.7945C339.309 57.1507 339.894 57.3215 340.515 57.3215V56.1215ZM340.427 53.3395C340.718 53.3395 340.98 53.4282 341.178 53.5918C341.372 53.7512 341.542 54.0113 341.604 54.4244L342.791 54.2446C342.688 53.5687 342.385 53.0312 341.941 52.6654C341.502 52.3037 340.961 52.1395 340.427 52.1395V53.3395ZM342.198 53.7345H338.524V54.9345H342.198V53.7345ZM339.116 54.4298C339.173 54.0769 339.327 53.8118 339.534 53.6346C339.742 53.4579 340.036 53.3395 340.427 53.3395V52.1395C339.783 52.1395 339.203 52.34 338.756 52.7216C338.309 53.1026 338.028 53.635 337.931 54.2391L339.116 54.4298Z" fill="#8A8A8A"/>
<path d="M0.765869 1.98047H360.766V0.980469H0.765869V1.98047Z" fill="url(#paint1_linear_188_2972)" fill-opacity="0.1" mask="url(#path-1-outside-1_188_2972)"/>
<defs>
<filter id="filter0_f_188_2972" x="-6.14917" y="-12.5195" width="73.8312" height="105" filterUnits="userSpaceOnUse" color-interpolation-filters="sRGB">
<feFlood flood-opacity="0" result="BackgroundImageFix"/>
<feBlend mode="normal" in="SourceGraphic" in2="BackgroundImageFix" result="shape"/>
<feGaussianBlur stdDeviation="7" result="effect1_foregroundBlur_188_2972"/>
</filter>
<linearGradient id="paint0_linear_188_2972" x1="30.7664" y1="8.87806" x2="30.7664" y2="78.48" gradientUnits="userSpaceOnUse">
<stop stop-color="white" stop-opacity="0.2"/>
<stop offset="1" stop-color="white"/>
</linearGradient>
<linearGradient id="paint1_linear_188_2972" x1="360.766" y1="78.4805" x2="0.765869" y2="78.4805" gradientUnits="userSpaceOnUse">
<stop stop-opacity="0"/>
<stop offset="0.241512" stop-color="white"/>
<stop offset="0.763299" stop-color="white"/>
<stop offset="1" stop-color="white" stop-opacity="0"/>
</linearGradient>
<clipPath id="clip0_188_2972">
<rect width="60" height="77" fill="white" transform="translate(0.765869 1.48047)"/>
</clipPath>
</defs>
</svg>
