<svg width="60" height="78" viewBox="0 0 60 78" fill="none" xmlns="http://www.w3.org/2000/svg">
<g clip-path="url(#clip0_157_888)">
<rect width="60" height="77" transform="translate(0 0.480469)" fill="#0D0D0D"/>
<path d="M35.73 27.058L23.8384 24.9106L28.1632 22.2539L40.0375 24.0878V37.7468L35.73 40.6601V27.058Z" fill="white" stroke="white" stroke-width="0.5" stroke-linejoin="round"/>
<path d="M31.7148 29.542L19.9624 27.4336V40.7175L31.7148 42.706V29.542Z" fill="#0D0D0D" stroke="white" stroke-width="0.5" stroke-linejoin="round"/>
<path d="M22.4282 30.7734L29.3286 32.0065V39.6623" stroke="white" stroke-width="0.7" stroke-linejoin="round"/>
<path d="M22.1699 34.4531L26.0076 35.1952V39.1725" stroke="white" stroke-width="0.7" stroke-linejoin="round"/>
<path d="M21.683 51.9265H21.083V53.9356L22.1847 52.2555L21.683 51.9265ZM21.683 50.9805H22.283V50.3805H21.683V50.9805ZM20.726 50.9805V50.3805H20.126V50.9805H20.726ZM20.726 58.6805H20.126V59.2805H20.726V58.6805ZM21.683 58.6805V59.2805H22.283V58.6805H21.683ZM21.683 55.5345L22.1847 55.2055L21.083 53.5253V55.5345H21.683ZM23.762 50.2375C22.6238 50.2375 21.7316 50.7582 21.1813 51.5975L22.1847 52.2555C22.5144 51.7528 23.0302 51.4375 23.762 51.4375V50.2375ZM22.283 51.9265V50.9805H21.083V51.9265H22.283ZM21.683 50.3805H20.726V51.5805H21.683V50.3805ZM20.126 50.9805V58.6805H21.326V50.9805H20.126ZM20.726 59.2805H21.683V58.0805H20.726V59.2805ZM22.283 58.6805V55.5345H21.083V58.6805H22.283ZM21.1813 55.8635C21.7316 56.7028 22.6238 57.2235 23.762 57.2235V56.0235C23.0302 56.0235 22.5144 55.7082 22.1847 55.2055L21.1813 55.8635ZM23.762 57.2235C25.639 57.2235 27.145 55.673 27.145 53.7305H25.945C25.945 55.0439 24.943 56.0235 23.762 56.0235V57.2235ZM27.145 53.7305C27.145 51.7879 25.639 50.2375 23.762 50.2375V51.4375C24.943 51.4375 25.945 52.417 25.945 53.7305H27.145ZM23.641 55.0995C22.8636 55.0995 22.283 54.5233 22.283 53.7305H21.083C21.083 55.1816 22.1964 56.2995 23.641 56.2995V55.0995ZM22.283 53.7305C22.283 52.9376 22.8636 52.3615 23.641 52.3615V51.1615C22.1964 51.1615 21.083 52.2793 21.083 53.7305H22.283ZM23.641 52.3615C24.4052 52.3615 24.988 52.9354 24.988 53.7305H26.188C26.188 52.2815 25.0768 51.1615 23.641 51.1615V52.3615ZM24.988 53.7305C24.988 54.5255 24.4052 55.0995 23.641 55.0995V56.2995C25.0768 56.2995 26.188 55.1794 26.188 53.7305H24.988ZM32.4409 50.9805V50.3805H31.8409V50.9805H32.4409ZM32.4409 51.9265L31.9392 52.2555L33.0409 53.9356V51.9265H32.4409ZM32.4409 55.5345H33.0409V53.5253L31.9392 55.2055L32.4409 55.5345ZM32.4409 56.4805H31.8409V57.0805H32.4409V56.4805ZM33.3979 56.4805V57.0805H33.9979V56.4805H33.3979ZM33.3979 50.9805H33.9979V50.3805H33.3979V50.9805ZM31.8409 50.9805V51.9265H33.0409V50.9805H31.8409ZM32.9427 51.5975C32.3923 50.7582 31.5002 50.2375 30.3619 50.2375V51.4375C31.0937 51.4375 31.6095 51.7528 31.9392 52.2555L32.9427 51.5975ZM30.3619 50.2375C28.485 50.2375 26.9789 51.7879 26.9789 53.7305H28.1789C28.1789 52.417 29.1809 51.4375 30.3619 51.4375V50.2375ZM26.9789 53.7305C26.9789 55.673 28.485 57.2235 30.3619 57.2235V56.0235C29.1809 56.0235 28.1789 55.0439 28.1789 53.7305H26.9789ZM30.3619 57.2235C31.5002 57.2235 32.3923 56.7028 32.9427 55.8635L31.9392 55.2055C31.6095 55.7082 31.0937 56.0235 30.3619 56.0235V57.2235ZM31.8409 55.5345V56.4805H33.0409V55.5345H31.8409ZM32.4409 57.0805H33.3979V55.8805H32.4409V57.0805ZM33.9979 56.4805V50.9805H32.7979V56.4805H33.9979ZM33.3979 50.3805H32.4409V51.5805H33.3979V50.3805ZM30.4829 55.0995C29.7187 55.0995 29.1359 54.5255 29.1359 53.7305H27.9359C27.9359 55.1794 29.0471 56.2995 30.4829 56.2995V55.0995ZM29.1359 53.7305C29.1359 52.9354 29.7187 52.3615 30.4829 52.3615V51.1615C29.0471 51.1615 27.9359 52.2815 27.9359 53.7305H29.1359ZM30.4829 52.3615C31.2604 52.3615 31.8409 52.9376 31.8409 53.7305H33.0409C33.0409 52.2793 31.9275 51.1615 30.4829 51.1615V52.3615ZM31.8409 53.7305C31.8409 54.5233 31.2604 55.0995 30.4829 55.0995V56.2995C31.9275 56.2995 33.0409 55.1816 33.0409 53.7305H31.8409ZM38.8869 50.9805V50.3805H38.4681L38.3237 50.7736L38.8869 50.9805ZM37.3029 55.2925L36.7524 55.5312L37.349 56.9069L37.8661 55.4994L37.3029 55.2925ZM35.4329 50.9805L35.9833 50.7417L35.8267 50.3805H35.4329V50.9805ZM34.4099 50.9805V50.3805H33.4923L33.8602 51.2211L34.4099 50.9805ZM36.8079 56.4585L37.3501 56.7153L37.4671 56.4683L37.3575 56.2179L36.8079 56.4585ZM36.7089 56.6675L36.1666 56.4106L36.158 56.4288L36.1506 56.4476L36.7089 56.6675ZM35.2239 57.7895L35.2685 57.1911L34.6239 57.143V57.7895H35.2239ZM35.2239 58.6805H34.6239V59.2407L35.1828 59.2791L35.2239 58.6805ZM37.6659 56.8215L37.1058 56.6063L37.1041 56.6108L37.6659 56.8215ZM39.9099 50.9805L40.47 51.1956L40.7831 50.3805H39.9099V50.9805ZM38.3237 50.7736L36.7397 55.0856L37.8661 55.4994L39.4501 51.1874L38.3237 50.7736ZM37.8533 55.0537L35.9833 50.7417L34.8824 51.2192L36.7524 55.5312L37.8533 55.0537ZM35.4329 50.3805H34.4099V51.5805H35.4329V50.3805ZM33.8602 51.2211L36.2582 56.6991L37.3575 56.2179L34.9595 50.7399L33.8602 51.2211ZM36.2656 56.2016L36.1666 56.4106L37.2511 56.9243L37.3501 56.7153L36.2656 56.2016ZM36.1506 56.4476C36.0297 56.7546 35.8929 56.946 35.7584 57.0546C35.6392 57.1509 35.492 57.2078 35.2685 57.1911L35.1792 58.3878C35.6928 58.4261 36.145 58.285 36.5126 57.9881C36.8649 57.7034 37.1021 57.3064 37.2671 56.8874L36.1506 56.4476ZM34.6239 57.7895V58.6805H35.8239V57.7895H34.6239ZM35.1828 59.2791C36.6522 59.3799 37.7054 58.4249 38.2277 57.0321L37.1041 56.6108C36.7024 57.682 36.0395 58.135 35.265 58.0819L35.1828 59.2791ZM38.226 57.0366L40.47 51.1956L39.3498 50.7653L37.1058 56.6063L38.226 57.0366ZM39.9099 50.3805H38.8869V51.5805H39.9099V50.3805Z" fill="white"/>
<g opacity="0.14" filter="url(#filter0_f_157_888)">
<path d="M7.08496 0.480469H52.9162L45.0322 77.48H16.0322L7.08496 0.480469Z" fill="url(#paint0_linear_157_888)"/>
</g>
</g>
<defs>
<filter id="filter0_f_157_888" x="-6.91504" y="-13.5195" width="73.8312" height="105" filterUnits="userSpaceOnUse" color-interpolation-filters="sRGB">
<feFlood flood-opacity="0" result="BackgroundImageFix"/>
<feBlend mode="normal" in="SourceGraphic" in2="BackgroundImageFix" result="shape"/>
<feGaussianBlur stdDeviation="7" result="effect1_foregroundBlur_157_888"/>
</filter>
<linearGradient id="paint0_linear_157_888" x1="30.0006" y1="7.87806" x2="30.0006" y2="77.48" gradientUnits="userSpaceOnUse">
<stop stop-color="white" stop-opacity="0.2"/>
<stop offset="1" stop-color="white"/>
</linearGradient>
<clipPath id="clip0_157_888">
<rect width="60" height="77" fill="white" transform="translate(0 0.480469)"/>
</clipPath>
</defs>
</svg>
