<svg width="60" height="77" viewBox="0 0 60 77" fill="none" xmlns="http://www.w3.org/2000/svg">
<rect width="60" height="77" fill="#0D0D0D"/>
<path fill-rule="evenodd" clip-rule="evenodd" d="M37.4 25.6H22.6V40.4H37.4V25.6ZM22.6 25H22V25.6V40.4V41H22.6H37.4H38V40.4V25.6V25H37.4H22.6ZM34.7 28.3H25V27.7H35H35.3V28V38H34.7V28.3ZM25 32.3H30.7V38H31.3V32V31.7H31H25V32.3Z" fill="#8A8A8A"/>
<path d="M21.683 51.446H21.083V53.4552L22.1847 51.775L21.683 51.446ZM21.683 50.5H22.283V49.9H21.683V50.5ZM20.726 50.5V49.9H20.126V50.5H20.726ZM20.726 58.2H20.126V58.8H20.726V58.2ZM21.683 58.2V58.8H22.283V58.2H21.683ZM21.683 55.054L22.1847 54.725L21.083 53.0448V55.054H21.683ZM23.762 49.757C22.6238 49.757 21.7316 50.2777 21.1813 51.117L22.1847 51.775C22.5144 51.2723 23.0302 50.957 23.762 50.957V49.757ZM22.283 51.446V50.5H21.083V51.446H22.283ZM21.683 49.9H20.726V51.1H21.683V49.9ZM20.126 50.5V58.2H21.326V50.5H20.126ZM20.726 58.8H21.683V57.6H20.726V58.8ZM22.283 58.2V55.054H21.083V58.2H22.283ZM21.1813 55.383C21.7316 56.2223 22.6238 56.743 23.762 56.743V55.543C23.0302 55.543 22.5144 55.2277 22.1847 54.725L21.1813 55.383ZM23.762 56.743C25.639 56.743 27.145 55.1925 27.145 53.25H25.945C25.945 54.5635 24.943 55.543 23.762 55.543V56.743ZM27.145 53.25C27.145 51.3075 25.639 49.757 23.762 49.757V50.957C24.943 50.957 25.945 51.9365 25.945 53.25H27.145ZM23.641 54.619C22.8636 54.619 22.283 54.0428 22.283 53.25H21.083C21.083 54.7012 22.1964 55.819 23.641 55.819V54.619ZM22.283 53.25C22.283 52.4572 22.8636 51.881 23.641 51.881V50.681C22.1964 50.681 21.083 51.7988 21.083 53.25H22.283ZM23.641 51.881C24.4052 51.881 24.988 52.4549 24.988 53.25H26.188C26.188 51.8011 25.0768 50.681 23.641 50.681V51.881ZM24.988 53.25C24.988 54.0451 24.4052 54.619 23.641 54.619V55.819C25.0768 55.819 26.188 54.6989 26.188 53.25H24.988ZM32.4409 50.5V49.9H31.8409V50.5H32.4409ZM32.4409 51.446L31.9392 51.775L33.0409 53.4552V51.446H32.4409ZM32.4409 55.054H33.0409V53.0448L31.9392 54.725L32.4409 55.054ZM32.4409 56H31.8409V56.6H32.4409V56ZM33.3979 56V56.6H33.9979V56H33.3979ZM33.3979 50.5H33.9979V49.9H33.3979V50.5ZM31.8409 50.5V51.446H33.0409V50.5H31.8409ZM32.9427 51.117C32.3923 50.2777 31.5002 49.757 30.3619 49.757V50.957C31.0937 50.957 31.6095 51.2723 31.9392 51.775L32.9427 51.117ZM30.3619 49.757C28.485 49.757 26.9789 51.3075 26.9789 53.25H28.1789C28.1789 51.9365 29.1809 50.957 30.3619 50.957V49.757ZM26.9789 53.25C26.9789 55.1925 28.485 56.743 30.3619 56.743V55.543C29.1809 55.543 28.1789 54.5635 28.1789 53.25H26.9789ZM30.3619 56.743C31.5002 56.743 32.3923 56.2223 32.9427 55.383L31.9392 54.725C31.6095 55.2277 31.0937 55.543 30.3619 55.543V56.743ZM31.8409 55.054V56H33.0409V55.054H31.8409ZM32.4409 56.6H33.3979V55.4H32.4409V56.6ZM33.9979 56V50.5H32.7979V56H33.9979ZM33.3979 49.9H32.4409V51.1H33.3979V49.9ZM30.4829 54.619C29.7187 54.619 29.1359 54.0451 29.1359 53.25H27.9359C27.9359 54.6989 29.0471 55.819 30.4829 55.819V54.619ZM29.1359 53.25C29.1359 52.4549 29.7187 51.881 30.4829 51.881V50.681C29.0471 50.681 27.9359 51.8011 27.9359 53.25H29.1359ZM30.4829 51.881C31.2604 51.881 31.8409 52.4572 31.8409 53.25H33.0409C33.0409 51.7988 31.9275 50.681 30.4829 50.681V51.881ZM31.8409 53.25C31.8409 54.0428 31.2604 54.619 30.4829 54.619V55.819C31.9275 55.819 33.0409 54.7012 33.0409 53.25H31.8409ZM38.8869 50.5V49.9H38.4681L38.3237 50.2931L38.8869 50.5ZM37.3029 54.812L36.7524 55.0507L37.349 56.4264L37.8661 55.0189L37.3029 54.812ZM35.4329 50.5L35.9833 50.2613L35.8267 49.9H35.4329V50.5ZM34.4099 50.5V49.9H33.4923L33.8602 50.7406L34.4099 50.5ZM36.8079 55.978L37.3501 56.2349L37.4671 55.9878L37.3575 55.7374L36.8079 55.978ZM36.7089 56.187L36.1666 55.9301L36.158 55.9483L36.1506 55.9671L36.7089 56.187ZM35.2239 57.309L35.2685 56.7107L34.6239 56.6626V57.309H35.2239ZM35.2239 58.2H34.6239V58.7602L35.1828 58.7986L35.2239 58.2ZM37.6659 56.341L37.1058 56.1258L37.1041 56.1303L37.6659 56.341ZM39.9099 50.5L40.47 50.7152L40.7831 49.9H39.9099V50.5ZM38.3237 50.2931L36.7397 54.6051L37.8661 55.0189L39.4501 50.7069L38.3237 50.2931ZM37.8533 54.5733L35.9833 50.2613L34.8824 50.7387L36.7524 55.0507L37.8533 54.5733ZM35.4329 49.9H34.4099V51.1H35.4329V49.9ZM33.8602 50.7406L36.2582 56.2186L37.3575 55.7374L34.9595 50.2594L33.8602 50.7406ZM36.2656 55.7211L36.1666 55.9301L37.2511 56.4439L37.3501 56.2349L36.2656 55.7211ZM36.1506 55.9671C36.0297 56.2741 35.8929 56.4656 35.7584 56.5742C35.6392 56.6705 35.492 56.7273 35.2685 56.7107L35.1792 57.9073C35.6928 57.9457 36.145 57.8045 36.5126 57.5076C36.8649 57.2229 37.1021 56.8259 37.2671 56.4069L36.1506 55.9671ZM34.6239 57.309V58.2H35.8239V57.309H34.6239ZM35.1828 58.7986C36.6522 58.8994 37.7054 57.9445 38.2277 56.5517L37.1041 56.1303C36.7024 57.2015 36.0395 57.6546 35.265 57.6014L35.1828 58.7986ZM38.226 56.5562L40.47 50.7152L39.3498 50.2848L37.1058 56.1258L38.226 56.5562ZM39.9099 49.9H38.8869V51.1H39.9099V49.9Z" fill="#8A8A8A"/>
</svg>
