<svg width="156" height="155" viewBox="0 0 156 155" fill="none" xmlns="http://www.w3.org/2000/svg">
<rect x="0.53125" width="155" height="155" rx="77.5" fill="#0D0D0D"/>
<circle cx="78.5312" cy="78" r="54.5" stroke="white" stroke-opacity="0.7"/>
<path d="M75.9404 15.1269C77.5962 15.1002 78.8763 14.1074 78.847 12.2956L78.7535 6.51236L77.1098 6.53893L77.2032 12.3222C77.2143 13.0061 76.8261 13.4924 75.9142 13.5072C75.2183 13.5184 74.8301 13.2606 74.5576 12.737L73.1429 13.5759C73.6757 14.6115 74.6565 15.1477 75.9404 15.1269Z" fill="white" fill-opacity="0.7"/>
<path d="M85.7703 15.5415C88.1702 15.8823 90.3648 14.2547 90.709 11.831C91.0549 9.39546 89.3985 7.23307 86.9986 6.89224C84.5987 6.55141 82.4176 8.1688 82.0717 10.6044C81.7275 13.028 83.3703 15.2006 85.7703 15.5415ZM85.998 13.9375C84.4892 13.7233 83.4733 12.4275 83.6994 10.8355C83.9272 9.23161 85.2636 8.26998 86.7725 8.48427C88.2814 8.69855 89.2973 9.99427 89.0695 11.5982C88.8434 13.1902 87.5069 14.1518 85.998 13.9375Z" fill="white" fill-opacity="0.7"/>
<path d="M95.6047 8.6634L93.2754 16.734L94.8665 17.1932L97.1957 9.12259L95.6047 8.6634Z" fill="white" fill-opacity="0.7"/>
<path d="M106.43 12.4276L104.381 17.1243L103.13 10.9884L101.975 10.4847L98.6169 18.1842L100.135 18.8463L102.188 14.1385L103.435 20.2854L104.59 20.7892L107.948 13.0896L106.43 12.4276Z" fill="white" fill-opacity="0.7"/>
<path d="M110.318 22.0133L111.322 20.4188L114.013 22.1127L114.844 20.7924L112.153 19.0985L113.105 17.5853L116.05 19.439L116.894 18.0984L112.547 15.3626L108.073 22.4718L112.47 25.2395L113.314 23.8989L110.318 22.0133Z" fill="white" fill-opacity="0.7"/>
<path d="M123.185 22.7653L120.657 20.5885L115.176 26.9537L117.704 29.1305C119.459 30.6418 121.966 30.3781 123.509 28.5868C125.051 26.7954 124.94 24.2766 123.185 22.7653ZM118.737 27.9302L117.464 26.834L120.878 22.8694L122.151 23.9656C123.252 24.9131 123.318 26.3801 122.308 27.5532C121.298 28.7262 119.837 28.8777 118.737 27.9302Z" fill="white" fill-opacity="0.7"/>
<path d="M132.761 32.3856L126.103 37.5075L127.113 38.82L133.771 33.6981L132.761 32.3856Z" fill="white" fill-opacity="0.7"/>
<path d="M139.228 41.8063L134.798 44.3816L137.419 38.694L136.786 37.6047L129.524 41.8265L130.356 43.2581L134.796 40.6768L132.165 46.3704L132.798 47.4597L140.06 43.238L139.228 41.8063Z" fill="white" fill-opacity="0.7"/>
<path d="M146.797 60.7693L146.336 59.1289L141.863 57.8933L145.034 54.4964L144.573 52.856L136.486 55.1292L136.934 56.7234L142.167 55.2523L139.064 58.5803L139.116 58.7651L143.51 59.9855L138.266 61.4598L138.711 63.0425L146.797 60.7693Z" fill="white" fill-opacity="0.7"/>
<path d="M139.96 71.441L140.142 73.2318L148.201 69.4475L147.994 67.406L139.34 65.3283L139.521 67.1072L141.076 67.4561L141.413 70.787L139.96 71.441ZM142.669 67.8253L146.2 68.6252L142.901 70.1175L142.669 67.8253Z" fill="white" fill-opacity="0.7"/>
<path d="M148.32 83.7972L148.433 81.9287L145.047 79.8952L148.655 78.2874L148.769 76.4189L143.48 78.9704L140.21 78.7714L140.11 80.4124L143.38 80.6113L148.32 83.7972Z" fill="white" fill-opacity="0.7"/>
<path d="M138.909 90.2338L137.352 95.6296L138.885 96.0721L139.76 93.0399L140.884 95.0753C141.425 96.0558 142.104 96.8637 143.084 97.1465C144.698 97.6124 145.99 96.5988 146.389 95.2153C146.705 94.12 146.455 92.9111 145.451 92.0595L144.281 93.1707C144.781 93.6022 145.017 94.1699 144.837 94.7925C144.661 95.4035 144.131 95.7252 143.485 95.5388C142.944 95.3824 142.53 94.8258 142.138 94.1506L140.097 90.5765L138.909 90.2338Z" fill="white" fill-opacity="0.7"/>
<path d="M135.003 101.415C134.115 103.371 135.232 105.209 137.592 106.28C139.952 107.351 142.07 106.982 142.958 105.026C143.841 103.081 142.729 101.232 140.369 100.161C138.009 99.0897 135.886 99.4703 135.003 101.415ZM136.478 102.085C136.944 101.058 138.068 100.935 139.685 101.669C141.302 102.403 141.96 103.334 141.494 104.361C141.028 105.388 139.889 105.517 138.271 104.783C136.654 104.049 136.012 103.112 136.478 102.085Z" fill="white" fill-opacity="0.7"/>
<path d="M132.638 106.891L129.612 111.622L130.957 112.482L132.657 109.823L133.156 112.094C133.397 113.188 133.818 114.155 134.677 114.705C136.092 115.61 137.619 115.005 138.395 113.792C139.009 112.832 139.112 111.602 138.392 110.5L136.955 111.233C137.312 111.789 137.376 112.4 137.027 112.946C136.685 113.482 136.085 113.64 135.519 113.278C135.044 112.974 134.805 112.322 134.621 111.564L133.68 107.557L132.638 106.891Z" fill="white" fill-opacity="0.7"/>
<path d="M128.07 113.987L124.437 118.269L125.654 119.302L127.696 116.895L127.885 119.212C127.977 120.329 128.264 121.344 129.042 122.004C130.323 123.091 131.917 122.696 132.849 121.598C133.586 120.729 133.853 119.524 133.288 118.336L131.765 118.869C132.044 119.468 132.026 120.082 131.607 120.576C131.195 121.061 130.58 121.137 130.068 120.702C129.638 120.337 129.489 119.66 129.408 118.883L129.013 114.787L128.07 113.987Z" fill="white" fill-opacity="0.7"/>
<path d="M119.216 126.806C118.511 127.366 118.399 128.403 118.974 129.127C119.533 129.833 120.561 129.951 121.266 129.392C121.99 128.818 122.119 127.782 121.559 127.077C120.985 126.353 119.94 126.232 119.216 126.806Z" fill="white" fill-opacity="0.7"/>
<path d="M79.5603 138.795C77.9043 138.789 76.6048 139.756 76.5981 141.568L76.5769 147.352L78.2209 147.358L78.2421 141.574C78.2446 140.89 78.6424 140.412 79.5544 140.415C80.2504 140.418 80.6334 140.683 80.8954 141.212L82.3264 140.401C81.8143 139.355 80.8443 138.8 79.5603 138.795Z" fill="white" fill-opacity="0.7"/>
<path d="M69.7413 138.187C67.3486 137.798 65.1221 139.382 64.7299 141.799C64.3358 144.227 65.949 146.422 68.3417 146.81C70.7343 147.198 72.9471 145.625 73.3412 143.196C73.7334 140.78 72.134 138.575 69.7413 138.187ZM69.4817 139.786C70.9861 140.03 71.9761 141.346 71.7184 142.933C71.4589 144.532 70.1036 145.467 68.5993 145.223C67.095 144.979 66.105 143.663 66.3645 142.064C66.6221 140.477 67.9774 139.542 69.4817 139.786Z" fill="white" fill-opacity="0.7"/>
<path d="M59.7719 144.866L62.2607 136.843L60.6791 136.352L58.1902 144.375L59.7719 144.866Z" fill="white" fill-opacity="0.7"/>
<path d="M49.0239 140.89L51.1651 136.235L52.2945 142.394L53.4393 142.921L56.9494 135.29L55.4449 134.598L53.2987 139.264L52.1743 133.093L51.0296 132.567L47.5194 140.198L49.0239 140.89Z" fill="white" fill-opacity="0.7"/>
<path d="M45.3271 131.228L44.2921 132.802L41.635 131.055L40.778 132.359L43.4352 134.106L42.4529 135.6L39.5451 133.688L38.6749 135.011L42.9665 137.833L47.581 130.814L43.2393 127.96L42.3691 129.283L45.3271 131.228Z" fill="white" fill-opacity="0.7"/>
<path d="M32.4773 130.22L34.9616 132.447L40.568 126.192L38.0837 123.965C36.3591 122.419 33.8469 122.633 32.2691 124.394C30.6913 126.154 30.7527 128.675 32.4773 130.22ZM37.0265 125.145L38.2776 126.266L34.7856 130.162L33.5345 129.041C32.4533 128.072 32.4155 126.604 33.4486 125.451C34.4818 124.298 35.9453 124.176 37.0265 125.145Z" fill="white" fill-opacity="0.7"/>
<path d="M23.0942 120.412L29.8523 115.423L28.8687 114.091L22.1107 119.08L23.0942 120.412Z" fill="white" fill-opacity="0.7"/>
<path d="M16.8145 110.865L21.2946 108.378L18.5618 114.012L19.1733 115.114L26.5176 111.037L25.7139 109.589L21.2234 112.082L23.9667 106.441L23.3551 105.34L16.0108 109.417L16.8145 110.865Z" fill="white" fill-opacity="0.7"/>
<path d="M9.62335 91.757L10.0519 93.4062L14.4998 94.7302L11.262 98.0636L11.6905 99.7128L19.8205 97.6004L19.4041 95.9976L14.1428 97.3646L17.3114 94.0989L17.2631 93.913L12.8939 92.6058L18.1668 91.2357L17.7534 89.6445L9.62335 91.757Z" fill="white" fill-opacity="0.7"/>
<path d="M16.67 81.2224L16.524 79.4283L8.39119 83.052L8.55765 85.0972L17.1685 87.3461L17.0234 85.564L15.4755 85.1843L15.2039 81.8474L16.67 81.2224ZM13.8898 84.7836L10.3756 83.9139L13.7029 82.4872L13.8898 84.7836Z" fill="white" fill-opacity="0.7"/>
<path d="M8.55747 68.7024L8.40675 70.5683L11.7525 72.6685L8.11303 74.2045L7.9623 76.0704L13.3006 73.6242L16.566 73.888L16.6983 72.2494L13.433 71.9856L8.55747 68.7024Z" fill="white" fill-opacity="0.7"/>
<path d="M18.0933 62.455L19.7573 57.0912L18.2329 56.6183L17.2978 59.6326L16.2148 57.5753C15.693 56.5842 15.0305 55.7631 14.0563 55.4608C12.4518 54.9631 11.1402 55.9508 10.7136 57.3262C10.3758 58.415 10.6024 59.6286 11.5885 60.4999L12.7803 59.4122C12.289 58.9708 12.0645 58.3986 12.2565 57.7797C12.4449 57.1722 12.9812 56.8612 13.623 57.0603C14.1617 57.2274 14.5644 57.7921 14.9431 58.4749L16.9128 62.0888L18.0933 62.455Z" fill="white" fill-opacity="0.7"/>
<path d="M22.2208 51.3526C23.1471 49.4146 22.0674 47.5552 19.7288 46.4374C17.3902 45.3196 15.2652 45.6472 14.3389 47.5852C13.4177 49.5124 14.4923 51.3826 16.8309 52.5004C19.1694 53.6182 21.2997 53.2798 22.2208 51.3526ZM20.7592 50.654C20.2727 51.6717 19.1474 51.7722 17.545 51.0063C15.9426 50.2404 15.3032 49.2964 15.7897 48.2787C16.2761 47.2609 17.4175 47.1548 19.0199 47.9207C20.6222 48.6866 21.2456 49.6362 20.7592 50.654Z" fill="white" fill-opacity="0.7"/>
<path d="M24.6939 45.9231L27.8132 41.253L26.486 40.3665L24.7331 42.991L24.2791 40.7107C24.0604 39.6122 23.6585 38.6367 22.8103 38.0702C21.4133 37.1371 19.8752 37.7115 19.0754 38.909C18.4422 39.8569 18.3146 41.0849 19.0126 42.2005L20.4643 41.4962C20.1186 40.9334 20.0659 40.321 20.4259 39.7821C20.7791 39.2532 21.3816 39.1073 21.9404 39.4806C22.4094 39.7938 22.6352 40.4497 22.8043 41.212L23.6661 45.2366L24.6939 45.9231Z" fill="white" fill-opacity="0.7"/>
<path d="M29.4019 38.9199L33.1197 34.7107L31.9235 33.6542L29.8342 36.0196L29.6903 33.6991C29.621 32.5812 29.3537 31.5606 28.5892 30.8853C27.3301 29.7731 25.7288 30.136 24.7755 31.2152C24.0208 32.0697 23.7296 33.2695 24.2715 34.4686L25.8046 33.9655C25.5376 33.3614 25.5676 32.7474 25.9966 32.2618C26.4176 31.7851 27.0343 31.7213 27.5379 32.1662C27.9607 32.5396 28.0963 33.2198 28.1616 33.9979L28.4755 38.1017L29.4019 38.9199Z" fill="white" fill-opacity="0.7"/>
<path d="M38.5083 26.2801C39.2245 25.735 39.3564 24.6997 38.7968 23.9644C38.2517 23.2483 37.2259 23.1091 36.5097 23.6542C35.7745 24.2138 35.6258 25.2469 36.1708 25.963C36.7305 26.6983 37.7731 26.8397 38.5083 26.2801Z" fill="white" fill-opacity="0.7"/>
<rect x="117.531" y="116" width="36" height="36" rx="18" fill="#161616"/>
<path d="M126.531 144L126.531 141.738H144.531V144H126.531ZM128.731 139.476V135.235L138.686 125L142.811 129.241L132.856 139.476H128.731Z" fill="white"/>
<rect x="117.731" y="116.2" width="35.6" height="35.6" rx="17.8" stroke="#3D3D3D" stroke-opacity="0.9" stroke-width="0.4"/>
<rect x="1.03125" y="0.5" width="154" height="154" rx="77" stroke="white" stroke-opacity="0.7"/>
</svg>
