<svg width="372" height="560" viewBox="0 0 372 560" fill="none" xmlns="http://www.w3.org/2000/svg">
<rect width="371" height="538" transform="translate(0.53125 21.0117)" fill="white"/>
<rect x="156.031" y="0.0117188" width="60" height="2" fill="white"/>
<rect width="311" height="75" transform="translate(30.5312 51.0117)" fill="white"/>
<rect x="30.7812" y="67.2617" width="27.5" height="27.5" fill="white"/>
<rect width="20" height="20" transform="translate(34.5312 71.0117)" fill="white"/>
<circle cx="44.5312" cy="77.6602" r="3.5" stroke="#0D0D0D" stroke-width="0.5"/>
<path d="M50.7674 85.5302C51.0747 86.272 51.2469 87.0622 51.2766 87.8633L37.7859 87.8633C37.8156 87.0622 37.9878 86.272 38.2951 85.5302C38.6343 84.7112 39.1315 83.9671 39.7583 83.3403C40.3851 82.7135 41.1292 82.2163 41.9481 81.8771C42.7671 81.5379 43.6448 81.3633 44.5312 81.3633C45.4177 81.3633 46.2954 81.5379 47.1144 81.8771C47.9333 82.2163 48.6774 82.7135 49.3042 83.3403C49.931 83.9671 50.4282 84.7112 50.7674 85.5302Z" stroke="#0D0D0D" stroke-width="0.5"/>
<rect x="30.7812" y="67.2617" width="27.5" height="27.5" stroke="#D2D2D2" stroke-width="0.5"/>
<path d="M79.2633 76.1877V75.0117H77.4013V73.0517L76.1833 73.4157V75.0117H74.7973V76.1877H76.1833V79.9817C76.1833 81.7317 77.1633 82.2917 79.2633 82.0117V80.9197C78.0173 80.9757 77.4013 81.0457 77.4013 79.9817V76.1877H79.2633ZM82.3643 76.1877V75.0117H81.1463V82.0117H82.3643V78.3017C82.3643 76.6497 83.4983 76.1177 84.5483 76.1597V74.8857C83.6663 74.8857 82.8123 75.2077 82.3643 76.1877ZM91.5532 75.0117V76.2157C90.9932 75.3617 90.0972 74.8297 88.9072 74.8297C86.9612 74.8297 85.3652 76.4397 85.3652 78.5117C85.3652 80.5837 86.9612 82.1937 88.9072 82.1937C90.0972 82.1937 90.9932 81.6617 91.5532 80.8077V82.0117H92.7712V75.0117H91.5532ZM89.0612 81.0177C87.6612 81.0177 86.5832 79.9397 86.5832 78.5117C86.5832 77.0837 87.6612 76.0057 89.0612 76.0057C90.4752 76.0057 91.5532 77.0837 91.5532 78.5117C91.5532 79.9397 90.4752 81.0177 89.0612 81.0177ZM98.5026 74.8297C97.5226 74.8297 96.7526 75.1937 96.2346 76.0197V75.0117H95.0166V82.0117H96.2346V78.3017C96.2346 76.6497 97.1446 75.9917 98.2646 75.9917C99.3426 75.9917 100.001 76.6357 100.001 77.7837V82.0117H101.219V77.7137C101.219 75.9217 100.141 74.8297 98.5026 74.8297ZM104.369 76.9017C104.369 76.2717 104.985 75.9637 105.615 75.9637C106.231 75.9637 106.847 76.2297 107.113 76.8597L108.135 76.2857C107.687 75.3757 106.763 74.8297 105.615 74.8297C104.201 74.8297 103.137 75.6837 103.137 76.9157C103.137 79.4497 107.057 78.5957 107.057 80.0937C107.057 80.7797 106.413 81.0457 105.671 81.0457C104.803 81.0457 104.159 80.6257 103.935 79.9537L102.885 80.5557C103.291 81.5217 104.271 82.1937 105.671 82.1937C107.169 82.1937 108.289 81.3957 108.289 80.0937C108.289 77.5177 104.369 78.3997 104.369 76.9017ZM115.736 75.0117V76.2157C115.176 75.3617 114.28 74.8297 113.09 74.8297C111.144 74.8297 109.548 76.4397 109.548 78.5117C109.548 80.5837 111.144 82.1937 113.09 82.1937C114.28 82.1937 115.176 81.6617 115.736 80.8077V82.0117H116.954V75.0117H115.736ZM113.244 81.0177C111.844 81.0177 110.766 79.9397 110.766 78.5117C110.766 77.0837 111.844 76.0057 113.244 76.0057C114.658 76.0057 115.736 77.0837 115.736 78.5117C115.736 79.9397 114.658 81.0177 113.244 81.0177ZM122.489 82.1937C123.861 82.1937 125.051 81.4657 125.639 80.3737L124.603 79.7717C124.211 80.4997 123.441 80.9897 122.489 80.9897C121.089 80.9897 120.025 79.9117 120.025 78.5117C120.025 77.0977 121.089 76.0197 122.489 76.0197C123.427 76.0197 124.211 76.5097 124.561 77.2517L125.583 76.6637C125.051 75.5577 123.875 74.8297 122.489 74.8297C120.375 74.8297 118.807 76.4397 118.807 78.5117C118.807 80.5837 120.375 82.1937 122.489 82.1937ZM131.05 76.1877V75.0117H129.188V73.0517L127.97 73.4157V75.0117H126.584V76.1877H127.97V79.9817C127.97 81.7317 128.95 82.2917 131.05 82.0117V80.9197C129.804 80.9757 129.188 81.0457 129.188 79.9817V76.1877H131.05ZM133.508 73.7377C133.956 73.7377 134.32 73.3737 134.32 72.9257C134.32 72.4777 133.956 72.0997 133.508 72.0997C133.046 72.0997 132.682 72.4777 132.682 72.9257C132.682 73.3737 133.046 73.7377 133.508 73.7377ZM132.892 82.0117H134.11V75.0117H132.892V82.0117ZM139.658 82.1937C141.702 82.1937 143.354 80.5837 143.354 78.5117C143.354 76.4397 141.702 74.8297 139.658 74.8297C137.614 74.8297 135.976 76.4397 135.976 78.5117C135.976 80.5837 137.614 82.1937 139.658 82.1937ZM139.658 81.0037C138.272 81.0037 137.194 79.9257 137.194 78.5117C137.194 77.0977 138.272 76.0197 139.658 76.0197C141.058 76.0197 142.136 77.0977 142.136 78.5117C142.136 79.9257 141.058 81.0037 139.658 81.0037ZM148.676 74.8297C147.696 74.8297 146.926 75.1937 146.408 76.0197V75.0117H145.19V82.0117H146.408V78.3017C146.408 76.6497 147.318 75.9917 148.438 75.9917C149.516 75.9917 150.174 76.6357 150.174 77.7837V82.0117H151.392V77.7137C151.392 75.9217 150.314 74.8297 148.676 74.8297ZM160.878 74.8297C159.898 74.8297 159.128 75.1937 158.61 76.0197V72.2117H157.392V82.0117H158.61V78.3017C158.61 76.6497 159.52 75.9917 160.64 75.9917C161.718 75.9917 162.376 76.6357 162.376 77.7837V82.0117H163.594V77.7137C163.594 75.9217 162.516 74.8297 160.878 74.8297ZM166.31 73.7377C166.758 73.7377 167.122 73.3737 167.122 72.9257C167.122 72.4777 166.758 72.0997 166.31 72.0997C165.848 72.0997 165.484 72.4777 165.484 72.9257C165.484 73.3737 165.848 73.7377 166.31 73.7377ZM165.694 82.0117H166.912V75.0117H165.694V82.0117ZM170.207 76.9017C170.207 76.2717 170.823 75.9637 171.453 75.9637C172.069 75.9637 172.685 76.2297 172.951 76.8597L173.973 76.2857C173.525 75.3757 172.601 74.8297 171.453 74.8297C170.039 74.8297 168.975 75.6837 168.975 76.9157C168.975 79.4497 172.895 78.5957 172.895 80.0937C172.895 80.7797 172.251 81.0457 171.509 81.0457C170.641 81.0457 169.997 80.6257 169.773 79.9537L168.723 80.5557C169.129 81.5217 170.109 82.1937 171.509 82.1937C173.007 82.1937 174.127 81.3957 174.127 80.0937C174.127 77.5177 170.207 78.3997 170.207 76.9017ZM179.503 76.1877V75.0117H177.641V73.0517L176.423 73.4157V75.0117H175.037V76.1877H176.423V79.9817C176.423 81.7317 177.403 82.2917 179.503 82.0117V80.9197C178.257 80.9757 177.641 81.0457 177.641 79.9817V76.1877H179.503ZM184.28 82.1937C186.324 82.1937 187.976 80.5837 187.976 78.5117C187.976 76.4397 186.324 74.8297 184.28 74.8297C182.236 74.8297 180.598 76.4397 180.598 78.5117C180.598 80.5837 182.236 82.1937 184.28 82.1937ZM184.28 81.0037C182.894 81.0037 181.816 79.9257 181.816 78.5117C181.816 77.0977 182.894 76.0197 184.28 76.0197C185.68 76.0197 186.758 77.0977 186.758 78.5117C186.758 79.9257 185.68 81.0037 184.28 81.0037ZM191.03 76.1877V75.0117H189.812V82.0117H191.03V78.3017C191.03 76.6497 192.164 76.1177 193.214 76.1597V74.8857C192.332 74.8857 191.478 75.2077 191.03 76.1877ZM199.842 75.0117L197.826 80.4997L195.446 75.0117H194.144L197.196 81.9837L197.07 82.2497C196.706 83.1737 196.118 83.7477 195.18 83.6777V84.8117C196.608 84.9097 197.7 84.0137 198.288 82.4457L201.144 75.0117H199.842Z" fill="#0D0D0D"/>
<path d="M80.0873 99.0117H76.8233V98.8317C76.8233 97.7877 77.3633 97.4637 78.4073 97.4637C78.7913 97.4637 79.1873 97.4997 79.6433 97.5597V96.6117C79.1873 96.5157 78.7913 96.4557 78.4073 96.4557C76.6913 96.4557 75.7793 97.2357 75.7793 98.8317V99.0117H74.8193V100.02H75.7793V105.012H76.8233V100.02H79.0433V105.012H80.0873V99.0117ZM85.0745 98.8557C84.2345 98.8557 83.5745 99.1677 83.1305 99.8757V99.0117H82.0865V105.012H83.1305V101.832C83.1305 100.416 83.9105 99.8517 84.8705 99.8517C85.7945 99.8517 86.3585 100.404 86.3585 101.388V105.012H87.4025V101.328C87.4025 99.7917 86.4785 98.8557 85.0745 98.8557ZM94.228 96.6117V100.044C93.748 99.3117 92.98 98.8557 91.96 98.8557C90.292 98.8557 88.924 100.236 88.924 102.012C88.924 103.788 90.292 105.168 91.96 105.168C92.98 105.168 93.748 104.712 94.228 103.98V105.012H95.272V96.6117H94.228ZM92.092 104.16C90.892 104.16 89.968 103.236 89.968 102.012C89.968 100.788 90.892 99.8637 92.092 99.8637C93.304 99.8637 94.228 100.788 94.228 102.012C94.228 103.236 93.304 104.16 92.092 104.16ZM105.622 99.0117V100.044C105.142 99.3117 104.374 98.8557 103.354 98.8557C101.686 98.8557 100.318 100.236 100.318 102.012C100.318 103.788 101.686 105.168 103.354 105.168C104.374 105.168 105.142 104.712 105.622 103.98V105.012H106.666V99.0117H105.622ZM103.486 104.16C102.286 104.16 101.362 103.236 101.362 102.012C101.362 100.788 102.286 99.8637 103.486 99.8637C104.698 99.8637 105.622 100.788 105.622 102.012C105.622 103.236 104.698 104.16 103.486 104.16ZM108.647 105.012H109.691V96.2517H108.647V105.012ZM111.684 105.012H112.728V96.2517H111.684V105.012ZM122.309 99.0117L120.581 103.716L118.541 99.0117H117.425L120.041 104.988L119.933 105.216C119.621 106.008 119.117 106.5 118.313 106.44V107.412C119.537 107.496 120.473 106.728 120.977 105.384L123.425 99.0117H122.309ZM127.282 105.168C129.034 105.168 130.45 103.788 130.45 102.012C130.45 100.236 129.034 98.8557 127.282 98.8557C125.53 98.8557 124.126 100.236 124.126 102.012C124.126 103.788 125.53 105.168 127.282 105.168ZM127.282 104.148C126.094 104.148 125.17 103.224 125.17 102.012C125.17 100.8 126.094 99.8757 127.282 99.8757C128.482 99.8757 129.406 100.8 129.406 102.012C129.406 103.224 128.482 104.148 127.282 104.148ZM136.221 99.0117V102.192C136.221 103.608 135.441 104.172 134.481 104.172C133.557 104.172 132.993 103.62 132.993 102.636V99.0117H131.949V102.696C131.949 104.232 132.873 105.168 134.277 105.168C135.117 105.168 135.777 104.856 136.221 104.148V105.012H137.265V99.0117H136.221ZM140.299 100.02V99.0117H139.255V105.012H140.299V101.832C140.299 100.416 141.271 99.9597 142.171 99.9957V98.9037C141.415 98.9037 140.683 99.1797 140.299 100.02ZM150.256 100.02V99.0117H148.66V97.3317L147.616 97.6437V99.0117H146.428V100.02H147.616V103.272C147.616 104.772 148.456 105.252 150.256 105.012V104.076C149.188 104.124 148.66 104.184 148.66 103.272V100.02H150.256ZM152.971 100.02V99.0117H151.927V105.012H152.971V101.832C152.971 100.416 153.943 99.9597 154.843 99.9957V98.9037C154.087 98.9037 153.355 99.1797 152.971 100.02ZM160.905 99.0117V100.044C160.425 99.3117 159.657 98.8557 158.637 98.8557C156.969 98.8557 155.601 100.236 155.601 102.012C155.601 103.788 156.969 105.168 158.637 105.168C159.657 105.168 160.425 104.712 160.905 103.98V105.012H161.949V99.0117H160.905ZM158.769 104.16C157.569 104.16 156.645 103.236 156.645 102.012C156.645 100.788 157.569 99.8637 158.769 99.8637C159.981 99.8637 160.905 100.788 160.905 102.012C160.905 103.236 159.981 104.16 158.769 104.16ZM166.918 98.8557C166.078 98.8557 165.418 99.1677 164.974 99.8757V99.0117H163.93V105.012H164.974V101.832C164.974 100.416 165.754 99.8517 166.714 99.8517C167.638 99.8517 168.202 100.404 168.202 101.388V105.012H169.246V101.328C169.246 99.7917 168.322 98.8557 166.918 98.8557ZM172.004 100.632C172.004 100.092 172.532 99.8277 173.072 99.8277C173.6 99.8277 174.128 100.056 174.356 100.596L175.232 100.104C174.848 99.3237 174.056 98.8557 173.072 98.8557C171.86 98.8557 170.948 99.5877 170.948 100.644C170.948 102.816 174.308 102.084 174.308 103.368C174.308 103.956 173.756 104.184 173.12 104.184C172.376 104.184 171.824 103.824 171.632 103.248L170.732 103.764C171.08 104.592 171.92 105.168 173.12 105.168C174.404 105.168 175.364 104.484 175.364 103.368C175.364 101.16 172.004 101.916 172.004 100.632ZM181.804 99.0117V100.044C181.324 99.3117 180.556 98.8557 179.536 98.8557C177.868 98.8557 176.5 100.236 176.5 102.012C176.5 103.788 177.868 105.168 179.536 105.168C180.556 105.168 181.324 104.712 181.804 103.98V105.012H182.848V99.0117H181.804ZM179.668 104.16C178.468 104.16 177.544 103.236 177.544 102.012C177.544 100.788 178.468 99.8637 179.668 99.8637C180.88 99.8637 181.804 100.788 181.804 102.012C181.804 103.236 180.88 104.16 179.668 104.16ZM187.649 105.168C188.825 105.168 189.845 104.544 190.349 103.608L189.461 103.092C189.125 103.716 188.465 104.136 187.649 104.136C186.449 104.136 185.537 103.212 185.537 102.012C185.537 100.8 186.449 99.8757 187.649 99.8757C188.453 99.8757 189.125 100.296 189.425 100.932L190.301 100.428C189.845 99.4797 188.837 98.8557 187.649 98.8557C185.837 98.8557 184.493 100.236 184.493 102.012C184.493 103.788 185.837 105.168 187.649 105.168ZM195.044 100.02V99.0117H193.448V97.3317L192.404 97.6437V99.0117H191.216V100.02H192.404V103.272C192.404 104.772 193.244 105.252 195.044 105.012V104.076C193.976 104.124 193.448 104.184 193.448 103.272V100.02H195.044ZM197.208 97.9197C197.592 97.9197 197.904 97.6077 197.904 97.2237C197.904 96.8397 197.592 96.5157 197.208 96.5157C196.812 96.5157 196.5 96.8397 196.5 97.2237C196.5 97.6077 196.812 97.9197 197.208 97.9197ZM196.68 105.012H197.724V99.0117H196.68V105.012ZM202.537 105.168C204.289 105.168 205.705 103.788 205.705 102.012C205.705 100.236 204.289 98.8557 202.537 98.8557C200.785 98.8557 199.381 100.236 199.381 102.012C199.381 103.788 200.785 105.168 202.537 105.168ZM202.537 104.148C201.349 104.148 200.425 103.224 200.425 102.012C200.425 100.8 201.349 99.8757 202.537 99.8757C203.737 99.8757 204.661 100.8 204.661 102.012C204.661 103.224 203.737 104.148 202.537 104.148ZM210.324 98.8557C209.484 98.8557 208.824 99.1677 208.38 99.8757V99.0117H207.336V105.012H208.38V101.832C208.38 100.416 209.16 99.8517 210.12 99.8517C211.044 99.8517 211.608 100.404 211.608 101.388V105.012H212.652V101.328C212.652 99.7917 211.728 98.8557 210.324 98.8557ZM215.409 100.632C215.409 100.092 215.937 99.8277 216.477 99.8277C217.005 99.8277 217.533 100.056 217.761 100.596L218.637 100.104C218.253 99.3237 217.461 98.8557 216.477 98.8557C215.265 98.8557 214.353 99.5877 214.353 100.644C214.353 102.816 217.713 102.084 217.713 103.368C217.713 103.956 217.161 104.184 216.525 104.184C215.781 104.184 215.229 103.824 215.037 103.248L214.137 103.764C214.485 104.592 215.325 105.168 216.525 105.168C217.809 105.168 218.769 104.484 218.769 103.368C218.769 101.16 215.409 101.916 215.409 100.632ZM226.793 98.8557C225.953 98.8557 225.293 99.1677 224.849 99.8757V96.6117H223.805V105.012H224.849V101.832C224.849 100.416 225.629 99.8517 226.589 99.8517C227.513 99.8517 228.077 100.404 228.077 101.388V105.012H229.121V101.328C229.121 99.7917 228.197 98.8557 226.793 98.8557ZM231.711 102.492H236.739C236.763 102.336 236.775 102.18 236.775 102.024C236.775 100.344 235.599 98.8557 233.787 98.8557C231.915 98.8557 230.643 100.236 230.643 102.012C230.643 103.812 231.927 105.168 233.859 105.168C235.059 105.168 235.971 104.628 236.499 103.812L235.611 103.308C235.311 103.8 234.711 104.184 233.883 104.184C232.767 104.184 231.915 103.572 231.711 102.492ZM233.787 99.8397C234.687 99.8397 235.539 100.392 235.719 101.58H231.711C231.879 100.536 232.659 99.8397 233.787 99.8397ZM239.419 100.02V99.0117H238.375V105.012H239.419V101.832C239.419 100.416 240.391 99.9597 241.291 99.9957V98.9037C240.535 98.9037 239.803 99.1797 239.419 100.02ZM243.116 102.492H248.144C248.168 102.336 248.18 102.18 248.18 102.024C248.18 100.344 247.004 98.8557 245.192 98.8557C243.32 98.8557 242.048 100.236 242.048 102.012C242.048 103.812 243.332 105.168 245.264 105.168C246.464 105.168 247.376 104.628 247.904 103.812L247.016 103.308C246.716 103.8 246.116 104.184 245.288 104.184C244.172 104.184 243.32 103.572 243.116 102.492ZM245.192 99.8397C246.092 99.8397 246.944 100.392 247.124 101.58H243.116C243.284 100.536 244.064 99.8397 245.192 99.8397Z" fill="#8A8A8A"/>
<path d="M321.531 70.2617H320.781L320.781 71.7617L321.531 71.7617L321.531 70.2617ZM321.531 71.7617L340.531 71.7617V70.2617L321.531 70.2617L321.531 71.7617ZM336.91 67.0117C336.91 69.6117 338.956 71.7617 341.531 71.7617V70.2617C339.831 70.2617 338.41 68.83 338.41 67.0117L336.91 67.0117ZM341.531 70.2617C338.956 70.2617 336.91 72.4117 336.91 75.0117H338.41C338.41 73.1934 339.831 71.7617 341.531 71.7617V70.2617Z" fill="#0D0D0D"/>
<line x1="30.5312" y1="125.612" x2="366.531" y2="125.612" stroke="#EFEFEF" stroke-width="0.8"/>
<rect width="311" height="93" transform="translate(30.5312 134.012)" fill="white"/>
<rect x="30.7812" y="150.262" width="27.5" height="27.5" fill="white"/>
<rect width="20" height="20" transform="translate(34.5312 154.012)" fill="white"/>
<path d="M49.9381 166.355V169.419H46.8743H46.7708L46.6976 169.492L44.5312 171.658L42.3649 169.492L42.2917 169.419H42.1882H39.1244V166.355V166.251L39.0512 166.178L36.8848 164.012L39.0512 161.845L39.1244 161.772V161.669V158.605H42.188H42.2916L42.3648 158.532L44.5312 156.365L46.6977 158.532L46.7709 158.605H46.8745H49.9381V161.669V161.772L50.0113 161.845L52.1777 164.012L50.0113 166.178L49.9381 166.251V166.355Z" stroke="#0D0D0D" stroke-width="0.5"/>
<circle cx="44.5312" cy="164.011" r="3.09271" stroke="#0D0D0D" stroke-width="0.5"/>
<rect x="30.7812" y="150.262" width="27.5" height="27.5" stroke="#D2D2D2" stroke-width="0.5"/>
<path d="M83.0153 157.83C82.1053 157.83 81.3073 158.222 80.8173 159.02C80.4113 158.264 79.7113 157.83 78.7593 157.83C77.9053 157.83 77.1773 158.166 76.6733 158.95V158.012H75.4552V165.012H76.6733V161.12C76.6733 159.608 77.5273 158.992 78.4653 158.992C79.3753 158.992 79.9493 159.594 79.9493 160.7V165.012H81.1673V161.12C81.1673 159.608 81.9093 158.992 82.8893 158.992C83.8133 158.992 84.4293 159.594 84.4293 160.7V165.012H85.6473V160.658C85.6473 158.908 84.5693 157.83 83.0153 157.83ZM93.5321 158.012V159.216C92.9721 158.362 92.0761 157.83 90.8861 157.83C88.9401 157.83 87.3441 159.44 87.3441 161.512C87.3441 163.584 88.9401 165.194 90.8861 165.194C92.0761 165.194 92.9721 164.662 93.5321 163.808V165.012H94.7501V158.012H93.5321ZM91.0401 164.018C89.6401 164.018 88.5621 162.94 88.5621 161.512C88.5621 160.084 89.6401 159.006 91.0401 159.006C92.4541 159.006 93.5321 160.084 93.5321 161.512C93.5321 162.94 92.4541 164.018 91.0401 164.018ZM100.481 157.83C99.5015 157.83 98.7315 158.194 98.2135 159.02V158.012H96.9955V165.012H98.2135V161.302C98.2135 159.65 99.1235 158.992 100.243 158.992C101.321 158.992 101.979 159.636 101.979 160.784V165.012H103.197V160.714C103.197 158.922 102.119 157.83 100.481 157.83ZM111.094 158.012V159.216C110.534 158.362 109.638 157.83 108.448 157.83C106.502 157.83 104.906 159.44 104.906 161.512C104.906 163.584 106.502 165.194 108.448 165.194C109.638 165.194 110.534 164.662 111.094 163.808V165.012H112.312V158.012H111.094ZM108.602 164.018C107.202 164.018 106.124 162.94 106.124 161.512C106.124 160.084 107.202 159.006 108.602 159.006C110.016 159.006 111.094 160.084 111.094 161.512C111.094 162.94 110.016 164.018 108.602 164.018ZM120.367 158.012V159.216C119.807 158.362 118.911 157.83 117.735 157.83C115.747 157.83 114.165 159.44 114.165 161.47C114.165 163.514 115.747 165.124 117.735 165.124C118.911 165.124 119.807 164.578 120.367 163.724V164.718C120.367 166.034 119.485 166.86 118.029 166.86C116.657 166.86 116.069 166.342 115.747 165.684L114.683 166.286C115.257 167.392 116.433 167.994 118.001 167.994C119.821 167.994 121.571 166.902 121.571 164.718V158.012H120.367ZM117.875 163.962C116.461 163.962 115.383 162.884 115.383 161.47C115.383 160.07 116.461 158.992 117.875 158.992C119.289 158.992 120.367 160.07 120.367 161.47C120.367 162.884 119.289 163.962 117.875 163.962ZM124.671 162.072H130.537C130.565 161.89 130.579 161.708 130.579 161.526C130.579 159.566 129.207 157.83 127.093 157.83C124.909 157.83 123.425 159.44 123.425 161.512C123.425 163.612 124.923 165.194 127.177 165.194C128.577 165.194 129.641 164.564 130.257 163.612L129.221 163.024C128.871 163.598 128.171 164.046 127.205 164.046C125.903 164.046 124.909 163.332 124.671 162.072ZM127.093 158.978C128.143 158.978 129.137 159.622 129.347 161.008H124.671C124.867 159.79 125.777 158.978 127.093 158.978ZM142.075 158.012V159.216C141.515 158.362 140.619 157.83 139.429 157.83C137.483 157.83 135.887 159.44 135.887 161.512C135.887 163.584 137.483 165.194 139.429 165.194C140.619 165.194 141.515 164.662 142.075 163.808V165.012H143.293V158.012H142.075ZM139.583 164.018C138.183 164.018 137.105 162.94 137.105 161.512C137.105 160.084 138.183 159.006 139.583 159.006C140.997 159.006 142.075 160.084 142.075 161.512C142.075 162.94 140.997 164.018 139.583 164.018ZM148.828 165.194C150.2 165.194 151.39 164.466 151.978 163.374L150.942 162.772C150.55 163.5 149.78 163.99 148.828 163.99C147.428 163.99 146.364 162.912 146.364 161.512C146.364 160.098 147.428 159.02 148.828 159.02C149.766 159.02 150.55 159.51 150.9 160.252L151.922 159.664C151.39 158.558 150.214 157.83 148.828 157.83C146.714 157.83 145.146 159.44 145.146 161.512C145.146 163.584 146.714 165.194 148.828 165.194ZM156.775 165.194C158.147 165.194 159.337 164.466 159.925 163.374L158.889 162.772C158.497 163.5 157.727 163.99 156.775 163.99C155.375 163.99 154.311 162.912 154.311 161.512C154.311 160.098 155.375 159.02 156.775 159.02C157.713 159.02 158.497 159.51 158.847 160.252L159.869 159.664C159.337 158.558 158.161 157.83 156.775 157.83C154.661 157.83 153.093 159.44 153.093 161.512C153.093 163.584 154.661 165.194 156.775 165.194ZM164.722 165.194C166.766 165.194 168.418 163.584 168.418 161.512C168.418 159.44 166.766 157.83 164.722 157.83C162.678 157.83 161.04 159.44 161.04 161.512C161.04 163.584 162.678 165.194 164.722 165.194ZM164.722 164.004C163.336 164.004 162.258 162.926 162.258 161.512C162.258 160.098 163.336 159.02 164.722 159.02C166.122 159.02 167.2 160.098 167.2 161.512C167.2 162.926 166.122 164.004 164.722 164.004ZM175.084 158.012V161.722C175.084 163.374 174.174 164.032 173.054 164.032C171.976 164.032 171.318 163.388 171.318 162.24V158.012H170.1V162.31C170.1 164.102 171.178 165.194 172.816 165.194C173.796 165.194 174.566 164.83 175.084 164.004V165.012H176.302V158.012H175.084ZM182.042 157.83C181.062 157.83 180.292 158.194 179.774 159.02V158.012H178.556V165.012H179.774V161.302C179.774 159.65 180.684 158.992 181.804 158.992C182.882 158.992 183.54 159.636 183.54 160.784V165.012H184.758V160.714C184.758 158.922 183.68 157.83 182.042 157.83ZM190.666 159.188V158.012H188.804V156.052L187.586 156.416V158.012H186.2V159.188H187.586V162.982C187.586 164.732 188.566 165.292 190.666 165.012V163.92C189.42 163.976 188.804 164.046 188.804 162.982V159.188H190.666Z" fill="#0D0D0D"/>
<path d="M75.3232 188.012H76.3673V179.252H75.3232V188.012ZM81.18 188.168C82.932 188.168 84.348 186.788 84.348 185.012C84.348 183.236 82.932 181.856 81.18 181.856C79.428 181.856 78.024 183.236 78.024 185.012C78.024 186.788 79.428 188.168 81.18 188.168ZM81.18 187.148C79.992 187.148 79.068 186.224 79.068 185.012C79.068 183.8 79.992 182.876 81.18 182.876C82.38 182.876 83.304 183.8 83.304 185.012C83.304 186.224 82.38 187.148 81.18 187.148ZM90.9587 182.012V183.044C90.4787 182.312 89.7107 181.856 88.7027 181.856C86.9987 181.856 85.6427 183.236 85.6427 184.976C85.6427 186.728 86.9987 188.108 88.7027 188.108C89.7107 188.108 90.4787 187.64 90.9587 186.908V187.76C90.9587 188.888 90.2027 189.596 88.9547 189.596C87.7787 189.596 87.2747 189.152 86.9987 188.588L86.0867 189.104C86.5787 190.052 87.5867 190.568 88.9307 190.568C90.4907 190.568 91.9907 189.632 91.9907 187.76V182.012H90.9587ZM88.8227 187.112C87.6107 187.112 86.6867 186.188 86.6867 184.976C86.6867 183.776 87.6107 182.852 88.8227 182.852C90.0347 182.852 90.9587 183.776 90.9587 184.976C90.9587 186.188 90.0347 187.112 88.8227 187.112ZM94.5005 180.92C94.8845 180.92 95.1965 180.608 95.1965 180.224C95.1965 179.84 94.8845 179.516 94.5005 179.516C94.1045 179.516 93.7925 179.84 93.7925 180.224C93.7925 180.608 94.1045 180.92 94.5005 180.92ZM93.9725 188.012H95.0165V182.012H93.9725V188.012ZM99.9972 181.856C99.1572 181.856 98.4972 182.168 98.0532 182.876V182.012H97.0092V188.012H98.0532V184.832C98.0532 183.416 98.8332 182.852 99.7932 182.852C100.717 182.852 101.281 183.404 101.281 184.388V188.012H102.325V184.328C102.325 182.792 101.401 181.856 99.9972 181.856ZM112.551 179.612V183.044C112.071 182.312 111.303 181.856 110.283 181.856C108.615 181.856 107.247 183.236 107.247 185.012C107.247 186.788 108.615 188.168 110.283 188.168C111.303 188.168 112.071 187.712 112.551 186.98V188.012H113.595V179.612H112.551ZM110.415 187.16C109.215 187.16 108.291 186.236 108.291 185.012C108.291 183.788 109.215 182.864 110.415 182.864C111.627 182.864 112.551 183.788 112.551 185.012C112.551 186.236 111.627 187.16 110.415 187.16ZM116.308 185.492H121.336C121.36 185.336 121.372 185.18 121.372 185.024C121.372 183.344 120.196 181.856 118.384 181.856C116.512 181.856 115.24 183.236 115.24 185.012C115.24 186.812 116.524 188.168 118.456 188.168C119.656 188.168 120.568 187.628 121.096 186.812L120.208 186.308C119.908 186.8 119.308 187.184 118.48 187.184C117.364 187.184 116.512 186.572 116.308 185.492ZM118.384 182.84C119.284 182.84 120.136 183.392 120.316 184.58H116.308C116.476 183.536 117.256 182.84 118.384 182.84ZM126.061 183.02V182.012H124.465V180.332L123.421 180.644V182.012H122.233V183.02H123.421V186.272C123.421 187.772 124.261 188.252 126.061 188.012V187.076C124.993 187.124 124.465 187.184 124.465 186.272V183.02H126.061ZM132.36 182.012V183.044C131.88 182.312 131.112 181.856 130.092 181.856C128.424 181.856 127.056 183.236 127.056 185.012C127.056 186.788 128.424 188.168 130.092 188.168C131.112 188.168 131.88 187.712 132.36 186.98V188.012H133.404V182.012H132.36ZM130.224 187.16C129.024 187.16 128.1 186.236 128.1 185.012C128.1 183.788 129.024 182.864 130.224 182.864C131.436 182.864 132.36 183.788 132.36 185.012C132.36 186.236 131.436 187.16 130.224 187.16ZM135.914 180.92C136.298 180.92 136.61 180.608 136.61 180.224C136.61 179.84 136.298 179.516 135.914 179.516C135.518 179.516 135.206 179.84 135.206 180.224C135.206 180.608 135.518 180.92 135.914 180.92ZM135.386 188.012H136.43V182.012H135.386V188.012ZM138.422 188.012H139.466V179.252H138.422V188.012ZM142.347 183.632C142.347 183.092 142.875 182.828 143.415 182.828C143.943 182.828 144.471 183.056 144.699 183.596L145.575 183.104C145.191 182.324 144.399 181.856 143.415 181.856C142.203 181.856 141.291 182.588 141.291 183.644C141.291 185.816 144.651 185.084 144.651 186.368C144.651 186.956 144.099 187.184 143.463 187.184C142.719 187.184 142.167 186.824 141.975 186.248L141.075 186.764C141.423 187.592 142.263 188.168 143.463 188.168C144.747 188.168 145.707 187.484 145.707 186.368C145.707 184.16 142.347 184.916 142.347 183.632ZM155.712 182.012V183.044C155.232 182.312 154.464 181.856 153.444 181.856C151.776 181.856 150.408 183.236 150.408 185.012C150.408 186.788 151.776 188.168 153.444 188.168C154.464 188.168 155.232 187.712 155.712 186.98V188.012H156.756V182.012H155.712ZM153.576 187.16C152.376 187.16 151.452 186.236 151.452 185.012C151.452 183.788 152.376 182.864 153.576 182.864C154.788 182.864 155.712 183.788 155.712 185.012C155.712 186.236 154.788 187.16 153.576 187.16ZM161.725 181.856C160.885 181.856 160.225 182.168 159.781 182.876V182.012H158.737V188.012H159.781V184.832C159.781 183.416 160.561 182.852 161.521 182.852C162.445 182.852 163.009 183.404 163.009 184.388V188.012H164.053V184.328C164.053 182.792 163.129 181.856 161.725 181.856ZM170.879 179.612V183.044C170.399 182.312 169.631 181.856 168.611 181.856C166.943 181.856 165.575 183.236 165.575 185.012C165.575 186.788 166.943 188.168 168.611 188.168C169.631 188.168 170.399 187.712 170.879 186.98V188.012H171.923V179.612H170.879ZM168.743 187.16C167.543 187.16 166.619 186.236 166.619 185.012C166.619 183.788 167.543 182.864 168.743 182.864C169.955 182.864 170.879 183.788 170.879 185.012C170.879 186.236 169.955 187.16 168.743 187.16ZM180.124 188.168C181.3 188.168 182.32 187.544 182.824 186.608L181.936 186.092C181.6 186.716 180.94 187.136 180.124 187.136C178.924 187.136 178.012 186.212 178.012 185.012C178.012 183.8 178.924 182.876 180.124 182.876C180.928 182.876 181.6 183.296 181.9 183.932L182.776 183.428C182.32 182.48 181.312 181.856 180.124 181.856C178.312 181.856 176.968 183.236 176.968 185.012C176.968 186.788 178.312 188.168 180.124 188.168ZM186.993 188.168C188.745 188.168 190.161 186.788 190.161 185.012C190.161 183.236 188.745 181.856 186.993 181.856C185.241 181.856 183.837 183.236 183.837 185.012C183.837 186.788 185.241 188.168 186.993 188.168ZM186.993 187.148C185.805 187.148 184.881 186.224 184.881 185.012C184.881 183.8 185.805 182.876 186.993 182.876C188.193 182.876 189.117 183.8 189.117 185.012C189.117 186.224 188.193 187.148 186.993 187.148ZM198.272 181.856C197.492 181.856 196.808 182.192 196.388 182.876C196.04 182.228 195.44 181.856 194.624 181.856C193.892 181.856 193.268 182.144 192.836 182.816V182.012H191.792V188.012H192.836V184.676C192.836 183.38 193.568 182.852 194.372 182.852C195.152 182.852 195.644 183.368 195.644 184.316V188.012H196.688V184.676C196.688 183.38 197.324 182.852 198.164 182.852C198.956 182.852 199.484 183.368 199.484 184.316V188.012H200.528V184.28C200.528 182.78 199.604 181.856 198.272 181.856ZM208.856 181.856C208.076 181.856 207.392 182.192 206.972 182.876C206.624 182.228 206.024 181.856 205.208 181.856C204.476 181.856 203.852 182.144 203.42 182.816V182.012H202.376V188.012H203.42V184.676C203.42 183.38 204.152 182.852 204.956 182.852C205.736 182.852 206.228 183.368 206.228 184.316V188.012H207.272V184.676C207.272 183.38 207.908 182.852 208.748 182.852C209.54 182.852 210.068 183.368 210.068 184.316V188.012H211.112V184.28C211.112 182.78 210.188 181.856 208.856 181.856ZM217.099 182.012V185.192C217.099 186.608 216.319 187.172 215.359 187.172C214.435 187.172 213.871 186.62 213.871 185.636V182.012H212.827V185.696C212.827 187.232 213.751 188.168 215.155 188.168C215.995 188.168 216.655 187.856 217.099 187.148V188.012H218.143V182.012H217.099ZM223.121 181.856C222.281 181.856 221.621 182.168 221.177 182.876V182.012H220.133V188.012H221.177V184.832C221.177 183.416 221.957 182.852 222.917 182.852C223.841 182.852 224.405 183.404 224.405 184.388V188.012H225.449V184.328C225.449 182.792 224.525 181.856 223.121 181.856ZM227.834 180.92C228.218 180.92 228.53 180.608 228.53 180.224C228.53 179.84 228.218 179.516 227.834 179.516C227.438 179.516 227.126 179.84 227.126 180.224C227.126 180.608 227.438 180.92 227.834 180.92ZM227.306 188.012H228.35V182.012H227.306V188.012ZM233.163 188.168C234.339 188.168 235.359 187.544 235.863 186.608L234.975 186.092C234.639 186.716 233.979 187.136 233.163 187.136C231.963 187.136 231.051 186.212 231.051 185.012C231.051 183.8 231.963 182.876 233.163 182.876C233.967 182.876 234.639 183.296 234.939 183.932L235.815 183.428C235.359 182.48 234.351 181.856 233.163 181.856C231.351 181.856 230.007 183.236 230.007 185.012C230.007 186.788 231.351 188.168 233.163 188.168ZM242.18 182.012V183.044C241.7 182.312 240.932 181.856 239.912 181.856C238.244 181.856 236.876 183.236 236.876 185.012C236.876 186.788 238.244 188.168 239.912 188.168C240.932 188.168 241.7 187.712 242.18 186.98V188.012H243.224V182.012H242.18ZM240.044 187.16C238.844 187.16 237.92 186.236 237.92 185.012C237.92 183.788 238.844 182.864 240.044 182.864C241.256 182.864 242.18 183.788 242.18 185.012C242.18 186.236 241.256 187.16 240.044 187.16ZM248.469 183.02V182.012H246.873V180.332L245.829 180.644V182.012H244.641V183.02H245.829V186.272C245.829 187.772 246.669 188.252 248.469 188.012V187.076C247.401 187.124 246.873 187.184 246.873 186.272V183.02H248.469ZM250.633 180.92C251.017 180.92 251.329 180.608 251.329 180.224C251.329 179.84 251.017 179.516 250.633 179.516C250.237 179.516 249.925 179.84 249.925 180.224C249.925 180.608 250.237 180.92 250.633 180.92ZM250.105 188.012H251.149V182.012H250.105V188.012ZM255.962 188.168C257.714 188.168 259.13 186.788 259.13 185.012C259.13 183.236 257.714 181.856 255.962 181.856C254.21 181.856 252.806 183.236 252.806 185.012C252.806 186.788 254.21 188.168 255.962 188.168ZM255.962 187.148C254.774 187.148 253.85 186.224 253.85 185.012C253.85 183.8 254.774 182.876 255.962 182.876C257.162 182.876 258.086 183.8 258.086 185.012C258.086 186.224 257.162 187.148 255.962 187.148ZM263.749 181.856C262.909 181.856 262.249 182.168 261.805 182.876V182.012H260.761V188.012H261.805V184.832C261.805 183.416 262.585 182.852 263.545 182.852C264.469 182.852 265.033 183.404 265.033 184.388V188.012H266.077V184.328C266.077 182.792 265.153 181.856 263.749 181.856ZM78.6353 199.856C77.6152 199.856 76.8473 200.312 76.3673 201.044V200.012H75.3232V208.412H76.3673V204.98C76.8473 205.712 77.6152 206.168 78.6353 206.168C80.3033 206.168 81.6713 204.788 81.6713 203.012C81.6713 201.236 80.3033 199.856 78.6353 199.856ZM78.5033 205.16C77.2913 205.16 76.3673 204.236 76.3673 203.012C76.3673 201.788 77.2913 200.864 78.5033 200.864C79.7033 200.864 80.6273 201.788 80.6273 203.012C80.6273 204.236 79.7033 205.16 78.5033 205.16ZM84.361 201.02V200.012H83.317V206.012H84.361V202.832C84.361 201.416 85.333 200.96 86.233 200.996V199.904C85.477 199.904 84.745 200.18 84.361 201.02ZM88.0584 203.492H93.0864C93.1104 203.336 93.1224 203.18 93.1224 203.024C93.1224 201.344 91.9464 199.856 90.1344 199.856C88.2624 199.856 86.9904 201.236 86.9904 203.012C86.9904 204.812 88.2744 206.168 90.2064 206.168C91.4064 206.168 92.3184 205.628 92.8464 204.812L91.9584 204.308C91.6584 204.8 91.0584 205.184 90.2304 205.184C89.1144 205.184 88.2624 204.572 88.0584 203.492ZM90.1344 200.84C91.0344 200.84 91.8864 201.392 92.0664 202.58H88.0584C88.2264 201.536 89.0064 200.84 90.1344 200.84ZM97.6307 198.464V197.456C95.9147 197.336 95.0027 198.236 95.0027 199.832V200.012H94.0427V201.02H95.0027V206.012H96.0467V201.02H97.6307V200.012H96.0467V199.832C96.0467 198.788 96.5867 198.38 97.6307 198.464ZM99.2295 203.492H104.257C104.281 203.336 104.293 203.18 104.293 203.024C104.293 201.344 103.117 199.856 101.305 199.856C99.4335 199.856 98.1615 201.236 98.1615 203.012C98.1615 204.812 99.4455 206.168 101.377 206.168C102.577 206.168 103.489 205.628 104.017 204.812L103.129 204.308C102.829 204.8 102.229 205.184 101.401 205.184C100.285 205.184 99.4335 204.572 99.2295 203.492ZM101.305 200.84C102.205 200.84 103.057 201.392 103.237 202.58H99.2295C99.3975 201.536 100.177 200.84 101.305 200.84ZM106.938 201.02V200.012H105.894V206.012H106.938V202.832C106.938 201.416 107.91 200.96 108.81 200.996V199.904C108.054 199.904 107.322 200.18 106.938 201.02ZM110.635 203.492H115.663C115.687 203.336 115.699 203.18 115.699 203.024C115.699 201.344 114.523 199.856 112.711 199.856C110.839 199.856 109.567 201.236 109.567 203.012C109.567 204.812 110.851 206.168 112.783 206.168C113.983 206.168 114.895 205.628 115.423 204.812L114.535 204.308C114.235 204.8 113.635 205.184 112.807 205.184C111.691 205.184 110.839 204.572 110.635 203.492ZM112.711 200.84C113.611 200.84 114.463 201.392 114.643 202.58H110.635C110.803 201.536 111.583 200.84 112.711 200.84ZM120.287 199.856C119.447 199.856 118.787 200.168 118.343 200.876V200.012H117.299V206.012H118.343V202.832C118.343 201.416 119.123 200.852 120.083 200.852C121.007 200.852 121.571 201.404 121.571 202.388V206.012H122.615V202.328C122.615 200.792 121.691 199.856 120.287 199.856ZM127.292 206.168C128.468 206.168 129.488 205.544 129.992 204.608L129.104 204.092C128.768 204.716 128.108 205.136 127.292 205.136C126.092 205.136 125.18 204.212 125.18 203.012C125.18 201.8 126.092 200.876 127.292 200.876C128.096 200.876 128.768 201.296 129.068 201.932L129.944 201.428C129.488 200.48 128.48 199.856 127.292 199.856C125.48 199.856 124.136 201.236 124.136 203.012C124.136 204.788 125.48 206.168 127.292 206.168ZM132.073 203.492H137.101C137.125 203.336 137.137 203.18 137.137 203.024C137.137 201.344 135.961 199.856 134.149 199.856C132.277 199.856 131.005 201.236 131.005 203.012C131.005 204.812 132.289 206.168 134.221 206.168C135.421 206.168 136.333 205.628 136.861 204.812L135.973 204.308C135.673 204.8 135.073 205.184 134.245 205.184C133.129 205.184 132.277 204.572 132.073 203.492ZM134.149 200.84C135.049 200.84 135.901 201.392 136.081 202.58H132.073C132.241 201.536 133.021 200.84 134.149 200.84ZM139.403 201.632C139.403 201.092 139.931 200.828 140.471 200.828C140.999 200.828 141.527 201.056 141.755 201.596L142.631 201.104C142.247 200.324 141.455 199.856 140.471 199.856C139.259 199.856 138.347 200.588 138.347 201.644C138.347 203.816 141.707 203.084 141.707 204.368C141.707 204.956 141.155 205.184 140.519 205.184C139.775 205.184 139.223 204.824 139.031 204.248L138.131 204.764C138.479 205.592 139.319 206.168 140.519 206.168C141.803 206.168 142.763 205.484 142.763 204.368C142.763 202.16 139.403 202.916 139.403 201.632Z" fill="#8A8A8A"/>
<path d="M321.531 153.262H320.781L320.781 154.762L321.531 154.762L321.531 153.262ZM321.531 154.762L340.531 154.762V153.262L321.531 153.262L321.531 154.762ZM336.91 150.012C336.91 152.612 338.956 154.762 341.531 154.762V153.262C339.831 153.262 338.41 151.83 338.41 150.012L336.91 150.012ZM341.531 153.262C338.956 153.262 336.91 155.412 336.91 158.012H338.41C338.41 156.193 339.831 154.762 341.531 154.762V153.262Z" fill="#0D0D0D"/>
<line x1="30.5312" y1="226.612" x2="366.531" y2="226.612" stroke="#EFEFEF" stroke-width="0.8"/>
<rect width="311" height="75" transform="translate(30.5312 235.012)" fill="white"/>
<rect x="30.7812" y="251.262" width="27.5" height="27.5" fill="white"/>
<rect width="20" height="20" transform="translate(34.5312 255.012)" fill="white"/>
<rect x="38.9531" y="259.203" width="11" height="11" stroke="#0D0D0D" stroke-width="0.5"/>
<path d="M41.2881 261.539H47.6181V267.87" stroke="#0D0D0D" stroke-width="0.5"/>
<path d="M41.2881 264.562H44.5958V267.87" stroke="#0D0D0D" stroke-width="0.5"/>
<rect x="38.9531" y="259.203" width="11" height="11" stroke="#0D0D0D" stroke-width="0.5"/>
<path d="M41.2881 261.539H47.6181V267.87" stroke="#0D0D0D" stroke-width="0.5"/>
<path d="M41.2881 264.562H44.5958V267.87" stroke="#0D0D0D" stroke-width="0.5"/>
<rect x="30.7812" y="251.262" width="27.5" height="27.5" stroke="#D2D2D2" stroke-width="0.5"/>
<path d="M79.3193 258.83C78.1292 258.83 77.2333 259.362 76.6733 260.216V259.012H75.4552V268.812H76.6733V264.808C77.2333 265.662 78.1292 266.194 79.3193 266.194C81.2653 266.194 82.8613 264.584 82.8613 262.512C82.8613 260.44 81.2653 258.83 79.3193 258.83ZM79.1653 265.018C77.7513 265.018 76.6733 263.94 76.6733 262.512C76.6733 261.084 77.7513 260.006 79.1653 260.006C80.5653 260.006 81.6433 261.084 81.6433 262.512C81.6433 263.94 80.5653 265.018 79.1653 265.018ZM90.5106 259.012V260.216C89.9506 259.362 89.0546 258.83 87.8646 258.83C85.9186 258.83 84.3226 260.44 84.3226 262.512C84.3226 264.584 85.9186 266.194 87.8646 266.194C89.0546 266.194 89.9506 265.662 90.5106 264.808V266.012H91.7286V259.012H90.5106ZM88.0186 265.018C86.6186 265.018 85.5406 263.94 85.5406 262.512C85.5406 261.084 86.6186 260.006 88.0186 260.006C89.4326 260.006 90.5106 261.084 90.5106 262.512C90.5106 263.94 89.4326 265.018 88.0186 265.018ZM98.86 259.012L96.844 264.5L94.464 259.012H93.162L96.214 265.984L96.088 266.25C95.724 267.174 95.136 267.748 94.198 267.678V268.812C95.626 268.91 96.718 268.014 97.306 266.446L100.162 259.012H98.86ZM109.139 258.83C108.229 258.83 107.431 259.222 106.941 260.02C106.535 259.264 105.835 258.83 104.883 258.83C104.029 258.83 103.301 259.166 102.797 259.95V259.012H101.579V266.012H102.797V262.12C102.797 260.608 103.651 259.992 104.589 259.992C105.499 259.992 106.073 260.594 106.073 261.7V266.012H107.291V262.12C107.291 260.608 108.033 259.992 109.013 259.992C109.937 259.992 110.553 260.594 110.553 261.7V266.012H111.771V261.658C111.771 259.908 110.693 258.83 109.139 258.83ZM114.714 263.072H120.58C120.608 262.89 120.622 262.708 120.622 262.526C120.622 260.566 119.25 258.83 117.136 258.83C114.952 258.83 113.468 260.44 113.468 262.512C113.468 264.612 114.966 266.194 117.22 266.194C118.62 266.194 119.684 265.564 120.3 264.612L119.264 264.024C118.914 264.598 118.214 265.046 117.248 265.046C115.946 265.046 114.952 264.332 114.714 263.072ZM117.136 259.978C118.186 259.978 119.18 260.622 119.39 262.008H114.714C114.91 260.79 115.82 259.978 117.136 259.978ZM125.908 258.83C124.928 258.83 124.158 259.194 123.64 260.02V259.012H122.422V266.012H123.64V262.302C123.64 260.65 124.55 259.992 125.67 259.992C126.748 259.992 127.406 260.636 127.406 261.784V266.012H128.624V261.714C128.624 259.922 127.546 258.83 125.908 258.83ZM134.532 260.188V259.012H132.67V257.052L131.452 257.416V259.012H130.066V260.188H131.452V263.982C131.452 265.732 132.432 266.292 134.532 266.012V264.92C133.286 264.976 132.67 265.046 132.67 263.982V260.188H134.532ZM141.365 260.902C141.365 260.272 141.981 259.964 142.611 259.964C143.227 259.964 143.843 260.23 144.109 260.86L145.131 260.286C144.683 259.376 143.759 258.83 142.611 258.83C141.197 258.83 140.133 259.684 140.133 260.916C140.133 263.45 144.053 262.596 144.053 264.094C144.053 264.78 143.409 265.046 142.667 265.046C141.799 265.046 141.155 264.626 140.931 263.954L139.881 264.556C140.287 265.522 141.267 266.194 142.667 266.194C144.165 266.194 145.285 265.396 145.285 264.094C145.285 261.518 141.365 262.4 141.365 260.902ZM147.79 263.072H153.656C153.684 262.89 153.698 262.708 153.698 262.526C153.698 260.566 152.326 258.83 150.212 258.83C148.028 258.83 146.544 260.44 146.544 262.512C146.544 264.612 148.042 266.194 150.296 266.194C151.696 266.194 152.76 265.564 153.376 264.612L152.34 264.024C151.99 264.598 151.29 265.046 150.324 265.046C149.022 265.046 148.028 264.332 147.79 263.072ZM150.212 259.978C151.262 259.978 152.256 260.622 152.466 262.008H147.79C147.986 260.79 148.896 259.978 150.212 259.978ZM159.101 260.188V259.012H157.239V257.052L156.021 257.416V259.012H154.635V260.188H156.021V263.982C156.021 265.732 157.001 266.292 159.101 266.012V264.92C157.855 264.976 157.239 265.046 157.239 263.982V260.188H159.101ZM164.382 260.188V259.012H162.52V257.052L161.302 257.416V259.012H159.916V260.188H161.302V263.982C161.302 265.732 162.282 266.292 164.382 266.012V264.92C163.136 264.976 162.52 265.046 162.52 263.982V260.188H164.382ZM166.84 257.738C167.288 257.738 167.652 257.374 167.652 256.926C167.652 256.478 167.288 256.1 166.84 256.1C166.378 256.1 166.014 256.478 166.014 256.926C166.014 257.374 166.378 257.738 166.84 257.738ZM166.224 266.012H167.442V259.012H166.224V266.012ZM173.186 258.83C172.206 258.83 171.436 259.194 170.918 260.02V259.012H169.7V266.012H170.918V262.302C170.918 260.65 171.828 259.992 172.948 259.992C174.026 259.992 174.684 260.636 174.684 261.784V266.012H175.902V261.714C175.902 259.922 174.824 258.83 173.186 258.83ZM183.813 259.012V260.216C183.253 259.362 182.357 258.83 181.181 258.83C179.193 258.83 177.611 260.44 177.611 262.47C177.611 264.514 179.193 266.124 181.181 266.124C182.357 266.124 183.253 265.578 183.813 264.724V265.718C183.813 267.034 182.931 267.86 181.475 267.86C180.103 267.86 179.515 267.342 179.193 266.684L178.129 267.286C178.703 268.392 179.879 268.994 181.447 268.994C183.267 268.994 185.017 267.902 185.017 265.718V259.012H183.813ZM181.321 264.962C179.907 264.962 178.829 263.884 178.829 262.47C178.829 261.07 179.907 259.992 181.321 259.992C182.735 259.992 183.813 261.07 183.813 262.47C183.813 263.884 182.735 264.962 181.321 264.962ZM188.298 260.902C188.298 260.272 188.914 259.964 189.544 259.964C190.16 259.964 190.776 260.23 191.042 260.86L192.064 260.286C191.616 259.376 190.692 258.83 189.544 258.83C188.13 258.83 187.066 259.684 187.066 260.916C187.066 263.45 190.986 262.596 190.986 264.094C190.986 264.78 190.342 265.046 189.6 265.046C188.732 265.046 188.088 264.626 187.864 263.954L186.814 264.556C187.22 265.522 188.2 266.194 189.6 266.194C191.098 266.194 192.218 265.396 192.218 264.094C192.218 261.518 188.298 262.4 188.298 260.902Z" fill="#0D0D0D"/>
<path d="M81.8033 282.856C81.0233 282.856 80.3393 283.192 79.9193 283.876C79.5713 283.228 78.9713 282.856 78.1553 282.856C77.4233 282.856 76.7993 283.144 76.3673 283.816V283.012H75.3232V289.012H76.3673V285.676C76.3673 284.38 77.0993 283.852 77.9033 283.852C78.6833 283.852 79.1753 284.368 79.1753 285.316V289.012H80.2193V285.676C80.2193 284.38 80.8553 283.852 81.6953 283.852C82.4873 283.852 83.0153 284.368 83.0153 285.316V289.012H84.0593V285.28C84.0593 283.78 83.1353 282.856 81.8033 282.856ZM90.8748 283.012V284.044C90.3948 283.312 89.6268 282.856 88.6068 282.856C86.9388 282.856 85.5708 284.236 85.5708 286.012C85.5708 287.788 86.9388 289.168 88.6068 289.168C89.6268 289.168 90.3948 288.712 90.8748 287.98V289.012H91.9188V283.012H90.8748ZM88.7388 288.16C87.5388 288.16 86.6148 287.236 86.6148 286.012C86.6148 284.788 87.5388 283.864 88.7388 283.864C89.9508 283.864 90.8748 284.788 90.8748 286.012C90.8748 287.236 89.9508 288.16 88.7388 288.16ZM96.8886 282.856C96.0486 282.856 95.3886 283.168 94.9446 283.876V283.012H93.9006V289.012H94.9446V285.832C94.9446 284.416 95.7246 283.852 96.6846 283.852C97.6086 283.852 98.1726 284.404 98.1726 285.388V289.012H99.2166V285.328C99.2166 283.792 98.2926 282.856 96.8886 282.856ZM106.042 283.012V284.044C105.562 283.312 104.794 282.856 103.774 282.856C102.106 282.856 100.738 284.236 100.738 286.012C100.738 287.788 102.106 289.168 103.774 289.168C104.794 289.168 105.562 288.712 106.042 287.98V289.012H107.086V283.012H106.042ZM103.906 288.16C102.706 288.16 101.782 287.236 101.782 286.012C101.782 284.788 102.706 283.864 103.906 283.864C105.118 283.864 106.042 284.788 106.042 286.012C106.042 287.236 105.118 288.16 103.906 288.16ZM114.048 283.012V284.044C113.568 283.312 112.8 282.856 111.792 282.856C110.088 282.856 108.732 284.236 108.732 285.976C108.732 287.728 110.088 289.108 111.792 289.108C112.8 289.108 113.568 288.64 114.048 287.908V288.76C114.048 289.888 113.292 290.596 112.044 290.596C110.868 290.596 110.364 290.152 110.088 289.588L109.176 290.104C109.668 291.052 110.676 291.568 112.02 291.568C113.58 291.568 115.08 290.632 115.08 288.76V283.012H114.048ZM111.912 288.112C110.7 288.112 109.776 287.188 109.776 285.976C109.776 284.776 110.7 283.852 111.912 283.852C113.124 283.852 114.048 284.776 114.048 285.976C114.048 287.188 113.124 288.112 111.912 288.112ZM117.794 286.492H122.822C122.846 286.336 122.858 286.18 122.858 286.024C122.858 284.344 121.682 282.856 119.87 282.856C117.998 282.856 116.726 284.236 116.726 286.012C116.726 287.812 118.01 289.168 119.942 289.168C121.142 289.168 122.054 288.628 122.582 287.812L121.694 287.308C121.394 287.8 120.794 288.184 119.966 288.184C118.85 288.184 117.998 287.572 117.794 286.492ZM119.87 283.84C120.77 283.84 121.622 284.392 121.802 285.58H117.794C117.962 284.536 118.742 283.84 119.87 283.84ZM132.046 283.012L130.318 287.716L128.278 283.012H127.162L129.778 288.988L129.67 289.216C129.358 290.008 128.854 290.5 128.05 290.44V291.412C129.274 291.496 130.21 290.728 130.714 289.384L133.162 283.012H132.046ZM137.019 289.168C138.771 289.168 140.187 287.788 140.187 286.012C140.187 284.236 138.771 282.856 137.019 282.856C135.267 282.856 133.863 284.236 133.863 286.012C133.863 287.788 135.267 289.168 137.019 289.168ZM137.019 288.148C135.831 288.148 134.907 287.224 134.907 286.012C134.907 284.8 135.831 283.876 137.019 283.876C138.219 283.876 139.143 284.8 139.143 286.012C139.143 287.224 138.219 288.148 137.019 288.148ZM145.958 283.012V286.192C145.958 287.608 145.178 288.172 144.218 288.172C143.294 288.172 142.73 287.62 142.73 286.636V283.012H141.686V286.696C141.686 288.232 142.61 289.168 144.014 289.168C144.854 289.168 145.514 288.856 145.958 288.148V289.012H147.002V283.012H145.958ZM150.035 284.02V283.012H148.991V289.012H150.035V285.832C150.035 284.416 151.007 283.96 151.907 283.996V282.904C151.151 282.904 150.419 283.18 150.035 284.02ZM160.041 282.856C159.021 282.856 158.253 283.312 157.773 284.044V283.012H156.729V291.412H157.773V287.98C158.253 288.712 159.021 289.168 160.041 289.168C161.709 289.168 163.077 287.788 163.077 286.012C163.077 284.236 161.709 282.856 160.041 282.856ZM159.909 288.16C158.697 288.16 157.773 287.236 157.773 286.012C157.773 284.788 158.697 283.864 159.909 283.864C161.109 283.864 162.033 284.788 162.033 286.012C162.033 287.236 161.109 288.16 159.909 288.16ZM169.69 283.012V284.044C169.21 283.312 168.442 282.856 167.422 282.856C165.754 282.856 164.386 284.236 164.386 286.012C164.386 287.788 165.754 289.168 167.422 289.168C168.442 289.168 169.21 288.712 169.69 287.98V289.012H170.734V283.012H169.69ZM167.554 288.16C166.354 288.16 165.43 287.236 165.43 286.012C165.43 284.788 166.354 283.864 167.554 283.864C168.766 283.864 169.69 284.788 169.69 286.012C169.69 287.236 168.766 288.16 167.554 288.16ZM176.904 283.012L175.176 287.716L173.136 283.012H172.02L174.636 288.988L174.528 289.216C174.216 290.008 173.712 290.5 172.908 290.44V291.412C174.132 291.496 175.068 290.728 175.572 289.384L178.02 283.012H176.904ZM185.772 282.856C184.992 282.856 184.308 283.192 183.888 283.876C183.54 283.228 182.94 282.856 182.124 282.856C181.392 282.856 180.768 283.144 180.336 283.816V283.012H179.292V289.012H180.336V285.676C180.336 284.38 181.068 283.852 181.872 283.852C182.652 283.852 183.144 284.368 183.144 285.316V289.012H184.188V285.676C184.188 284.38 184.824 283.852 185.664 283.852C186.456 283.852 186.984 284.368 186.984 285.316V289.012H188.028V285.28C188.028 283.78 187.104 282.856 185.772 282.856ZM190.608 286.492H195.636C195.66 286.336 195.672 286.18 195.672 286.024C195.672 284.344 194.496 282.856 192.684 282.856C190.812 282.856 189.54 284.236 189.54 286.012C189.54 287.812 190.824 289.168 192.756 289.168C193.956 289.168 194.868 288.628 195.396 287.812L194.508 287.308C194.208 287.8 193.608 288.184 192.78 288.184C191.664 288.184 190.812 287.572 190.608 286.492ZM192.684 283.84C193.584 283.84 194.436 284.392 194.616 285.58H190.608C190.776 284.536 191.556 283.84 192.684 283.84ZM200.26 282.856C199.42 282.856 198.76 283.168 198.316 283.876V283.012H197.272V289.012H198.316V285.832C198.316 284.416 199.096 283.852 200.056 283.852C200.98 283.852 201.544 284.404 201.544 285.388V289.012H202.588V285.328C202.588 283.792 201.664 282.856 200.26 282.856ZM207.709 284.02V283.012H206.113V281.332L205.069 281.644V283.012H203.881V284.02H205.069V287.272C205.069 288.772 205.909 289.252 207.709 289.012V288.076C206.641 288.124 206.113 288.184 206.113 287.272V284.02H207.709ZM219.26 282.856C218.48 282.856 217.796 283.192 217.376 283.876C217.028 283.228 216.428 282.856 215.612 282.856C214.88 282.856 214.256 283.144 213.824 283.816V283.012H212.78V289.012H213.824V285.676C213.824 284.38 214.556 283.852 215.36 283.852C216.14 283.852 216.632 284.368 216.632 285.316V289.012H217.676V285.676C217.676 284.38 218.312 283.852 219.152 283.852C219.944 283.852 220.472 284.368 220.472 285.316V289.012H221.516V285.28C221.516 283.78 220.592 282.856 219.26 282.856ZM224.096 286.492H229.124C229.148 286.336 229.16 286.18 229.16 286.024C229.16 284.344 227.984 282.856 226.172 282.856C224.3 282.856 223.028 284.236 223.028 286.012C223.028 287.812 224.312 289.168 226.244 289.168C227.444 289.168 228.356 288.628 228.884 287.812L227.996 287.308C227.696 287.8 227.096 288.184 226.268 288.184C225.152 288.184 224.3 287.572 224.096 286.492ZM226.172 283.84C227.072 283.84 227.924 284.392 228.104 285.58H224.096C224.264 284.536 225.044 283.84 226.172 283.84ZM233.848 284.02V283.012H232.252V281.332L231.208 281.644V283.012H230.02V284.02H231.208V287.272C231.208 288.772 232.048 289.252 233.848 289.012V288.076C232.78 288.124 232.252 288.184 232.252 287.272V284.02H233.848ZM238.472 282.856C237.632 282.856 236.972 283.168 236.528 283.876V280.612H235.484V289.012H236.528V285.832C236.528 284.416 237.308 283.852 238.268 283.852C239.192 283.852 239.756 284.404 239.756 285.388V289.012H240.8V285.328C240.8 283.792 239.876 282.856 238.472 282.856ZM245.478 289.168C247.23 289.168 248.646 287.788 248.646 286.012C248.646 284.236 247.23 282.856 245.478 282.856C243.726 282.856 242.322 284.236 242.322 286.012C242.322 287.788 243.726 289.168 245.478 289.168ZM245.478 288.148C244.29 288.148 243.366 287.224 243.366 286.012C243.366 284.8 244.29 283.876 245.478 283.876C246.678 283.876 247.602 284.8 247.602 286.012C247.602 287.224 246.678 288.148 245.478 288.148ZM255.244 280.612V284.044C254.764 283.312 253.996 282.856 252.976 282.856C251.308 282.856 249.94 284.236 249.94 286.012C249.94 287.788 251.308 289.168 252.976 289.168C253.996 289.168 254.764 288.712 255.244 287.98V289.012H256.288V280.612H255.244ZM253.108 288.16C251.908 288.16 250.984 287.236 250.984 286.012C250.984 284.788 251.908 283.864 253.108 283.864C254.32 283.864 255.244 284.788 255.244 286.012C255.244 287.236 254.32 288.16 253.108 288.16ZM259.158 284.632C259.158 284.092 259.686 283.828 260.226 283.828C260.754 283.828 261.282 284.056 261.51 284.596L262.386 284.104C262.002 283.324 261.21 282.856 260.226 282.856C259.014 282.856 258.102 283.588 258.102 284.644C258.102 286.816 261.462 286.084 261.462 287.368C261.462 287.956 260.91 288.184 260.274 288.184C259.53 288.184 258.978 287.824 258.786 287.248L257.886 287.764C258.234 288.592 259.074 289.168 260.274 289.168C261.558 289.168 262.518 288.484 262.518 287.368C262.518 285.16 259.158 285.916 259.158 284.632Z" fill="#8A8A8A"/>
<path d="M321.531 254.262H320.781L320.781 255.762L321.531 255.762L321.531 254.262ZM321.531 255.762L340.531 255.762V254.262L321.531 254.262L321.531 255.762ZM336.91 251.012C336.91 253.612 338.956 255.762 341.531 255.762V254.262C339.831 254.262 338.41 252.83 338.41 251.012L336.91 251.012ZM341.531 254.262C338.956 254.262 336.91 256.412 336.91 259.012H338.41C338.41 257.193 339.831 255.762 341.531 255.762V254.262Z" fill="#0D0D0D"/>
<line x1="30.5312" y1="309.612" x2="366.531" y2="309.612" stroke="#EFEFEF" stroke-width="0.8"/>
<rect width="311" height="75" transform="translate(30.5312 318.012)" fill="white"/>
<rect x="30.7812" y="334.262" width="27.5" height="27.5" fill="white"/>
<rect width="20" height="20" transform="translate(34.5312 338.012)" fill="white"/>
<path d="M48.0141 349.95L44.5694 353.395C44.5482 353.416 44.5137 353.416 44.4924 353.395L41.0477 349.95C39.124 348.026 39.124 344.907 41.0477 342.984C42.9714 341.06 46.0904 341.06 48.0141 342.984C49.9379 344.907 49.9379 348.026 48.0141 349.95Z" stroke="#0D0D0D" stroke-width="0.5"/>
<rect x="41.3487" y="346.467" width="4.50128" height="4.50128" rx="2.25064" transform="rotate(-45 41.3487 346.467)" stroke="#0D0D0D" stroke-width="0.5"/>
<rect x="30.7812" y="334.262" width="27.5" height="27.5" stroke="#D2D2D2" stroke-width="0.5"/>
<path d="M83.0153 341.83C82.1053 341.83 81.3073 342.222 80.8173 343.02C80.4113 342.264 79.7113 341.83 78.7593 341.83C77.9053 341.83 77.1773 342.166 76.6733 342.95V342.012H75.4552V349.012H76.6733V345.12C76.6733 343.608 77.5273 342.992 78.4653 342.992C79.3753 342.992 79.9493 343.594 79.9493 344.7V349.012H81.1673V345.12C81.1673 343.608 81.9093 342.992 82.8893 342.992C83.8133 342.992 84.4293 343.594 84.4293 344.7V349.012H85.6473V344.658C85.6473 342.908 84.5693 341.83 83.0153 341.83ZM93.5321 342.012V343.216C92.9721 342.362 92.0761 341.83 90.8861 341.83C88.9401 341.83 87.3441 343.44 87.3441 345.512C87.3441 347.584 88.9401 349.194 90.8861 349.194C92.0761 349.194 92.9721 348.662 93.5321 347.808V349.012H94.7501V342.012H93.5321ZM91.0401 348.018C89.6401 348.018 88.5621 346.94 88.5621 345.512C88.5621 344.084 89.6401 343.006 91.0401 343.006C92.4541 343.006 93.5321 344.084 93.5321 345.512C93.5321 346.94 92.4541 348.018 91.0401 348.018ZM100.481 341.83C99.5015 341.83 98.7315 342.194 98.2135 343.02V342.012H96.9955V349.012H98.2135V345.302C98.2135 343.65 99.1235 342.992 100.243 342.992C101.321 342.992 101.979 343.636 101.979 344.784V349.012H103.197V344.714C103.197 342.922 102.119 341.83 100.481 341.83ZM111.094 342.012V343.216C110.534 342.362 109.638 341.83 108.448 341.83C106.502 341.83 104.906 343.44 104.906 345.512C104.906 347.584 106.502 349.194 108.448 349.194C109.638 349.194 110.534 348.662 111.094 347.808V349.012H112.312V342.012H111.094ZM108.602 348.018C107.202 348.018 106.124 346.94 106.124 345.512C106.124 344.084 107.202 343.006 108.602 343.006C110.016 343.006 111.094 344.084 111.094 345.512C111.094 346.94 110.016 348.018 108.602 348.018ZM120.367 342.012V343.216C119.807 342.362 118.911 341.83 117.735 341.83C115.747 341.83 114.165 343.44 114.165 345.47C114.165 347.514 115.747 349.124 117.735 349.124C118.911 349.124 119.807 348.578 120.367 347.724V348.718C120.367 350.034 119.485 350.86 118.029 350.86C116.657 350.86 116.069 350.342 115.747 349.684L114.683 350.286C115.257 351.392 116.433 351.994 118.001 351.994C119.821 351.994 121.571 350.902 121.571 348.718V342.012H120.367ZM117.875 347.962C116.461 347.962 115.383 346.884 115.383 345.47C115.383 344.07 116.461 342.992 117.875 342.992C119.289 342.992 120.367 344.07 120.367 345.47C120.367 346.884 119.289 347.962 117.875 347.962ZM124.671 346.072H130.537C130.565 345.89 130.579 345.708 130.579 345.526C130.579 343.566 129.207 341.83 127.093 341.83C124.909 341.83 123.425 343.44 123.425 345.512C123.425 347.612 124.923 349.194 127.177 349.194C128.577 349.194 129.641 348.564 130.257 347.612L129.221 347.024C128.871 347.598 128.171 348.046 127.205 348.046C125.903 348.046 124.909 347.332 124.671 346.072ZM127.093 342.978C128.143 342.978 129.137 343.622 129.347 345.008H124.671C124.867 343.79 125.777 342.978 127.093 342.978ZM142.075 342.012V343.216C141.515 342.362 140.619 341.83 139.429 341.83C137.483 341.83 135.887 343.44 135.887 345.512C135.887 347.584 137.483 349.194 139.429 349.194C140.619 349.194 141.515 348.662 142.075 347.808V349.012H143.293V342.012H142.075ZM139.583 348.018C138.183 348.018 137.105 346.94 137.105 345.512C137.105 344.084 138.183 343.006 139.583 343.006C140.997 343.006 142.075 344.084 142.075 345.512C142.075 346.94 140.997 348.018 139.583 348.018ZM151.334 339.212V343.216C150.774 342.362 149.878 341.83 148.688 341.83C146.742 341.83 145.146 343.44 145.146 345.512C145.146 347.584 146.742 349.194 148.688 349.194C149.878 349.194 150.774 348.662 151.334 347.808V349.012H152.552V339.212H151.334ZM148.842 348.018C147.442 348.018 146.364 346.94 146.364 345.512C146.364 344.084 147.442 343.006 148.842 343.006C150.256 343.006 151.334 344.084 151.334 345.512C151.334 346.94 150.256 348.018 148.842 348.018ZM160.593 339.212V343.216C160.033 342.362 159.137 341.83 157.947 341.83C156.001 341.83 154.405 343.44 154.405 345.512C154.405 347.584 156.001 349.194 157.947 349.194C159.137 349.194 160.033 348.662 160.593 347.808V349.012H161.811V339.212H160.593ZM158.101 348.018C156.701 348.018 155.623 346.94 155.623 345.512C155.623 344.084 156.701 343.006 158.101 343.006C159.515 343.006 160.593 344.084 160.593 345.512C160.593 346.94 159.515 348.018 158.101 348.018ZM165.275 343.188V342.012H164.057V349.012H165.275V345.302C165.275 343.65 166.409 343.118 167.459 343.16V341.886C166.577 341.886 165.723 342.208 165.275 343.188ZM169.522 346.072H175.388C175.416 345.89 175.43 345.708 175.43 345.526C175.43 343.566 174.058 341.83 171.944 341.83C169.76 341.83 168.276 343.44 168.276 345.512C168.276 347.612 169.774 349.194 172.028 349.194C173.428 349.194 174.492 348.564 175.108 347.612L174.072 347.024C173.722 347.598 173.022 348.046 172.056 348.046C170.754 348.046 169.76 347.332 169.522 346.072ZM171.944 342.978C172.994 342.978 173.988 343.622 174.198 345.008H169.522C169.718 343.79 170.628 342.978 171.944 342.978ZM178.006 343.902C178.006 343.272 178.622 342.964 179.252 342.964C179.868 342.964 180.484 343.23 180.75 343.86L181.772 343.286C181.324 342.376 180.4 341.83 179.252 341.83C177.838 341.83 176.774 342.684 176.774 343.916C176.774 346.45 180.694 345.596 180.694 347.094C180.694 347.78 180.05 348.046 179.308 348.046C178.44 348.046 177.796 347.626 177.572 346.954L176.522 347.556C176.928 348.522 177.908 349.194 179.308 349.194C180.806 349.194 181.926 348.396 181.926 347.094C181.926 344.518 178.006 345.4 178.006 343.902ZM184.381 343.902C184.381 343.272 184.997 342.964 185.627 342.964C186.243 342.964 186.859 343.23 187.125 343.86L188.147 343.286C187.699 342.376 186.775 341.83 185.627 341.83C184.213 341.83 183.149 342.684 183.149 343.916C183.149 346.45 187.069 345.596 187.069 347.094C187.069 347.78 186.425 348.046 185.683 348.046C184.815 348.046 184.171 347.626 183.947 346.954L182.897 347.556C183.303 348.522 184.283 349.194 185.683 349.194C187.181 349.194 188.301 348.396 188.301 347.094C188.301 344.518 184.381 345.4 184.381 343.902ZM190.806 346.072H196.672C196.7 345.89 196.714 345.708 196.714 345.526C196.714 343.566 195.342 341.83 193.228 341.83C191.044 341.83 189.56 343.44 189.56 345.512C189.56 347.612 191.058 349.194 193.312 349.194C194.712 349.194 195.776 348.564 196.392 347.612L195.356 347.024C195.006 347.598 194.306 348.046 193.34 348.046C192.038 348.046 191.044 347.332 190.806 346.072ZM193.228 342.978C194.278 342.978 195.272 343.622 195.482 345.008H190.806C191.002 343.79 191.912 342.978 193.228 342.978ZM199.29 343.902C199.29 343.272 199.906 342.964 200.536 342.964C201.152 342.964 201.768 343.23 202.034 343.86L203.056 343.286C202.608 342.376 201.684 341.83 200.536 341.83C199.122 341.83 198.058 342.684 198.058 343.916C198.058 346.45 201.978 345.596 201.978 347.094C201.978 347.78 201.334 348.046 200.592 348.046C199.724 348.046 199.08 347.626 198.856 346.954L197.806 347.556C198.212 348.522 199.192 349.194 200.592 349.194C202.09 349.194 203.21 348.396 203.21 347.094C203.21 344.518 199.29 345.4 199.29 343.902Z" fill="#0D0D0D"/>
<path d="M80.2913 366.012V367.044C79.8113 366.312 79.0433 365.856 78.0233 365.856C76.3553 365.856 74.9873 367.236 74.9873 369.012C74.9873 370.788 76.3553 372.168 78.0233 372.168C79.0433 372.168 79.8113 371.712 80.2913 370.98V372.012H81.3353V366.012H80.2913ZM78.1553 371.16C76.9553 371.16 76.0312 370.236 76.0312 369.012C76.0312 367.788 76.9553 366.864 78.1553 366.864C79.3673 366.864 80.2913 367.788 80.2913 369.012C80.2913 370.236 79.3673 371.16 78.1553 371.16ZM83.317 372.012H84.361V363.252H83.317V372.012ZM86.3537 372.012H87.3977V363.252H86.3537V372.012ZM96.9784 366.012L95.2504 370.716L93.2104 366.012H92.0944L94.7104 371.988L94.6024 372.216C94.2904 373.008 93.7864 373.5 92.9824 373.44V374.412C94.2064 374.496 95.1424 373.728 95.6464 372.384L98.0944 366.012H96.9784ZM101.952 372.168C103.704 372.168 105.12 370.788 105.12 369.012C105.12 367.236 103.704 365.856 101.952 365.856C100.2 365.856 98.7958 367.236 98.7958 369.012C98.7958 370.788 100.2 372.168 101.952 372.168ZM101.952 371.148C100.764 371.148 99.8398 370.224 99.8398 369.012C99.8398 367.8 100.764 366.876 101.952 366.876C103.152 366.876 104.076 367.8 104.076 369.012C104.076 370.224 103.152 371.148 101.952 371.148ZM110.891 366.012V369.192C110.891 370.608 110.111 371.172 109.151 371.172C108.227 371.172 107.663 370.62 107.663 369.636V366.012H106.619V369.696C106.619 371.232 107.543 372.168 108.947 372.168C109.787 372.168 110.447 371.856 110.891 371.148V372.012H111.935V366.012H110.891ZM114.968 367.02V366.012H113.924V372.012H114.968V368.832C114.968 367.416 115.94 366.96 116.84 366.996V365.904C116.084 365.904 115.352 366.18 114.968 367.02ZM126.63 366.012V367.044C126.15 366.312 125.382 365.856 124.362 365.856C122.694 365.856 121.326 367.236 121.326 369.012C121.326 370.788 122.694 372.168 124.362 372.168C125.382 372.168 126.15 371.712 126.63 370.98V372.012H127.674V366.012H126.63ZM124.494 371.16C123.294 371.16 122.37 370.236 122.37 369.012C122.37 367.788 123.294 366.864 124.494 366.864C125.706 366.864 126.63 367.788 126.63 369.012C126.63 370.236 125.706 371.16 124.494 371.16ZM134.623 363.612V367.044C134.143 366.312 133.375 365.856 132.355 365.856C130.687 365.856 129.319 367.236 129.319 369.012C129.319 370.788 130.687 372.168 132.355 372.168C133.375 372.168 134.143 371.712 134.623 370.98V372.012H135.667V363.612H134.623ZM132.487 371.16C131.287 371.16 130.363 370.236 130.363 369.012C130.363 367.788 131.287 366.864 132.487 366.864C133.699 366.864 134.623 367.788 134.623 369.012C134.623 370.236 133.699 371.16 132.487 371.16ZM142.617 363.612V367.044C142.137 366.312 141.369 365.856 140.349 365.856C138.681 365.856 137.313 367.236 137.313 369.012C137.313 370.788 138.681 372.168 140.349 372.168C141.369 372.168 142.137 371.712 142.617 370.98V372.012H143.661V363.612H142.617ZM140.481 371.16C139.281 371.16 138.357 370.236 138.357 369.012C138.357 367.788 139.281 366.864 140.481 366.864C141.693 366.864 142.617 367.788 142.617 369.012C142.617 370.236 141.693 371.16 140.481 371.16ZM146.687 367.02V366.012H145.643V372.012H146.687V368.832C146.687 367.416 147.659 366.96 148.559 366.996V365.904C147.803 365.904 147.071 366.18 146.687 367.02ZM150.384 369.492H155.412C155.436 369.336 155.448 369.18 155.448 369.024C155.448 367.344 154.272 365.856 152.46 365.856C150.588 365.856 149.316 367.236 149.316 369.012C149.316 370.812 150.6 372.168 152.532 372.168C153.732 372.168 154.644 371.628 155.172 370.812L154.284 370.308C153.984 370.8 153.384 371.184 152.556 371.184C151.44 371.184 150.588 370.572 150.384 369.492ZM152.46 366.84C153.36 366.84 154.212 367.392 154.392 368.58H150.384C150.552 367.536 151.332 366.84 152.46 366.84ZM157.714 367.632C157.714 367.092 158.242 366.828 158.782 366.828C159.31 366.828 159.838 367.056 160.066 367.596L160.942 367.104C160.558 366.324 159.766 365.856 158.782 365.856C157.57 365.856 156.658 366.588 156.658 367.644C156.658 369.816 160.018 369.084 160.018 370.368C160.018 370.956 159.466 371.184 158.83 371.184C158.086 371.184 157.534 370.824 157.342 370.248L156.442 370.764C156.79 371.592 157.63 372.168 158.83 372.168C160.114 372.168 161.074 371.484 161.074 370.368C161.074 368.16 157.714 368.916 157.714 367.632ZM163.235 367.632C163.235 367.092 163.763 366.828 164.303 366.828C164.831 366.828 165.359 367.056 165.587 367.596L166.463 367.104C166.079 366.324 165.287 365.856 164.303 365.856C163.091 365.856 162.179 366.588 162.179 367.644C162.179 369.816 165.539 369.084 165.539 370.368C165.539 370.956 164.987 371.184 164.351 371.184C163.607 371.184 163.055 370.824 162.863 370.248L161.963 370.764C162.311 371.592 163.151 372.168 164.351 372.168C165.635 372.168 166.595 371.484 166.595 370.368C166.595 368.16 163.235 368.916 163.235 367.632ZM168.799 369.492H173.827C173.851 369.336 173.863 369.18 173.863 369.024C173.863 367.344 172.687 365.856 170.875 365.856C169.003 365.856 167.731 367.236 167.731 369.012C167.731 370.812 169.015 372.168 170.947 372.168C172.147 372.168 173.059 371.628 173.587 370.812L172.699 370.308C172.399 370.8 171.799 371.184 170.971 371.184C169.855 371.184 169.003 370.572 168.799 369.492ZM170.875 366.84C171.775 366.84 172.627 367.392 172.807 368.58H168.799C168.967 367.536 169.747 366.84 170.875 366.84ZM176.129 367.632C176.129 367.092 176.657 366.828 177.197 366.828C177.725 366.828 178.253 367.056 178.481 367.596L179.357 367.104C178.973 366.324 178.181 365.856 177.197 365.856C175.985 365.856 175.073 366.588 175.073 367.644C175.073 369.816 178.433 369.084 178.433 370.368C178.433 370.956 177.881 371.184 177.245 371.184C176.501 371.184 175.949 370.824 175.757 370.248L174.857 370.764C175.205 371.592 176.045 372.168 177.245 372.168C178.529 372.168 179.489 371.484 179.489 370.368C179.489 368.16 176.129 368.916 176.129 367.632ZM187.513 365.856C186.673 365.856 186.013 366.168 185.569 366.876V363.612H184.525V372.012H185.569V368.832C185.569 367.416 186.349 366.852 187.309 366.852C188.233 366.852 188.797 367.404 188.797 368.388V372.012H189.841V368.328C189.841 366.792 188.917 365.856 187.513 365.856ZM192.43 369.492H197.458C197.482 369.336 197.494 369.18 197.494 369.024C197.494 367.344 196.318 365.856 194.506 365.856C192.634 365.856 191.362 367.236 191.362 369.012C191.362 370.812 192.646 372.168 194.578 372.168C195.778 372.168 196.69 371.628 197.218 370.812L196.33 370.308C196.03 370.8 195.43 371.184 194.602 371.184C193.486 371.184 192.634 370.572 192.43 369.492ZM194.506 366.84C195.406 366.84 196.258 367.392 196.438 368.58H192.43C192.598 367.536 193.378 366.84 194.506 366.84ZM200.138 367.02V366.012H199.094V372.012H200.138V368.832C200.138 367.416 201.11 366.96 202.01 366.996V365.904C201.254 365.904 200.522 366.18 200.138 367.02ZM203.836 369.492H208.864C208.888 369.336 208.9 369.18 208.9 369.024C208.9 367.344 207.724 365.856 205.912 365.856C204.04 365.856 202.768 367.236 202.768 369.012C202.768 370.812 204.052 372.168 205.984 372.168C207.184 372.168 208.096 371.628 208.624 370.812L207.736 370.308C207.436 370.8 206.836 371.184 206.008 371.184C204.892 371.184 204.04 370.572 203.836 369.492ZM205.912 366.84C206.812 366.84 207.664 367.392 207.844 368.58H203.836C204.004 367.536 204.784 366.84 205.912 366.84Z" fill="#8A8A8A"/>
<path d="M321.531 337.262H320.781L320.781 338.762L321.531 338.762L321.531 337.262ZM321.531 338.762L340.531 338.762V337.262L321.531 337.262L321.531 338.762ZM336.91 334.012C336.91 336.612 338.956 338.762 341.531 338.762V337.262C339.831 337.262 338.41 335.83 338.41 334.012L336.91 334.012ZM341.531 337.262C338.956 337.262 336.91 339.412 336.91 342.012H338.41C338.41 340.193 339.831 338.762 341.531 338.762V337.262Z" fill="#0D0D0D"/>
<line x1="30.5312" y1="392.612" x2="366.531" y2="392.612" stroke="#EFEFEF" stroke-width="0.8"/>
<rect width="311" height="60" transform="translate(30.5312 401.012)" fill="white"/>
<rect x="30.7812" y="417.262" width="27.5" height="27.5" fill="white"/>
<rect width="20" height="20" transform="translate(34.5312 421.012)" fill="white"/>
<path d="M49.515 430.375V430.109H50.015V430.375H49.515ZM39.543 430.109V430.375H39.043V430.109H39.543ZM44.529 425.123C41.7753 425.123 39.543 427.355 39.543 430.109H39.043C39.043 427.079 41.4991 424.623 44.529 424.623V425.123ZM49.515 430.109C49.515 427.355 47.2827 425.123 44.529 425.123V424.623C47.5588 424.623 50.015 427.079 50.015 430.109H49.515Z" fill="#0D0D0D"/>
<path d="M46.0742 436.276L46.1254 436.276L46.1254 436.776L46.0742 436.776L46.0742 436.276ZM46.1254 436.276C48.3336 436.276 50.1236 434.485 50.1236 432.277L50.6236 432.277C50.6236 434.762 48.6097 436.776 46.1254 436.776L46.1254 436.276Z" fill="#0D0D0D"/>
<path d="M47.0146 434.498L47.0146 429.511L47.8961 429.511C49.2731 429.511 50.3895 430.628 50.3895 432.005C50.3895 433.382 49.2731 434.498 47.8961 434.498L47.0146 434.498Z" stroke="#0D0D0D" stroke-width="0.5"/>
<path d="M42.0479 434.498L42.0479 429.511L41.1664 429.511C39.7894 429.511 38.673 430.628 38.673 432.005C38.673 433.382 39.7894 434.498 41.1664 434.498L42.0479 434.498Z" stroke="#0D0D0D" stroke-width="0.5"/>
<path d="M45.874 436.898L42.975 436.898L42.975 436.448C42.975 435.647 43.624 434.998 44.4245 434.998C45.2251 434.998 45.874 435.647 45.874 436.448L45.874 436.898Z" stroke="#0D0D0D" stroke-width="0.5"/>
<rect x="30.7812" y="417.262" width="27.5" height="27.5" stroke="#D2D2D2" stroke-width="0.5"/>
<path d="M76.5053 426.902C76.5053 426.272 77.1213 425.964 77.7513 425.964C78.3673 425.964 78.9833 426.23 79.2493 426.86L80.2713 426.286C79.8233 425.376 78.8993 424.83 77.7513 424.83C76.3373 424.83 75.2733 425.684 75.2733 426.916C75.2733 429.45 79.1933 428.596 79.1933 430.094C79.1933 430.78 78.5493 431.046 77.8073 431.046C76.9393 431.046 76.2953 430.626 76.0713 429.954L75.0213 430.556C75.4273 431.522 76.4073 432.194 77.8073 432.194C79.3053 432.194 80.4253 431.396 80.4253 430.094C80.4253 427.518 76.5053 428.4 76.5053 426.902ZM87.029 425.012V428.722C87.029 430.374 86.119 431.032 84.999 431.032C83.921 431.032 83.263 430.388 83.263 429.24V425.012H82.045V429.31C82.045 431.102 83.123 432.194 84.761 432.194C85.741 432.194 86.511 431.83 87.029 431.004V432.012H88.247V425.012H87.029ZM94.3653 424.83C93.1753 424.83 92.2793 425.362 91.7193 426.216V425.012H90.5013V434.812H91.7193V430.808C92.2793 431.662 93.1753 432.194 94.3653 432.194C96.3113 432.194 97.9073 430.584 97.9073 428.512C97.9073 426.44 96.3113 424.83 94.3653 424.83ZM94.2113 431.018C92.7973 431.018 91.7193 429.94 91.7193 428.512C91.7193 427.084 92.7973 426.006 94.2113 426.006C95.6113 426.006 96.6893 427.084 96.6893 428.512C96.6893 429.94 95.6113 431.018 94.2113 431.018ZM103.625 424.83C102.435 424.83 101.539 425.362 100.979 426.216V425.012H99.7607V434.812H100.979V430.808C101.539 431.662 102.435 432.194 103.625 432.194C105.571 432.194 107.167 430.584 107.167 428.512C107.167 426.44 105.571 424.83 103.625 424.83ZM103.471 431.018C102.057 431.018 100.979 429.94 100.979 428.512C100.979 427.084 102.057 426.006 103.471 426.006C104.871 426.006 105.949 427.084 105.949 428.512C105.949 429.94 104.871 431.018 103.471 431.018ZM112.31 432.194C114.354 432.194 116.006 430.584 116.006 428.512C116.006 426.44 114.354 424.83 112.31 424.83C110.266 424.83 108.628 426.44 108.628 428.512C108.628 430.584 110.266 432.194 112.31 432.194ZM112.31 431.004C110.924 431.004 109.846 429.926 109.846 428.512C109.846 427.098 110.924 426.02 112.31 426.02C113.71 426.02 114.788 427.098 114.788 428.512C114.788 429.926 113.71 431.004 112.31 431.004ZM119.06 426.188V425.012H117.842V432.012H119.06V428.302C119.06 426.65 120.194 426.118 121.244 426.16V424.886C120.362 424.886 119.508 425.208 119.06 426.188ZM126.808 426.188V425.012H124.946V423.052L123.728 423.416V425.012H122.342V426.188H123.728V429.982C123.728 431.732 124.708 432.292 126.808 432.012V430.92C125.562 430.976 124.946 431.046 124.946 429.982V426.188H126.808Z" fill="#0D0D0D"/>
<path d="M321.531 420.262H320.781L320.781 421.762L321.531 421.762L321.531 420.262ZM321.531 421.762L340.531 421.762V420.262L321.531 420.262L321.531 421.762ZM336.91 417.012C336.91 419.612 338.956 421.762 341.531 421.762V420.262C339.831 420.262 338.41 418.83 338.41 417.012L336.91 417.012ZM341.531 420.262C338.956 420.262 336.91 422.412 336.91 425.012H338.41C338.41 423.193 339.831 421.762 341.531 421.762V420.262Z" fill="#0D0D0D"/>
<line x1="30.5312" y1="460.612" x2="366.531" y2="460.612" stroke="#EFEFEF" stroke-width="0.8"/>
<rect width="311" height="60" transform="translate(30.5312 469.012)" fill="white"/>
<rect x="30.7812" y="485.262" width="27.5" height="27.5" fill="white"/>
<rect width="20" height="20" transform="translate(34.5312 489.012)" fill="white"/>
<path d="M51.3124 499.012C51.3124 502.757 48.2763 505.793 44.5312 505.793C40.786 505.793 37.75 502.757 37.75 499.012C37.75 495.267 40.786 492.23 44.5312 492.23C48.2763 492.23 51.3124 495.267 51.3124 499.012Z" stroke="#0D0D0D" stroke-width="0.5" stroke-linejoin="round"/>
<path d="M43.8809 502.508V498.143H45.1809V502.508H43.8809Z" stroke="#0D0D0D" stroke-width="0.5"/>
<path d="M43.8809 496.775V495.516H45.1809V496.775H43.8809Z" stroke="#0D0D0D" stroke-width="0.5"/>
<rect x="30.7812" y="485.262" width="27.5" height="27.5" stroke="#D2D2D2" stroke-width="0.5"/>
<path d="M81.2513 493.012V494.216C80.6913 493.362 79.7953 492.83 78.6053 492.83C76.6593 492.83 75.0633 494.44 75.0633 496.512C75.0633 498.584 76.6593 500.194 78.6053 500.194C79.7953 500.194 80.6913 499.662 81.2513 498.808V500.012H82.4693V493.012H81.2513ZM78.7593 499.018C77.3593 499.018 76.2812 497.94 76.2812 496.512C76.2812 495.084 77.3593 494.006 78.7593 494.006C80.1733 494.006 81.2513 495.084 81.2513 496.512C81.2513 497.94 80.1733 499.018 78.7593 499.018ZM88.5786 492.83C87.3886 492.83 86.4926 493.362 85.9326 494.216V490.212H84.7146V500.012H85.9326V498.808C86.4926 499.662 87.3886 500.194 88.5786 500.194C90.5246 500.194 92.1206 498.584 92.1206 496.512C92.1206 494.44 90.5246 492.83 88.5786 492.83ZM88.4246 499.018C87.0106 499.018 85.9326 497.94 85.9326 496.512C85.9326 495.084 87.0106 494.006 88.4246 494.006C89.8246 494.006 90.9026 495.084 90.9026 496.512C90.9026 497.94 89.8246 499.018 88.4246 499.018ZM97.264 500.194C99.308 500.194 100.96 498.584 100.96 496.512C100.96 494.44 99.308 492.83 97.264 492.83C95.22 492.83 93.582 494.44 93.582 496.512C93.582 498.584 95.22 500.194 97.264 500.194ZM97.264 499.004C95.878 499.004 94.8 497.926 94.8 496.512C94.8 495.098 95.878 494.02 97.264 494.02C98.664 494.02 99.742 495.098 99.742 496.512C99.742 497.926 98.664 499.004 97.264 499.004ZM107.626 493.012V496.722C107.626 498.374 106.716 499.032 105.596 499.032C104.518 499.032 103.86 498.388 103.86 497.24V493.012H102.642V497.31C102.642 499.102 103.72 500.194 105.358 500.194C106.338 500.194 107.108 499.83 107.626 499.004V500.012H108.844V493.012H107.626ZM114.906 494.188V493.012H113.044V491.052L111.826 491.416V493.012H110.44V494.188H111.826V497.982C111.826 499.732 112.806 500.292 114.906 500.012V498.92C113.66 498.976 113.044 499.046 113.044 497.982V494.188H114.906Z" fill="#0D0D0D"/>
<path d="M321.531 488.262H320.781L320.781 489.762L321.531 489.762L321.531 488.262ZM321.531 489.762L340.531 489.762V488.262L321.531 488.262L321.531 489.762ZM336.91 485.012C336.91 487.612 338.956 489.762 341.531 489.762V488.262C339.831 488.262 338.41 486.83 338.41 485.012L336.91 485.012ZM341.531 488.262C338.956 488.262 336.91 490.412 336.91 493.012H338.41C338.41 491.193 339.831 489.762 341.531 489.762V488.262Z" fill="#0D0D0D"/>
<line x1="30.5312" y1="528.612" x2="366.531" y2="528.612" stroke="#EFEFEF" stroke-width="0.8"/>
<path d="M0.53125 21.0117L4.53125 18.0117L4.53124 21.0117L0.53125 21.0117Z" fill="#E0E0E0"/>
<rect x="4.53125" y="18.0117" width="363" height="3" fill="#E0E0E0"/>
<path d="M367.531 21.0117V18.0117L371.531 21.0115L367.531 21.0117Z" fill="#E0E0E0"/>
</svg>
