<svg width="60" height="77" viewBox="0 0 60 77" fill="none" xmlns="http://www.w3.org/2000/svg">
<rect width="60" height="77" fill="#0D0D0D"/>
<path fill-rule="evenodd" clip-rule="evenodd" d="M21.1 27.5053L25.25 31L30 27L34.75 31L38.9 27.5053L39.5 27V27.7844V35.7V36.3V40.4V41H38.9H21.1H20.5V40.4V36.3V35.7V27.7844V27L21.1 27.5053ZM21.1 36.3V40.4H38.9V36.3H21.1ZM38.9 35.7H21.1V28.2897L24.8635 31.4589L25.25 31.7844L25.6365 31.4589L30 27.7844L34.3635 31.4589L34.75 31.7844L35.1365 31.4589L38.9 28.2897V35.7Z" fill="#8A8A8A"/>
<path d="M10.683 51.424H10.083L11.2287 51.6735L10.683 51.424ZM10.683 50.5H11.283V49.9H10.683V50.5ZM9.726 50.5V49.9H9.126V50.5H9.726ZM9.726 56H9.126V56.6H9.726V56ZM10.683 56V56.6H11.283V56H10.683ZM12.399 51.402L12.375 52.0015L12.999 52.0265V51.402H12.399ZM12.399 50.401H12.999V49.801H12.399V50.401ZM11.283 51.424V50.5H10.083V51.424H11.283ZM10.683 49.9H9.726V51.1H10.683V49.9ZM9.126 50.5V56H10.326V50.5H9.126ZM9.726 56.6H10.683V55.4H9.726V56.6ZM11.283 56V53.085H10.083V56H11.283ZM11.283 53.085C11.283 52.5852 11.447 52.3414 11.6081 52.2115C11.7893 52.0655 12.0611 51.989 12.375 52.0015L12.423 50.8025C11.9119 50.782 11.3257 50.898 10.8551 51.2772C10.3645 51.6726 10.083 52.2868 10.083 53.085H11.283ZM12.999 51.402V50.401H11.799V51.402H12.999ZM12.399 49.801C11.552 49.801 10.6166 50.1261 10.1373 51.1745L11.2287 51.6735C11.4534 51.1819 11.86 51.001 12.399 51.001V49.801ZM13.9056 53.69V53.09H13.1817L13.316 53.8014L13.9056 53.69ZM18.5146 53.69V54.29H19.0293L19.1076 53.7812L18.5146 53.69ZM18.2946 54.9L18.7983 55.226L19.1438 54.6921L18.5908 54.3782L18.2946 54.9ZM17.4806 54.438L17.7768 53.9162L17.271 53.6292L16.9683 54.1256L17.4806 54.438ZM17.5796 52.854V53.454H18.2774L18.1728 52.7641L17.5796 52.854ZM13.9056 52.854L13.3132 52.7587L13.2013 53.454H13.9056V52.854ZM13.9056 54.29H18.5146V53.09H13.9056V54.29ZM19.1076 53.7812C19.1342 53.6084 19.1476 53.4349 19.1476 53.261H17.9476C17.9476 53.3731 17.939 53.4856 17.9216 53.5988L19.1076 53.7812ZM19.1476 53.261C19.1476 51.4544 17.8622 49.757 15.8086 49.757V50.957C17.077 50.957 17.9476 51.9876 17.9476 53.261H19.1476ZM15.8086 49.757C13.7462 49.757 12.3266 51.3059 12.3266 53.25H13.5266C13.5266 51.9381 14.439 50.957 15.8086 50.957V49.757ZM12.3266 53.25C12.3266 54.2206 12.6748 55.1004 13.3116 55.7389C13.9496 56.3786 14.8441 56.743 15.8746 56.743V55.543C15.1341 55.543 14.5546 55.2859 14.1613 54.8916C13.7669 54.4961 13.5266 53.9294 13.5266 53.25H12.3266ZM15.8746 56.743C17.1708 56.743 18.1999 56.1509 18.7983 55.226L17.7909 54.574C17.4213 55.1451 16.7783 55.543 15.8746 55.543V56.743ZM18.5908 54.3782L17.7768 53.9162L17.1844 54.9598L17.9984 55.4218L18.5908 54.3782ZM16.9683 54.1256C16.8096 54.386 16.4608 54.641 15.8966 54.641V55.841C16.8504 55.841 17.6016 55.392 17.9929 54.7504L16.9683 54.1256ZM15.8966 54.641C15.4941 54.641 15.1767 54.5313 14.9512 54.3595C14.7302 54.1911 14.563 53.9375 14.4952 53.5786L13.316 53.8014C13.4352 54.4325 13.752 54.9544 14.224 55.314C14.6914 55.6702 15.2761 55.841 15.8966 55.841V54.641ZM15.8086 51.859C16.0996 51.859 16.3615 51.9478 16.5602 52.1113C16.7539 52.2707 16.9238 52.5308 16.9864 52.9439L18.1728 52.7641C18.0704 52.0882 17.7673 51.5508 17.3229 51.1849C16.8836 50.8232 16.3426 50.659 15.8086 50.659V51.859ZM17.5796 52.254H13.9056V53.454H17.5796V52.254ZM14.498 52.9493C14.5548 52.5965 14.7087 52.3314 14.9165 52.1541C15.1236 51.9774 15.4184 51.859 15.8086 51.859V50.659C15.1648 50.659 14.5851 50.8596 14.1377 51.2411C13.691 51.6221 13.4104 52.1545 13.3132 52.7587L14.498 52.9493ZM26.1118 50.5V49.9H25.6606L25.5354 50.3336L26.1118 50.5ZM24.9018 54.691L24.3287 54.8685L24.922 56.7842L25.4783 54.8574L24.9018 54.691ZM23.6038 50.5L24.177 50.3225L24.0461 49.9H23.6038V50.5ZM22.6798 50.5V49.9H22.2379L22.1068 50.3221L22.6798 50.5ZM21.3818 54.68L20.8055 54.8468L21.3617 56.7682L21.9548 54.8579L21.3818 54.68ZM20.1718 50.5L20.7482 50.3332L20.6228 49.9H20.1718V50.5ZM19.1708 50.5V49.9H18.3567L18.5977 50.6777L19.1708 50.5ZM20.8758 56L20.3027 56.1777L20.4337 56.6H20.8758V56ZM21.8548 56V56.6H22.2944L22.4269 56.1809L21.8548 56ZM23.1418 51.93L23.7139 51.7491L23.1418 49.94L22.5698 51.7491L23.1418 51.93ZM24.4288 56L23.8568 56.1809L23.9893 56.6H24.4288V56ZM25.4078 56V56.6H25.85L25.9809 56.1777L25.4078 56ZM27.1128 50.5L27.6859 50.6777L27.927 49.9H27.1128V50.5ZM25.5354 50.3336L24.3254 54.5246L25.4783 54.8574L26.6883 50.6664L25.5354 50.3336ZM25.475 54.5135L24.177 50.3225L23.0307 50.6775L24.3287 54.8685L25.475 54.5135ZM23.6038 49.9H22.6798V51.1H23.6038V49.9ZM22.1068 50.3221L20.8088 54.5021L21.9548 54.8579L23.2528 50.6779L22.1068 50.3221ZM21.9582 54.5132L20.7482 50.3332L19.5955 50.6668L20.8055 54.8468L21.9582 54.5132ZM20.1718 49.9H19.1708V51.1H20.1718V49.9ZM18.5977 50.6777L20.3027 56.1777L21.4489 55.8223L19.7439 50.3223L18.5977 50.6777ZM20.8758 56.6H21.8548V55.4H20.8758V56.6ZM22.4269 56.1809L23.7139 52.1109L22.5698 51.7491L21.2828 55.8191L22.4269 56.1809ZM22.5698 52.1109L23.8568 56.1809L25.0009 55.8191L23.7139 51.7491L22.5698 52.1109ZM24.4288 56.6H25.4078V55.4H24.4288V56.6ZM25.9809 56.1777L27.6859 50.6777L26.5397 50.3223L24.8347 55.8223L25.9809 56.1777ZM27.1128 49.9H26.1118V51.1H27.1128V49.9ZM32.6368 50.5V49.9H32.0368V50.5H32.6368ZM32.6368 51.446L32.1351 51.775L33.2368 53.4552V51.446H32.6368ZM32.6368 55.054H33.2368V53.0448L32.1351 54.725L32.6368 55.054ZM32.6368 56H32.0368V56.6H32.6368V56ZM33.5938 56V56.6H34.1938V56H33.5938ZM33.5938 50.5H34.1938V49.9H33.5938V50.5ZM32.0368 50.5V51.446H33.2368V50.5H32.0368ZM33.1386 51.117C32.5882 50.2777 31.6961 49.757 30.5578 49.757V50.957C31.2896 50.957 31.8054 51.2723 32.1351 51.775L33.1386 51.117ZM30.5578 49.757C28.6809 49.757 27.1748 51.3075 27.1748 53.25H28.3748C28.3748 51.9365 29.3768 50.957 30.5578 50.957V49.757ZM27.1748 53.25C27.1748 55.1925 28.6809 56.743 30.5578 56.743V55.543C29.3768 55.543 28.3748 54.5635 28.3748 53.25H27.1748ZM30.5578 56.743C31.6961 56.743 32.5882 56.2223 33.1386 55.383L32.1351 54.725C31.8054 55.2277 31.2896 55.543 30.5578 55.543V56.743ZM32.0368 55.054V56H33.2368V55.054H32.0368ZM32.6368 56.6H33.5938V55.4H32.6368V56.6ZM34.1938 56V50.5H32.9938V56H34.1938ZM33.5938 49.9H32.6368V51.1H33.5938V49.9ZM30.6788 54.619C29.9146 54.619 29.3318 54.0451 29.3318 53.25H28.1318C28.1318 54.6989 29.243 55.819 30.6788 55.819V54.619ZM29.3318 53.25C29.3318 52.4549 29.9146 51.881 30.6788 51.881V50.681C29.243 50.681 28.1318 51.8011 28.1318 53.25H29.3318ZM30.6788 51.881C31.4563 51.881 32.0368 52.4572 32.0368 53.25H33.2368C33.2368 51.7988 32.1234 50.681 30.6788 50.681V51.881ZM32.0368 53.25C32.0368 54.0428 31.4563 54.619 30.6788 54.619V55.819C32.1234 55.819 33.2368 54.7012 33.2368 53.25H32.0368ZM36.2008 51.424H35.6008L36.7465 51.6735L36.2008 51.424ZM36.2008 50.5H36.8008V49.9H36.2008V50.5ZM35.2438 50.5V49.9H34.6438V50.5H35.2438ZM35.2438 56H34.6438V56.6H35.2438V56ZM36.2008 56V56.6H36.8008V56H36.2008ZM37.9168 51.402L37.8928 52.0015L38.5168 52.0265V51.402H37.9168ZM37.9168 50.401H38.5168V49.801H37.9168V50.401ZM36.8008 51.424V50.5H35.6008V51.424H36.8008ZM36.2008 49.9H35.2438V51.1H36.2008V49.9ZM34.6438 50.5V56H35.8438V50.5H34.6438ZM35.2438 56.6H36.2008V55.4H35.2438V56.6ZM36.8008 56V53.085H35.6008V56H36.8008ZM36.8008 53.085C36.8008 52.5852 36.9647 52.3414 37.1259 52.2115C37.3071 52.0655 37.5789 51.989 37.8928 52.0015L37.9408 50.8025C37.4297 50.782 36.8435 50.898 36.3729 51.2772C35.8823 51.6726 35.6008 52.2868 35.6008 53.085H36.8008ZM38.5168 51.402V50.401H37.3168V51.402H38.5168ZM37.9168 49.801C37.0698 49.801 36.1344 50.1261 35.6551 51.1745L36.7465 51.6735C36.9712 51.1819 37.3778 51.001 37.9168 51.001V49.801ZM43.3064 48.3V47.7H42.7064V48.3H43.3064ZM43.3064 51.446L42.8046 51.775L43.9064 53.4552V51.446H43.3064ZM43.3064 55.054H43.9064V53.0448L42.8046 54.725L43.3064 55.054ZM43.3064 56H42.7064V56.6H43.3064V56ZM44.2634 56V56.6H44.8634V56H44.2634ZM44.2634 48.3H44.8634V47.7H44.2634V48.3ZM42.7064 48.3V51.446H43.9064V48.3H42.7064ZM43.8081 51.117C43.2578 50.2777 42.3656 49.757 41.2274 49.757V50.957C41.9591 50.957 42.475 51.2723 42.8046 51.775L43.8081 51.117ZM41.2274 49.757C39.3504 49.757 37.8444 51.3075 37.8444 53.25H39.0444C39.0444 51.9365 40.0463 50.957 41.2274 50.957V49.757ZM37.8444 53.25C37.8444 55.1925 39.3504 56.743 41.2274 56.743V55.543C40.0463 55.543 39.0444 54.5635 39.0444 53.25H37.8444ZM41.2274 56.743C42.3656 56.743 43.2578 56.2223 43.8081 55.383L42.8046 54.725C42.475 55.2277 41.9591 55.543 41.2274 55.543V56.743ZM42.7064 55.054V56H43.9064V55.054H42.7064ZM43.3064 56.6H44.2634V55.4H43.3064V56.6ZM44.8634 56V48.3H43.6634V56H44.8634ZM44.2634 47.7H43.3064V48.9H44.2634V47.7ZM41.3484 54.619C40.5842 54.619 40.0014 54.0451 40.0014 53.25H38.8014C38.8014 54.6989 39.9126 55.819 41.3484 55.819V54.619ZM40.0014 53.25C40.0014 52.4549 40.5842 51.881 41.3484 51.881V50.681C39.9126 50.681 38.8014 51.8011 38.8014 53.25H40.0014ZM41.3484 51.881C42.1258 51.881 42.7064 52.4572 42.7064 53.25H43.9064C43.9064 51.7988 42.7929 50.681 41.3484 50.681V51.881ZM42.7064 53.25C42.7064 54.0428 42.1258 54.619 41.3484 54.619V55.819C42.7929 55.819 43.9064 54.7012 43.9064 53.25H42.7064ZM48.8836 51.952L48.3308 52.1854L48.592 52.8039L49.1774 52.4751L48.8836 51.952ZM49.6866 51.501L49.9804 52.0241L50.4759 51.7458L50.2249 51.236L49.6866 51.501ZM46.3866 54.383L46.9558 54.1933L46.724 53.4979L46.0881 53.8625L46.3866 54.383ZM45.5616 54.856L45.2631 54.3355L44.8029 54.5994L45.0084 55.0885L45.5616 54.856ZM47.3276 51.985C47.3276 51.9724 47.329 51.9659 47.3296 51.9638C47.3301 51.9618 47.3305 51.961 47.331 51.9603C47.3315 51.9593 47.3385 51.9473 47.3651 51.9295C47.4256 51.8891 47.5458 51.848 47.7066 51.848V50.648C47.3723 50.648 47.003 50.7279 46.6978 50.9322C46.373 51.1495 46.1276 51.5094 46.1276 51.985H47.3276ZM47.7066 51.848C48.034 51.848 48.2447 51.9813 48.3308 52.1854L49.4363 51.7186C49.1045 50.9327 48.3471 50.648 47.7066 50.648V51.848ZM49.1774 52.4751L49.9804 52.0241L49.3927 50.9779L48.5897 51.4289L49.1774 52.4751ZM50.2249 51.236C49.7597 50.2911 48.8081 49.757 47.7066 49.757V50.957C48.409 50.957 48.9095 51.2809 49.1483 51.766L50.2249 51.236ZM47.7066 49.757C46.3737 49.757 45.1596 50.5969 45.1596 51.996H46.3596C46.3596 51.4591 46.8175 50.957 47.7066 50.957V49.757ZM45.1596 51.996C45.1596 52.6796 45.4375 53.1797 45.8616 53.5256C46.2506 53.8428 46.7379 54.0091 47.129 54.125C47.5726 54.2565 47.8703 54.3215 48.1062 54.4307C48.2116 54.4795 48.246 54.5134 48.2518 54.5201C48.2524 54.5207 48.2474 54.5147 48.2431 54.5033C48.2388 54.4918 48.2396 54.4864 48.2396 54.493H49.4396C49.4396 54.1993 49.338 53.9432 49.1626 53.7388C49 53.5492 48.7938 53.4267 48.6104 53.3418C48.2688 53.1836 47.7965 53.0712 47.4701 52.9745C47.0912 52.8622 46.8085 52.7493 46.62 52.5956C46.4666 52.4705 46.3596 52.3079 46.3596 51.996H45.1596ZM48.2396 54.493C48.2396 54.5302 48.232 54.5369 48.2353 54.5313C48.2374 54.5277 48.2337 54.5374 48.205 54.5546C48.1353 54.5965 47.9855 54.641 47.7506 54.641V55.841C48.0986 55.841 48.4934 55.781 48.8224 55.5836C49.1865 55.3651 49.4396 54.9912 49.4396 54.493H48.2396ZM47.7506 54.641C47.2668 54.641 47.0326 54.4237 46.9558 54.1933L45.8174 54.5727C46.0925 55.3983 46.8704 55.841 47.7506 55.841V54.641ZM46.0881 53.8625L45.2631 54.3355L45.86 55.3765L46.685 54.9035L46.0881 53.8625ZM45.0084 55.0885C45.4341 56.1014 46.4448 56.743 47.7506 56.743V55.543C46.8563 55.543 46.327 55.1286 46.1147 54.6235L45.0084 55.0885ZM47.7506 56.743C48.4392 56.743 49.0924 56.5601 49.5881 56.1758C50.0973 55.781 50.4076 55.1956 50.4076 54.493H49.2076C49.2076 54.8134 49.0778 55.053 48.8528 55.2274C48.6142 55.4124 48.2389 55.543 47.7506 55.543V56.743ZM50.4076 54.493C50.4076 53.8049 50.1327 53.3 49.708 52.9498C49.318 52.6283 48.8294 52.4614 48.4371 52.3458C47.9915 52.2145 47.6954 52.1516 47.4585 52.0432C47.3531 51.995 47.3193 51.9617 47.3143 51.9558C47.3141 51.9556 47.3194 51.9621 47.3239 51.974C47.3284 51.986 47.3276 51.9917 47.3276 51.985H46.1276C46.1276 52.2789 46.2293 52.5352 46.4056 52.7396C46.5689 52.9289 46.7757 53.0504 46.9591 53.1344C47.2998 53.2903 47.7736 53.4013 48.098 53.4969C48.4757 53.6082 48.7571 53.7211 48.9446 53.8757C49.0974 54.0017 49.2076 54.1691 49.2076 54.493H50.4076Z" fill="#8A8A8A"/>
</svg>
