<svg width="60" height="77" viewBox="0 0 60 77" fill="none" xmlns="http://www.w3.org/2000/svg">
<rect width="60" height="77" fill="#0D0D0D"/>
<path fill-rule="evenodd" clip-rule="evenodd" d="M29.9997 22.2523C32.725 22.2523 34.9607 24.3494 35.1815 27.0178H24.8179C25.0387 24.3494 27.2743 22.2523 29.9997 22.2523ZM38.3955 27.0178H35.7833C35.5611 24.0177 33.0566 21.6523 29.9997 21.6523C26.9428 21.6523 24.4383 24.0177 24.216 27.0178H21.6044H21.0044V27.6178V30.918V31.518H21.6044H22V31.6178V40.4V41H22.6H37.4H38V40.4V31.6178V31.518H38.3955H38.9955V30.918V27.6178V27.0178H38.3955ZM21.6044 27.6178H38.3955V30.918H21.6044V27.6178ZM22.6 31.6178H37.4V40.4H22.6V31.6178ZM35 37.0178H31V37.5178H35V37.0178Z" fill="#8A8A8A"/>
<path d="M20.707 51.952L20.1543 52.1854L20.4154 52.8039L21.0008 52.4751L20.707 51.952ZM21.51 51.501L21.8038 52.0241L22.2993 51.7458L22.0483 51.236L21.51 51.501ZM18.21 54.383L18.7792 54.1933L18.5474 53.4979L17.9116 53.8625L18.21 54.383ZM17.385 54.856L17.0866 54.3355L16.6263 54.5994L16.8319 55.0885L17.385 54.856ZM19.151 51.985C19.151 51.9724 19.1525 51.9659 19.153 51.9638C19.1536 51.9618 19.154 51.961 19.1544 51.9603C19.1549 51.9593 19.1619 51.9473 19.1886 51.9295C19.249 51.8891 19.3692 51.848 19.53 51.848V50.648C19.1958 50.648 18.8265 50.7279 18.5212 50.9322C18.1964 51.1495 17.951 51.5094 17.951 51.985H19.151ZM19.53 51.848C19.8574 51.848 20.0681 51.9813 20.1543 52.1854L21.2597 51.7186C20.9279 50.9327 20.1706 50.648 19.53 50.648V51.848ZM21.0008 52.4751L21.8038 52.0241L21.2162 50.9779L20.4132 51.4289L21.0008 52.4751ZM22.0483 51.236C21.5831 50.2911 20.6316 49.757 19.53 49.757V50.957C20.2324 50.957 20.7329 51.2809 20.9717 51.766L22.0483 51.236ZM19.53 49.757C18.1971 49.757 16.983 50.5969 16.983 51.996H18.183C18.183 51.4591 18.6409 50.957 19.53 50.957V49.757ZM16.983 51.996C16.983 52.6796 17.2609 53.1797 17.6851 53.5256C18.0741 53.8428 18.5614 54.0091 18.9525 54.125C19.3961 54.2565 19.6938 54.3215 19.9296 54.4307C20.035 54.4795 20.0695 54.5134 20.0752 54.5201C20.0758 54.5207 20.0708 54.5147 20.0665 54.5033C20.0622 54.4918 20.063 54.4864 20.063 54.493H21.263C21.263 54.1993 21.1614 53.9432 20.9861 53.7388C20.8234 53.5492 20.6172 53.4267 20.4339 53.3418C20.0922 53.1836 19.6199 53.0712 19.2935 52.9745C18.9146 52.8622 18.6319 52.7493 18.4434 52.5956C18.2901 52.4705 18.183 52.3079 18.183 51.996H16.983ZM20.063 54.493C20.063 54.5302 20.0554 54.5369 20.0587 54.5313C20.0609 54.5277 20.0572 54.5374 20.0284 54.5546C19.9587 54.5965 19.8089 54.641 19.574 54.641V55.841C19.9221 55.841 20.3168 55.781 20.6458 55.5836C21.0099 55.3651 21.263 54.9912 21.263 54.493H20.063ZM19.574 54.641C19.0902 54.641 18.856 54.4237 18.7792 54.1933L17.6408 54.5727C17.916 55.3983 18.6938 55.841 19.574 55.841V54.641ZM17.9116 53.8625L17.0866 54.3355L17.6834 55.3765L18.5084 54.9035L17.9116 53.8625ZM16.8319 55.0885C17.2576 56.1014 18.2682 56.743 19.574 56.743V55.543C18.6798 55.543 18.1504 55.1286 17.9381 54.6235L16.8319 55.0885ZM19.574 56.743C20.2627 56.743 20.9158 56.5601 21.4115 56.1758C21.9208 55.781 22.231 55.1956 22.231 54.493H21.031C21.031 54.8134 20.9012 55.053 20.6762 55.2274C20.4377 55.4124 20.0623 55.543 19.574 55.543V56.743ZM22.231 54.493C22.231 53.8049 21.9561 53.3 21.5314 52.9498C21.1414 52.6283 20.6528 52.4614 20.2606 52.3458C19.8149 52.2145 19.5188 52.1516 19.282 52.0432C19.1766 51.995 19.1428 51.9617 19.1377 51.9558C19.1375 51.9556 19.1428 51.9621 19.1473 51.974C19.1518 51.986 19.151 51.9917 19.151 51.985H17.951C17.951 52.2789 18.0527 52.5352 18.229 52.7396C18.3923 52.9289 18.5992 53.0504 18.7825 53.1344C19.1232 53.2903 19.5971 53.4013 19.9214 53.4969C20.2992 53.6082 20.5806 53.7211 20.7681 53.8757C20.9209 54.0017 21.031 54.1691 21.031 54.493H22.231ZM23.8674 51.292H23.2674V53.3781L24.3757 51.6108L23.8674 51.292ZM23.8674 48.3H24.4674V47.7H23.8674V48.3ZM22.9104 48.3V47.7H22.3104V48.3H22.9104ZM22.9104 56H22.3104V56.6H22.9104V56ZM23.8674 56V56.6H24.4674V56H23.8674ZM26.8264 56H26.2264V56.6H26.8264V56ZM27.7834 56V56.6H28.3834V56H27.7834ZM25.6494 49.757C24.7034 49.757 23.8911 50.1248 23.3591 50.9732L24.3757 51.6108C24.6576 51.1612 25.0553 50.957 25.6494 50.957V49.757ZM24.4674 51.292V48.3H23.2674V51.292H24.4674ZM23.8674 47.7H22.9104V48.9H23.8674V47.7ZM22.3104 48.3V56H23.5104V48.3H22.3104ZM22.9104 56.6H23.8674V55.4H22.9104V56.6ZM24.4674 56V53.085H23.2674V56H24.4674ZM24.4674 53.085C24.4674 52.5445 24.6143 52.2612 24.7611 52.113C24.909 51.9637 25.1374 51.87 25.4624 51.87V50.67C24.9074 50.67 24.3383 50.8348 23.9086 51.2685C23.4779 51.7033 23.2674 52.3275 23.2674 53.085H24.4674ZM25.4624 51.87C25.7662 51.87 25.9377 51.9583 26.0341 52.0563C26.1315 52.1555 26.2264 52.3403 26.2264 52.678H27.4264C27.4264 52.1137 27.2627 51.5945 26.8899 51.2152C26.516 50.8347 26.0056 50.67 25.4624 50.67V51.87ZM26.2264 52.678V56H27.4264V52.678H26.2264ZM26.8264 56.6H27.7834V55.4H26.8264V56.6ZM28.3834 56V52.623H27.1834V56H28.3834ZM28.3834 52.623C28.3834 51.7988 28.1336 51.0723 27.6331 50.5478C27.1301 50.0206 26.4302 49.757 25.6494 49.757V50.957C26.1555 50.957 26.5227 51.1224 26.7649 51.3762C27.0097 51.6327 27.1834 52.0392 27.1834 52.623H28.3834ZM31.9044 56.743C33.8358 56.743 35.4084 55.2153 35.4084 53.25H34.2084C34.2084 54.5407 33.185 55.543 31.9044 55.543V56.743ZM35.4084 53.25C35.4084 51.2847 33.8358 49.757 31.9044 49.757V50.957C33.185 50.957 34.2084 51.9593 34.2084 53.25H35.4084ZM31.9044 49.757C29.97 49.757 28.4114 51.2876 28.4114 53.25H29.6114C29.6114 51.9564 30.6267 50.957 31.9044 50.957V49.757ZM28.4114 53.25C28.4114 55.2124 29.97 56.743 31.9044 56.743V55.543C30.6267 55.543 29.6114 54.5436 29.6114 53.25H28.4114ZM31.9044 54.608C31.1512 54.608 30.5684 54.0341 30.5684 53.25H29.3684C29.3684 54.6879 30.4795 55.808 31.9044 55.808V54.608ZM30.5684 53.25C30.5684 52.4659 31.1512 51.892 31.9044 51.892V50.692C30.4795 50.692 29.3684 51.8121 29.3684 53.25H30.5684ZM31.9044 51.892C32.6708 51.892 33.2514 52.4681 33.2514 53.25H34.4514C34.4514 51.8099 33.338 50.692 31.9044 50.692V51.892ZM33.2514 53.25C33.2514 54.0319 32.6708 54.608 31.9044 54.608V55.808C33.3379 55.808 34.4514 54.6901 34.4514 53.25H33.2514ZM37.0935 51.446H36.4935V53.4552L37.5953 51.775L37.0935 51.446ZM37.0935 50.5H37.6935V49.9H37.0935V50.5ZM36.1365 50.5V49.9H35.5365V50.5H36.1365ZM36.1365 58.2H35.5365V58.8H36.1365V58.2ZM37.0935 58.2V58.8H37.6935V58.2H37.0935ZM37.0935 55.054L37.5953 54.725L36.4935 53.0448V55.054H37.0935ZM39.1725 49.757C38.0343 49.757 37.1421 50.2777 36.5918 51.117L37.5953 51.775C37.9249 51.2723 38.4408 50.957 39.1725 50.957V49.757ZM37.6935 51.446V50.5H36.4935V51.446H37.6935ZM37.0935 49.9H36.1365V51.1H37.0935V49.9ZM35.5365 50.5V58.2H36.7365V50.5H35.5365ZM36.1365 58.8H37.0935V57.6H36.1365V58.8ZM37.6935 58.2V55.054H36.4935V58.2H37.6935ZM36.5918 55.383C37.1421 56.2223 38.0343 56.743 39.1725 56.743V55.543C38.4408 55.543 37.9249 55.2277 37.5953 54.725L36.5918 55.383ZM39.1725 56.743C41.0495 56.743 42.5555 55.1925 42.5555 53.25H41.3555C41.3555 54.5635 40.3536 55.543 39.1725 55.543V56.743ZM42.5555 53.25C42.5555 51.3075 41.0495 49.757 39.1725 49.757V50.957C40.3536 50.957 41.3555 51.9365 41.3555 53.25H42.5555ZM39.0515 54.619C38.2741 54.619 37.6935 54.0428 37.6935 53.25H36.4935C36.4935 54.7012 37.607 55.819 39.0515 55.819V54.619ZM37.6935 53.25C37.6935 52.4572 38.2741 51.881 39.0515 51.881V50.681C37.607 50.681 36.4935 51.7988 36.4935 53.25H37.6935ZM39.0515 51.881C39.8157 51.881 40.3985 52.4549 40.3985 53.25H41.5985C41.5985 51.8011 40.4873 50.681 39.0515 50.681V51.881ZM40.3985 53.25C40.3985 54.0451 39.8157 54.619 39.0515 54.619V55.819C40.4873 55.819 41.5985 54.6989 41.5985 53.25H40.3985Z" fill="#8A8A8A"/>
</svg>
