<svg width="74" height="125" viewBox="0 0 74 125" fill="none" xmlns="http://www.w3.org/2000/svg">
<path d="M33.5356 49.3272L39.385 29.3442C46.8342 28.9496 53.6676 30.2152 54.9055 30.8825L48.3205 53.9444C45.1179 52.0414 36.6105 48.9694 33.5356 49.3272Z" fill="#06C270" stroke="#3D3D3D" stroke-width="0.4" stroke-linejoin="round"/>
<path d="M33.5317 49.3306L39.8169 27.8072C47.2661 27.4125 52.9121 28.6771 54.15 29.3444L47.565 52.4063C44.3625 50.5033 36.6066 48.9728 33.5317 49.3306Z" fill="#E0E0E0" stroke="#3D3D3D" stroke-width="0.4" stroke-linejoin="round"/>
<path d="M33.5259 49.3295L40.3135 26.0644C47.7627 25.6698 52.1007 26.9057 53.3386 27.573L46.7536 50.6349C43.5511 48.7319 36.6007 48.9717 33.5259 49.3295Z" fill="#E0E0E0" stroke="#3D3D3D" stroke-width="0.4" stroke-linejoin="round"/>
<path d="M38.9478 33.5439L41.416 26.0352H45.252L42.8587 33.3007L41.8025 30.6444L38.9478 33.5439Z" fill="#06C270" stroke="#3D3D3D" stroke-width="0.4" stroke-linejoin="round"/>
<path d="M33.5186 49.3474L37.3828 27.8569C34.4587 25.2345 28.7058 22.7973 26.1724 21.8594C23.3644 29.3552 20.2836 40.3959 19.0942 44.9793C23.9445 46.4645 31.7105 47.955 33.5186 49.3474Z" fill="#06C270" stroke="#3D3D3D" stroke-width="0.4" stroke-linejoin="round"/>
<path d="M33.5038 49.3038L38.6846 26.896C35.7605 24.2735 30.0075 21.8363 27.4741 20.8984C24.6661 28.3943 21.5854 39.435 20.396 44.0183C25.2462 45.5036 31.6956 47.9113 33.5038 49.3038Z" fill="#E0E0E0" stroke="#3D3D3D" stroke-width="0.4" stroke-linejoin="round"/>
<path d="M33.5205 49.312L40.3096 26.0542C37.3855 23.4317 31.6325 20.9945 29.0991 20.0566C26.2911 27.5525 23.2104 38.5932 22.021 43.1765C26.8712 44.6618 31.7124 47.9196 33.5205 49.312Z" fill="#E0E0E0" stroke="#3D3D3D" stroke-width="0.4" stroke-linejoin="round"/>
<path d="M37.3069 41.2632C37.1986 41.2852 37.1287 41.3908 37.1507 41.4991C37.1727 41.6073 37.2782 41.6772 37.3865 41.6552L37.3069 41.2632ZM47.5487 42.9352C47.6449 42.9895 47.7669 42.9555 47.8212 42.8593C47.8754 42.763 47.8414 42.6411 47.7452 42.5868L47.5487 42.9352ZM37.3865 41.6552C39.7808 41.169 43.9405 40.9002 47.5487 42.9352L47.7452 42.5868C44.0155 40.4832 39.742 40.7687 37.3069 41.2632L37.3865 41.6552Z" fill="#3D3D3D"/>
<path d="M36.6106 42.9578C36.5023 42.9798 36.4324 43.0854 36.4544 43.1936C36.4764 43.3019 36.582 43.3718 36.6902 43.3498L36.6106 42.9578ZM46.861 44.6344C46.9597 44.6839 47.0799 44.644 47.1295 44.5453C47.179 44.4465 47.1391 44.3264 47.0404 44.2768L46.861 44.6344ZM36.6902 43.3498C39.0741 42.8657 43.3065 42.8515 46.861 44.6344L47.0404 44.2768C43.3849 42.4433 39.0561 42.4612 36.6106 42.9578L36.6902 43.3498Z" fill="#3D3D3D"/>
<path d="M36.0305 44.6526C35.9223 44.6746 35.8523 44.7801 35.8743 44.8884C35.8963 44.9966 36.0019 45.0666 36.1101 45.0446L36.0305 44.6526ZM46.2722 46.3245C46.3684 46.3788 46.4904 46.3449 46.5447 46.2488C46.5991 46.1526 46.5652 46.0306 46.469 45.9762L46.2722 46.3245ZM36.1101 45.0446C37.297 44.8035 39.0541 44.6782 40.9108 44.8377C42.7685 44.9974 44.7088 45.4408 46.2722 46.3245L46.469 45.9762C44.8377 45.0543 42.8352 44.6016 40.9451 44.4392C39.054 44.2767 37.2583 44.4032 36.0305 44.6526L36.1101 45.0446Z" fill="#3D3D3D"/>
<rect x="0.25" y="0.25" width="73.5" height="73.5" stroke="#161616" stroke-width="0.5"/>
<path d="M13.029 91.424V90.5H11.566V88.96L10.609 89.246V90.5H9.52004V91.424H10.609V94.405C10.609 95.78 11.379 96.22 13.029 96V95.142C12.05 95.186 11.566 95.241 11.566 94.405V91.424H13.029ZM18.1893 90.5V93.415C18.1893 94.713 17.4743 95.23 16.5943 95.23C15.7473 95.23 15.2303 94.724 15.2303 93.822V90.5H14.2733V93.877C14.2733 95.285 15.1203 96.143 16.4073 96.143C17.1773 96.143 17.7823 95.857 18.1893 95.208V96H19.1463V90.5H18.1893ZM23.7952 91.424V90.5H22.3322V88.96L21.3752 89.246V90.5H20.2862V91.424H21.3752V94.405C21.3752 95.78 22.1452 96.22 23.7952 96V95.142C22.8162 95.186 22.3322 95.241 22.3322 94.405V91.424H23.7952ZM25.6122 89.499C25.9642 89.499 26.2502 89.213 26.2502 88.861C26.2502 88.509 25.9642 88.212 25.6122 88.212C25.2492 88.212 24.9632 88.509 24.9632 88.861C24.9632 89.213 25.2492 89.499 25.6122 89.499ZM25.1282 96H26.0852V90.5H25.1282V96ZM30.3302 96.143C31.9362 96.143 33.2342 94.878 33.2342 93.25C33.2342 91.622 31.9362 90.357 30.3302 90.357C28.7242 90.357 27.4372 91.622 27.4372 93.25C27.4372 94.878 28.7242 96.143 30.3302 96.143ZM30.3302 95.208C29.2412 95.208 28.3942 94.361 28.3942 93.25C28.3942 92.139 29.2412 91.292 30.3302 91.292C31.4302 91.292 32.2772 92.139 32.2772 93.25C32.2772 94.361 31.4302 95.208 30.3302 95.208ZM37.3014 90.357C36.5314 90.357 35.9264 90.643 35.5194 91.292V90.5H34.5624V96H35.5194V93.085C35.5194 91.787 36.2344 91.27 37.1144 91.27C37.9614 91.27 38.4784 91.776 38.4784 92.678V96H39.4354V92.623C39.4354 91.215 38.5884 90.357 37.3014 90.357ZM46.7484 89.081V88.157C45.1754 88.047 44.3394 88.872 44.3394 90.335V90.5H43.4594V91.424H44.3394V96H45.2964V91.424H46.7484V90.5H45.2964V90.335C45.2964 89.378 45.7914 89.004 46.7484 89.081ZM48.0473 93.69H52.6563C52.6783 93.547 52.6893 93.404 52.6893 93.261C52.6893 91.721 51.6113 90.357 49.9503 90.357C48.2343 90.357 47.0683 91.622 47.0683 93.25C47.0683 94.9 48.2453 96.143 50.0163 96.143C51.1163 96.143 51.9523 95.648 52.4363 94.9L51.6223 94.438C51.3473 94.889 50.7973 95.241 50.0383 95.241C49.0153 95.241 48.2343 94.68 48.0473 93.69ZM49.9503 91.259C50.7753 91.259 51.5563 91.765 51.7213 92.854H48.0473C48.2013 91.897 48.9163 91.259 49.9503 91.259ZM54.6496 93.69H59.2586C59.2806 93.547 59.2916 93.404 59.2916 93.261C59.2916 91.721 58.2136 90.357 56.5526 90.357C54.8366 90.357 53.6706 91.622 53.6706 93.25C53.6706 94.9 54.8476 96.143 56.6186 96.143C57.7186 96.143 58.5546 95.648 59.0386 94.9L58.2246 94.438C57.9496 94.889 57.3996 95.241 56.6406 95.241C55.6176 95.241 54.8366 94.68 54.6496 93.69ZM56.5526 91.259C57.3776 91.259 58.1586 91.765 58.3236 92.854H54.6496C54.8036 91.897 55.5186 91.259 56.5526 91.259ZM61.2019 91.985C61.2019 91.49 61.6859 91.248 62.1809 91.248C62.6649 91.248 63.1489 91.457 63.3579 91.952L64.1609 91.501C63.8089 90.786 63.0829 90.357 62.1809 90.357C61.0699 90.357 60.2339 91.028 60.2339 91.996C60.2339 93.987 63.3139 93.316 63.3139 94.493C63.3139 95.032 62.8079 95.241 62.2249 95.241C61.5429 95.241 61.0369 94.911 60.8609 94.383L60.0359 94.856C60.3549 95.615 61.1249 96.143 62.2249 96.143C63.4019 96.143 64.2819 95.516 64.2819 94.493C64.2819 92.469 61.2019 93.162 61.2019 91.985Z" fill="#D2D2D2"/>
<path d="M9.42609 121H10.7561L12.2461 115.89L13.7261 121H15.0561L17.0361 114H15.8261L14.3561 119.47L12.7761 114H11.7161L10.1261 119.47L8.65609 114H7.44609L9.42609 121ZM19.9363 114V121H21.0863V114H19.9363ZM28.6852 114V118.75L25.3852 114H24.4852V121H25.6352V116.25L28.9352 121H29.8352V114H28.6852ZM39.4832 121L37.6832 117.86V117.12H38.2832C38.5232 117.12 38.7332 117.087 38.9132 117.02C39.0999 116.947 39.2532 116.843 39.3732 116.71C39.4999 116.577 39.5865 116.417 39.6332 116.23H37.6832V115.49H39.6232C39.5832 115.317 39.5132 115.163 39.4132 115.03C39.3199 114.897 39.1932 114.793 39.0332 114.72C38.8799 114.64 38.6932 114.6 38.4732 114.6H37.6832V113.86H42.1932V114.6H40.6232C40.7365 114.727 40.8299 114.863 40.9032 115.01C40.9832 115.157 41.0365 115.317 41.0632 115.49H42.1932V116.23H41.0832C41.0165 116.723 40.8265 117.11 40.5132 117.39C40.1999 117.663 39.7965 117.85 39.3032 117.95L41.2632 121H39.4832ZM48.0959 116.86L49.5159 114.98V114H45.2159V115.08H48.1459L46.6359 117.07L47.0959 117.76H47.3559C48.1459 117.76 48.6559 118.18 48.6559 118.88C48.6559 119.58 48.1459 120.01 47.3559 120.01C46.6559 120.01 46.1859 119.7 45.9859 119.11L45.0059 119.68C45.3959 120.66 46.3259 121.13 47.3559 121.13C48.6459 121.13 49.8059 120.35 49.8059 118.88C49.8059 117.79 49.0559 117.09 48.0959 116.86ZM55.3063 121.13C57.0663 121.13 58.0563 119.66 58.0563 117.5C58.0563 115.34 57.0663 113.87 55.3063 113.87C53.5463 113.87 52.5563 115.34 52.5563 117.5C52.5563 119.66 53.5463 121.13 55.3063 121.13ZM55.3063 120.01C54.2763 120.01 53.7063 119.11 53.7063 117.5C53.7063 115.89 54.2763 114.99 55.3063 114.99C56.3463 114.99 56.9063 115.89 56.9063 117.5C56.9063 119.11 56.3463 120.01 55.3063 120.01ZM63.6051 121.13C65.3651 121.13 66.3551 119.66 66.3551 117.5C66.3551 115.34 65.3651 113.87 63.6051 113.87C61.8451 113.87 60.8551 115.34 60.8551 117.5C60.8551 119.66 61.8451 121.13 63.6051 121.13ZM63.6051 120.01C62.5751 120.01 62.0051 119.11 62.0051 117.5C62.0051 115.89 62.5751 114.99 63.6051 114.99C64.6451 114.99 65.2051 115.89 65.2051 117.5C65.2051 119.11 64.6451 120.01 63.6051 120.01Z" fill="#3BFFAD"/>
</svg>
